<svg id="Isolation_Mode" data-name="Isolation Mode" xmlns="http://www.w3.org/2000/svg" viewBox="0 0 341.33 375.59">
  <defs>
    <style>
      .cls-1, .cls-3 {
        fill: none;
      }

      .cls-2 {
        fill: #ecc559;
      }

      .cls-3 {
        stroke: #f9eccf;
        stroke-linecap: round;
        stroke-linejoin: round;
        stroke-width: 0;
      }

      .cls-4 {
        fill: #e46940;
      }

      .cls-5 {
        fill: #653a17;
      }

      .cls-6 {
        fill: #f9eccf;
      }

      .cls-7 {
        fill: #663b17;
      }
    </style>
  </defs>
  <title>giving-back</title>
  <g>
    <rect class="cls-1" x="82.45" y="331.36" width="7.63" height="19.84"/>
    <rect class="cls-1" x="82.45" y="314.44" width="7.63" height="2.92"/>
    <path class="cls-1" d="M335.31,377.05h13.45v-2.92h-3.53A18.41,18.41,0,0,0,335.31,377.05Z" transform="translate(-280.31 -59.69)"/>
    <rect class="cls-1" x="104.08" y="314.44" width="7.63" height="2.92"/>
    <path class="cls-1" d="M326.9,391.05a18.91,18.91,0,0,0,.27,4.92c1.63,8.65,9.52,14.92,18.76,14.92h2.83V391.05H326.9Z" transform="translate(-280.31 -59.69)"/>
    <path class="cls-1" d="M429.85,402.23a9.81,9.81,0,0,0-2.41-7.82,9.94,9.94,0,0,0-7.43-3.36H406v19.84h13.5A10.18,10.18,0,0,0,429.85,402.23Z" transform="translate(-280.31 -59.69)"/>
    <path class="cls-1" d="M326.24,118.21c.21-.22.43-.43.65-.65l-.87-.33C326.11,117.56,326.18,117.89,326.24,118.21Z" transform="translate(-280.31 -59.69)"/>
    <rect class="cls-1" x="104.08" y="331.36" width="7.63" height="19.84"/>
    <g>
      <path class="cls-2" d="M386.16,147.69a17.26,17.26,0,0,1,3.28,10l.7-.33c.42-.22,1-.46,1.55-.69.73-.32,1.46-.61,2.18-.87s1.5-.52,2.27-.75,1.25-.39,1.91-.56l.18,0c.35-.09.68-.18,1-.25L400,154c.38-.1.79-.18,1.21-.25.65-.14,1.31-.25,2-.35.91-.15,1.63-.24,2.33-.29a2.84,2.84,0,0,1,.51,0c.49-.06,1-.1,1.47-.12l.9-.05q1.11-.06,2.22-.06a48.41,48.41,0,0,1,25.16,7l.82-1.13a105.84,105.84,0,0,1,6.68-8.24A60.52,60.52,0,0,0,394.58,143l-.69.18a2,2,0,0,1-2.47-1.36h0a2,2,0,0,1,1.37-2.47A64.57,64.57,0,0,1,446,147.52c.81-.82,1.62-1.64,2.45-2.43a67.45,67.45,0,0,0-37.89-11.54c-.87,0-1.74,0-2.59.06s-1.53.06-2.27.12c-.28,0-.52,0-.77.07h-.15c-.66,0-1.32.12-2,.19s-1.38.15-2,.27c-1.87.25-3.72.59-5.58,1l-.21,0-2,.48c-.77.21-1.72.48-2.67.79-.55.16-1.05.33-1.56.5l-.39.13c-.44.14-.83.28-1.21.43l-.1,0c-.49.17-1,.36-1.43.55s-1.17.46-1.73.7l-1.8.81a13,13,0,0,0-1.28.61l-.13.06c-.4.18-.77.38-1.17.6l-.33.14-.06.05-.24.14A17.66,17.66,0,0,1,386.16,147.69Z" transform="translate(-280.31 -59.69)"/>
      <path class="cls-2" d="M375.63,194.21c-5.31,0-9.64,3.24-9.64,7.22h0c0,4,4.33,7.22,9.64,7.22s9.66-3.23,9.66-7.22h0a5.11,5.11,0,0,0-.25-1.58C384.05,196.58,380.1,194.21,375.63,194.21Z" transform="translate(-280.31 -59.69)"/>
      <path class="cls-2" d="M317.94,176.83c-.85-2.09-3.57-4.52-7.72-5.62-5.36-1.44-9.84.2-10.66,2.59l0,.07,0,.11c-.74,2.8,3,6.41,7.91,7.72,5.49,1.47,10.06-.28,10.72-2.76a1.91,1.91,0,0,0,.06-.37l0-.15a2.91,2.91,0,0,0-.05-.85A4.48,4.48,0,0,0,317.94,176.83Z" transform="translate(-280.31 -59.69)"/>
      <path class="cls-2" d="M431.69,166a41.33,41.33,0,0,0-57,14.82,2,2,0,0,0,3.46,2,37.35,37.35,0,0,1,51.58-13.36C430.33,168.3,431,167.14,431.69,166Z" transform="translate(-280.31 -59.69)"/>
      <path class="cls-2" d="M519.28,120.57a98.37,98.37,0,1,0,98.36,98.36A98.48,98.48,0,0,0,519.28,120.57Zm57.09,135.21c-.73,1.13-1.5,2.26-2.3,3.35,9.15,11.32,6.62,24.88,6.49,25.55L580.3,286l-1.3.27a49.58,49.58,0,0,1-9.76,1,40.11,40.11,0,0,1-15.31-2.88c.05.4.1.8.14,1.21a58.26,58.26,0,0,1-.13,13.59l-.26,1.7H552c-13.07,0-21.27-6.66-26.38-14.26-2.08.19-4.18.3-6.31.3s-4-.1-6-.28c-5.11,7.59-13.31,14.24-26.36,14.24h-1.71l-.26-1.7a58.26,58.26,0,0,1-.13-13.59c0-.41.09-.81.14-1.21a40.11,40.11,0,0,1-15.31,2.88,49.58,49.58,0,0,1-9.76-1l-1.3-.27-.26-1.31c-.13-.67-2.62-14.05,6.31-25.33-1-1.38-2-2.82-2.92-4.28-13.87-12.36-24.49-33.44-24.49-69.43v-2h2A134.77,134.77,0,0,1,460.42,185a67.92,67.92,0,0,1,117.74,0,133.84,133.84,0,0,1,21.5-1.37h2v2C601.66,222.32,590.64,243.52,576.37,255.78Z" transform="translate(-280.31 -59.69)"/>
      <path class="cls-2" d="M517.45,220.86c0-2.86-.24-20.32-5.74-32a31.07,31.07,0,0,0-16.6,10.67c9.53,7.82,17.72,19.47,22.34,36.84Z" transform="translate(-280.31 -59.69)"/>
      <path class="cls-2" d="M515.59,282.81c1.22.07,2.45.11,3.69.11s2.68-.05,4-.13a53.07,53.07,0,0,1-3.84-9.29A53.87,53.87,0,0,1,515.59,282.81Z" transform="translate(-280.31 -59.69)"/>
      <path class="cls-2" d="M519.28,154.94a64,64,0,0,0-54.67,30.76,70.73,70.73,0,0,1,27.33,11.42,35.15,35.15,0,0,1,17.75-11.84c-2.46-3.71-5.7-6.36-10-6.92a8.49,8.49,0,1,1,0-4c6.39.62,10.9,4.6,14.08,10a34.7,34.7,0,0,1,5.43-.42,36.12,36.12,0,0,1,5.73.47c3.18-5.45,7.7-9.45,14.11-10.07a8.49,8.49,0,1,1,0,4c-4.3.56-7.56,3.25-10,7a35.15,35.15,0,0,1,17.59,11.92A70.38,70.38,0,0,1,574,185.76,64,64,0,0,0,519.28,154.94Z" transform="translate(-280.31 -59.69)"/>
      <path class="cls-2" d="M523.1,188.18a32.11,32.11,0,0,0-3.82-.24,31.22,31.22,0,0,0-3.51.2,60.53,60.53,0,0,1,3.68,12.08A60.09,60.09,0,0,1,523.1,188.18Z" transform="translate(-280.31 -59.69)"/>
      <path class="cls-2" d="M527.15,189c-5.47,11.67-5.7,29.05-5.7,31.91v15.53c4.58-17.25,12.68-28.85,22.12-36.67A31.05,31.05,0,0,0,527.15,189Z" transform="translate(-280.31 -59.69)"/>
    </g>
    <line class="cls-3" x1="312.34" y1="168.41" x2="312.34" y2="168.41"/>
    <line class="cls-3" x1="278.64" y1="147.17" x2="278.64" y2="147.17"/>
    <line class="cls-3" x1="165.93" y1="168.41" x2="165.93" y2="168.41"/>
    <line class="cls-3" x1="199.62" y1="147.17" x2="199.62" y2="147.17"/>
    <g>
      <path class="cls-4" d="M473.79,79a136.31,136.31,0,0,0-63.22-15.31A137.93,137.93,0,0,0,312,105.21a16.2,16.2,0,0,1,8.87,4,16.65,16.65,0,0,1,4.66,6.43,14.49,14.49,0,0,1,.52,1.62l.87.33.67-.66a118.52,118.52,0,0,1,168.37,2.36,102,102,0,0,1,14-2.26,130.89,130.89,0,0,0-76.79-44.07A2,2,0,0,1,433.8,69a134.87,134.87,0,0,1,79.28,45.58c.59.69,1.17,1.4,1.74,2.1,1.42-.06,2.85-.1,4.28-.1A138.94,138.94,0,0,0,473.79,79Zm-77-7.33a129.93,129.93,0,0,0-66.62,27A2,2,0,0,1,329,99a2,2,0,0,1-1.24-3.57A133.93,133.93,0,0,1,396.43,67.7a2,2,0,0,1,.41,4Zm22-.44h-.13c-2.72-.17-5.48-.25-8.21-.25a2,2,0,0,1,0-4c2.82,0,5.66.09,8.46.26a2,2,0,0,1-.12,4Z" transform="translate(-280.31 -59.69)"/>
      <path class="cls-4" d="M408.52,156.91h-.11c-.25,0-.5,0-.74,0-.47,0-.88.06-1.28.11h-.26l-.16,0-.12,0c-.61,0-1.24.13-2.06.26-.62.1-1.22.19-1.81.32l-.12,0c-.31,0-.64.12-1,.2l-.18,0c-.19,0-.37.08-.56.12-.36.08-.62.15-.9.23l-.2,0c-.59.15-1.15.32-1.73.51-.74.22-1.42.44-2.08.69s-1.37.52-2,.8-1,.41-1.37.61c-.86.39-1.69.81-2.69,1.36-.55.3-1.08.6-1.61.92l-.38.24-.24.15c-.2.16-.4.33-.61.48a5.9,5.9,0,0,1-.93.52,44.57,44.57,0,0,0-18.56,28.25,15.41,15.41,0,0,1,8.8-2.67,14.91,14.91,0,0,1,10.67,4.2,25.2,25.2,0,0,1,18.46-17.58,19.78,19.78,0,0,1,2.34-.46,25.85,25.85,0,0,1,3.47-.24,25.31,25.31,0,0,1,13.91,4.19,101.23,101.23,0,0,1,5.21-10.86,37.35,37.35,0,0,0-51.58,13.36,2,2,0,0,1-3.46-2,41.33,41.33,0,0,1,57-14.82c.58-.95,1.18-1.89,1.78-2.83a44.39,44.39,0,0,0-22.9-6.32C409.89,156.85,409.21,156.87,408.52,156.91Z" transform="translate(-280.31 -59.69)"/>
      <polygon class="cls-4" points="105.57 102.47 105.46 102.3 105.46 102.3 105.04 101.87 105.44 102.32 105.57 102.47"/>
      <path class="cls-4" d="M374.84,144.43h-.07a3,3,0,0,0-.61.06,2.69,2.69,0,0,0-1,.41,3.27,3.27,0,0,0-1.26,2.21c-.47,2.42.47,5.74,2.46,8.65,2.95,4.32,7,6.11,9.16,5.32l.08,0a2,2,0,0,0,.44-.23,4.39,4.39,0,0,0,.36-.28c1.64-1.62,1.52-6.13-1.53-10.61C380.32,146.21,377.06,144.43,374.84,144.43Z" transform="translate(-280.31 -59.69)"/>
      <path class="cls-4" d="M369.27,142.59c1-.71,2.29-1.55,3.37-2.23.83-.51,1.52-.93,1.81-1.09l.17-.1c.34-.19.69-.4,1-.57s1-.55,1.43-.77a4.16,4.16,0,0,1,.69-.36c.31-.17.62-.32.92-.47l.32-.16a15.83,15.83,0,0,1,1.5-.71c1.11-.53,2.38-1.07,3.69-1.58.49-.2,1-.4,1.54-.59s1-.37,1.46-.52l.33-.11,1.63-.53c1-.32,2-.61,2.86-.84l2-.49.22-.06c2-.47,4-.84,5.91-1.1.69-.12,1.48-.21,2.18-.28s1.4-.16,2.11-.21c.32,0,.62-.06.94-.08.79-.06,1.61-.1,2.42-.13s1.8-.06,2.73-.06a71.36,71.36,0,0,1,40.9,12.77c.78-.69,1.56-1.36,2.35-2q3.56-3,7.39-5.62a83,83,0,0,0-50.74-17.13,84.09,84.09,0,0,0-39.07,9.65,2,2,0,1,1-1.86-3.53,88,88,0,0,1,40.93-10.12,87,87,0,0,1,54.28,18.79c1-.64,2-1.27,3.08-1.87a91.25,91.25,0,0,0-57.26-20.2c-1.11,0-2.21,0-3.31.06-.56,0-1.11,0-1.67.08-1,0-2.21.14-3.19.23h0c-.28,0-.56,0-.84.07-.9.08-1.72.18-2.54.28s-1.52.19-2.26.31l-.78.13-.86.13c-2.27.38-4.62.88-7.15,1.52l-.22.06a88.44,88.44,0,0,0-9.86,3.15l-1.49.59c-1.28.51-2.41,1-3.44,1.48-.63.27-1.18.54-1.74.81-.75.33-1.44.69-2,1s-1.26.64-1.86,1-1.48.81-2.21,1.23h0c-.77.43-1.57.91-2.52,1.51-.79.49-1.56,1-2.32,1.49s-1.22.81-1.84,1.26c-.84.56-1.64,1.14-2.52,1.81l-.07.05c-.32.23-.61.45-.89.68l-.56.43-.28.23-.43.33c-.6.49-1.19,1-1.77,1.47l-.4.32a12.35,12.35,0,0,0-1,.89l-.07.05h0c-.73.63-1.46,1.29-2.18,2l0,0-.18.16c-.94.86-1.83,1.75-2.58,2.52l-.75.78-.7.74-.92,1-.18.18h0l-.06.11-.16.16h0l-.37.41v0l-.22.34-.22.17-.35.39-1.05,1.22L339,145a17.38,17.38,0,0,1,9.3,3.16,16.92,16.92,0,0,1,6.51,7.94A71,71,0,0,1,369.3,142.6Z" transform="translate(-280.31 -59.69)"/>
      <path class="cls-4" d="M483.49,123c1.4-.53,2.82-1,4.25-1.48a111.4,111.4,0,0,0-173.59,24.33,2,2,0,1,0,3.46,2A107.14,107.14,0,0,1,483.49,123Z" transform="translate(-280.31 -59.69)"/>
      <path class="cls-4" d="M375.64,230.84a9.65,9.65,0,1,0,9.65,9.64A9.65,9.65,0,0,0,375.64,230.84Z" transform="translate(-280.31 -59.69)"/>
      <path class="cls-4" d="M570,260.54a69.56,69.56,0,0,1-20.49,8.88,42.08,42.08,0,0,1,3.58,10.15c2.38,1.28,11,5.22,23.72,3C577.22,279,577.51,268.88,570,260.54Z" transform="translate(-280.31 -59.69)"/>
      <path class="cls-4" d="M523.29,272.55a48.82,48.82,0,0,0,3.43,8.34c5.33,10,13.22,15.39,23.46,15.94.38-4.46.78-16.59-4.68-26.47A114.27,114.27,0,0,1,523.29,272.55Z" transform="translate(-280.31 -59.69)"/>
      <path class="cls-4" d="M547.38,180.74a4.49,4.49,0,1,0-4.49-4.49A4.5,4.5,0,0,0,547.38,180.74Z" transform="translate(-280.31 -59.69)"/>
      <path class="cls-4" d="M463.55,251.33a55.37,55.37,0,0,0,7.08,5.56c15,9.87,32.63,11.53,46.8,11.67a147.66,147.66,0,0,0-1.15-17.23Z" transform="translate(-280.31 -59.69)"/>
      <path class="cls-4" d="M499.79,239.38a44.46,44.46,0,0,0,15.78,7.25c-3.71-21.8-12.92-37.67-27.52-47.32a60,60,0,0,0-6.77-3.83C481.12,215.5,487.33,230.27,499.79,239.38Z" transform="translate(-280.31 -59.69)"/>
      <path class="cls-4" d="M483.59,226.1a59.46,59.46,0,0,1-5.35-17.23H443a96,96,0,0,0,4.39,17.23h36.21Z" transform="translate(-280.31 -59.69)"/>
      <path class="cls-4" d="M477.72,204.87c-.24-2.33-.38-4.62-.43-6.84,0-1.47,0-2.92,0-4.32-12.21-4.94-25.16-6-36.05-6.07a145.51,145.51,0,0,0,1.15,17.23h35.32Z" transform="translate(-280.31 -59.69)"/>
      <path class="cls-4" d="M505.45,247.33a47.09,47.09,0,0,1-8-4.72,44.6,44.6,0,0,1-11.61-12.51H448.94a63.19,63.19,0,0,0,10.57,17.08l-.06.15Z" transform="translate(-280.31 -59.69)"/>
      <path class="cls-4" d="M355.76,353.74a3,3,0,0,0-3,3v71.54a3,3,0,0,0,6,0V356.74A3,3,0,0,0,355.76,353.74Z" transform="translate(-280.31 -59.69)"/>
      <path class="cls-4" d="M377.39,353.74a3,3,0,0,0-3,3v71.54a3,3,0,0,0,6,0V356.74A3,3,0,0,0,377.39,353.74Z" transform="translate(-280.31 -59.69)"/>
      <path class="cls-4" d="M399,353.74a3,3,0,0,0-3,3v71.54a3,3,0,0,0,6,0V356.74A3,3,0,0,0,399,353.74Z" transform="translate(-280.31 -59.69)"/>
    </g>
    <path class="cls-5" d="M524.29,329.2h-2.78v9.5a9.58,9.58,0,0,1-9.57,9.57H489.52a1.78,1.78,0,1,0,0,3.56h39.93a9.57,9.57,0,0,1,0,19.13H472.22v-4h57.23a5.57,5.57,0,0,0,0-11.13H489.52a5.78,5.78,0,1,1,0-11.56h22.42a5.58,5.58,0,0,0,5.57-5.57v-9.5h-5.22v9.5a1.56,1.56,0,0,1-1.56,1.57H489.52a9.78,9.78,0,1,0,0,19.56h39.93a1.57,1.57,0,0,1,0,3.13H468.37v12h61.08a13.57,13.57,0,0,0,0-27.13h-8.7a13.58,13.58,0,0,0,3.54-9.13v-9.5Z" transform="translate(-280.31 -59.69)"/>
    <g>
      <path class="cls-6" d="M363.18,118.89c.72-.43,1.47-.84,2.23-1.25s1.28-.68,1.95-1,1.38-.73,2.18-1.08c.55-.27,1.15-.56,1.78-.83,1.05-.49,2.24-1,3.59-1.54l1.54-.61a92.85,92.85,0,0,1,10.1-3.24l0,0,.32-.07c2.67-.68,5.15-1.21,7.6-1.62l.82-.13.84-.13c.76-.12,1.56-.23,2.36-.33s1.73-.21,2.61-.29l1-.08v0c1.07-.1,2.13-.16,3.22-.22.58,0,1.18-.06,1.78-.08,1.14,0,2.29-.07,3.45-.07a94.48,94.48,0,0,1,24.54,3.21,95.44,95.44,0,0,1,36.48,18.9,100.23,100.23,0,0,1,11.9-5.35,107.43,107.43,0,0,0-165.88,24.86,2,2,0,1,1-3.46-2,111.15,111.15,0,0,1,173.59-24.33c1.23-.4,2.47-.79,3.72-1.14A114.52,114.52,0,0,0,331,119.11l-.68.65c-2,1.91-3.89,4-5.91,6.27a114.78,114.78,0,0,0-23.21,41.44,18.47,18.47,0,0,1,18.67,5c.2-.64.4-1.26.62-1.92l0-.07a5.31,5.31,0,0,1,.2-.56A92.28,92.28,0,0,1,329,152.42a4.26,4.26,0,0,1,.32-.5c.84-1.43,1.74-2.82,2.66-4.13a18.09,18.09,0,0,1,1.07-1.54c.43-.64.88-1.25,1.35-1.84.31-.46.64-.87,1-1.27q.9-1.21,2.07-2.58c.3-.38.67-.82,1.11-1.3l.46-.54.49-.53a3,3,0,0,1,.23-.27,3.72,3.72,0,0,1,.49-.54l.07-.07c.27-.31.56-.63.88-1l.72-.77.76-.78.76-.78.91-.89.83-.78.13-.13a2.83,2.83,0,0,1,.25-.24h0l0,0,.05,0c.21-.21.45-.42.68-.63l.36-.33c.38-.35.78-.7,1.2-1.07s.76-.69,1.14-1l0,0,.41-.35.92-.76.77-.63,0,0,0,0,0,0h0l.13-.1h0l.18-.15,0,0,.21-.17.68-.54.63-.48.42-.31c.94-.72,1.84-1.37,2.71-2,.61-.44,1.25-.87,1.91-1.31s1.59-1,2.4-1.54c1-.64,1.88-1.15,2.71-1.61Z" transform="translate(-280.31 -59.69)"/>
      <path class="cls-6" d="M346.05,151.43a13.48,13.48,0,0,0-7.22-2.48,5.23,5.23,0,0,0-3.16.89,1.54,1.54,0,0,0-.36.31l0,0-.19.23a.34.34,0,0,0-.08.09,2.94,2.94,0,0,0-.38.75c-.81,2.3.92,6.39,5.19,9.31a13.44,13.44,0,0,0,7,2.47c1.09,0,3.12-.14,4.11-1.6l.06-.11.05-.11,0-.09C352.25,158.91,350.68,154.58,346.05,151.43Z" transform="translate(-280.31 -59.69)"/>
      <path class="cls-6" d="M309.9,121.84c4,3.42,9.2,4.11,11.46,1.51,1.25-1.47,1.41-3.81.42-6.27a11.29,11.29,0,0,0-.93-1.79,13.09,13.09,0,0,0-2.63-3.08,11.9,11.9,0,0,0-7.44-3.08,5.49,5.49,0,0,0-3.45,1.08l-.11.07a3.78,3.78,0,0,0-.49.49C304.51,113.32,306,118.41,309.9,121.84Z" transform="translate(-280.31 -59.69)"/>
      <path class="cls-6" d="M461.21,134.68c1.16-.8,2.34-1.59,3.54-2.34a87,87,0,0,0-54.28-18.79,88,88,0,0,0-40.93,10.12,2,2,0,1,0,1.86,3.53,84.09,84.09,0,0,1,39.07-9.65A83,83,0,0,1,461.21,134.68Z" transform="translate(-280.31 -59.69)"/>
      <path class="cls-6" d="M305.32,220.8a9.65,9.65,0,1,0-9.65-9.64A9.65,9.65,0,0,0,305.32,220.8Z" transform="translate(-280.31 -59.69)"/>
      <path class="cls-6" d="M557.62,195.48a60.12,60.12,0,0,0-6.78,3.83C536.23,209,527,224.85,523.31,246.67,533.25,244.41,557.92,234.83,557.62,195.48Z" transform="translate(-280.31 -59.69)"/>
      <path class="cls-6" d="M575.34,251.33H522.61a147.66,147.66,0,0,0-1.15,17.23c14.17-.14,31.84-1.8,46.8-11.67A55.37,55.37,0,0,0,575.34,251.33Z" transform="translate(-280.31 -59.69)"/>
      <path class="cls-6" d="M573.2,230.1H553.07a44.6,44.6,0,0,1-11.61,12.51,47.09,47.09,0,0,1-8,4.72h46l-.06-.15A63.19,63.19,0,0,0,590,230.1Z" transform="translate(-280.31 -59.69)"/>
      <path class="cls-6" d="M571.75,226.1h19.76a96,96,0,0,0,4.39-17.23H560.65a59.46,59.46,0,0,1-5.35,17.23Z" transform="translate(-280.31 -59.69)"/>
      <path class="cls-6" d="M561.17,204.87h35.32a145.51,145.51,0,0,0,1.15-17.23c-10.89.11-23.84,1.13-36,6.07,0,1.4,0,2.85,0,4.32C561.55,200.25,561.41,202.54,561.17,204.87Z" transform="translate(-280.31 -59.69)"/>
      <path class="cls-6" d="M462.07,282.59c12.8,2.22,21.35-1.73,23.72-3a42.08,42.08,0,0,1,3.58-10.15,69.56,69.56,0,0,1-20.49-8.88C461.38,268.88,461.67,279,462.07,282.59Z" transform="translate(-280.31 -59.69)"/>
      <path class="cls-6" d="M515.58,272.55a114.8,114.8,0,0,1-22.19-2.19c-5.48,9.89-5.07,22-4.68,26.47C505.48,295.9,512.65,281.86,515.58,272.55Z" transform="translate(-280.31 -59.69)"/>
      <path class="cls-6" d="M487,176.25a4.49,4.49,0,1,0,4.49-4.49A4.5,4.5,0,0,0,487,176.25Z" transform="translate(-280.31 -59.69)"/>
      <path class="cls-6" d="M436.58,364.2v6a56.88,56.88,0,0,1,19.47,20.59V343.61A56.88,56.88,0,0,1,436.58,364.2Z" transform="translate(-280.31 -59.69)"/>
      <polygon class="cls-6" points="179.73 271.44 179.73 343.56 179.73 344.45 187.42 344.45 187.42 269.04 179.73 269.04 179.73 271.44"/>
      <rect class="cls-6" x="82.45" y="304.44" width="7.63" height="6"/>
      <polygon class="cls-6" points="56.07 321.36 48.53 321.36 37.63 321.36 15.93 321.36 15.93 327.36 35.53 327.36 44.9 327.36 56.07 327.36 56.07 327.36 68.45 327.36 68.45 321.36 56.07 321.36 56.07 321.36"/>
      <path class="cls-6" d="M321.45,377.05h7.62a22.43,22.43,0,0,1,16.16-6.92h3.53v-6h-3.53A28.22,28.22,0,0,0,321.45,377.05Z" transform="translate(-280.31 -59.69)"/>
      <rect class="cls-6" x="125.7" y="304.44" width="26.56" height="6"/>
      <rect class="cls-6" x="104.08" y="355.2" width="7.63" height="6"/>
      <path class="cls-6" d="M419.29,381.05H406v6h14a13.94,13.94,0,0,1,13.82,15.66,14.2,14.2,0,0,1-14.31,12.18H406v6h14a20,20,0,0,0,14.71-6.5,19.76,19.76,0,0,0,5.13-15.27C438.93,389,429.9,381.05,419.29,381.05Z" transform="translate(-280.31 -59.69)"/>
      <rect class="cls-6" x="104.08" y="304.44" width="7.63" height="6"/>
      <rect class="cls-6" x="82.45" y="355.2" width="7.63" height="6"/>
      <rect class="cls-6" x="82.45" y="321.36" width="7.63" height="6"/>
      <path class="cls-6" d="M323.24,396.71a22.42,22.42,0,0,1-.33-5.66h-6a29.18,29.18,0,0,0,0,3.24c.91,14.92,13.73,26.6,29.18,26.6h2.68v-6h-2.83C334.77,414.89,325.23,407.25,323.24,396.71Z" transform="translate(-280.31 -59.69)"/>
      <rect class="cls-6" x="104.08" y="321.36" width="7.63" height="6"/>
      <path class="cls-6" d="M489.52,348.27h22.42a9.58,9.58,0,0,0,9.57-9.57v-9.53a98.55,98.55,0,0,0,92.14-70.6A102.55,102.55,0,0,1,522,321.26a5.22,5.22,0,0,1,2,1.7,4,4,0,0,1,.29,4.49,6.48,6.48,0,0,0-2.51-2.27l-.3-.12a5.4,5.4,0,0,0-2-.39,5.06,5.06,0,0,0-2,.41l-.25.1a6.27,6.27,0,0,0-2.51,2.27A4.07,4.07,0,0,1,515,323a5.25,5.25,0,0,1,2-1.69,102.53,102.53,0,0,1-92.12-62.7,98.54,98.54,0,0,0,92.61,70.61v9.52a5.58,5.58,0,0,1-5.57,5.57H489.52a5.78,5.78,0,1,0,0,11.56h39.93a5.57,5.57,0,0,1,0,11.13H472.22v4h57.23a9.57,9.57,0,0,0,0-19.13H489.52a1.78,1.78,0,1,1,0-3.56Z" transform="translate(-280.31 -59.69)"/>
    </g>
    <g>
      <path class="cls-7" d="M329,99a2,2,0,0,0,1.23-.42,129.93,129.93,0,0,1,66.62-26.95,2,2,0,0,0-.41-4,133.93,133.93,0,0,0-68.68,27.77A2,2,0,0,0,329,99Z" transform="translate(-280.31 -59.69)"/>
      <path class="cls-7" d="M410.47,71c2.73,0,5.49.08,8.21.25h.13a2,2,0,0,0,.12-4c-2.8-.17-5.64-.26-8.46-.26a2,2,0,0,0,0,4Z" transform="translate(-280.31 -59.69)"/>
      <path class="cls-7" d="M621.64,218.93a102.49,102.49,0,0,0-97.42-102.24,142.89,142.89,0,0,0-48.59-41.24,140.25,140.25,0,0,0-65.06-15.76,141.94,141.94,0,0,0-106.06,47.65c-.24.22-.48.45-.77.76-3.8,4.38-2.24,11.74,3.54,16.77a16,16,0,0,0,9.63,4A118.46,118.46,0,0,0,295.55,173h.08l-.06.22v0c-1.1,5,3.59,10.41,10.83,12.33a19.42,19.42,0,0,0,5,.67c5.27,0,9.55-2.36,10.6-6.3a5,5,0,0,0,.13-.77c.11-.42.21-.83.32-1.24l.11-.35c.48-1.84,1.05-3.7,1.74-5.71l0-.12a2,2,0,0,1,.09-.26l.06-.16a88.59,88.59,0,0,1,6.75-14.87A18.47,18.47,0,0,0,346.69,167H347a8.35,8.35,0,0,0,7.24-3.42c.08-.14.19-.32.29-.52a67.11,67.11,0,0,1,13.25-14.38A17.85,17.85,0,0,0,371,158a17.46,17.46,0,0,0,7.87,6.57A48.56,48.56,0,0,0,362,201.43c0,6.19,6.12,11.22,13.64,11.22,7.11,0,12.95-4.47,13.6-10.17h0c.9-14.54,8.48-19.91,16.48-21.77a16.89,16.89,0,0,1,1.93-.37A21.07,21.07,0,0,1,423,184.16a101.76,101.76,0,0,0-6.09,34.77q0,3,.18,5.95-.18,3-.18,6A102.49,102.49,0,0,0,512.29,333V329.2h5.22v0a98.54,98.54,0,0,1-92.61-70.61A102.53,102.53,0,0,0,517,321.27a5.25,5.25,0,0,0-2,1.69,4.07,4.07,0,0,0-.29,4.49,6.27,6.27,0,0,1,2.51-2.27l.25-.1a5.06,5.06,0,0,1,2-.41,5.4,5.4,0,0,1,2,.39l.3.12a6.48,6.48,0,0,1,2.51,2.27A4,4,0,0,0,524,323a5.22,5.22,0,0,0-2-1.7,102.55,102.55,0,0,0,91.61-62.69,98.55,98.55,0,0,1-92.14,70.6v0h2.78v3.88a102.49,102.49,0,0,0,97.35-102.24q0-3-.18-6Q621.64,221.93,621.64,218.93ZM410.57,63.69A136.31,136.31,0,0,1,473.79,79a138.94,138.94,0,0,1,45.31,37.57c-1.43,0-2.86,0-4.28.1-.57-.7-1.15-1.41-1.74-2.1A134.87,134.87,0,0,0,433.8,69a2,2,0,0,0-.69,3.94A130.89,130.89,0,0,1,509.9,117a102,102,0,0,0-14,2.26,118.52,118.52,0,0,0-168.37-2.36l-.67.66c-.22.22-.44.43-.65.65-.06-.32-.13-.65-.22-1a14.49,14.49,0,0,0-.52-1.62,16.65,16.65,0,0,0-4.66-6.43,16.2,16.2,0,0,0-8.87-4A137.93,137.93,0,0,1,410.57,63.69ZM309.9,121.84c-3.95-3.43-5.39-8.52-3.17-11.07a3.78,3.78,0,0,1,.49-.49l.11-.07a5.49,5.49,0,0,1,3.45-1.08,11.9,11.9,0,0,1,7.44,3.08,13.09,13.09,0,0,1,2.63,3.08,11.29,11.29,0,0,1,.93,1.79c1,2.46.83,4.8-.42,6.27C319.1,126,313.85,125.26,309.9,121.84Zm8.32,56.58,0,.15a1.91,1.91,0,0,1-.06.37c-.66,2.48-5.23,4.23-10.72,2.76-4.95-1.31-8.65-4.92-7.91-7.72l0-.11,0-.07c.82-2.39,5.3-4,10.66-2.59,4.15,1.1,6.87,3.53,7.72,5.62a4.48,4.48,0,0,1,.23.74A2.91,2.91,0,0,1,318.22,178.42Zm10.76-26A92.28,92.28,0,0,0,320.75,170a5.31,5.31,0,0,0-.2.56l0,.07c-.22.66-.42,1.28-.62,1.92a18.47,18.47,0,0,0-18.67-5A114.78,114.78,0,0,1,324.44,126c2-2.31,3.95-4.36,5.91-6.27l.68-.65a114.52,114.52,0,0,1,160.43,1.3c-1.25.35-2.49.74-3.72,1.14-1.43.46-2.85,1-4.25,1.48a100.23,100.23,0,0,0-11.9,5.35,95.44,95.44,0,0,0-36.48-18.9,94.48,94.48,0,0,0-24.54-3.21c-1.16,0-2.31,0-3.45.07-.6,0-1.2,0-1.78.08-1.09.06-2.15.12-3.22.22v0l-1,.08c-.88.08-1.73.19-2.61.29s-1.6.21-2.36.33l-.84.13-.82.13c-2.45.41-4.93.94-7.6,1.62l-.32.07,0,0a92.85,92.85,0,0,0-10.1,3.24l-1.54.61c-1.35.54-2.54,1-3.59,1.54-.63.27-1.23.56-1.78.83-.8.35-1.58.75-2.18,1.08s-1.31.66-1.95,1-1.51.82-2.23,1.25h0c-.83.46-1.69,1-2.71,1.61-.81.51-1.61,1-2.4,1.54s-1.3.87-1.91,1.31c-.87.58-1.77,1.23-2.71,2l-.42.31-.63.48-.68.54-.21.17,0,0-.18.15h0l-.13.1h0l0,0,0,0,0,0-.77.63-.92.76-.41.35,0,0c-.38.3-.77.65-1.14,1s-.82.72-1.2,1.07l-.36.33c-.23.21-.47.42-.68.63l-.05,0,0,0h0a2.83,2.83,0,0,0-.25.24l-.13.13-.83.78-.91.89-.76.78-.76.78-.72.77c-.32.33-.61.65-.88,1l-.07.07a3.72,3.72,0,0,0-.49.54,3,3,0,0,0-.23.27l-.49.53-.46.54c-.44.48-.81.92-1.11,1.3q-1.17,1.37-2.07,2.58c-.32.4-.65.81-1,1.27-.47.59-.92,1.2-1.35,1.84a18.09,18.09,0,0,0-1.07,1.54c-.92,1.31-1.82,2.7-2.66,4.13A4.26,4.26,0,0,0,329,152.42Zm22.07,8.7,0,.09-.05.11-.06.11c-1,1.46-3,1.62-4.11,1.6a13.44,13.44,0,0,1-7-2.47c-4.27-2.92-6-7-5.19-9.31a2.94,2.94,0,0,1,.38-.75.34.34,0,0,1,.08-.09l.19-.23,0,0a1.54,1.54,0,0,1,.36-.31,5.23,5.23,0,0,1,3.16-.89,13.48,13.48,0,0,1,7.22,2.48C350.68,154.58,352.25,158.91,351.05,161.12Zm3.76-5.06a16.92,16.92,0,0,0-6.51-7.94A17.38,17.38,0,0,0,339,145l1.46-1.82,1.05-1.22.35-.39.22-.17.22-.34v0l.37-.41h0l.16-.16.06-.11h0l.18-.18.92-1,.7-.74.75-.78c.75-.77,1.64-1.66,2.58-2.52l.18-.16,0,0c.72-.67,1.45-1.33,2.18-2h0l.07-.05a12.35,12.35,0,0,1,1-.89l.4-.32c.58-.5,1.17-1,1.77-1.47l.43-.33.28-.23.56-.43c.28-.23.57-.45.89-.68l.07-.05c.88-.67,1.68-1.25,2.52-1.81.62-.45,1.21-.85,1.84-1.26s1.53-1,2.32-1.49c.95-.6,1.75-1.08,2.52-1.51h0c.73-.42,1.68-.94,2.21-1.23s1.2-.64,1.86-1,1.28-.67,2-1c.56-.27,1.11-.54,1.74-.81,1-.48,2.16-1,3.44-1.48l1.49-.59a88.44,88.44,0,0,1,9.86-3.15l.22-.06c2.53-.64,4.88-1.14,7.15-1.52l.86-.13.78-.13c.74-.12,1.51-.21,2.26-.31s1.64-.2,2.54-.28c.28,0,.56,0,.84-.07h0c1-.09,2.22-.18,3.19-.23.56,0,1.11-.06,1.67-.08,1.1,0,2.2-.06,3.31-.06a91.25,91.25,0,0,1,57.26,20.2c-1,.6-2.07,1.23-3.08,1.87-1.2.75-2.38,1.54-3.54,2.34q-3.82,2.64-7.39,5.62c-.79.66-1.57,1.33-2.35,2a71.36,71.36,0,0,0-40.9-12.77c-.93,0-1.86,0-2.73.06s-1.63.07-2.42.13c-.32,0-.62,0-.94.08-.71.05-1.43.13-2.11.21s-1.49.16-2.18.28c-1.93.26-3.91.63-5.91,1.1l-.22.06-2,.49c-.85.23-1.87.52-2.86.84l-1.63.53-.33.11c-.49.15-1,.32-1.46.52s-1.05.39-1.54.59c-1.31.51-2.58,1-3.69,1.58a15.83,15.83,0,0,0-1.5.71l-.32.16c-.3.15-.61.3-.92.47a4.16,4.16,0,0,0-.69.36c-.46.22-.93.48-1.43.77s-.7.38-1,.57l-.17.1c-.29.16-1,.58-1.81,1.09-1.08.68-2.4,1.52-3.37,2.23h0A71,71,0,0,0,354.81,156.06Zm36.61-14.29h0a2,2,0,0,0,2.47,1.36l.69-.18a60.52,60.52,0,0,1,48.65,7.52,105.84,105.84,0,0,0-6.68,8.24l-.82,1.13a48.41,48.41,0,0,0-25.16-7q-1.11,0-2.22.06l-.9.05c-.5,0-1,.06-1.47.12a2.84,2.84,0,0,0-.51,0c-.7.05-1.42.14-2.33.29-.65.1-1.31.21-2,.35-.42.07-.83.15-1.21.25l-.71.16c-.35.07-.68.16-1,.25l-.18,0c-.66.17-1.29.36-1.91.56s-1.54.48-2.27.75-1.45.55-2.18.87c-.58.23-1.13.47-1.55.69l-.7.33a17.26,17.26,0,0,0-3.28-10,17.66,17.66,0,0,0-7.22-6.31l.24-.14.06-.05.33-.14c.4-.22.77-.42,1.17-.6l.13-.06a13,13,0,0,1,1.28-.61L384,139c.56-.24,1.13-.47,1.73-.7s.94-.38,1.43-.55l.1,0c.38-.15.77-.29,1.21-.43l.39-.13c.51-.17,1-.34,1.56-.5.95-.31,1.9-.58,2.67-.79l2-.48.21,0c1.86-.44,3.71-.78,5.58-1,.66-.12,1.34-.19,2-.27s1.3-.15,2-.19h.15c.25,0,.49-.05.77-.07.74-.06,1.49-.1,2.27-.12s1.72-.06,2.59-.06a67.45,67.45,0,0,1,37.89,11.54c-.83.79-1.64,1.61-2.45,2.43a64.57,64.57,0,0,0-53.22-8.22A2,2,0,0,0,391.42,141.77ZM385.77,162l.11.17-.13-.15-.4-.44.42.42Zm-11.42-6.22c-2-2.91-2.93-6.23-2.46-8.65a3.27,3.27,0,0,1,1.26-2.21,2.69,2.69,0,0,1,1-.41,3,3,0,0,1,.61-.06h.07c2.22,0,5.48,1.78,8,5.51,3.05,4.48,3.17,9,1.53,10.61a4.39,4.39,0,0,1-.36.28,2,2,0,0,1-.44.23l-.08,0C381.37,161.88,377.3,160.09,374.35,155.77Zm10.94,45.66c0,4-4.33,7.22-9.66,7.22s-9.64-3.23-9.64-7.22h0c0-4,4.33-7.22,9.64-7.22,4.47,0,8.42,2.37,9.41,5.64a5.11,5.11,0,0,1,.25,1.58Zm25.28-25.3a25.85,25.85,0,0,0-3.47.24,19.78,19.78,0,0,0-2.34.46,25.2,25.2,0,0,0-18.46,17.58,14.91,14.91,0,0,0-10.67-4.2,15.41,15.41,0,0,0-8.8,2.67,44.57,44.57,0,0,1,18.56-28.25,5.9,5.9,0,0,0,.93-.52c.21-.15.41-.32.61-.48l.24-.15.38-.24c.53-.32,1.06-.62,1.61-.92,1-.55,1.83-1,2.69-1.36.4-.2.85-.4,1.37-.61s1.33-.55,2-.8,1.34-.47,2.08-.69c.58-.19,1.14-.36,1.73-.51l.2,0c.28-.08.54-.15.9-.23.19,0,.37-.09.56-.12l.18,0c.32-.08.65-.15,1-.2l.12,0c.59-.13,1.19-.22,1.81-.32.82-.13,1.45-.21,2.06-.26l.12,0,.16,0h.26c.4-.05.81-.09,1.28-.11.24,0,.49,0,.74,0h.11c.69,0,1.37-.06,2.05-.06a44.39,44.39,0,0,1,22.9,6.32c-.6.94-1.2,1.88-1.78,2.83-.69,1.14-1.36,2.3-2,3.46a101.23,101.23,0,0,0-5.21,10.86A25.31,25.31,0,0,0,410.57,176.13ZM519.28,317.3a98.37,98.37,0,1,1,98.36-98.37A98.48,98.48,0,0,1,519.28,317.3Z" transform="translate(-280.31 -59.69)"/>
      <path class="cls-7" d="M389.29,240.48a13.65,13.65,0,1,0-13.65,13.65A13.67,13.67,0,0,0,389.29,240.48Zm-13.65,9.65a9.65,9.65,0,1,1,9.65-9.65A9.66,9.66,0,0,1,375.64,250.13Z" transform="translate(-280.31 -59.69)"/>
      <path class="cls-7" d="M305.32,224.8a13.65,13.65,0,1,0-13.65-13.64A13.66,13.66,0,0,0,305.32,224.8Zm0-23.29a9.65,9.65,0,1,1-9.65,9.65A9.65,9.65,0,0,1,305.32,201.51Z" transform="translate(-280.31 -59.69)"/>
      <path class="cls-7" d="M599.66,183.64a133.84,133.84,0,0,0-21.5,1.37,67.92,67.92,0,0,0-117.74,0,134.77,134.77,0,0,0-21.19-1.32h-2v2c0,36,10.62,57.07,24.49,69.43.93,1.46,1.89,2.9,2.92,4.28-8.93,11.28-6.44,24.66-6.31,25.33l.26,1.31,1.3.27a49.58,49.58,0,0,0,9.76,1A40.11,40.11,0,0,0,485,284.38c0,.4-.1.8-.14,1.21a58.26,58.26,0,0,0,.13,13.59l.26,1.7h1.71c13.05,0,21.25-6.65,26.36-14.24,2,.18,4,.28,6,.28s4.23-.11,6.31-.3c5.11,7.6,13.31,14.26,26.38,14.26h1.71l.26-1.7a58.26,58.26,0,0,0,.13-13.59c0-.41-.09-.81-.14-1.21a40.11,40.11,0,0,0,15.31,2.88,49.58,49.58,0,0,0,9.76-1l1.3-.27.26-1.31c.13-.67,2.66-14.23-6.49-25.55.8-1.09,1.57-2.22,2.3-3.35,14.27-12.26,25.29-33.46,25.29-70.14v-2Zm-2,4a145.51,145.51,0,0,1-1.15,17.23H561.17c.24-2.33.38-4.62.43-6.84,0-1.47,0-2.92,0-4.32C573.8,188.77,586.75,187.75,597.64,187.64Zm-74.33,59c3.71-21.82,12.92-37.71,27.53-47.36a60.12,60.12,0,0,1,6.78-3.83C557.92,234.83,533.25,244.41,523.31,246.67Zm-35.26-47.36c14.6,9.65,23.81,25.52,27.52,47.32a44.46,44.46,0,0,1-15.78-7.25c-12.46-9.11-18.67-23.88-18.51-43.9A60,60,0,0,1,488.05,199.31Zm33.4,21.55c0-2.86.23-20.24,5.7-31.91a31.05,31.05,0,0,1,16.42,10.77c-9.44,7.82-17.54,19.42-22.12,36.67Zm-2-20.64a60.53,60.53,0,0,0-3.68-12.08,31.22,31.22,0,0,1,3.51-.2,32.11,32.11,0,0,1,3.82.24A60.09,60.09,0,0,0,519.45,200.22Zm-2,20.64v15.53c-4.62-17.37-12.81-29-22.34-36.84a31.07,31.07,0,0,1,16.6-10.67C517.21,200.54,517.45,218,517.45,220.86Zm-1.17,30.47a147.66,147.66,0,0,1,1.15,17.23c-14.17-.14-31.84-1.8-46.8-11.67a55.37,55.37,0,0,1-7.08-5.56Zm6.33,0h52.73a55.37,55.37,0,0,1-7.08,5.56c-15,9.87-32.63,11.53-46.8,11.67A147.66,147.66,0,0,1,522.61,251.33Zm-3.33-96.39A64,64,0,0,1,574,185.76a70.38,70.38,0,0,0-27.24,11.52,35.15,35.15,0,0,0-17.59-11.92c2.46-3.75,5.72-6.44,10-7a8.49,8.49,0,1,0,0-4c-6.41.62-10.93,4.62-14.11,10.07a36.12,36.12,0,0,0-5.73-.47,34.7,34.7,0,0,0-5.43.42c-3.18-5.42-7.69-9.4-14.08-10a8.49,8.49,0,1,0,0,4c4.27.56,7.51,3.21,10,6.92a35.15,35.15,0,0,0-17.75,11.84,70.73,70.73,0,0,0-27.33-11.42A64,64,0,0,1,519.28,154.94Zm23.61,21.31a4.49,4.49,0,1,1,4.49,4.49A4.5,4.5,0,0,1,542.89,176.25Zm-46.89,0a4.49,4.49,0,1,1-4.49-4.49A4.5,4.5,0,0,1,496,176.25Zm-18.7,17.46c0,1.4,0,2.85,0,4.32,0,2.22.19,4.51.43,6.84H442.4a145.51,145.51,0,0,1-1.15-17.23C452.14,187.75,465.09,188.77,477.3,193.71Zm-3.93,15.16h4.87a59.46,59.46,0,0,0,5.35,17.23H447.38A96,96,0,0,1,443,208.87Zm-7.68,21.23h20.13a44.6,44.6,0,0,0,11.61,12.51,47.09,47.09,0,0,0,8,4.72h-46l.06-.15a63.19,63.19,0,0,1-10.57-17.08Zm20.1,49.47c-2.37,1.29-10.92,5.24-23.72,3-.4-3.59-.69-13.71,6.81-22a69.56,69.56,0,0,0,20.49,8.88A42.08,42.08,0,0,0,485.79,279.57Zm2.92,17.26c-.39-4.45-.8-16.58,4.68-26.47a114.8,114.8,0,0,0,22.19,2.19C512.65,281.86,505.48,295.9,488.71,296.83Zm30.57-13.91c-1.24,0-2.47,0-3.69-.11a53.87,53.87,0,0,0,3.86-9.31,53.07,53.07,0,0,0,3.84,9.29C522,282.87,520.62,282.92,519.28,282.92Zm30.9,13.91c-10.24-.55-18.13-5.91-23.46-15.94a48.82,48.82,0,0,1-3.43-8.34,114.27,114.27,0,0,0,22.21-2.19C551,280.24,550.56,292.37,550.18,296.83Zm26.64-14.24c-12.72,2.2-21.34-1.74-23.72-3a42.08,42.08,0,0,0-3.58-10.15A69.56,69.56,0,0,0,570,260.54C577.51,268.88,577.22,279,576.82,282.59Zm2.56-35.41.06.15h-46a47.09,47.09,0,0,0,8-4.72,44.6,44.6,0,0,0,11.61-12.51H590A63.19,63.19,0,0,1,579.38,247.18Zm12.13-21.08H555.3a59.46,59.46,0,0,0,5.35-17.23H595.9A96,96,0,0,1,591.51,226.1Z" transform="translate(-280.31 -59.69)"/>
      <path class="cls-7" d="M468.42,324.74h-9.06a3.31,3.31,0,0,0-3.31,3.31v3.09c0,7.63-9.15,21.67-20.87,29.12a2,2,0,0,0-.69-.13H406v-3.39a7,7,0,0,0-14,0v3.39h-7.63v-3.39a7,7,0,0,0-14,0v3.39h-7.63v-3.39a7,7,0,0,0-14,0v3.39h-3.53a32.23,32.23,0,0,0-28.45,16.92h-23.9c-3.57-3.18-6.1-7.56-6.1-9.68a3.24,3.24,0,1,0-6.47,0v33.37a3.24,3.24,0,0,0,6.47,0c0-2.13,2.53-6.5,6.1-9.69h20a33.64,33.64,0,0,0,0,3.48c1,17,15.61,30.36,33.17,30.36h2.68v3.39a7,7,0,0,0,14,0v-3.39h7.63v3.39a7,7,0,0,0,14,0v-3.39H392v3.39a7,7,0,0,0,14,0v-3.39h14a24,24,0,0,0,17.66-7.8,23.68,23.68,0,0,0,6.16-18.33c-1.1-12.17-11.88-21.71-24.54-21.71H406v-2.92h28.47a2,2,0,0,0,.56-.08c11.78,7.42,21,21.54,21,29.2v1.58a3.31,3.31,0,0,0,3.31,3.31h9.06a3.31,3.31,0,0,0,3.31-3.31V375h-3.36V363h3.36V328.05A3.31,3.31,0,0,0,468.42,324.74ZM348.76,420.89h-2.68c-15.45,0-28.27-11.68-29.18-26.6a29.18,29.18,0,0,1,0-3.24h6a22.42,22.42,0,0,0,.33,5.66c2,10.54,11.53,18.18,22.69,18.18h2.83Zm0-10h-2.83c-9.24,0-17.13-6.27-18.76-14.92a18.91,18.91,0,0,1-.27-4.92h21.86Zm0-23.84H296.24v-6h52.52Zm0-10H335.31a18.41,18.41,0,0,1,9.92-2.92h3.53Zm0-6.92h-3.53a22.43,22.43,0,0,0-16.16,6.92h-7.62a28.22,28.22,0,0,1,23.78-12.92h3.53Zm10,58.15a3,3,0,0,1-6,0V356.74a3,3,0,0,1,6,0Zm11.63-7.39h-7.63v-6h7.63Zm0-10h-7.63V391.05h7.63Zm0-23.84h-7.63v-6h7.63Zm0-10h-7.63v-2.92h7.63Zm0-6.92h-7.63v-6h7.63Zm10,58.15a3,3,0,0,1-6,0V356.74a3,3,0,0,1,6,0ZM392,420.89h-7.63v-6H392Zm0-10h-7.63V391.05H392Zm0-23.84h-7.63v-6H392Zm0-10h-7.63v-2.92H392Zm0-6.92h-7.63v-6H392Zm10,58.15a3,3,0,0,1-6,0V356.74a3,3,0,0,1,6,0Zm4-37.23h14a9.94,9.94,0,0,1,7.43,3.36,9.81,9.81,0,0,1,2.41,7.82,10.18,10.18,0,0,1-10.33,8.66H406Zm13.27-10c10.61,0,19.64,7.94,20.56,18.07a19.76,19.76,0,0,1-5.13,15.27,20,20,0,0,1-14.71,6.5H406v-6h13.5a14.2,14.2,0,0,0,14.31-12.18A13.94,13.94,0,0,0,420,387.05H406v-6Zm13.29-10.92H406v-6h26.56Zm23.47,20.65a56.88,56.88,0,0,0-19.47-20.59v-6a56.88,56.88,0,0,0,19.47-20.59Zm11.68,13.36h-7.68v-75.4h7.68Z" transform="translate(-280.31 -59.69)"/>
      <path class="cls-7" d="M400.79,346.38a5,5,0,1,0,0-10h-3.54a5,5,0,0,0,0,10Z" transform="translate(-280.31 -59.69)"/>
      <path class="cls-7" d="M375.62,336.38a5,5,0,0,0,0,10h3.54a5,5,0,0,0,0-10Z" transform="translate(-280.31 -59.69)"/>
      <path class="cls-7" d="M357.53,336.38H354a5,5,0,0,0,0,10h3.54a5,5,0,0,0,0-10Z" transform="translate(-280.31 -59.69)"/>
    </g>
  </g>
</svg>
