<svg xmlns="http://www.w3.org/2000/svg" viewBox="0 0 157.04 119.03">
  <g id="ad9b217d-e940-452b-8879-2330a90d1a5e" data-name="Layer 2">
    <g id="acfc156a-3194-4957-ba48-76fd2dd553fc" data-name="Layer 1">
      <g>
        <path d="M9.39,0a8.74,8.74,0,0,1,6.29,2.42.49.49,0,0,1,0,.73l-2,2.1a.46.46,0,0,1-.65,0A5.32,5.32,0,0,0,9.52,3.93a5.18,5.18,0,0,0-5.1,5.35,5.15,5.15,0,0,0,5.12,5.28A5.51,5.51,0,0,0,13,13.31a.51.51,0,0,1,.67,0l2,2.16a.51.51,0,0,1,0,.7,8.88,8.88,0,0,1-6.31,2.52A9.36,9.36,0,1,1,9.39,0Z" style="fill: #5674e6"/>
        <path d="M25.87,0a9.36,9.36,0,1,1,0,18.72,9.27,9.27,0,0,1-9.33-9.33A9.32,9.32,0,0,1,25.87,0Zm0,14.56A5.2,5.2,0,1,0,20.7,9.39,5.21,5.21,0,0,0,25.87,14.56Z" style="fill: #5674e6"/>
        <path d="M37.87.75a.48.48,0,0,1,.49-.49h7.77A5.65,5.65,0,0,1,51.8,5.88,5.69,5.69,0,0,1,48,11.1l3.57,6.61a.49.49,0,0,1-.45.75H47.62a.49.49,0,0,1-.42-.23l-3.46-6.89H42V18a.51.51,0,0,1-.5.49H38.36a.48.48,0,0,1-.49-.49ZM45.8,8a2.08,2.08,0,0,0,2-2.08,2,2,0,0,0-2-2H42V8Z" style="fill: #5674e6"/>
        <path d="M57.73,9.7,52,1A.48.48,0,0,1,52.4.26h3.38a.53.53,0,0,1,.42.23l3.61,5.33L63.42.49a.5.5,0,0,1,.42-.23h3.38a.48.48,0,0,1,.42.75L61.81,9.67V18a.5.5,0,0,1-.49.49h-3.1a.49.49,0,0,1-.49-.49Z" style="fill: #5674e6"/>
        <path d="M73.38.75a.51.51,0,0,1,.5-.49H77a.48.48,0,0,1,.49.49V7.31H84.9V.75a.49.49,0,0,1,.49-.49h3.1A.5.5,0,0,1,89,.75V18a.5.5,0,0,1-.49.49h-3.1A.49.49,0,0,1,84.9,18V11.13H77.46V18a.48.48,0,0,1-.49.49H73.88a.51.51,0,0,1-.5-.49Z" style="fill: #5674e6"/>
        <path d="M92.84.75a.48.48,0,0,1,.49-.49h10.76a.49.49,0,0,1,.5.49V3.59a.49.49,0,0,1-.5.49h-7.2V7.31h5.93a.51.51,0,0,1,.5.49v2.83a.5.5,0,0,1-.5.5H96.89v3.51h7.2a.49.49,0,0,1,.5.49V18a.49.49,0,0,1-.5.49H93.33a.48.48,0,0,1-.49-.49Z" style="fill: #5674e6"/>
        <path d="M107.68.47a.49.49,0,0,1,.49-.47h.65L119.2,10h0V.75a.49.49,0,0,1,.5-.49h3.12a.5.5,0,0,1,.49.49v17.5a.49.49,0,0,1-.49.47h-.42a.78.78,0,0,1-.34-.13L111.81,8.27h0V18a.49.49,0,0,1-.5.49H108.2a.51.51,0,0,1-.5-.49Z" style="fill: #5674e6"/>
        <path d="M127.19.75a.48.48,0,0,1,.49-.49h7.77a5.65,5.65,0,0,1,5.67,5.62,5.69,5.69,0,0,1-3.85,5.22l3.57,6.61a.49.49,0,0,1-.45.75h-3.45a.49.49,0,0,1-.42-.23l-3.46-6.89h-1.79V18a.51.51,0,0,1-.5.49h-3.09a.48.48,0,0,1-.49-.49ZM135.12,8a2.08,2.08,0,0,0,2-2.08,2,2,0,0,0-2-2h-3.85V8Z" style="fill: #5674e6"/>
        <path d="M147.05,9.7,141.3,1a.48.48,0,0,1,.42-.75h3.38a.5.5,0,0,1,.41.23l3.62,5.33L152.74.49a.5.5,0,0,1,.42-.23h3.38A.48.48,0,0,1,157,1l-5.83,8.66V18a.5.5,0,0,1-.49.49h-3.1a.49.49,0,0,1-.49-.49Z" style="fill: #5674e6"/>
        <path d="M1.23,23.36A.41.41,0,0,1,1.64,23h5c2.54,0,4.63,1.74,4.63,4,0,1.66-1.49,2.86-2.5,3.4,1.14.47,2.88,1.53,2.88,3.51C11.66,36.27,9.53,38,7,38H1.64a.41.41,0,0,1-.41-.41Zm5,5.7a1.54,1.54,0,0,0,1.51-1.55,1.46,1.46,0,0,0-1.51-1.46H4.58v3Zm.28,5.88a1.56,1.56,0,0,0,1.55-1.58,1.71,1.71,0,0,0-1.76-1.5H4.58v3.08Z" style="fill: #c46c49"/>
        <path d="M13.87,23.36a.41.41,0,0,1,.41-.41h6.44a4.6,4.6,0,0,1,1.5,9l3,5.47a.4.4,0,0,1-.36.62H21.94a.4.4,0,0,1-.34-.19l-2.86-5.7H17.25V37.6a.42.42,0,0,1-.41.41H14.28a.41.41,0,0,1-.41-.41Zm6.57,6a1.72,1.72,0,0,0,1.63-1.72A1.64,1.64,0,0,0,20.44,26H17.25v3.35Z" style="fill: #c46c49"/>
        <path d="M27.66,23.36a.41.41,0,0,1,.41-.41H37a.41.41,0,0,1,.41.41V25.7a.41.41,0,0,1-.41.41H31v2.67h4.91a.42.42,0,0,1,.41.41v2.34a.41.41,0,0,1-.41.41H31v2.91h6a.41.41,0,0,1,.41.41V37.6A.41.41,0,0,1,37,38h-8.9a.41.41,0,0,1-.41-.41Z" style="fill: #c46c49"/>
        <path d="M38.17,37.45,44.9,23a.45.45,0,0,1,.37-.24h.21a.44.44,0,0,1,.37.24l6.74,14.48a.38.38,0,0,1-.37.56H49.83c-.39,0-.56-.13-.75-.54l-.78-1.7H42.45l-.77,1.73a.82.82,0,0,1-.78.51H38.53A.38.38,0,0,1,38.17,37.45ZM47,32.85,45.38,29.3h0l-1.62,3.55Z" style="fill: #c46c49"/>
        <path d="M53.78,23.46a.5.5,0,0,1,.51-.51h2.52a.52.52,0,0,1,.52.51v5.66l4.78-6a.65.65,0,0,1,.41-.21h2.71a.49.49,0,0,1,.38.79l-5,6.31,5.49,7.14a.51.51,0,0,1-.41.8h-3a.62.62,0,0,1-.39-.15l-5-6.76V37.5a.53.53,0,0,1-.52.51H54.29a.51.51,0,0,1-.51-.51Z" style="fill: #c46c49"/>
        <path d="M67.5,23.36a.41.41,0,0,1,.41-.41h5c2.54,0,4.62,1.74,4.62,4,0,1.66-1.48,2.86-2.49,3.4,1.14.47,2.88,1.53,2.88,3.51,0,2.41-2.13,4.15-4.69,4.15H67.91a.41.41,0,0,1-.41-.41Zm5,5.7a1.54,1.54,0,0,0,1.51-1.55,1.46,1.46,0,0,0-1.51-1.46H70.86v3Zm.28,5.88a1.56,1.56,0,0,0,1.55-1.58,1.72,1.72,0,0,0-1.77-1.5H70.86v3.08Z" style="fill: #c46c49"/>
        <path d="M86.71,22.73A7.75,7.75,0,1,1,79,30.5,7.74,7.74,0,0,1,86.71,22.73Zm0,12.05a4.3,4.3,0,1,0-4.28-4.28A4.3,4.3,0,0,0,86.71,34.78Z" style="fill: #c46c49"/>
        <path d="M98.13,26.11H95.05a.4.4,0,0,1-.4-.41V23.36a.4.4,0,0,1,.4-.41h9.56a.41.41,0,0,1,.41.41V25.7a.41.41,0,0,1-.41.41h-3.08V37.6a.42.42,0,0,1-.41.41H98.54a.43.43,0,0,1-.41-.41Z" style="fill: #c46c49"/>
        <path d="M110.45,26.4v0l-.22-.22a2.18,2.18,0,0,1-.71-1.54,1.89,1.89,0,0,1,2.09-1.75,2,2,0,0,1,2.15,1.8c0,1.18-1.17,1.82-1.17,1.91l1,1a3.57,3.57,0,0,0,.35-.83c.07-.23.13-.4.42-.29l.79.28c.3.1.18.36.14.49a6.46,6.46,0,0,1-.68,1.35l.92.85c.14.13.24.22,0,.49l-.6.62a.32.32,0,0,1-.48,0l-.7-.7a3.18,3.18,0,0,1-2.35.83,2.18,2.18,0,0,1-2.37-2A2.49,2.49,0,0,1,110.45,26.4Zm1.07,2.87a1.35,1.35,0,0,0,1.17-.55l-1.41-1.5a1.2,1.2,0,0,0-.77,1.13A1,1,0,0,0,111.52,29.27Zm.87-4.51a.75.75,0,0,0-.8-.69.57.57,0,0,0-.64.53c0,.32.22.52.5.84l.24.23S112.39,25.36,112.39,24.76Z" style="fill: #c46c49"/>
        <path d="M118.62,23.17a.22.22,0,0,1,.21-.2h1.29a.21.21,0,0,1,.2.2V30.3a.21.21,0,0,1-.2.21h-1.29a.22.22,0,0,1-.21-.21Z" style="fill: #c46c49"/>
        <path d="M121.83,23.17a.2.2,0,0,1,.2-.2h3.22a2.3,2.3,0,0,1,.75,4.49l1.48,2.73a.21.21,0,0,1-.18.32h-1.44a.21.21,0,0,1-.17-.1l-1.43-2.85h-.74V30.3a.22.22,0,0,1-.21.21H122a.2.2,0,0,1-.2-.21Zm3.28,3a.87.87,0,0,0,.82-.86.83.83,0,0,0-.82-.82h-1.59v1.68Z" style="fill: #c46c49"/>
        <path d="M128.72,23.17a.21.21,0,0,1,.21-.2h4.45a.21.21,0,0,1,.21.2v1.18a.2.2,0,0,1-.21.2h-3V26.1h2.46a.22.22,0,0,1,.2.21v1.17a.22.22,0,0,1-.2.21H130.4V30.3a.22.22,0,0,1-.2.21h-1.27a.21.21,0,0,1-.21-.21Z" style="fill: #c46c49"/>
        <path d="M133,30.23,136.4,23a.23.23,0,0,1,.19-.12h.1a.25.25,0,0,1,.19.12l3.37,7.25a.2.2,0,0,1-.19.28h-1.19c-.2,0-.28-.07-.38-.27l-.39-.85h-2.92l-.39.86a.41.41,0,0,1-.39.26h-1.18A.19.19,0,0,1,133,30.23Zm4.43-2.31-.82-1.77h0l-.81,1.77Z" style="fill: #c46c49"/>
        <path d="M140.83,23.06a.21.21,0,0,1,.21-.2h.27L145.6,27h0V23.17a.21.21,0,0,1,.21-.2h1.29a.21.21,0,0,1,.2.2v7.25a.19.19,0,0,1-.2.19h-.17a.29.29,0,0,1-.14-.05l-4.26-4.27h0v4a.2.2,0,0,1-.2.21h-1.28a.22.22,0,0,1-.21-.21Z" style="fill: #c46c49"/>
        <path d="M148.84,23.17a.2.2,0,0,1,.2-.2h4.46a.2.2,0,0,1,.2.2v1.18a.19.19,0,0,1-.2.2h-3v1.34H153a.2.2,0,0,1,.2.2v1.18a.2.2,0,0,1-.2.2h-2.46v1.45h3a.2.2,0,0,1,.2.21V30.3a.2.2,0,0,1-.2.21H149a.2.2,0,0,1-.2-.21Z" style="fill: #c46c49"/>
        <path d="M1.41,42.83a.32.32,0,0,1,.31-.31h2a.31.31,0,0,1,.31.31V47H8.72V42.83A.31.31,0,0,1,9,42.52h2a.32.32,0,0,1,.32.31V53.75a.33.33,0,0,1-.32.31H9a.31.31,0,0,1-.31-.31V49.41H4v4.34a.31.31,0,0,1-.31.31h-2a.33.33,0,0,1-.31-.31Z" style="fill: #3a4a93"/>
        <path d="M19.11,42.35a5.94,5.94,0,1,1-5.92,6A5.93,5.93,0,0,1,19.11,42.35Zm0,9.24a3.3,3.3,0,1,0-3.28-3.28A3.31,3.31,0,0,0,19.11,51.59Z" style="fill: #3a4a93"/>
        <path d="M26.93,42.83a.31.31,0,0,1,.32-.31h4.93a3.52,3.52,0,0,1,1.15,6.87l2.26,4.19a.31.31,0,0,1-.28.48H33.12a.32.32,0,0,1-.27-.15l-2.19-4.37H29.52v4.21a.33.33,0,0,1-.31.31h-2a.32.32,0,0,1-.32-.31Zm5,4.62a1.33,1.33,0,0,0,1.26-1.32A1.27,1.27,0,0,0,32,44.87H29.52v2.58Z" style="fill: #3a4a93"/>
        <path d="M37.22,52.49,38,51.13a.42.42,0,0,1,.56-.1,5,5,0,0,0,2.34.9A1,1,0,0,0,42,51c0-.7-.57-1.23-1.7-1.67-1.41-.56-3.2-1.67-3.2-3.65,0-1.63,1.27-3.28,3.81-3.28a6.12,6.12,0,0,1,3.53,1.24c.2.11.17.41.1.53l-.84,1.27c-.11.18-.41.33-.56.21a5.19,5.19,0,0,0-2.36-1,1,1,0,0,0-1,.84c0,.61.5,1.07,1.8,1.6s3.33,1.52,3.33,3.76A3.63,3.63,0,0,1,41,54.23,5.24,5.24,0,0,1,37.3,53C37.13,52.79,37.08,52.73,37.22,52.49Z" style="fill: #3a4a93"/>
        <path d="M46.81,42.83a.31.31,0,0,1,.32-.31H54a.31.31,0,0,1,.31.31v1.8a.31.31,0,0,1-.31.31H49.39V47h3.76a.32.32,0,0,1,.31.31v1.8a.31.31,0,0,1-.31.31H49.39v2.23H54a.31.31,0,0,1,.31.31v1.8a.31.31,0,0,1-.31.31H47.13a.32.32,0,0,1-.32-.31Z" style="fill: #3a4a93"/>
        <path d="M61.27,42.61a.31.31,0,0,1,.29-.26h.27a.37.37,0,0,1,.28.17l3.83,7.12h0l3.83-7.12a.34.34,0,0,1,.28-.17h.26a.33.33,0,0,1,.3.26L72.5,53.7a.3.3,0,0,1-.31.36h-2a.32.32,0,0,1-.31-.26l-.74-5.1h0l-2.77,5.35a.42.42,0,0,1-.28.18h-.3a.4.4,0,0,1-.28-.18L62.74,48.7h0L62,53.8a.33.33,0,0,1-.32.26H59.72a.31.31,0,0,1-.32-.36Z" style="fill: #3a4a93"/>
        <path d="M74.43,42.83a.31.31,0,0,1,.31-.31h6.83a.31.31,0,0,1,.31.31v1.8a.31.31,0,0,1-.31.31H77V47h3.76a.32.32,0,0,1,.31.31v1.8a.31.31,0,0,1-.31.31H77v2.23h4.57a.31.31,0,0,1,.31.31v1.8a.31.31,0,0,1-.31.31H74.74a.31.31,0,0,1-.31-.31Z" style="fill: #3a4a93"/>
        <path d="M82.81,53.63,88,42.53a.33.33,0,0,1,.28-.18h.16a.33.33,0,0,1,.28.18l5.17,11.1a.3.3,0,0,1-.29.43H91.75c-.29,0-.42-.1-.57-.41l-.6-1.3H86.1l-.6,1.32a.61.61,0,0,1-.59.39H83.09A.29.29,0,0,1,82.81,53.63Zm6.78-3.53-1.25-2.72h0L87.09,50.1Z" style="fill: #3a4a93"/>
        <path d="M95.84,44.94H93.48a.31.31,0,0,1-.31-.31v-1.8a.31.31,0,0,1,.31-.31h7.32a.31.31,0,0,1,.32.31v1.8a.32.32,0,0,1-.32.31H98.44v8.81a.33.33,0,0,1-.31.31h-2a.33.33,0,0,1-.31-.31Z" style="fill: #3a4a93"/>
        <path d="M106.42,42.83a.3.3,0,0,1,.29-.31h4a5.77,5.77,0,1,1,0,11.54h-4a.31.31,0,0,1-.29-.31Zm4.15,8.79a3.34,3.34,0,0,0,0-6.68H109v6.68Z" style="fill: #3a4a93"/>
        <path d="M118.41,42.83a.32.32,0,0,1,.32-.31h2a.32.32,0,0,1,.31.31V53.75a.33.33,0,0,1-.31.31h-2a.33.33,0,0,1-.32-.31Z" style="fill: #3a4a93"/>
        <path d="M123.09,52.49l.78-1.36a.42.42,0,0,1,.56-.1,5,5,0,0,0,2.34.9,1,1,0,0,0,1.14-1c0-.7-.58-1.23-1.7-1.67-1.42-.56-3.2-1.67-3.2-3.65,0-1.63,1.27-3.28,3.81-3.28a6.12,6.12,0,0,1,3.53,1.24c.2.11.17.41.1.53l-.84,1.27c-.12.18-.41.33-.56.21a5.19,5.19,0,0,0-2.36-1,1,1,0,0,0-1,.84c0,.61.5,1.07,1.8,1.6s3.33,1.52,3.33,3.76a3.63,3.63,0,0,1-3.89,3.42A5.22,5.22,0,0,1,123.18,53C123,52.79,123,52.73,123.09,52.49Z" style="fill: #3a4a93"/>
        <path d="M137.76,42.35a5.54,5.54,0,0,1,4,1.53.32.32,0,0,1,0,.47l-1.29,1.33a.28.28,0,0,1-.41,0,3.4,3.4,0,0,0-2.23-.84,3.38,3.38,0,0,0,0,6.75,3.48,3.48,0,0,0,2.21-.79.33.33,0,0,1,.43,0l1.29,1.37a.34.34,0,0,1,0,.45,5.65,5.65,0,0,1-4,1.6,5.94,5.94,0,1,1,0-11.88Z" style="fill: #3a4a93"/>
        <path d="M148.44,42.35a5.94,5.94,0,1,1-5.92,6A5.93,5.93,0,0,1,148.44,42.35Zm0,9.24a3.3,3.3,0,1,0-3.28-3.28A3.31,3.31,0,0,0,148.44,51.59Z" style="fill: #3a4a93"/>
        <path d="M1.21,58.83a.31.31,0,0,1,.32-.31h4a3.68,3.68,0,1,1,0,7.35H3.79v3.88a.33.33,0,0,1-.32.31H1.53a.31.31,0,0,1-.32-.31Zm4.14,4.63a1.3,1.3,0,0,0,1.31-1.3,1.27,1.27,0,0,0-1.31-1.22H3.79v2.52Z" style="fill: #e8ac8f"/>
        <path d="M11.37,58.83a.32.32,0,0,1,.31-.31h2a.32.32,0,0,1,.31.31V69.75a.33.33,0,0,1-.31.31h-2a.33.33,0,0,1-.31-.31Z" style="fill: #e8ac8f"/>
        <path d="M18.44,58.61a.31.31,0,0,1,.29-.26H19a.37.37,0,0,1,.28.17l3.82,7.12h0L27,58.52a.37.37,0,0,1,.29-.17h.26a.33.33,0,0,1,.3.26L29.67,69.7a.3.3,0,0,1-.31.36H27.41a.32.32,0,0,1-.31-.26l-.75-5.1h0l-2.77,5.35a.42.42,0,0,1-.28.18H23a.38.38,0,0,1-.28-.18L19.9,64.7h0l-.72,5.1a.33.33,0,0,1-.32.26H16.89a.31.31,0,0,1-.32-.36Z" style="fill: #e8ac8f"/>
        <path d="M32.31,58.83a.31.31,0,0,1,.31-.31h4a3.68,3.68,0,1,1,0,7.35H34.88v3.88a.33.33,0,0,1-.31.31h-2a.31.31,0,0,1-.31-.31Zm4.14,4.63a1.3,1.3,0,0,0,1.3-1.3,1.26,1.26,0,0,0-1.3-1.22H34.88v2.52Z" style="fill: #e8ac8f"/>
        <path d="M42.13,68.49l.77-1.36a.42.42,0,0,1,.56-.1,5,5,0,0,0,2.35.9,1,1,0,0,0,1.13-1c0-.7-.57-1.23-1.69-1.67-1.42-.56-3.2-1.67-3.2-3.65,0-1.63,1.27-3.28,3.81-3.28a6.19,6.19,0,0,1,3.53,1.24c.19.11.16.41.09.53l-.84,1.27c-.11.18-.41.33-.56.21a5.19,5.19,0,0,0-2.36-1,1,1,0,0,0-1,.84c0,.61.5,1.07,1.8,1.6s3.33,1.52,3.33,3.76a3.62,3.62,0,0,1-3.89,3.42A5.24,5.24,0,0,1,42.21,69C42.05,68.79,42,68.73,42.13,68.49Z" style="fill: #e8ac8f"/>
        <path d="M62,58.35a5.94,5.94,0,1,1-5.93,6A5.93,5.93,0,0,1,62,58.35Zm0,9.24a3.3,3.3,0,1,0-3.29-3.28A3.3,3.3,0,0,0,62,67.59Z" style="fill: #e8ac8f"/>
        <path d="M70.51,58.83a.31.31,0,0,1,.31-.31h6.83a.31.31,0,0,1,.32.31v1.8a.32.32,0,0,1-.32.31H73.08v2.38h3.76a.32.32,0,0,1,.32.31v1.8a.33.33,0,0,1-.32.31H73.08v4a.32.32,0,0,1-.31.31h-2a.31.31,0,0,1-.31-.31Z" style="fill: #e8ac8f"/>
        <path d="M83.25,68.61l1.12-1.1a.31.31,0,0,1,.45,0,1,1,0,0,0,.84.34c.46,0,1-.43,1-1.25V58.83a.31.31,0,0,1,.31-.31h2a.31.31,0,0,1,.31.31v7.78a3.42,3.42,0,0,1-3.55,3.62A3.14,3.14,0,0,1,83.22,69,.33.33,0,0,1,83.25,68.61Z" style="fill: #e8ac8f"/>
        <path d="M97.6,58.35a5.94,5.94,0,1,1-5.92,6A5.93,5.93,0,0,1,97.6,58.35Zm0,9.24a3.3,3.3,0,1,0-3.28-3.28A3.31,3.31,0,0,0,97.6,67.59Z" style="fill: #e8ac8f"/>
        <path d="M107.64,64.5,104,59a.3.3,0,0,1,.26-.47h2.15a.33.33,0,0,1,.26.14L109,62.05l2.29-3.39a.32.32,0,0,1,.27-.14h2.14a.3.3,0,0,1,.27.47l-3.7,5.5v5.26a.33.33,0,0,1-.31.31h-2a.31.31,0,0,1-.32-.31Z" style="fill: #e8ac8f"/>
        <path d="M118,60.94H115.6a.32.32,0,0,1-.32-.31v-1.8a.31.31,0,0,1,.32-.31h7.32a.31.31,0,0,1,.31.31v1.8a.31.31,0,0,1-.31.31h-2.36v8.81a.33.33,0,0,1-.31.31h-2a.32.32,0,0,1-.31-.31Z" style="fill: #e8ac8f"/>
        <path d="M125.31,58.83a.32.32,0,0,1,.31-.31h2a.32.32,0,0,1,.31.31V69.75a.33.33,0,0,1-.31.31h-2a.33.33,0,0,1-.31-.31Z" style="fill: #e8ac8f"/>
        <path d="M132.38,58.61a.31.31,0,0,1,.29-.26h.27a.37.37,0,0,1,.28.17L137,65.64h0l3.83-7.12a.34.34,0,0,1,.28-.17h.26a.33.33,0,0,1,.3.26l1.86,11.09a.3.3,0,0,1-.31.36h-2a.32.32,0,0,1-.31-.26l-.75-5.1h0l-2.77,5.35a.42.42,0,0,1-.28.18h-.3a.38.38,0,0,1-.28-.18l-2.79-5.35h0l-.72,5.1a.33.33,0,0,1-.32.26h-1.94a.31.31,0,0,1-.32-.36Z" style="fill: #e8ac8f"/>
        <path d="M146.25,58.83a.31.31,0,0,1,.31-.31h6.83a.31.31,0,0,1,.31.31v1.8a.31.31,0,0,1-.31.31h-4.57V63h3.76a.31.31,0,0,1,.31.31v1.8a.31.31,0,0,1-.31.31h-3.76v2.23h4.57a.31.31,0,0,1,.31.31v1.8a.31.31,0,0,1-.31.31h-6.83a.31.31,0,0,1-.31-.31Z" style="fill: #e8ac8f"/>
        <path d="M1.22,74.67a.26.26,0,0,1,.26-.25h.35L7.42,79.8h0v-5a.26.26,0,0,1,.26-.26H9.38a.27.27,0,0,1,.27.26v9.43a.27.27,0,0,1-.27.25H9.16A.36.36,0,0,1,9,84.43L3.44,78.87h0V84.1a.26.26,0,0,1-.27.26H1.5a.27.27,0,0,1-.27-.26Z" style="fill: #5674e6"/>
        <path d="M12,74.82a.26.26,0,0,1,.27-.26H18a.26.26,0,0,1,.27.26v1.53a.27.27,0,0,1-.27.27H14.17v1.73h3.19a.27.27,0,0,1,.26.27v1.53a.26.26,0,0,1-.26.26H14.17V82.3H18a.27.27,0,0,1,.27.27V84.1a.26.26,0,0,1-.27.26H12.25A.26.26,0,0,1,12,84.1Z" style="fill: #5674e6"/>
        <path d="M19.17,84l4.39-9.43a.28.28,0,0,1,.23-.15h.14a.29.29,0,0,1,.24.15L28.56,84a.25.25,0,0,1-.24.36H26.76c-.25,0-.36-.08-.49-.35l-.5-1.1H22L21.46,84a.54.54,0,0,1-.51.33H19.41A.25.25,0,0,1,19.17,84Zm5.76-3-1.06-2.31h0L22.8,81Z" style="fill: #5674e6"/>
        <path d="M29.68,74.82a.26.26,0,0,1,.27-.26h1.67a.26.26,0,0,1,.26.26V82.3h3.34a.27.27,0,0,1,.26.27V84.1a.26.26,0,0,1-.26.26H30a.26.26,0,0,1-.27-.26Z" style="fill: #5674e6"/>
        <path d="M40.07,74.82a.26.26,0,0,1,.27-.26h5.8a.26.26,0,0,1,.26.26v1.53a.27.27,0,0,1-.26.27H42.26v2h3.19a.28.28,0,0,1,.27.27v1.53a.27.27,0,0,1-.27.26H42.26V84.1a.27.27,0,0,1-.27.26H40.34a.26.26,0,0,1-.27-.26Z" style="fill: #5674e6"/>
        <path d="M47.86,74.82a.26.26,0,0,1,.27-.26h4.19a3,3,0,0,1,1,5.84L55.22,84a.26.26,0,0,1-.24.4H53.11a.27.27,0,0,1-.22-.12L51,80.52h-1V84.1a.27.27,0,0,1-.27.26H48.13a.26.26,0,0,1-.27-.26Zm4.27,3.92a1.12,1.12,0,0,0,1.07-1.12,1.08,1.08,0,0,0-1.07-1.06H50.06v2.18Z" style="fill: #5674e6"/>
        <path d="M56.18,84l4.39-9.43a.28.28,0,0,1,.23-.15h.14a.29.29,0,0,1,.24.15L65.57,84a.25.25,0,0,1-.24.36H63.77c-.25,0-.36-.08-.49-.35l-.5-1.1H59L58.46,84a.52.52,0,0,1-.5.33H56.42A.25.25,0,0,1,56.18,84Zm5.76-3-1.07-2.31h0l-1,2.31Z" style="fill: #5674e6"/>
        <path d="M66.68,74.67a.26.26,0,0,1,.26-.25h.35l5.59,5.38h0v-5a.26.26,0,0,1,.26-.26h1.68a.27.27,0,0,1,.27.26v9.43a.27.27,0,0,1-.27.25h-.22a.36.36,0,0,1-.18-.07L68.9,78.87h0V84.1a.26.26,0,0,1-.27.26H67a.27.27,0,0,1-.27-.26Z" style="fill: #5674e6"/>
        <path d="M81.83,74.42a4.69,4.69,0,0,1,3.39,1.3.26.26,0,0,1,0,.39l-1.1,1.14a.26.26,0,0,1-.35,0,2.77,2.77,0,0,0-4.63,2.17,2.77,2.77,0,0,0,2.76,2.84,3,3,0,0,0,1.87-.67.28.28,0,0,1,.37,0l1.09,1.17a.28.28,0,0,1,0,.37,4.81,4.81,0,0,1-3.41,1.36,5,5,0,1,1,0-10.08Z" style="fill: #5674e6"/>
        <path d="M86.79,74.82a.26.26,0,0,1,.26-.26h1.68a.27.27,0,0,1,.27.26V84.1a.27.27,0,0,1-.27.26H87.05a.26.26,0,0,1-.26-.26Z" style="fill: #5674e6"/>
        <path d="M90.83,83l.66-1.16a.37.37,0,0,1,.48-.09,4.09,4.09,0,0,0,2,.78.88.88,0,0,0,1-.85c0-.58-.49-1-1.44-1.41-1.2-.48-2.72-1.41-2.72-3.1,0-1.38,1.08-2.78,3.24-2.78a5.2,5.2,0,0,1,3,1,.35.35,0,0,1,.08.45L96.37,77c-.1.16-.35.28-.48.19a4.42,4.42,0,0,0-2-.84.81.81,0,0,0-.89.71c0,.52.42.91,1.53,1.36s2.83,1.29,2.83,3.19a3.07,3.07,0,0,1-3.3,2.9,4.43,4.43,0,0,1-3.16-1.08C90.76,83.28,90.72,83.23,90.83,83Z" style="fill: #5674e6"/>
        <path d="M104.11,79.64,101,75a.26.26,0,0,1,.22-.4h1.83a.28.28,0,0,1,.22.12l2,2.87,1.94-2.87a.29.29,0,0,1,.23-.12h1.82a.25.25,0,0,1,.22.4l-3.13,4.67V84.1a.27.27,0,0,1-.27.26h-1.67a.26.26,0,0,1-.26-.26Z" style="fill: #c46c49"/>
        <path d="M110.49,74.82a.27.27,0,0,1,.27-.26h1.72a.26.26,0,0,1,.26.26V80.5a1.74,1.74,0,1,0,3.48,0V74.82a.26.26,0,0,1,.26-.26h1.73a.26.26,0,0,1,.26.26v5.79a4,4,0,0,1-8,0Z" style="fill: #c46c49"/>
        <path d="M120.69,74.89a.33.33,0,0,1,.34-.33h1.64a.33.33,0,0,1,.33.33v3.69l3.11-3.88a.45.45,0,0,1,.27-.14h1.76a.32.32,0,0,1,.26.51l-3.28,4.11,3.57,4.65a.33.33,0,0,1-.27.52h-1.93a.39.39,0,0,1-.25-.1L123,79.85V84a.33.33,0,0,1-.33.33H121a.33.33,0,0,1-.34-.33Z" style="fill: #c46c49"/>
        <path d="M129.59,83l.66-1.16a.36.36,0,0,1,.47-.09,4.19,4.19,0,0,0,2,.78.89.89,0,0,0,1-.85c0-.58-.49-1-1.45-1.41-1.2-.48-2.71-1.41-2.71-3.1,0-1.38,1.08-2.78,3.23-2.78a5.2,5.2,0,0,1,3,1,.35.35,0,0,1,.08.45L135.12,77c-.1.16-.35.28-.48.19a4.31,4.31,0,0,0-2-.84.81.81,0,0,0-.88.71c0,.52.42.91,1.53,1.36s2.82,1.29,2.82,3.19a3.07,3.07,0,0,1-3.3,2.9,4.4,4.4,0,0,1-3.15-1.08C129.52,83.28,129.47,83.23,129.59,83Z" style="fill: #c46c49"/>
        <path d="M137.81,74.82a.26.26,0,0,1,.27-.26h5.79a.26.26,0,0,1,.27.26v1.53a.27.27,0,0,1-.27.27H140v1.73h3.2a.27.27,0,0,1,.26.27v1.53a.26.26,0,0,1-.26.26H140V82.3h3.88a.27.27,0,0,1,.27.27V84.1a.26.26,0,0,1-.27.26h-5.79a.26.26,0,0,1-.27-.26Z" style="fill: #c46c49"/>
        <path d="M146.08,74.89a.33.33,0,0,1,.34-.33h1.64a.33.33,0,0,1,.33.33v3.69l3.11-3.88a.45.45,0,0,1,.27-.14h1.76a.32.32,0,0,1,.26.51l-3.28,4.11,3.57,4.65a.33.33,0,0,1-.27.52h-1.93a.39.39,0,0,1-.25-.1l-3.24-4.4V84a.33.33,0,0,1-.33.33h-1.64a.33.33,0,0,1-.34-.33Z" style="fill: #c46c49"/>
        <path d="M1.28,89.12a.26.26,0,0,1,.26-.26H4.92a3.12,3.12,0,1,1,0,6.24H3.46v3.3a.27.27,0,0,1-.27.26H1.54a.26.26,0,0,1-.26-.26Zm3.51,3.94A1.11,1.11,0,0,0,5.9,92a1.07,1.07,0,0,0-1.11-1H3.46v2.14Z" style="fill: #3a4a93"/>
        <path d="M9.69,89.12a.26.26,0,0,1,.27-.26h5.79a.26.26,0,0,1,.27.26v1.53a.27.27,0,0,1-.27.27H11.88v1.73h3.19a.27.27,0,0,1,.26.27v1.53a.26.26,0,0,1-.26.26H11.88V96.6h3.87a.27.27,0,0,1,.27.27V98.4a.26.26,0,0,1-.27.26H10a.26.26,0,0,1-.27-.26Z" style="fill: #3a4a93"/>
        <path d="M17.21,98.3l4.38-9.43a.29.29,0,0,1,.24-.15H22a.3.3,0,0,1,.24.15l4.38,9.43a.25.25,0,0,1-.24.36H24.8c-.26,0-.37-.08-.49-.35L23.8,97.2H20l-.5,1.13a.54.54,0,0,1-.51.33H17.44A.24.24,0,0,1,17.21,98.3Zm5.75-3L21.9,93h0L20.83,95.3Z" style="fill: #3a4a93"/>
        <path d="M28,89a.27.27,0,0,1,.27-.25h.35l5.59,5.38h0v-5a.26.26,0,0,1,.27-.26h1.68a.27.27,0,0,1,.27.26v9.43a.27.27,0,0,1-.27.25H36a.4.4,0,0,1-.18-.07l-5.53-5.56h0V98.4a.27.27,0,0,1-.27.26H28.3A.26.26,0,0,1,28,98.4Z" style="fill: #3a4a93"/>
        <path d="M39,89.12a.27.27,0,0,1,.27-.26H41a.26.26,0,0,1,.27.26V94.8a1.74,1.74,0,1,0,3.47,0V89.12a.26.26,0,0,1,.27-.26h1.72a.27.27,0,0,1,.27.26v5.79a4,4,0,0,1-8,0Z" style="fill: #3a4a93"/>
        <path d="M50.74,90.92h-2a.27.27,0,0,1-.27-.27V89.12a.26.26,0,0,1,.27-.26H55a.26.26,0,0,1,.26.26v1.53a.27.27,0,0,1-.26.27H53V98.4a.26.26,0,0,1-.26.26H51a.27.27,0,0,1-.26-.26Z" style="fill: #3a4a93"/>
        <path d="M60.5,89.12a.26.26,0,0,1,.26-.26H64a2.51,2.51,0,0,1,1.38,4.82A2.64,2.64,0,0,1,67.29,96a2.85,2.85,0,0,1-3.05,2.7H60.76a.26.26,0,0,1-.26-.26Zm3.27,3.71a1,1,0,0,0,1-1,1,1,0,0,0-1-1H62.68v2ZM64,96.66a1,1,0,0,0,1-1,1.12,1.12,0,0,0-1.14-1H62.68v2Z" style="fill: #3a4a93"/>
        <path d="M69.22,89.12a.27.27,0,0,1,.27-.26h1.72a.26.26,0,0,1,.26.26V94.8a1.74,1.74,0,1,0,3.48,0V89.12a.26.26,0,0,1,.26-.26h1.73a.26.26,0,0,1,.26.26v5.79a4,4,0,0,1-8,0Z" style="fill: #3a4a93"/>
        <path d="M81,90.92H79a.27.27,0,0,1-.26-.27V89.12a.26.26,0,0,1,.26-.26h6.22a.26.26,0,0,1,.27.26v1.53a.27.27,0,0,1-.27.27h-2V98.4a.27.27,0,0,1-.27.26H81.22A.27.27,0,0,1,81,98.4Z" style="fill: #3a4a93"/>
        <path d="M88.76,90.92h-2a.27.27,0,0,1-.26-.27V89.12a.26.26,0,0,1,.26-.26H93a.26.26,0,0,1,.27.26v1.53a.27.27,0,0,1-.27.27H91V98.4a.27.27,0,0,1-.27.26H89a.26.26,0,0,1-.26-.26Z" style="fill: #3a4a93"/>
        <path d="M94.79,89.12a.26.26,0,0,1,.27-.26h5.8a.26.26,0,0,1,.26.26v1.53a.27.27,0,0,1-.26.27H97v1.73h3.19a.28.28,0,0,1,.27.27v1.53a.27.27,0,0,1-.27.26H97V96.6h3.88a.27.27,0,0,1,.26.27V98.4a.26.26,0,0,1-.26.26h-5.8a.26.26,0,0,1-.27-.26Z" style="fill: #3a4a93"/>
        <path d="M103.39,89.12a.26.26,0,0,1,.26-.26h4.19a3,3,0,0,1,1,5.84l1.92,3.56a.26.26,0,0,1-.24.4h-1.86a.27.27,0,0,1-.22-.12l-1.87-3.72h-1V98.4a.27.27,0,0,1-.27.26h-1.67a.26.26,0,0,1-.26-.26ZM107.66,93a1.12,1.12,0,0,0,1.07-1.12,1.08,1.08,0,0,0-1.07-1.06h-2.07V93Z" style="fill: #3a4a93"/>
        <path d="M115.78,89.19a.24.24,0,0,1,.25-.33h1.64a.28.28,0,0,1,.25.19l1.2,4.75h.06l2.17-4.93a.27.27,0,0,1,.24-.15h.25a.24.24,0,0,1,.24.15l2.17,4.93h.06l1.2-4.75a.28.28,0,0,1,.25-.19h1.64a.25.25,0,0,1,.26.33L125,98.61a.27.27,0,0,1-.25.19h-.23a.3.3,0,0,1-.24-.15l-2.56-5.73h0l-2.55,5.73a.29.29,0,0,1-.24.15h-.22a.28.28,0,0,1-.26-.19Z" style="fill: #3a4a93"/>
        <path d="M133.57,88.72a5,5,0,1,1-5,5A5,5,0,0,1,133.57,88.72Zm0,7.84a2.8,2.8,0,1,0-2.78-2.79A2.81,2.81,0,0,0,133.57,96.56Z" style="fill: #3a4a93"/>
        <path d="M140.61,89.12a.26.26,0,0,1,.27-.26h1.66a.27.27,0,0,1,.27.26V96.6h3.33a.27.27,0,0,1,.27.27V98.4a.26.26,0,0,1-.27.26h-5.26a.26.26,0,0,1-.27-.26Z" style="fill: #3a4a93"/>
        <path d="M147.94,89.12a.26.26,0,0,1,.27-.26H154a.26.26,0,0,1,.26.26v1.53a.27.27,0,0,1-.26.27h-3.88v2h3.19a.28.28,0,0,1,.27.27v1.53a.27.27,0,0,1-.27.26h-3.19V98.4a.27.27,0,0,1-.27.26h-1.65a.26.26,0,0,1-.27-.26Z" style="fill: #3a4a93"/>
        <path d="M2.36,104.53H1.05a.18.18,0,0,1-.17-.17v-1a.18.18,0,0,1,.17-.17h4a.18.18,0,0,1,.18.17v1a.18.18,0,0,1-.18.17H3.79v4.86a.18.18,0,0,1-.17.17H2.53a.18.18,0,0,1-.17-.17Z" style="fill: #c46c49"/>
        <path d="M6.14,103.37a.18.18,0,0,1,.18-.17H7.4a.17.17,0,0,1,.17.17v2.29h2.6v-2.29a.18.18,0,0,1,.17-.17h1.09a.18.18,0,0,1,.17.17v6a.18.18,0,0,1-.17.17H10.34a.18.18,0,0,1-.17-.17V107H7.57v2.39a.17.17,0,0,1-.17.17H6.32a.18.18,0,0,1-.18-.17Z" style="fill: #c46c49"/>
        <path d="M13.19,103.37a.17.17,0,0,1,.17-.17h3.77a.17.17,0,0,1,.17.17v1a.17.17,0,0,1-.17.17H14.61v1.13h2.07a.18.18,0,0,1,.18.17v1a.19.19,0,0,1-.18.18H14.61v1.23h2.52a.17.17,0,0,1,.17.17v1a.17.17,0,0,1-.17.17H13.36a.17.17,0,0,1-.17-.17Z" style="fill: #c46c49"/>
        <path d="M21.16,103.25a.17.17,0,0,1,.17-.14h.14a.19.19,0,0,1,.16.09l2.11,3.92h0l2.11-3.92a.19.19,0,0,1,.16-.09h.14a.17.17,0,0,1,.17.14l1,6.11a.17.17,0,0,1-.18.2H26.11a.18.18,0,0,1-.17-.14l-.41-2.81h0L24,109.55a.2.2,0,0,1-.15.1h-.17a.19.19,0,0,1-.15-.1L22,106.61h0l-.4,2.81a.17.17,0,0,1-.17.14H20.31a.17.17,0,0,1-.18-.2Z" style="fill: #c46c49"/>
        <path d="M28.41,103.37a.18.18,0,0,1,.17-.17H29.7a.18.18,0,0,1,.18.17v3.68A1.11,1.11,0,0,0,31,108.2a1.12,1.12,0,0,0,1.14-1.15v-3.68a.17.17,0,0,1,.17-.17h1.12a.18.18,0,0,1,.17.17v3.75a2.59,2.59,0,0,1-5.18,0Z" style="fill: #c46c49"/>
        <path d="M34.75,108.7l.42-.76a.23.23,0,0,1,.31,0,2.71,2.71,0,0,0,1.3.5.57.57,0,0,0,.62-.55c0-.38-.32-.67-.93-.92a2.34,2.34,0,0,1-1.77-2,1.88,1.88,0,0,1,2.1-1.8,3.38,3.38,0,0,1,2,.68c.11.06.09.22,0,.29l-.46.7c-.06.1-.23.18-.31.12a2.75,2.75,0,0,0-1.3-.55.52.52,0,0,0-.57.47c0,.33.27.59,1,.88s1.84.83,1.84,2.07a2,2,0,0,1-2.15,1.88,2.9,2.9,0,0,1-2.05-.7C34.7,108.86,34.67,108.83,34.75,108.7Z" style="fill: #c46c49"/>
        <path d="M41,104.53h-1.3a.17.17,0,0,1-.17-.17v-1a.17.17,0,0,1,.17-.17h4a.17.17,0,0,1,.17.17v1a.17.17,0,0,1-.17.17h-1.3v4.86a.18.18,0,0,1-.17.17H41.2a.18.18,0,0,1-.18-.17Z" style="fill: #c46c49"/>
        <path d="M43.69,109.33l2.85-6.12a.18.18,0,0,1,.15-.1h.09a.18.18,0,0,1,.16.1l2.84,6.12a.15.15,0,0,1-.15.23h-1c-.16,0-.24,0-.32-.23l-.33-.71H45.5l-.33.72a.33.33,0,0,1-.32.22h-1A.16.16,0,0,1,43.69,109.33Zm3.74-2-.69-1.5h0l-.68,1.5Z" style="fill: #c46c49"/>
        <path d="M53.17,103.11a3.07,3.07,0,0,1,2.2.84.18.18,0,0,1,0,.26l-.71.73a.15.15,0,0,1-.23,0,1.83,1.83,0,0,0-1.22-.46,1.86,1.86,0,0,0,0,3.72,1.91,1.91,0,0,0,1.21-.44.19.19,0,0,1,.24,0l.71.76a.17.17,0,0,1,0,.24,3.12,3.12,0,0,1-2.21.88,3.27,3.27,0,1,1,0-6.54Z" style="fill: #c46c49"/>
        <path d="M56.47,103.37a.18.18,0,0,1,.17-.17h1.08a.17.17,0,0,1,.17.17v2.29H60.5v-2.29a.17.17,0,0,1,.17-.17h1.08a.18.18,0,0,1,.17.17v6a.18.18,0,0,1-.17.17H60.67a.17.17,0,0,1-.17-.17V107H57.89v2.39a.17.17,0,0,1-.17.17H56.64a.18.18,0,0,1-.17-.17Z" style="fill: #c46c49"/>
        <path d="M63.51,103.37a.18.18,0,0,1,.18-.17h3.76a.17.17,0,0,1,.17.17v1a.17.17,0,0,1-.17.17H64.93v1.13H67a.18.18,0,0,1,.17.17v1A.18.18,0,0,1,67,107H64.93v1.23h2.52a.17.17,0,0,1,.17.17v1a.17.17,0,0,1-.17.17H63.69a.18.18,0,0,1-.18-.17Z" style="fill: #c46c49"/>
        <path d="M70.86,103.37a.17.17,0,0,1,.17-.17h2.12a1.83,1.83,0,0,1,2,1.69,1.79,1.79,0,0,1-1.06,1.43,1.74,1.74,0,0,1,1.22,1.49,1.85,1.85,0,0,1-2,1.75H71a.17.17,0,0,1-.17-.17ZM73,105.78a.65.65,0,0,0,.63-.66.61.61,0,0,0-.63-.61h-.71v1.27Zm.11,2.48a.66.66,0,0,0,.66-.66A.73.73,0,0,0,73,107h-.73v1.3Z" style="fill: #c46c49"/>
        <path d="M75.64,109.33l2.84-6.12a.18.18,0,0,1,.16-.1h.09a.18.18,0,0,1,.15.1l2.85,6.12a.16.16,0,0,1-.16.23h-1c-.16,0-.23,0-.31-.23l-.33-.71H77.45l-.33.72a.35.35,0,0,1-.33.22h-1A.15.15,0,0,1,75.64,109.33Zm3.73-2-.69-1.5h0l-.68,1.5Z" style="fill: #c46c49"/>
        <path d="M82.28,108.7l.43-.76a.23.23,0,0,1,.31,0,2.71,2.71,0,0,0,1.29.5.57.57,0,0,0,.63-.55c0-.38-.32-.67-.94-.92a2.34,2.34,0,0,1-1.76-2,1.88,1.88,0,0,1,2.1-1.8,3.44,3.44,0,0,1,2,.68.23.23,0,0,1,0,.29l-.46.7c-.07.1-.23.18-.31.12a2.86,2.86,0,0,0-1.3-.55.53.53,0,0,0-.58.47c0,.33.28.59,1,.88s1.84.83,1.84,2.07a2,2,0,0,1-2.14,1.88,2.88,2.88,0,0,1-2-.7C82.24,108.86,82.21,108.83,82.28,108.7Z" style="fill: #c46c49"/>
        <path d="M87.7,103.37a.18.18,0,0,1,.17-.17H89a.17.17,0,0,1,.17.17v2.29h2.6v-2.29a.18.18,0,0,1,.18-.17H93a.18.18,0,0,1,.17.17v6a.18.18,0,0,1-.17.17H91.9a.18.18,0,0,1-.18-.17V107h-2.6v2.39a.17.17,0,0,1-.17.17H87.87a.18.18,0,0,1-.17-.17Z" style="fill: #c46c49"/>
        <path d="M96.73,103.37a.17.17,0,0,1,.17-.17h3.77a.17.17,0,0,1,.17.17v1a.17.17,0,0,1-.17.17H98.15v1.31h2.07a.19.19,0,0,1,.18.18v1a.18.18,0,0,1-.18.17H98.15v2.21a.18.18,0,0,1-.17.17H96.9a.17.17,0,0,1-.17-.17Z" style="fill: #c46c49"/>
        <path d="M100.7,109.33l2.85-6.12a.16.16,0,0,1,.15-.1h.09a.19.19,0,0,1,.16.1l2.84,6.12a.16.16,0,0,1-.15.23h-1c-.17,0-.24,0-.32-.23l-.33-.71h-2.47l-.33.72a.33.33,0,0,1-.33.22h-1A.16.16,0,0,1,100.7,109.33Zm3.74-2-.69-1.5h0l-.69,1.5Z" style="fill: #c46c49"/>
        <path d="M108.42,103.25a.16.16,0,0,1,.16-.14h.14a.19.19,0,0,1,.16.09l2.11,3.92h0l2.11-3.92a.18.18,0,0,1,.15-.09h.15a.17.17,0,0,1,.16.14l1,6.11a.17.17,0,0,1-.17.2h-1.08a.18.18,0,0,1-.17-.14l-.41-2.81h0l-1.53,2.94a.18.18,0,0,1-.15.1h-.16a.19.19,0,0,1-.16-.1l-1.54-2.94h0l-.4,2.81a.19.19,0,0,1-.18.14h-1.07a.16.16,0,0,1-.17-.2Z" style="fill: #c46c49"/>
        <path d="M115.79,103.37a.18.18,0,0,1,.18-.17h1.09a.18.18,0,0,1,.17.17v6a.18.18,0,0,1-.17.17H116a.18.18,0,0,1-.18-.17Z" style="fill: #c46c49"/>
        <path d="M118.81,103.37a.17.17,0,0,1,.17-.17h1.08a.18.18,0,0,1,.17.17v4.86h2.17a.17.17,0,0,1,.17.17v1a.17.17,0,0,1-.17.17H119a.17.17,0,0,1-.17-.17Z" style="fill: #c46c49"/>
        <path d="M124.05,106.5l-2-3a.17.17,0,0,1,.15-.26h1.18a.16.16,0,0,1,.14.08l1.27,1.86,1.26-1.86a.17.17,0,0,1,.15-.08h1.18a.16.16,0,0,1,.14.26l-2,3v2.9a.18.18,0,0,1-.18.17h-1.08a.17.17,0,0,1-.17-.17Z" style="fill: #c46c49"/>
        <path d="M130.26,103.37a.17.17,0,0,1,.17-.17h2.12a1.82,1.82,0,0,1,1.95,1.69,1.78,1.78,0,0,1-1.05,1.43,1.74,1.74,0,0,1,1.22,1.49,1.85,1.85,0,0,1-2,1.75h-2.25a.17.17,0,0,1-.17-.17Zm2.12,2.41a.65.65,0,0,0,.64-.66.61.61,0,0,0-.64-.61h-.7v1.27Zm.12,2.48a.66.66,0,0,0,.66-.66.73.73,0,0,0-.75-.64h-.73v1.3Z" style="fill: #c46c49"/>
        <path d="M135,109.33l2.85-6.12a.18.18,0,0,1,.16-.1h.09a.18.18,0,0,1,.15.1l2.85,6.12a.16.16,0,0,1-.16.23h-1c-.16,0-.23,0-.32-.23l-.32-.71h-2.48l-.32.72a.35.35,0,0,1-.33.22h-1A.16.16,0,0,1,135,109.33Zm3.74-2-.69-1.5h0l-.68,1.5Z" style="fill: #c46c49"/>
        <path d="M141.92,103.27a.18.18,0,0,1,.18-.16h.22L146,106.6h0v-3.23a.18.18,0,0,1,.17-.17h1.1a.18.18,0,0,1,.17.17v6.12a.17.17,0,0,1-.17.16h-.15a.25.25,0,0,1-.12,0L143.37,106h0v3.39a.17.17,0,0,1-.17.17h-1.08a.18.18,0,0,1-.18-.17Z" style="fill: #c46c49"/>
        <path d="M148.81,103.37a.17.17,0,0,1,.17-.17h2.22a3.18,3.18,0,1,1,0,6.36H149a.17.17,0,0,1-.17-.17Zm2.29,4.85a1.85,1.85,0,0,0,0-3.69h-.87v3.69Z" style="fill: #c46c49"/>
        <path d="M1.26,114.19a.13.13,0,0,1,.13-.13H3.1a2.45,2.45,0,1,1,0,4.9H1.39a.13.13,0,0,1-.13-.13ZM3,117.93a1.42,1.42,0,0,0,0-2.84H2.36v2.84Z" style="fill: #5674e6"/>
        <path d="M6.39,114.19a.13.13,0,0,1,.13-.13h.84a.14.14,0,0,1,.14.13v4.64a.14.14,0,0,1-.14.13H6.52a.13.13,0,0,1-.13-.13Z" style="fill: #5674e6"/>
        <path d="M8.41,118.3l.33-.58a.18.18,0,0,1,.24,0,2,2,0,0,0,1,.39.45.45,0,0,0,.49-.42c0-.3-.25-.52-.73-.71s-1.35-.71-1.35-1.55A1.45,1.45,0,0,1,10,114a2.56,2.56,0,0,1,1.5.53c.09,0,.07.17,0,.22l-.36.54c0,.08-.18.14-.24.09a2.1,2.1,0,0,0-1-.42.41.41,0,0,0-.44.36c0,.26.21.45.76.68s1.41.64,1.41,1.59A1.54,1.54,0,0,1,10,119a2.21,2.21,0,0,1-1.57-.54C8.38,118.42,8.36,118.4,8.41,118.3Z" style="fill: #5674e6"/>
        <path d="M14.67,114a2.39,2.39,0,0,1,1.7.65.14.14,0,0,1,0,.2l-.55.57a.15.15,0,0,1-.18,0,1.37,1.37,0,0,0-.94-.36,1.39,1.39,0,0,0-1.37,1.44,1.38,1.38,0,0,0,1.38,1.42,1.51,1.51,0,0,0,.93-.33.14.14,0,0,1,.19,0l.54.58a.15.15,0,0,1,0,.19,2.39,2.39,0,0,1-1.71.68,2.52,2.52,0,1,1,0-5Z" style="fill: #5674e6"/>
        <path d="M19.25,114a2.52,2.52,0,1,1,0,5,2.52,2.52,0,0,1,0-5Zm0,3.92a1.4,1.4,0,1,0-1.39-1.39A1.4,1.4,0,0,0,19.25,117.91Z" style="fill: #5674e6"/>
        <path d="M23.15,115.09h-1A.13.13,0,0,1,22,115v-.77a.13.13,0,0,1,.13-.13h3.11a.13.13,0,0,1,.13.13V115a.13.13,0,0,1-.13.13h-1v3.74a.14.14,0,0,1-.14.13h-.84a.13.13,0,0,1-.13-.13Z" style="fill: #5674e6"/>
        <path d="M28.14,114a2.52,2.52,0,1,1,0,5,2.52,2.52,0,0,1,0-5Zm0,3.92a1.4,1.4,0,1,0-1.39-1.39A1.4,1.4,0,0,0,28.14,117.91Z" style="fill: #5674e6"/>
        <path d="M31.2,118.3l.33-.58a.18.18,0,0,1,.24,0,2,2,0,0,0,1,.39.44.44,0,0,0,.48-.42c0-.3-.25-.52-.72-.71s-1.36-.71-1.36-1.55A1.45,1.45,0,0,1,32.79,114a2.56,2.56,0,0,1,1.5.53c.08,0,.07.17,0,.22l-.36.54c0,.08-.17.14-.24.09a2.1,2.1,0,0,0-1-.42.41.41,0,0,0-.44.36c0,.26.21.45.76.68s1.42.64,1.42,1.59A1.55,1.55,0,0,1,32.81,119a2.21,2.21,0,0,1-1.57-.54C31.17,118.42,31.15,118.4,31.2,118.3Z" style="fill: #5674e6"/>
        <path d="M35.31,114.19a.13.13,0,0,1,.13-.13h.84a.13.13,0,0,1,.13.13V116h2v-1.77a.13.13,0,0,1,.14-.13h.83a.13.13,0,0,1,.13.13v4.64a.13.13,0,0,1-.13.13h-.83a.13.13,0,0,1-.14-.13V117h-2v1.84a.13.13,0,0,1-.13.13h-.84a.13.13,0,0,1-.13-.13Z" style="fill: #5674e6"/>
        <path d="M40.68,114.19a.13.13,0,0,1,.13-.13h.84a.14.14,0,0,1,.14.13v4.64a.14.14,0,0,1-.14.13h-.84a.13.13,0,0,1-.13-.13Z" style="fill: #5674e6"/>
        <path d="M45.09,118.78l2.2-4.71a.15.15,0,0,1,.12-.08h.07a.16.16,0,0,1,.12.08l2.19,4.71a.12.12,0,0,1-.12.18h-.78c-.13,0-.18,0-.24-.17l-.26-.56h-1.9l-.25.56A.27.27,0,0,1,46,119h-.77A.12.12,0,0,1,45.09,118.78Zm2.88-1.5-.53-1.15h0l-.52,1.15Z" style="fill: #3a4a93"/>
        <path d="M50.35,114.19a.13.13,0,0,1,.13-.13h1.63a1.26,1.26,0,0,1,.7,2.41,1.32,1.32,0,0,1,.93,1.14A1.42,1.42,0,0,1,52.22,119H50.48a.13.13,0,0,1-.13-.13ZM52,116.05a.51.51,0,0,0,.49-.51.47.47,0,0,0-.49-.47h-.55v1Zm.09,1.91a.5.5,0,0,0,.5-.51A.56.56,0,0,0,52,117h-.57v1Z" style="fill: #3a4a93"/>
        <path d="M54.64,114.19a.13.13,0,0,1,.13-.13H56.4a1.26,1.26,0,0,1,.69,2.41,1.33,1.33,0,0,1,.94,1.14A1.42,1.42,0,0,1,56.51,119H54.77a.13.13,0,0,1-.13-.13Zm1.63,1.86a.5.5,0,0,0,.49-.51.47.47,0,0,0-.49-.47h-.54v1Zm.1,1.91a.5.5,0,0,0,.5-.51.56.56,0,0,0-.57-.49h-.57v1Z" style="fill: #3a4a93"/>
        <path d="M59.71,116.6l-1.55-2.34a.13.13,0,0,1,.12-.2h.91a.17.17,0,0,1,.11.06l1,1.44,1-1.44a.13.13,0,0,1,.11-.06h.91a.13.13,0,0,1,.11.2l-1.57,2.34v2.23a.13.13,0,0,1-.13.13h-.84a.13.13,0,0,1-.13-.13Z" style="fill: #3a4a93"/>
        <path d="M64.24,114.12a.13.13,0,0,1,.13-.13h.18l2.79,2.69h0v-2.49a.13.13,0,0,1,.13-.13h.84a.14.14,0,0,1,.14.13v4.72a.13.13,0,0,1-.14.12h-.11l-.09,0-2.77-2.78h0v2.61a.13.13,0,0,1-.14.13h-.83a.13.13,0,0,1-.13-.13Z" style="fill: #3a4a93"/>
        <path d="M71.8,114a2.52,2.52,0,1,1,0,5,2.52,2.52,0,0,1,0-5Zm0,3.92a1.4,1.4,0,1,0-1.39-1.39A1.4,1.4,0,0,0,71.8,117.91Z" style="fill: #3a4a93"/>
        <path d="M75.15,114.19a.13.13,0,0,1,.13-.13h2.1a1.5,1.5,0,0,1,.49,2.92l1,1.78a.13.13,0,0,1-.12.2h-.93a.14.14,0,0,1-.12-.06L76.73,117h-.48v1.79a.13.13,0,0,1-.13.13h-.84a.13.13,0,0,1-.13-.13Zm2.14,2a.56.56,0,0,0,.53-.56.54.54,0,0,0-.53-.53h-1v1.09Z" style="fill: #3a4a93"/>
        <path d="M80.25,114.1a.14.14,0,0,1,.13-.11h.11a.15.15,0,0,1,.12.07l1.63,3h0l1.62-3A.19.19,0,0,1,84,114h.12a.14.14,0,0,1,.12.11l.79,4.71a.12.12,0,0,1-.13.15h-.83a.14.14,0,0,1-.13-.11l-.31-2.16h0L82.42,119a.15.15,0,0,1-.11.07h-.13a.15.15,0,0,1-.12-.07l-1.18-2.27h0l-.31,2.16a.12.12,0,0,1-.13.11h-.83a.13.13,0,0,1-.13-.15Z" style="fill: #3a4a93"/>
        <path d="M85.43,118.78l2.19-4.71a.15.15,0,0,1,.12-.08h.07a.15.15,0,0,1,.12.08l2.19,4.71A.12.12,0,0,1,90,119h-.78c-.12,0-.18,0-.24-.17l-.26-.56h-1.9l-.25.56a.26.26,0,0,1-.25.17h-.78A.12.12,0,0,1,85.43,118.78Zm2.87-1.5-.53-1.15h0l-.53,1.15Z" style="fill: #3a4a93"/>
        <path d="M90.68,114.19a.13.13,0,0,1,.13-.13h.84a.14.14,0,0,1,.13.13v3.74h1.67a.14.14,0,0,1,.13.14v.76a.13.13,0,0,1-.13.13H90.81a.13.13,0,0,1-.13-.13Z" style="fill: #3a4a93"/>
        <path d="M96.71,118.3l.33-.58a.18.18,0,0,1,.24,0,2,2,0,0,0,1,.39.45.45,0,0,0,.49-.42c0-.3-.25-.52-.72-.71s-1.36-.71-1.36-1.55A1.45,1.45,0,0,1,98.29,114a2.56,2.56,0,0,1,1.5.53c.09,0,.07.17,0,.22l-.36.54c0,.08-.18.14-.24.09a2.1,2.1,0,0,0-1-.42.41.41,0,0,0-.44.36c0,.26.21.45.76.68s1.42.64,1.42,1.59A1.55,1.55,0,0,1,98.32,119a2.21,2.21,0,0,1-1.57-.54C96.68,118.42,96.66,118.4,96.71,118.3Z" style="fill: #e8ac8f"/>
        <path d="M100.82,114.19a.13.13,0,0,1,.13-.13h.84a.13.13,0,0,1,.13.13V116h2v-1.77a.13.13,0,0,1,.14-.13h.83a.13.13,0,0,1,.13.13v4.64a.13.13,0,0,1-.13.13h-.83a.13.13,0,0,1-.14-.13V117h-2v1.84a.13.13,0,0,1-.13.13H101a.13.13,0,0,1-.13-.13Z" style="fill: #e8ac8f"/>
        <path d="M106.19,114.19a.13.13,0,0,1,.13-.13h2.9a.13.13,0,0,1,.13.13V115a.13.13,0,0,1-.13.13h-1.94V116h1.6a.13.13,0,0,1,.13.13v.76a.13.13,0,0,1-.13.14h-1.6v.94h1.94a.13.13,0,0,1,.13.14v.76a.13.13,0,0,1-.13.13h-2.9a.13.13,0,0,1-.13-.13Z" style="fill: #e8ac8f"/>
        <path d="M109.86,118.69c.41-.53,1.44-1.94,1.86-2.57a1,1,0,0,0,.18-.53.55.55,0,0,0-.62-.51,1.07,1.07,0,0,0-.68.35.12.12,0,0,1-.19,0L110,115a.13.13,0,0,1,0-.18,2,2,0,0,1,1.4-.69,1.44,1.44,0,0,1,1.59,1.41,1.7,1.7,0,0,1-.27.91c-.22.4-.8,1.15-1.13,1.62h1.24a.13.13,0,0,1,.13.13v.63a.13.13,0,0,1-.13.13H110a.13.13,0,0,1-.13-.13Z" style="fill: #e8ac8f"/>
        <path d="M113.9,114.19a.13.13,0,0,1,.13-.13h.84a.13.13,0,0,1,.13.13V116h2v-1.77a.13.13,0,0,1,.14-.13H118a.13.13,0,0,1,.13.13v4.64a.13.13,0,0,1-.13.13h-.83a.13.13,0,0,1-.14-.13V117h-2v1.84a.13.13,0,0,1-.13.13H114a.13.13,0,0,1-.13-.13Z" style="fill: #e8ac8f"/>
        <path d="M119.27,114.19a.13.13,0,0,1,.13-.13h2.9a.13.13,0,0,1,.13.13V115a.13.13,0,0,1-.13.13h-1.94V116H122a.13.13,0,0,1,.13.13v.76a.13.13,0,0,1-.13.14h-1.6v.94h1.94a.13.13,0,0,1,.13.14v.76a.13.13,0,0,1-.13.13h-2.9a.13.13,0,0,1-.13-.13Z" style="fill: #e8ac8f"/>
        <path d="M126.11,114.19a.12.12,0,0,1,.12-.13h1.71a2.45,2.45,0,1,1,0,4.9h-1.71a.12.12,0,0,1-.12-.13Zm1.76,3.74a1.42,1.42,0,0,0,0-2.84h-.67v2.84Z" style="fill: #5674e6"/>
        <path d="M130.42,118.35l.47-.47a.13.13,0,0,1,.19,0,.46.46,0,0,0,.36.14c.2,0,.41-.18.41-.53v-3.3a.13.13,0,0,1,.14-.13h.85a.13.13,0,0,1,.13.13v3.31a1.45,1.45,0,0,1-1.5,1.53,1.35,1.35,0,0,1-1.07-.51A.15.15,0,0,1,130.42,118.35Z" style="fill: #5674e6"/>
        <path d="M135.38,114.19a.13.13,0,0,1,.13-.13h1.71a2.45,2.45,0,1,1,0,4.9h-1.71a.13.13,0,0,1-.13-.13Zm1.77,3.74a1.42,1.42,0,0,0,0-2.84h-.68v2.84Z" style="fill: #5674e6"/>
        <path d="M140.51,114.19a.13.13,0,0,1,.13-.13h.84a.13.13,0,0,1,.13.13v4.64a.13.13,0,0,1-.13.13h-.84a.13.13,0,0,1-.13-.13Z" style="fill: #5674e6"/>
        <path d="M142.17,118.78l2.19-4.71a.15.15,0,0,1,.12-.08h.07a.15.15,0,0,1,.12.08l2.19,4.71a.12.12,0,0,1-.12.18H146c-.12,0-.18,0-.24-.17l-.25-.56h-1.91l-.25.56a.25.25,0,0,1-.25.17h-.77A.12.12,0,0,1,142.17,118.78Zm2.88-1.5-.53-1.15h0l-.53,1.15Z" style="fill: #5674e6"/>
        <path d="M147.42,114.19a.13.13,0,0,1,.14-.13h.83a.13.13,0,0,1,.13.13v3.74h1.67a.13.13,0,0,1,.13.14v.76a.13.13,0,0,1-.13.13h-2.63a.13.13,0,0,1-.14-.13Z" style="fill: #5674e6"/>
        <path d="M150.79,118.3l.33-.58a.18.18,0,0,1,.24,0,2,2,0,0,0,1,.39.44.44,0,0,0,.48-.42c0-.3-.25-.52-.72-.71s-1.36-.71-1.36-1.55a1.45,1.45,0,0,1,1.62-1.39,2.56,2.56,0,0,1,1.5.53c.08,0,.07.17,0,.22l-.36.54c-.05.08-.17.14-.24.09a2.1,2.1,0,0,0-1-.42.41.41,0,0,0-.44.36c0,.26.21.45.76.68s1.42.64,1.42,1.59A1.55,1.55,0,0,1,152.4,119a2.21,2.21,0,0,1-1.57-.54C150.76,118.42,150.74,118.4,150.79,118.3Z" style="fill: #5674e6"/>
        <g>
          <path d="M121.39,33.27a.13.13,0,0,1,.12-.14h1.71a2.46,2.46,0,1,1,0,4.91h-1.71a.12.12,0,0,1-.12-.13ZM123.15,37a1.42,1.42,0,0,0,0-2.84h-.67V37Z" style="fill: #c46c49"/>
          <path d="M125.67,37.42l.47-.47a.14.14,0,0,1,.19,0,.44.44,0,0,0,.36.15c.2,0,.41-.18.41-.53v-3.3a.14.14,0,0,1,.14-.14h.85a.13.13,0,0,1,.13.14v3.31a1.45,1.45,0,0,1-1.5,1.53,1.35,1.35,0,0,1-1.07-.51A.15.15,0,0,1,125.67,37.42Z" style="fill: #c46c49"/>
          <path d="M130.6,37.37l.32-.58a.19.19,0,0,1,.24,0,2.07,2.07,0,0,0,1,.39.44.44,0,0,0,.48-.42c0-.3-.24-.52-.72-.71s-1.36-.71-1.36-1.55a1.46,1.46,0,0,1,1.62-1.4,2.63,2.63,0,0,1,1.5.53.18.18,0,0,1,0,.22l-.36.54c-.05.08-.17.14-.23.09a2.32,2.32,0,0,0-1-.42.41.41,0,0,0-.44.36c0,.26.21.46.77.68s1.41.65,1.41,1.6a1.54,1.54,0,0,1-1.65,1.45,2.24,2.24,0,0,1-1.58-.54C130.56,37.5,130.54,37.47,130.6,37.37Z" style="fill: #c46c49"/>
          <path d="M134.68,33.27a.14.14,0,0,1,.14-.14h2.9a.13.13,0,0,1,.13.14V34a.13.13,0,0,1-.13.13h-1.94V35h1.6a.14.14,0,0,1,.13.14v.76a.13.13,0,0,1-.13.13h-1.6V37h1.94a.13.13,0,0,1,.13.13v.77a.13.13,0,0,1-.13.13h-2.9a.13.13,0,0,1-.14-.13Z" style="fill: #c46c49"/>
          <path d="M139.44,34.16h-1a.13.13,0,0,1-.13-.13v-.76a.14.14,0,0,1,.13-.14h3.11a.14.14,0,0,1,.14.14V34a.13.13,0,0,1-.14.13h-1v3.75a.13.13,0,0,1-.13.13h-.84a.14.14,0,0,1-.14-.13Z" style="fill: #c46c49"/>
        </g>
        <path d="M143,35.58a1.15,1.15,0,0,1,1.12-1.16,1.17,1.17,0,0,1,1.15,1.16,1.15,1.15,0,0,1-1.15,1.12A1.14,1.14,0,0,1,143,35.58Z" style="fill: #c46c49"/>
        <path d="M147.09,35.58a1.14,1.14,0,1,1,1.13,1.12A1.15,1.15,0,0,1,147.09,35.58Z" style="fill: #c46c49"/>
        <path d="M151.16,35.58a1.16,1.16,0,0,1,1.12-1.16,1.17,1.17,0,0,1,1.16,1.16,1.16,1.16,0,0,1-1.16,1.12A1.14,1.14,0,0,1,151.16,35.58Z" style="fill: #c46c49"/>
        <path d="M108.61,35.58a1.16,1.16,0,0,1,1.12-1.16,1.17,1.17,0,0,1,1.16,1.16,1.16,1.16,0,0,1-1.16,1.12A1.14,1.14,0,0,1,108.61,35.58Z" style="fill: #c46c49"/>
        <path d="M112.68,35.58a1.14,1.14,0,1,1,1.12,1.12A1.14,1.14,0,0,1,112.68,35.58Z" style="fill: #c46c49"/>
        <path d="M116.74,35.58a1.14,1.14,0,1,1,1.13,1.12A1.15,1.15,0,0,1,116.74,35.58Z" style="fill: #c46c49"/>
      </g>
    </g>
  </g>
</svg>
