<svg id="Layer_1" data-name="Layer 1" xmlns="http://www.w3.org/2000/svg" viewBox="0 0 907.14 127.47">
  <defs>
    <style>
      .cls-1 {
        fill: #653a17;
      }

      .cls-2 {
        fill: #e46940;
      }

      .cls-3 {
        fill: #ecc559;
      }

      .cls-4 {
        fill: #f9eccf;
      }
    </style>
  </defs>
  <title>lineup</title>
  <g>
    <g>
      <path class="cls-1" d="M639.77,13H532.87a2.06,2.06,0,0,1,0-4.12h106.9a2.06,2.06,0,1,1,0,4.12Z" transform="translate(-7.25 -6.91)"/>
      <circle class="cls-1" cx="511.9" cy="3.9" r="3.9"/>
      <g>
        <circle class="cls-1" cx="792.05" cy="25.8" r="9.96"/>
        <path class="cls-1" d="M799.3,44.73a12,12,0,1,1,12-12A12,12,0,0,1,799.3,44.73Zm0-19.92a7.9,7.9,0,1,0,7.9,7.9A7.91,7.91,0,0,0,799.3,24.81Z" transform="translate(-7.25 -6.91)"/>
      </g>
    </g>
    <g>
      <path class="cls-1" d="M428.56,132.32H29.87a10,10,0,0,1,0-19.92H75.56a5,5,0,1,0,0-10H54.84a10,10,0,0,1,0-19.93h8.63a5,5,0,0,0,0-10H19.27a10,10,0,0,1,0-19.92H196.9a5,5,0,0,0,0-10H168a10,10,0,0,1,0-19.92H763.07a10,10,0,0,1,0,19.92H727.55a5,5,0,1,0,0,10H859.94a10,10,0,0,1,0,19.92h-9.42a5,5,0,0,0,0,10h51.85a10,10,0,0,1,0,19.93H837.9a5,5,0,0,0,0,10h35.38a10,10,0,1,1,0,19.92H481.38" transform="translate(-7.25 -6.91)"/>
      <path class="cls-1" d="M428.56,134.37H29.87a12,12,0,1,1,0-24H75.56a2.93,2.93,0,0,0,0-5.85H54.84a12,12,0,1,1,0-24h8.63a2.93,2.93,0,1,0,0-5.85H19.27a12,12,0,0,1,0-24H196.9a2.92,2.92,0,0,0,0-5.84H168a12,12,0,0,1,0-24H763.07a12,12,0,0,1,0,24H727.55a2.92,2.92,0,1,0,0,5.84H859.94a12,12,0,0,1,0,24h-9.42a2.93,2.93,0,0,0,0,5.85h51.85a12,12,0,1,1,0,24H837.9a2.93,2.93,0,0,0,0,5.85h35.38a12,12,0,1,1,0,24H481.38m0-4.11h391.9a7.91,7.91,0,1,0,0-15.81H837.9a7,7,0,1,1,0-14.07h64.47a7.91,7.91,0,0,0,0-15.81H850.52a7,7,0,1,1,0-14.08h9.42a7.9,7.9,0,0,0,0-15.8H727.55a7,7,0,1,1,0-14.08h35.52a7.9,7.9,0,0,0,0-15.8H168a7.9,7.9,0,0,0,0,15.8H196.9a7,7,0,0,1,0,14.08H19.27a7.9,7.9,0,0,0,0,15.8h44.2a7,7,0,1,1,0,14.08H54.84a7.91,7.91,0,0,0,0,15.81H75.56a7,7,0,1,1,0,14.07H29.87a7.91,7.91,0,0,0,0,15.81H428.56" transform="translate(-7.25 -6.91)"/>
    </g>
    <g>
      <g>
        <g>
          <path class="cls-2" d="M84.51,68.59a.51.51,0,0,1,.52-.51h6.55a6.06,6.06,0,1,1,0,12.12H88.76v6.39a.54.54,0,0,1-.52.52H85a.52.52,0,0,1-.52-.52Zm6.83,7.64a2.13,2.13,0,0,0,2.15-2.14,2.08,2.08,0,0,0-2.15-2H88.76v4.15Z" transform="translate(-7.25 -6.91)"/>
          <path class="cls-2" d="M100,68.59a.51.51,0,0,1,.52-.51h11.26a.51.51,0,0,1,.51.51v3a.51.51,0,0,1-.51.52H104.2v3.37h6.2a.53.53,0,0,1,.52.51v3a.51.51,0,0,1-.52.51h-6.2v3.67h7.54a.51.51,0,0,1,.51.52v3a.51.51,0,0,1-.51.52H100.48a.52.52,0,0,1-.52-.52Z" transform="translate(-7.25 -6.91)"/>
          <path class="cls-2" d="M113.69,86.4l8.51-18.29a.53.53,0,0,1,.46-.3h.27a.53.53,0,0,1,.46.3L131.9,86.4a.48.48,0,0,1-.46.71h-3c-.49,0-.7-.16-.95-.68l-1-2.15H119.1l-1,2.18a1,1,0,0,1-1,.65h-3A.48.48,0,0,1,113.69,86.4Zm11.17-5.82-2.07-4.48h0l-2,4.48Z" transform="translate(-7.25 -6.91)"/>
          <path class="cls-2" d="M133.81,68.3a.5.5,0,0,1,.52-.49H135l10.84,10.44h0V68.59a.51.51,0,0,1,.52-.51h3.26a.53.53,0,0,1,.52.51v18.3a.52.52,0,0,1-.52.49h-.43a.86.86,0,0,1-.36-.13l-10.74-10.8h0V86.59a.51.51,0,0,1-.51.52h-3.24a.53.53,0,0,1-.51-.52Z" transform="translate(-7.25 -6.91)"/>
          <path class="cls-2" d="M154.25,68.59a.53.53,0,0,1,.51-.51h3.35a.51.51,0,0,1,.51.51v11a3.38,3.38,0,1,0,6.75,0v-11a.51.51,0,0,1,.51-.51h3.35a.53.53,0,0,1,.51.51V79.82a7.75,7.75,0,0,1-15.49,0Z" transform="translate(-7.25 -6.91)"/>
          <path class="cls-2" d="M176.15,72.08h-3.89a.52.52,0,0,1-.52-.52v-3a.51.51,0,0,1,.52-.51h12.07a.51.51,0,0,1,.52.51v3a.52.52,0,0,1-.52.52h-3.89V86.59a.53.53,0,0,1-.51.52h-3.27a.53.53,0,0,1-.51-.52Z" transform="translate(-7.25 -6.91)"/>
          <path class="cls-2" d="M193.58,68.59a.51.51,0,0,1,.51-.51h6.34c3.21,0,5.84,2.2,5.84,5.06,0,2.09-1.87,3.61-3.15,4.29,1.44.6,3.64,1.93,3.64,4.43,0,3-2.69,5.25-5.92,5.25h-6.75a.51.51,0,0,1-.51-.52Zm6.36,7.21a1.94,1.94,0,0,0,1.9-2,1.84,1.84,0,0,0-1.9-1.85h-2.12V75.8Zm.35,7.42a2,2,0,0,0,2-2A2.18,2.18,0,0,0,200,79.33h-2.2v3.89Z" transform="translate(-7.25 -6.91)"/>
          <path class="cls-2" d="M209.63,68.59a.53.53,0,0,1,.52-.51h3.34a.51.51,0,0,1,.52.51v11a3.37,3.37,0,1,0,6.74,0v-11a.51.51,0,0,1,.52-.51h3.34a.53.53,0,0,1,.52.51V79.82a7.75,7.75,0,0,1-15.5,0Z" transform="translate(-7.25 -6.91)"/>
          <path class="cls-2" d="M231.53,72.08h-3.88a.52.52,0,0,1-.52-.52v-3a.51.51,0,0,1,.52-.51h12.07a.51.51,0,0,1,.52.51v3a.52.52,0,0,1-.52.52h-3.89V86.59a.53.53,0,0,1-.52.52h-3.26a.54.54,0,0,1-.52-.52Z" transform="translate(-7.25 -6.91)"/>
          <path class="cls-2" d="M245.82,72.08h-3.89a.52.52,0,0,1-.52-.52v-3a.51.51,0,0,1,.52-.51H254a.51.51,0,0,1,.52.51v3a.52.52,0,0,1-.52.52h-3.88V86.59a.54.54,0,0,1-.52.52h-3.26a.53.53,0,0,1-.52-.52Z" transform="translate(-7.25 -6.91)"/>
          <path class="cls-2" d="M256.65,68.59a.51.51,0,0,1,.52-.51h11.25a.51.51,0,0,1,.52.51v3a.52.52,0,0,1-.52.52h-7.53v3.37h6.2a.53.53,0,0,1,.52.51v3a.51.51,0,0,1-.52.51h-6.2v3.67h7.53a.52.52,0,0,1,.52.52v3a.52.52,0,0,1-.52.52H257.17a.52.52,0,0,1-.52-.52Z" transform="translate(-7.25 -6.91)"/>
          <path class="cls-2" d="M272.46,68.59a.51.51,0,0,1,.51-.51h8.13A5.91,5.91,0,0,1,287,74a6,6,0,0,1-4,5.47l3.72,6.9a.51.51,0,0,1-.46.79h-3.62a.51.51,0,0,1-.43-.24l-3.62-7.21h-1.87v6.93a.54.54,0,0,1-.52.52H273a.51.51,0,0,1-.51-.52Zm8.29,7.62A2.19,2.19,0,0,0,282.82,74,2.09,2.09,0,0,0,280.75,72h-4v4.24Z" transform="translate(-7.25 -6.91)"/>
          <path class="cls-2" d="M295,68.73a.47.47,0,0,1,.49-.65h3.18a.56.56,0,0,1,.49.38l2.34,9.22h.1l4.22-9.57a.5.5,0,0,1,.46-.3h.49a.44.44,0,0,1,.46.3l4.22,9.57h.11l2.33-9.22a.57.57,0,0,1,.49-.38h3.18a.47.47,0,0,1,.49.65L312.92,87a.53.53,0,0,1-.49.38H312a.53.53,0,0,1-.46-.3l-5-11.12h-.08l-5,11.12a.53.53,0,0,1-.46.3h-.43a.51.51,0,0,1-.49-.38Z" transform="translate(-7.25 -6.91)"/>
          <path class="cls-2" d="M328.66,67.81a9.79,9.79,0,1,1-9.77,9.81A9.76,9.76,0,0,1,328.66,67.81Zm0,15.22a5.44,5.44,0,1,0-5.42-5.41A5.44,5.44,0,0,0,328.66,83Z" transform="translate(-7.25 -6.91)"/>
          <path class="cls-2" d="M341.44,68.59a.51.51,0,0,1,.51-.51h3.24a.53.53,0,0,1,.52.51V83.11h6.47a.51.51,0,0,1,.51.52v3a.51.51,0,0,1-.51.52H342a.51.51,0,0,1-.51-.52Z" transform="translate(-7.25 -6.91)"/>
          <path class="cls-2" d="M354.79,68.59a.51.51,0,0,1,.51-.51h11.26a.51.51,0,0,1,.51.51v3a.51.51,0,0,1-.51.52H359V76h6.2a.53.53,0,0,1,.51.52v3a.53.53,0,0,1-.51.52H359v6.6a.54.54,0,0,1-.52.52H355.3a.51.51,0,0,1-.51-.52Z" transform="translate(-7.25 -6.91)"/>
        </g>
        <path class="cls-3" d="M374.83,77.76a2.94,2.94,0,0,1,2.86-3,3,3,0,0,1,3,3,2.93,2.93,0,0,1-3,2.85A2.89,2.89,0,0,1,374.83,77.76Z" transform="translate(-7.25 -6.91)"/>
        <g>
          <path class="cls-4" d="M392.37,72.08h-3.89a.51.51,0,0,1-.51-.52v-3a.51.51,0,0,1,.51-.51h12.08a.51.51,0,0,1,.51.51v3a.52.52,0,0,1-.51.52h-3.89V86.59a.54.54,0,0,1-.52.52h-3.26a.54.54,0,0,1-.52-.52Z" transform="translate(-7.25 -6.91)"/>
          <path class="cls-4" d="M403.2,68.59a.53.53,0,0,1,.52-.51H407a.51.51,0,0,1,.52.51v6.86h7.78V68.59a.51.51,0,0,1,.51-.51H419a.53.53,0,0,1,.51.51v18a.53.53,0,0,1-.51.52h-3.24a.51.51,0,0,1-.51-.52V79.44h-7.78v7.15a.52.52,0,0,1-.52.52h-3.23a.54.54,0,0,1-.52-.52Z" transform="translate(-7.25 -6.91)"/>
          <path class="cls-4" d="M423.79,68.59a.51.51,0,0,1,.51-.51h11.26a.51.51,0,0,1,.51.51v3a.51.51,0,0,1-.51.52H428v3.37h6.2a.53.53,0,0,1,.51.51v3a.51.51,0,0,1-.51.51H428v3.67h7.53a.51.51,0,0,1,.51.52v3a.51.51,0,0,1-.51.52H424.3a.51.51,0,0,1-.51-.52Z" transform="translate(-7.25 -6.91)"/>
          <path class="cls-4" d="M447.29,68.24a.53.53,0,0,1,.49-.43h.44a.61.61,0,0,1,.46.27L455,79.82H455l6.31-11.74a.61.61,0,0,1,.46-.27h.44a.53.53,0,0,1,.49.43l3.07,18.27a.5.5,0,0,1-.52.6h-3.21a.55.55,0,0,1-.51-.43l-1.23-8.41h0l-4.57,8.81a.61.61,0,0,1-.46.3h-.49a.57.57,0,0,1-.46-.3l-4.6-8.81h0l-1.2,8.41a.52.52,0,0,1-.51.43h-3.21a.5.5,0,0,1-.52-.6Z" transform="translate(-7.25 -6.91)"/>
          <path class="cls-4" d="M468.46,68.59a.53.53,0,0,1,.52-.51h3.34a.51.51,0,0,1,.52.51v11a3.37,3.37,0,1,0,6.74,0v-11a.51.51,0,0,1,.52-.51h3.35a.53.53,0,0,1,.51.51V79.82a7.75,7.75,0,0,1-15.5,0Z" transform="translate(-7.25 -6.91)"/>
          <path class="cls-4" d="M486.93,84.53l1.28-2.26a.69.69,0,0,1,.92-.16A8.21,8.21,0,0,0,493,83.6,1.71,1.71,0,0,0,494.87,82c0-1.14-.95-2-2.8-2.74-2.34-.93-5.28-2.75-5.28-6,0-2.69,2.1-5.41,6.28-5.41a10.08,10.08,0,0,1,5.82,2,.69.69,0,0,1,.17.87l-1.39,2.09c-.19.3-.68.54-.92.35s-2.23-1.63-3.89-1.63a1.58,1.58,0,0,0-1.72,1.39c0,1,.82,1.77,3,2.64s5.49,2.5,5.49,6.19c0,2.8-2.42,5.63-6.42,5.63a8.63,8.63,0,0,1-6.11-2.09C486.79,85,486.71,84.91,486.93,84.53Z" transform="translate(-7.25 -6.91)"/>
          <path class="cls-4" d="M505.24,72.08h-3.89a.52.52,0,0,1-.52-.52v-3a.51.51,0,0,1,.52-.51h12.07a.51.51,0,0,1,.52.51v3a.52.52,0,0,1-.52.52h-3.89V86.59a.53.53,0,0,1-.51.52h-3.27a.53.53,0,0,1-.51-.52Z" transform="translate(-7.25 -6.91)"/>
          <path class="cls-4" d="M512.64,86.4l8.51-18.29a.53.53,0,0,1,.46-.3h.27a.54.54,0,0,1,.47.3l8.51,18.29a.48.48,0,0,1-.47.71h-3c-.49,0-.71-.16-1-.68l-1-2.15h-7.4l-1,2.18a1,1,0,0,1-1,.65h-3A.48.48,0,0,1,512.64,86.4Zm11.18-5.82-2.07-4.48h0l-2,4.48Z" transform="translate(-7.25 -6.91)"/>
          <path class="cls-4" d="M540.45,67.81A9.15,9.15,0,0,1,547,70.33a.51.51,0,0,1,0,.77l-2.12,2.2a.48.48,0,0,1-.68,0,5.55,5.55,0,0,0-3.67-1.39,5.56,5.56,0,0,0,0,11.12,5.77,5.77,0,0,0,3.64-1.3.53.53,0,0,1,.71,0L547.09,84a.54.54,0,0,1,0,.73,9.32,9.32,0,0,1-6.61,2.64,9.79,9.79,0,1,1,0-19.57Z" transform="translate(-7.25 -6.91)"/>
          <path class="cls-4" d="M549.81,68.59a.53.53,0,0,1,.52-.51h3.23a.51.51,0,0,1,.52.51v6.86h7.78V68.59a.51.51,0,0,1,.51-.51h3.24a.53.53,0,0,1,.51.51v18a.53.53,0,0,1-.51.52h-3.24a.51.51,0,0,1-.51-.52V79.44h-7.78v7.15a.52.52,0,0,1-.52.52h-3.23a.54.54,0,0,1-.52-.52Z" transform="translate(-7.25 -6.91)"/>
          <path class="cls-4" d="M570.4,68.59a.51.51,0,0,1,.51-.51h11.26a.51.51,0,0,1,.52.51v3a.52.52,0,0,1-.52.52h-7.53v3.37h6.2a.53.53,0,0,1,.51.51v3a.51.51,0,0,1-.51.51h-6.2v3.67h7.53a.52.52,0,0,1,.52.52v3a.52.52,0,0,1-.52.52H570.91a.51.51,0,0,1-.51-.52Z" transform="translate(-7.25 -6.91)"/>
          <path class="cls-4" d="M592.34,68.59a.51.51,0,0,1,.51-.51h6.34c3.21,0,5.84,2.2,5.84,5.06,0,2.09-1.87,3.61-3.15,4.29,1.44.6,3.64,1.93,3.64,4.43,0,3-2.69,5.25-5.92,5.25h-6.75a.51.51,0,0,1-.51-.52Zm6.36,7.21a1.94,1.94,0,0,0,1.9-2A1.84,1.84,0,0,0,598.7,72h-2.12V75.8Zm.35,7.42a2,2,0,0,0,2-2,2.18,2.18,0,0,0-2.23-1.91h-2.2v3.89Z" transform="translate(-7.25 -6.91)"/>
          <path class="cls-4" d="M606.14,86.4l8.51-18.29a.53.53,0,0,1,.46-.3h.27a.53.53,0,0,1,.46.3l8.51,18.29a.48.48,0,0,1-.46.71h-3c-.49,0-.7-.16-1-.68l-1-2.15h-7.39l-1,2.18a1,1,0,0,1-1,.65h-3A.48.48,0,0,1,606.14,86.4Zm11.17-5.82-2.06-4.48h0l-2,4.48Z" transform="translate(-7.25 -6.91)"/>
          <path class="cls-4" d="M625.56,84.53l1.28-2.26a.71.71,0,0,1,.93-.16,8.11,8.11,0,0,0,3.86,1.49A1.7,1.7,0,0,0,633.5,82c0-1.14-1-2-2.8-2.74-2.34-.93-5.27-2.75-5.27-6,0-2.69,2.09-5.41,6.28-5.41a10.11,10.11,0,0,1,5.82,2,.69.69,0,0,1,.16.87l-1.39,2.09c-.19.3-.68.54-.92.35s-2.23-1.63-3.89-1.63a1.57,1.57,0,0,0-1.71,1.39c0,1,.81,1.77,3,2.64s5.49,2.5,5.49,6.19c0,2.8-2.42,5.63-6.41,5.63a8.64,8.64,0,0,1-6.12-2.09C625.43,85,625.35,84.91,625.56,84.53Z" transform="translate(-7.25 -6.91)"/>
          <path class="cls-4" d="M641.27,68.59a.53.53,0,0,1,.52-.51H645a.51.51,0,0,1,.52.51v6.86h7.78V68.59a.51.51,0,0,1,.51-.51h3.24a.53.53,0,0,1,.51.51v18a.53.53,0,0,1-.51.52h-3.24a.51.51,0,0,1-.51-.52V79.44h-7.78v7.15a.52.52,0,0,1-.52.52h-3.23a.54.54,0,0,1-.52-.52Z" transform="translate(-7.25 -6.91)"/>
          <path class="cls-4" d="M668.27,68.59a.51.51,0,0,1,.52-.51H680a.51.51,0,0,1,.52.51v3a.52.52,0,0,1-.52.52h-7.53V76h6.2a.54.54,0,0,1,.52.52v3a.54.54,0,0,1-.52.52h-6.2v6.6a.53.53,0,0,1-.52.52h-3.2a.52.52,0,0,1-.52-.52Z" transform="translate(-7.25 -6.91)"/>
          <path class="cls-4" d="M679.56,86.4l8.51-18.29a.53.53,0,0,1,.46-.3h.27a.56.56,0,0,1,.47.3l8.51,18.29a.48.48,0,0,1-.47.71h-3c-.49,0-.71-.16-1-.68l-1-2.15H685l-1,2.18a1,1,0,0,1-1,.65h-3A.48.48,0,0,1,679.56,86.4Zm11.17-5.82-2.06-4.48h0l-2,4.48Z" transform="translate(-7.25 -6.91)"/>
          <path class="cls-4" d="M702.2,68.24a.52.52,0,0,1,.49-.43h.44a.61.61,0,0,1,.46.27l6.31,11.74H710l6.31-11.74a.61.61,0,0,1,.46-.27h.44a.53.53,0,0,1,.49.43l3.07,18.27a.5.5,0,0,1-.52.6H717a.55.55,0,0,1-.51-.43l-1.23-8.41h0l-4.57,8.81a.62.62,0,0,1-.46.3h-.49a.57.57,0,0,1-.46-.3l-4.6-8.81h0l-1.2,8.41a.53.53,0,0,1-.52.43h-3.2a.5.5,0,0,1-.52-.6Z" transform="translate(-7.25 -6.91)"/>
          <path class="cls-4" d="M723.77,68.59a.53.53,0,0,1,.52-.51h3.26a.53.53,0,0,1,.52.51v18a.53.53,0,0,1-.52.52h-3.26a.54.54,0,0,1-.52-.52Z" transform="translate(-7.25 -6.91)"/>
          <path class="cls-4" d="M732.3,68.59a.51.51,0,0,1,.51-.51h3.24a.53.53,0,0,1,.52.51V83.11H743a.51.51,0,0,1,.51.52v3a.51.51,0,0,1-.51.52H732.81a.51.51,0,0,1-.51-.52Z" transform="translate(-7.25 -6.91)"/>
          <path class="cls-4" d="M747.35,78l-6-9.08a.51.51,0,0,1,.44-.79h3.53a.54.54,0,0,1,.44.24l3.78,5.58,3.78-5.58a.49.49,0,0,1,.43-.24h3.54a.5.5,0,0,1,.43.79l-6.09,9v8.67a.53.53,0,0,1-.52.52h-3.23a.52.52,0,0,1-.52-.52Z" transform="translate(-7.25 -6.91)"/>
          <path class="cls-4" d="M765.9,68.59a.51.51,0,0,1,.51-.51h6.34c3.21,0,5.84,2.2,5.84,5.06,0,2.09-1.87,3.61-3.15,4.29,1.44.6,3.64,1.93,3.64,4.43,0,3-2.69,5.25-5.93,5.25h-6.74a.51.51,0,0,1-.51-.52Zm6.36,7.21a1.94,1.94,0,0,0,1.9-2,1.84,1.84,0,0,0-1.9-1.85h-2.12V75.8Zm.35,7.42a2,2,0,0,0,2-2,2.18,2.18,0,0,0-2.23-1.91h-2.2v3.89Z" transform="translate(-7.25 -6.91)"/>
          <path class="cls-4" d="M779.69,86.4l8.51-18.29a.56.56,0,0,1,.47-.3h.27a.53.53,0,0,1,.46.3l8.51,18.29a.48.48,0,0,1-.46.71h-3c-.49,0-.71-.16-.95-.68l-1-2.15h-7.39l-1,2.18a1,1,0,0,1-1,.65h-3A.48.48,0,0,1,779.69,86.4Zm11.18-5.82L788.8,76.1h0l-2,4.48Z" transform="translate(-7.25 -6.91)"/>
          <path class="cls-4" d="M799.82,68.3a.5.5,0,0,1,.51-.49H801l10.85,10.44h0V68.59a.51.51,0,0,1,.52-.51h3.26a.53.53,0,0,1,.52.51v18.3a.52.52,0,0,1-.52.49h-.44a.82.82,0,0,1-.35-.13l-10.74-10.8h0V86.59a.51.51,0,0,1-.51.52h-3.24a.54.54,0,0,1-.52-.52Z" transform="translate(-7.25 -6.91)"/>
          <path class="cls-4" d="M820.46,68.59a.5.5,0,0,1,.49-.51h6.63a9.52,9.52,0,1,1,0,19H821a.5.5,0,0,1-.49-.52Zm6.85,14.5a5.51,5.51,0,0,0,0-11H824.7v11Z" transform="translate(-7.25 -6.91)"/>
        </g>
      </g>
      <g>
        <g>
          <path class="cls-3" d="M106.17,99.06a.51.51,0,0,1,.49-.44h.43a.59.59,0,0,1,.46.27l6.31,11.75h.06l6.3-11.75a.63.63,0,0,1,.47-.27h.43a.52.52,0,0,1,.49.44l3.07,18.27a.5.5,0,0,1-.51.6H121a.56.56,0,0,1-.52-.44l-1.22-8.4h-.06l-4.56,8.81a.67.67,0,0,1-.47.3h-.49a.6.6,0,0,1-.46-.3l-4.59-8.81h-.06l-1.19,8.4a.54.54,0,0,1-.52.44h-3.21a.51.51,0,0,1-.52-.6Z" transform="translate(-7.25 -6.91)"/>
          <path class="cls-3" d="M127.74,99.41a.54.54,0,0,1,.52-.52h3.26a.54.54,0,0,1,.52.52v18a.54.54,0,0,1-.52.52h-3.26a.54.54,0,0,1-.52-.52Z" transform="translate(-7.25 -6.91)"/>
          <path class="cls-3" d="M136.26,99.41a.52.52,0,0,1,.49-.52h6.64a9.52,9.52,0,1,1,0,19h-6.64a.52.52,0,0,1-.49-.52Zm6.86,14.49a5.51,5.51,0,0,0,0-11H140.5v11Z" transform="translate(-7.25 -6.91)"/>
          <path class="cls-3" d="M158,102.89h-3.89a.52.52,0,0,1-.52-.52v-3a.52.52,0,0,1,.52-.52h12.07a.52.52,0,0,1,.52.52v3a.52.52,0,0,1-.52.52h-3.89v14.52a.53.53,0,0,1-.51.52h-3.27a.53.53,0,0,1-.51-.52Z" transform="translate(-7.25 -6.91)"/>
          <path class="cls-3" d="M177.06,98.62a9.79,9.79,0,1,1-9.76,9.82A9.77,9.77,0,0,1,177.06,98.62Zm0,15.23a5.44,5.44,0,1,0-5.41-5.41A5.45,5.45,0,0,0,177.06,113.85Z" transform="translate(-7.25 -6.91)"/>
          <path class="cls-3" d="M187.67,99.55a.48.48,0,0,1,.49-.66h3.18a.55.55,0,0,1,.49.38l2.34,9.22h.11l4.21-9.57a.54.54,0,0,1,.47-.3h.49a.47.47,0,0,1,.46.3l4.21,9.57h.11l2.34-9.22a.55.55,0,0,1,.49-.38h3.18a.48.48,0,0,1,.49.66l-5.14,18.27a.53.53,0,0,1-.49.38h-.43a.58.58,0,0,1-.47-.3l-5-11.12h-.08l-5,11.12a.55.55,0,0,1-.46.3h-.44a.53.53,0,0,1-.49-.38Z" transform="translate(-7.25 -6.91)"/>
          <path class="cls-3" d="M213.08,99.11a.51.51,0,0,1,.51-.49h.68l10.85,10.44h0V99.41a.52.52,0,0,1,.52-.52h3.26a.53.53,0,0,1,.51.52v18.3a.51.51,0,0,1-.51.49h-.44a.72.72,0,0,1-.35-.14L217.4,107.27h0v10.14a.51.51,0,0,1-.51.52h-3.24a.54.54,0,0,1-.52-.52Z" transform="translate(-7.25 -6.91)"/>
          <path class="cls-3" d="M239,115.34l1.28-2.25a.7.7,0,0,1,.92-.17,8.08,8.08,0,0,0,3.87,1.5,1.7,1.7,0,0,0,1.87-1.63c0-1.15-.95-2-2.8-2.75-2.34-.92-5.27-2.75-5.27-6,0-2.69,2.09-5.41,6.28-5.41a10.14,10.14,0,0,1,5.82,2,.69.69,0,0,1,.16.87l-1.39,2.09c-.19.3-.68.55-.92.36s-2.23-1.63-3.89-1.63a1.57,1.57,0,0,0-1.71,1.38c0,1,.81,1.77,3,2.64s5.49,2.5,5.49,6.2c0,2.8-2.42,5.63-6.41,5.63a8.59,8.59,0,0,1-6.12-2.1C238.91,115.83,238.82,115.72,239,115.34Z" transform="translate(-7.25 -6.91)"/>
          <path class="cls-3" d="M263.05,98.62a9.79,9.79,0,1,1-9.76,9.82A9.77,9.77,0,0,1,263.05,98.62Zm0,15.23a5.44,5.44,0,1,0-5.41-5.41A5.45,5.45,0,0,0,263.05,113.85Z" transform="translate(-7.25 -6.91)"/>
          <path class="cls-3" d="M284.42,98.62a9.12,9.12,0,0,1,6.58,2.53.51.51,0,0,1,0,.76l-2.12,2.2a.48.48,0,0,1-.68,0,5.6,5.6,0,0,0-3.68-1.38,5.56,5.56,0,0,0,0,11.12,5.79,5.79,0,0,0,3.65-1.31.53.53,0,0,1,.7,0l2.12,2.26a.54.54,0,0,1,0,.73,9.36,9.36,0,0,1-6.61,2.64,9.79,9.79,0,1,1,0-19.58Z" transform="translate(-7.25 -6.91)"/>
          <path class="cls-3" d="M293.78,99.41a.53.53,0,0,1,.51-.52h3.27a.53.53,0,0,1,.51.52v18a.53.53,0,0,1-.51.52h-3.27a.53.53,0,0,1-.51-.52Z" transform="translate(-7.25 -6.91)"/>
          <path class="cls-3" d="M300,117.22l8.51-18.3a.55.55,0,0,1,.46-.3h.27a.58.58,0,0,1,.47.3l8.51,18.3a.49.49,0,0,1-.47.71h-3c-.49,0-.71-.17-1-.68l-1-2.15h-7.4l-1,2.17a1,1,0,0,1-1,.66h-3A.48.48,0,0,1,300,117.22Zm11.17-5.82-2.06-4.49h0l-2,4.49Z" transform="translate(-7.25 -6.91)"/>
          <path class="cls-3" d="M320.13,99.41a.52.52,0,0,1,.52-.52h3.23a.54.54,0,0,1,.52.52v14.52h6.47a.51.51,0,0,1,.51.52v3a.51.51,0,0,1-.51.52H320.65a.52.52,0,0,1-.52-.52Z" transform="translate(-7.25 -6.91)"/>
        </g>
        <path class="cls-2" d="M338.54,108.57a2.93,2.93,0,0,1,2.85-3,3,3,0,0,1,3,3,2.93,2.93,0,0,1-3,2.86A2.89,2.89,0,0,1,338.54,108.57Z" transform="translate(-7.25 -6.91)"/>
        <g>
          <path class="cls-4" d="M353.54,99.55a.65.65,0,0,1,.66-.66h3.18a.66.66,0,0,1,.65.66v7.15l6-7.54a.83.83,0,0,1,.51-.27H368a.63.63,0,0,1,.49,1l-6.36,8,6.93,9a.64.64,0,0,1-.52,1H364.8a.77.77,0,0,1-.49-.19L358,109.17v8.1a.66.66,0,0,1-.65.66H354.2a.65.65,0,0,1-.66-.66Z" transform="translate(-7.25 -6.91)"/>
          <path class="cls-4" d="M379.07,98.62a9.79,9.79,0,1,1-9.76,9.82A9.77,9.77,0,0,1,379.07,98.62Zm0,15.23a5.44,5.44,0,1,0-5.41-5.41A5.45,5.45,0,0,0,379.07,113.85Z" transform="translate(-7.25 -6.91)"/>
          <path class="cls-4" d="M391.84,99.11a.51.51,0,0,1,.52-.49H393l10.85,10.44h0V99.41a.52.52,0,0,1,.52-.52h3.26a.54.54,0,0,1,.52.52v18.3a.52.52,0,0,1-.52.49h-.44a.76.76,0,0,1-.35-.14l-10.74-10.79h0v10.14a.51.51,0,0,1-.51.52h-3.24a.53.53,0,0,1-.51-.52Z" transform="translate(-7.25 -6.91)"/>
        </g>
        <path class="cls-3" d="M417.4,108.57a2.93,2.93,0,0,1,2.85-3,3,3,0,0,1,3,3,2.93,2.93,0,0,1-3,2.86A2.89,2.89,0,0,1,417.4,108.57Z" transform="translate(-7.25 -6.91)"/>
        <g>
          <path class="cls-2" d="M429.74,115.53l1.85-1.82a.51.51,0,0,1,.73,0,1.71,1.71,0,0,0,1.39.57c.76,0,1.6-.7,1.6-2.06V99.41a.52.52,0,0,1,.52-.52h3.32a.51.51,0,0,1,.51.52v12.83a5.64,5.64,0,0,1-5.84,6,5.2,5.2,0,0,1-4.13-2A.57.57,0,0,1,429.74,115.53Z" transform="translate(-7.25 -6.91)"/>
          <path class="cls-2" d="M440.66,117.22l8.51-18.3a.55.55,0,0,1,.46-.3h.27a.58.58,0,0,1,.47.3l8.51,18.3a.49.49,0,0,1-.47.71h-3c-.49,0-.71-.17-1-.68l-1-2.15h-7.4l-1,2.17a1,1,0,0,1-1,.66h-3A.48.48,0,0,1,440.66,117.22Zm11.17-5.82-2.06-4.49h0l-2,4.49Z" transform="translate(-7.25 -6.91)"/>
          <path class="cls-2" d="M463.3,99.06a.52.52,0,0,1,.49-.44h.44a.61.61,0,0,1,.46.27L471,110.64h.05l6.31-11.75a.61.61,0,0,1,.46-.27h.44a.53.53,0,0,1,.49.44l3.07,18.27a.5.5,0,0,1-.52.6h-3.21a.55.55,0,0,1-.51-.44l-1.23-8.4h-.05l-4.57,8.81a.65.65,0,0,1-.46.3h-.49a.6.6,0,0,1-.46-.3l-4.6-8.81h-.05l-1.2,8.4a.53.53,0,0,1-.51.44h-3.21a.5.5,0,0,1-.52-.6Z" transform="translate(-7.25 -6.91)"/>
          <path class="cls-2" d="M484.88,99.41a.51.51,0,0,1,.51-.52h11.26a.51.51,0,0,1,.51.52v3a.51.51,0,0,1-.51.52h-7.53v3.37h6.2a.53.53,0,0,1,.51.52v3a.51.51,0,0,1-.51.52h-6.2v3.67h7.53a.51.51,0,0,1,.51.52v3a.51.51,0,0,1-.51.52H485.39a.51.51,0,0,1-.51-.52Z" transform="translate(-7.25 -6.91)"/>
          <path class="cls-2" d="M499.63,115.34l1.28-2.25a.7.7,0,0,1,.92-.17,8.08,8.08,0,0,0,3.86,1.5,1.71,1.71,0,0,0,1.88-1.63c0-1.15-.95-2-2.8-2.75-2.34-.92-5.28-2.75-5.28-6,0-2.69,2.1-5.41,6.28-5.41a10.08,10.08,0,0,1,5.82,2,.68.68,0,0,1,.16.87l-1.38,2.09c-.19.3-.68.55-.93.36s-2.23-1.63-3.88-1.63a1.58,1.58,0,0,0-1.72,1.38c0,1,.82,1.77,3,2.64s5.49,2.5,5.49,6.2c0,2.8-2.42,5.63-6.42,5.63a8.63,8.63,0,0,1-6.12-2.1C499.49,115.83,499.41,115.72,499.63,115.34Z" transform="translate(-7.25 -6.91)"/>
          <path class="cls-2" d="M519.18,99.6a.48.48,0,0,1,.46-.71h3.62a.56.56,0,0,1,.46.3l4.48,9.93h.17l4.48-9.93a.56.56,0,0,1,.47-.3h3.61a.48.48,0,0,1,.46.71l-8.53,18.3a.54.54,0,0,1-.47.3h-.27a.52.52,0,0,1-.46-.3Z" transform="translate(-7.25 -6.91)"/>
          <path class="cls-2" d="M539.33,99.41a.51.51,0,0,1,.51-.52H551.1a.52.52,0,0,1,.52.52v3a.52.52,0,0,1-.52.52h-7.53v3.37h6.2a.53.53,0,0,1,.51.52v3a.51.51,0,0,1-.51.52h-6.2v3.67h7.53a.52.52,0,0,1,.52.52v3a.52.52,0,0,1-.52.52H539.84a.51.51,0,0,1-.51-.52Z" transform="translate(-7.25 -6.91)"/>
          <path class="cls-2" d="M555.14,99.41a.51.51,0,0,1,.51-.52h3.24a.53.53,0,0,1,.51.52v14.52h6.47a.52.52,0,0,1,.52.52v3a.52.52,0,0,1-.52.52H555.65a.51.51,0,0,1-.51-.52Z" transform="translate(-7.25 -6.91)"/>
          <path class="cls-2" d="M564.33,99.6a.49.49,0,0,1,.47-.71h3.61a.53.53,0,0,1,.46.3l4.49,9.93h.16L578,99.19a.53.53,0,0,1,.46-.3h3.62a.48.48,0,0,1,.46.71L574,117.9a.52.52,0,0,1-.46.3h-.27a.52.52,0,0,1-.46-.3Z" transform="translate(-7.25 -6.91)"/>
          <path class="cls-2" d="M584.48,99.41a.52.52,0,0,1,.52-.52h11.26a.51.51,0,0,1,.51.52v3a.51.51,0,0,1-.51.52h-7.53v3.37h6.19a.54.54,0,0,1,.52.52v3a.52.52,0,0,1-.52.52h-6.19v3.67h7.53a.51.51,0,0,1,.51.52v3a.51.51,0,0,1-.51.52H585a.52.52,0,0,1-.52-.52Z" transform="translate(-7.25 -6.91)"/>
          <path class="cls-2" d="M602.81,102.89h-3.89a.52.52,0,0,1-.52-.52v-3a.52.52,0,0,1,.52-.52H611a.52.52,0,0,1,.52.52v3a.52.52,0,0,1-.52.52H607.1v14.52a.53.53,0,0,1-.51.52h-3.27a.53.53,0,0,1-.51-.52Z" transform="translate(-7.25 -6.91)"/>
        </g>
        <path class="cls-4" d="M618.74,108.57a2.93,2.93,0,0,1,2.85-3,3,3,0,0,1,3,3,2.94,2.94,0,0,1-3,2.86A2.89,2.89,0,0,1,618.74,108.57Z" transform="translate(-7.25 -6.91)"/>
        <g>
          <path class="cls-3" d="M631.3,117.22l8.51-18.3a.55.55,0,0,1,.46-.3h.28a.55.55,0,0,1,.46.3l8.51,18.3a.49.49,0,0,1-.47.71h-3c-.49,0-.71-.17-.95-.68l-1-2.15h-7.4l-1,2.17a1,1,0,0,1-1,.66h-3A.49.49,0,0,1,631.3,117.22Zm11.18-5.82-2.07-4.49h0l-2,4.49Z" transform="translate(-7.25 -6.91)"/>
          <path class="cls-3" d="M651.45,99.41a.52.52,0,0,1,.52-.52h6.33c3.21,0,5.85,2.21,5.85,5.06,0,2.09-1.88,3.62-3.16,4.3,1.44.59,3.65,1.93,3.65,4.43,0,3-2.69,5.25-5.93,5.25H652a.52.52,0,0,1-.52-.52Zm6.36,7.2a1.94,1.94,0,0,0,1.91-2,1.85,1.85,0,0,0-1.91-1.85h-2.12v3.8Zm.36,7.43a2,2,0,0,0,2-2,2.17,2.17,0,0,0-2.23-1.9h-2.2V114Z" transform="translate(-7.25 -6.91)"/>
          <path class="cls-3" d="M667.86,99.41a.52.52,0,0,1,.52-.52h6.33c3.21,0,5.85,2.21,5.85,5.06,0,2.09-1.88,3.62-3.16,4.3,1.44.59,3.65,1.93,3.65,4.43,0,3-2.7,5.25-5.93,5.25h-6.74a.52.52,0,0,1-.52-.52Zm6.36,7.2a1.94,1.94,0,0,0,1.91-2,1.85,1.85,0,0,0-1.91-1.85H672.1v3.8Zm.36,7.43a2,2,0,0,0,1.95-2,2.17,2.17,0,0,0-2.23-1.9h-2.2V114Z" transform="translate(-7.25 -6.91)"/>
          <path class="cls-3" d="M687.28,108.76l-6-9.08a.5.5,0,0,1,.44-.79h3.53a.56.56,0,0,1,.44.25l3.77,5.57,3.78-5.57a.51.51,0,0,1,.44-.25h3.53a.5.5,0,0,1,.44.79l-6.09,9.06v8.67a.54.54,0,0,1-.52.52H687.8a.52.52,0,0,1-.52-.52Z" transform="translate(-7.25 -6.91)"/>
          <path class="cls-3" d="M705.8,99.11a.51.51,0,0,1,.51-.49H707l10.85,10.44h0V99.41a.52.52,0,0,1,.51-.52h3.27a.53.53,0,0,1,.51.52v18.3a.51.51,0,0,1-.51.49h-.44a.72.72,0,0,1-.35-.14l-10.74-10.79h0v10.14a.52.52,0,0,1-.51.52h-3.24a.54.54,0,0,1-.52-.52Z" transform="translate(-7.25 -6.91)"/>
          <path class="cls-3" d="M734.9,98.62a9.79,9.79,0,1,1-9.76,9.82A9.77,9.77,0,0,1,734.9,98.62Zm0,15.23a5.44,5.44,0,1,0-5.41-5.41A5.45,5.45,0,0,0,734.9,113.85Z" transform="translate(-7.25 -6.91)"/>
          <path class="cls-3" d="M747.69,99.41a.51.51,0,0,1,.51-.52h8.13a5.81,5.81,0,0,1,1.91,11.34l3.72,6.91a.52.52,0,0,1-.46.79h-3.62a.5.5,0,0,1-.43-.25l-3.62-7.2H752v6.93a.54.54,0,0,1-.52.52H748.2a.51.51,0,0,1-.51-.52ZM756,107a2.18,2.18,0,0,0,2.07-2.17,2.09,2.09,0,0,0-2.07-2.07h-4V107Z" transform="translate(-7.25 -6.91)"/>
          <path class="cls-3" d="M767.23,99.06a.53.53,0,0,1,.49-.44h.44a.61.61,0,0,1,.46.27l6.31,11.75H775l6.31-11.75a.61.61,0,0,1,.46-.27h.44a.53.53,0,0,1,.49.44l3.07,18.27a.5.5,0,0,1-.52.6H782a.55.55,0,0,1-.51-.44l-1.23-8.4h0l-4.57,8.81a.63.63,0,0,1-.46.3h-.49a.6.6,0,0,1-.46-.3l-4.6-8.81h0l-1.2,8.4a.52.52,0,0,1-.51.44h-3.21a.5.5,0,0,1-.52-.6Z" transform="translate(-7.25 -6.91)"/>
          <path class="cls-3" d="M787.14,117.22l8.51-18.3a.58.58,0,0,1,.47-.3h.27a.55.55,0,0,1,.46.3l8.51,18.3a.48.48,0,0,1-.46.71h-3c-.49,0-.71-.17-1-.68l-1-2.15h-7.4l-1,2.17a1,1,0,0,1-1,.66h-3A.49.49,0,0,1,787.14,117.22Zm11.18-5.82-2.07-4.49h0l-2,4.49Z" transform="translate(-7.25 -6.91)"/>
          <path class="cls-3" d="M807.29,99.41a.52.52,0,0,1,.52-.52h3.24a.53.53,0,0,1,.51.52v14.52H818a.52.52,0,0,1,.52.52v3a.52.52,0,0,1-.52.52H807.81a.52.52,0,0,1-.52-.52Z" transform="translate(-7.25 -6.91)"/>
        </g>
      </g>
      <g>
        <g>
          <path class="cls-4" d="M223.12,41.26h-3.89a.52.52,0,0,1-.52-.52v-3a.52.52,0,0,1,.52-.52H231.3a.52.52,0,0,1,.52.52v3a.52.52,0,0,1-.52.52h-3.89V55.78a.53.53,0,0,1-.51.51h-3.27a.53.53,0,0,1-.51-.51Z" transform="translate(-7.25 -6.91)"/>
          <path class="cls-4" d="M233.82,37.78a.53.53,0,0,1,.51-.52h3.35a.51.51,0,0,1,.51.52v11a3.38,3.38,0,1,0,6.75,0v-11a.51.51,0,0,1,.51-.52h3.35a.53.53,0,0,1,.51.52V49a7.75,7.75,0,0,1-15.49,0Z" transform="translate(-7.25 -6.91)"/>
          <path class="cls-4" d="M257.09,46.53,251.59,38a.49.49,0,0,1,.47-.76h4a.6.6,0,0,1,.44.25l3.13,5.05h0l3.18-5.05a.56.56,0,0,1,.44-.25h4c.46,0,.71.41.46.76l-5.52,8.51,5.71,9a.47.47,0,0,1-.43.76h-3.78a.57.57,0,0,1-.46-.24l-3.57-5.49h-.05l-3.48,5.49a.59.59,0,0,1-.46.24h-3.78c-.46,0-.71-.4-.46-.76Z" transform="translate(-7.25 -6.91)"/>
          <path class="cls-4" d="M270.2,37.78a.52.52,0,0,1,.51-.52H282a.52.52,0,0,1,.52.52v3a.52.52,0,0,1-.52.52h-7.53v3.37h6.2a.53.53,0,0,1,.51.52v3a.51.51,0,0,1-.51.52h-6.2V52.3H282a.51.51,0,0,1,.52.51v3a.51.51,0,0,1-.52.51H270.71a.51.51,0,0,1-.51-.51Z" transform="translate(-7.25 -6.91)"/>
          <path class="cls-4" d="M286,37.78a.51.51,0,0,1,.48-.52h6.64a9.52,9.52,0,1,1,0,19h-6.64a.5.5,0,0,1-.48-.51Zm6.85,14.49a5.51,5.51,0,0,0,0-11h-2.61v11Z" transform="translate(-7.25 -6.91)"/>
          <path class="cls-4" d="M314.2,37a9.79,9.79,0,1,1-9.77,9.82A9.77,9.77,0,0,1,314.2,37Zm0,15.23a5.44,5.44,0,1,0-5.42-5.41A5.44,5.44,0,0,0,314.2,52.22Z" transform="translate(-7.25 -6.91)"/>
        </g>
        <path class="cls-2" d="M331.79,46.94a2.93,2.93,0,0,1,2.85-3,3,3,0,0,1,3,3,2.94,2.94,0,0,1-3,2.86A2.89,2.89,0,0,1,331.79,46.94Z" transform="translate(-7.25 -6.91)"/>
        <g>
          <path class="cls-3" d="M355.17,37a9.79,9.79,0,1,1-9.76,9.82A9.77,9.77,0,0,1,355.17,37Zm0,15.23a5.44,5.44,0,1,0-5.41-5.41A5.45,5.45,0,0,0,355.17,52.22Z" transform="translate(-7.25 -6.91)"/>
          <path class="cls-3" d="M368,37.78a.52.52,0,0,1,.52-.52h8.13a5.81,5.81,0,0,1,1.9,11.34l3.73,6.91a.51.51,0,0,1-.47.78h-3.61a.51.51,0,0,1-.44-.24l-3.61-7.21h-1.88v6.94a.53.53,0,0,1-.52.51h-3.23a.51.51,0,0,1-.52-.51Zm8.29,7.61a2.18,2.18,0,0,0,2.07-2.17,2.08,2.08,0,0,0-2.07-2.07h-4v4.24Z" transform="translate(-7.25 -6.91)"/>
          <path class="cls-3" d="M394.05,37a10.49,10.49,0,0,1,6.63,2.55.48.48,0,0,1,.06.74l-2.15,2.28a.57.57,0,0,1-.73,0,5,5,0,0,0-3.57-1.31,5.46,5.46,0,0,0,0,10.91,6.34,6.34,0,0,0,2.42-.44V50.2H395a.49.49,0,0,1-.52-.48V47a.5.5,0,0,1,.52-.51h5.46A.5.5,0,0,1,401,47l0,7.32a.67.67,0,0,1-.22.43,13.72,13.72,0,0,1-6.74,1.77,9.76,9.76,0,1,1,0-19.52Z" transform="translate(-7.25 -6.91)"/>
          <path class="cls-3" d="M413,37a9.79,9.79,0,1,1-9.76,9.82A9.77,9.77,0,0,1,413,37Zm0,15.23a5.44,5.44,0,1,0-5.41-5.41A5.45,5.45,0,0,0,413,52.22Z" transform="translate(-7.25 -6.91)"/>
          <path class="cls-3" d="M425.74,37.48a.51.51,0,0,1,.51-.49h.68l10.85,10.44h0V37.78a.51.51,0,0,1,.51-.52h3.27a.53.53,0,0,1,.51.52v18.3a.51.51,0,0,1-.51.49h-.44a.72.72,0,0,1-.35-.14L430.06,45.64h0V55.78a.51.51,0,0,1-.52.51h-3.23a.53.53,0,0,1-.52-.51Z" transform="translate(-7.25 -6.91)"/>
          <path class="cls-3" d="M446.37,37.78a.52.52,0,0,1,.52-.52h11.26a.51.51,0,0,1,.51.52v3a.51.51,0,0,1-.51.52h-7.53v3.37h6.19a.54.54,0,0,1,.52.52v3a.52.52,0,0,1-.52.52h-6.19V52.3h7.53a.51.51,0,0,1,.51.51v3a.51.51,0,0,1-.51.51H446.89a.51.51,0,0,1-.52-.51Z" transform="translate(-7.25 -6.91)"/>
        </g>
        <path class="cls-4" d="M467.56,46.68a2.93,2.93,0,0,1,2.86-3,3,3,0,0,1,3,3,2.93,2.93,0,0,1-3,2.86A2.9,2.9,0,0,1,467.56,46.68Z" transform="translate(-7.25 -6.91)"/>
        <g>
          <path class="cls-2" d="M481.83,37.78a.52.52,0,0,1,.49-.52h6.62a9.51,9.51,0,1,1,0,19h-6.62a.52.52,0,0,1-.49-.52Zm6.84,14.47a5.5,5.5,0,0,0,0-11h-2.61v11Z" transform="translate(-7.25 -6.91)"/>
          <path class="cls-2" d="M501.62,37.78a.52.52,0,0,1,.51-.52h11.24a.52.52,0,0,1,.52.52v3a.51.51,0,0,1-.52.51h-7.52v3.37H512a.53.53,0,0,1,.52.52v3a.52.52,0,0,1-.52.52h-6.19v3.67h7.52a.51.51,0,0,1,.52.51v3a.52.52,0,0,1-.52.52H502.13a.52.52,0,0,1-.51-.52Z" transform="translate(-7.25 -6.91)"/>
          <path class="cls-2" d="M517.55,37.78a.52.52,0,0,1,.52-.52h8.12a5.8,5.8,0,0,1,1.9,11.32l3.72,6.9a.52.52,0,0,1-.46.79h-3.62a.5.5,0,0,1-.43-.25l-3.61-7.19h-1.87v6.92a.54.54,0,0,1-.52.52h-3.23a.52.52,0,0,1-.52-.52Zm8.28,7.6a2.18,2.18,0,0,0,2.07-2.17,2.09,2.09,0,0,0-2.07-2.07h-4v4.24Z" transform="translate(-7.25 -6.91)"/>
          <path class="cls-2" d="M535.52,37.78a.52.52,0,0,1,.52-.52h8.12a5.8,5.8,0,0,1,1.9,11.32l3.72,6.9a.52.52,0,0,1-.47.79H545.7a.5.5,0,0,1-.43-.25l-3.61-7.19h-1.88v6.92a.53.53,0,0,1-.51.52H536a.52.52,0,0,1-.52-.52Zm8.28,7.6a2.18,2.18,0,0,0,2.07-2.17,2.09,2.09,0,0,0-2.07-2.07h-4v4.24Z" transform="translate(-7.25 -6.91)"/>
          <path class="cls-2" d="M553.49,37.78a.54.54,0,0,1,.52-.52h3.26a.53.53,0,0,1,.51.52v18a.53.53,0,0,1-.51.52H554a.54.54,0,0,1-.52-.52Z" transform="translate(-7.25 -6.91)"/>
          <path class="cls-2" d="M570.67,37a9.14,9.14,0,0,1,6.57,2.52.52.52,0,0,1,0,.77l-2.12,2.19a.46.46,0,0,1-.68,0,5.58,5.58,0,0,0-3.67-1.38,5.56,5.56,0,0,0,0,11.11,5.76,5.76,0,0,0,3.64-1.31.55.55,0,0,1,.71,0l2.11,2.25a.55.55,0,0,1,0,.74,9.33,9.33,0,0,1-6.6,2.63,9.78,9.78,0,1,1,0-19.55Z" transform="translate(-7.25 -6.91)"/>
          <path class="cls-2" d="M580.17,37.91a.65.65,0,0,1,.66-.65H584a.66.66,0,0,1,.65.65v7.14l6-7.52a.83.83,0,0,1,.52-.27h3.42a.63.63,0,0,1,.49,1l-6.36,7.95,6.93,9a.64.64,0,0,1-.52,1h-3.75a.72.72,0,0,1-.48-.19l-6.28-8.53v8.1a.66.66,0,0,1-.65.65h-3.17a.65.65,0,0,1-.66-.65Z" transform="translate(-7.25 -6.91)"/>
          <path class="cls-2" d="M612.88,37a9.14,9.14,0,0,1,6.57,2.52.52.52,0,0,1,0,.77l-2.11,2.19a.46.46,0,0,1-.68,0A5.6,5.6,0,0,0,613,41.09a5.56,5.56,0,0,0,0,11.11,5.78,5.78,0,0,0,3.64-1.31.53.53,0,0,1,.7,0l2.12,2.25a.55.55,0,0,1,0,.74,9.31,9.31,0,0,1-6.59,2.63,9.78,9.78,0,1,1,0-19.55Z" transform="translate(-7.25 -6.91)"/>
          <path class="cls-2" d="M620.58,55.56l8.5-18.27a.55.55,0,0,1,.46-.3h.27a.58.58,0,0,1,.47.3l8.49,18.27a.48.48,0,0,1-.46.71h-3c-.49,0-.71-.17-.95-.68l-1-2.15H626l-1,2.18a1,1,0,0,1-1,.65h-3A.49.49,0,0,1,620.58,55.56Zm11.16-5.81-2.06-4.48h0l-2,4.48Z" transform="translate(-7.25 -6.91)"/>
          <path class="cls-2" d="M640.86,37.78a.52.52,0,0,1,.52-.52h8.11a5.8,5.8,0,0,1,1.9,11.32l3.72,6.9a.52.52,0,0,1-.46.79H651a.48.48,0,0,1-.43-.25L647,48.83h-1.88v6.92a.53.53,0,0,1-.51.52h-3.23a.52.52,0,0,1-.52-.52Zm8.28,7.6a2.17,2.17,0,0,0,2.06-2.17,2.09,2.09,0,0,0-2.06-2.07h-4v4.24Z" transform="translate(-7.25 -6.91)"/>
          <path class="cls-2" d="M661.46,41.25h-3.88a.51.51,0,0,1-.52-.51v-3a.52.52,0,0,1,.52-.52h12a.52.52,0,0,1,.52.52v3a.51.51,0,0,1-.52.51h-3.88v14.5a.53.53,0,0,1-.51.52H662a.54.54,0,0,1-.52-.52Z" transform="translate(-7.25 -6.91)"/>
          <path class="cls-2" d="M672.44,37.78a.52.52,0,0,1,.51-.52h11.24a.52.52,0,0,1,.52.52v3a.51.51,0,0,1-.52.51h-7.52v3.37h6.19a.54.54,0,0,1,.52.52v3a.52.52,0,0,1-.52.52h-6.19v3.67h7.52a.51.51,0,0,1,.52.51v3a.52.52,0,0,1-.52.52H673a.52.52,0,0,1-.51-.52Z" transform="translate(-7.25 -6.91)"/>
          <path class="cls-2" d="M688.37,37.78a.52.52,0,0,1,.52-.52H697a5.8,5.8,0,0,1,1.9,11.32l3.72,6.9a.52.52,0,0,1-.47.79h-3.61a.5.5,0,0,1-.43-.25l-3.61-7.19h-1.88v6.92a.53.53,0,0,1-.51.52h-3.23a.52.52,0,0,1-.52-.52Zm8.28,7.6a2.18,2.18,0,0,0,2.07-2.17,2.09,2.09,0,0,0-2.07-2.07h-4v4.24Z" transform="translate(-7.25 -6.91)"/>
        </g>
      </g>
    </g>
  </g>
</svg>
