<svg xmlns="http://www.w3.org/2000/svg" viewBox="0 0 418.85 155.6">
  <g id="ba4b8fc0-f408-413c-a7c1-9ae4fd259c65" data-name="Layer 2">
    <g id="f115dced-d579-4903-a921-24a81f096b2e" data-name="Layer 1">
      <g>
        <path d="M24.34,0A22.65,22.65,0,0,1,40.66,6.27a1.25,1.25,0,0,1,.07,1.89l-5.26,5.46a1.19,1.19,0,0,1-1.69,0,13.77,13.77,0,0,0-9.1-3.44c-7.62,0-13.22,6.34-13.22,13.89A13.36,13.36,0,0,0,24.75,37.76a14.2,14.2,0,0,0,9-3.24,1.35,1.35,0,0,1,1.76.07l5.25,5.6A1.34,1.34,0,0,1,40.73,42a23.15,23.15,0,0,1-16.39,6.54A24.28,24.28,0,1,1,24.34,0Z" style="fill: #5674e6"/>
        <path d="M68,0a24.28,24.28,0,1,1,0,48.55,24.06,24.06,0,0,1-24.2-24.21A24.17,24.17,0,0,1,68,0Zm0,37.76A13.49,13.49,0,1,0,54.58,24.34,13.52,13.52,0,0,0,68,37.76Z" style="fill: #5674e6"/>
        <path d="M100,2A1.28,1.28,0,0,1,101.27.67h20.16a14.67,14.67,0,0,1,14.7,14.57c0,6.2-4.12,11.19-10,13.55l9.24,17.13a1.27,1.27,0,0,1-1.15,1.95h-9a1.26,1.26,0,0,1-1.08-.6l-9-17.87h-4.64V46.59a1.33,1.33,0,0,1-1.29,1.28h-8A1.28,1.28,0,0,1,100,46.59Zm20.56,18.87a5.4,5.4,0,0,0,5.13-5.39,5.16,5.16,0,0,0-5.13-5.12h-10V20.83Z" style="fill: #5674e6"/>
        <path d="M152.41,25.15,137.5,2.63a1.25,1.25,0,0,1,1.07-2h8.78a1.37,1.37,0,0,1,1.08.61l9.36,13.82,9.38-13.82a1.25,1.25,0,0,1,1.08-.61H177a1.25,1.25,0,0,1,1.08,2L163,25.08V46.59a1.33,1.33,0,0,1-1.29,1.28h-8a1.27,1.27,0,0,1-1.27-1.28Z" style="fill: #5674e6"/>
        <path d="M198.36,2A1.33,1.33,0,0,1,199.64.67h8A1.29,1.29,0,0,1,209,2V19h19.28V2A1.28,1.28,0,0,1,229.51.67h8A1.33,1.33,0,0,1,238.82,2V46.59a1.33,1.33,0,0,1-1.29,1.28h-8a1.28,1.28,0,0,1-1.28-1.28V28.86H209V46.59a1.28,1.28,0,0,1-1.29,1.28h-8a1.32,1.32,0,0,1-1.28-1.28Z" style="fill: #5674e6"/>
        <path d="M249.7,2A1.28,1.28,0,0,1,251,.67h27.92A1.29,1.29,0,0,1,280.18,2V9.3a1.29,1.29,0,0,1-1.29,1.29H260.22V19h15.37a1.32,1.32,0,0,1,1.28,1.28v7.35a1.28,1.28,0,0,1-1.28,1.28H260.22V38h18.67a1.29,1.29,0,0,1,1.29,1.28v7.35a1.28,1.28,0,0,1-1.29,1.28H251a1.27,1.27,0,0,1-1.27-1.28Z" style="fill: #5674e6"/>
        <path d="M289.05,1.21A1.27,1.27,0,0,1,290.34,0H292l26.9,25.89H319V2A1.28,1.28,0,0,1,320.28.67h8.09A1.33,1.33,0,0,1,329.65,2V47.33a1.27,1.27,0,0,1-1.28,1.22h-1.08a2,2,0,0,1-.87-.34L299.78,21.44h-.07V46.59a1.28,1.28,0,0,1-1.28,1.28h-8a1.32,1.32,0,0,1-1.28-1.28Z" style="fill: #5674e6"/>
        <path d="M340.53,2A1.28,1.28,0,0,1,341.81.67H362a14.67,14.67,0,0,1,14.7,14.57c0,6.2-4.11,11.19-10,13.55l9.24,17.13a1.27,1.27,0,0,1-1.15,1.95h-9a1.21,1.21,0,0,1-1.07-.6l-9-17.87h-4.66V46.59a1.32,1.32,0,0,1-1.27,1.28h-8a1.27,1.27,0,0,1-1.28-1.28Zm20.56,18.87a5.41,5.41,0,0,0,5.13-5.39,5.17,5.17,0,0,0-5.13-5.12h-10V20.83Z" style="fill: #5674e6"/>
        <path d="M392.94,25.15,378,2.63a1.25,1.25,0,0,1,1.08-2h8.77a1.34,1.34,0,0,1,1.08.61l9.37,13.82,9.37-13.82A1.24,1.24,0,0,1,408.8.67h8.76a1.25,1.25,0,0,1,1.08,2L403.53,25.08V46.59a1.32,1.32,0,0,1-1.28,1.28h-8a1.28,1.28,0,0,1-1.28-1.28Z" style="fill: #5674e6"/>
        <path d="M1.72,105a.42.42,0,0,1,.41-.41H4.71a.41.41,0,0,1,.42.41v5.48h6.22V105a.41.41,0,0,1,.41-.41h2.59a.42.42,0,0,1,.41.41V119.4a.43.43,0,0,1-.41.42H11.76a.41.41,0,0,1-.41-.42v-5.71H5.13v5.71a.42.42,0,0,1-.42.42H2.13a.43.43,0,0,1-.41-.42Z" style="fill: #3a4a93"/>
        <path d="M25,104.38a7.83,7.83,0,1,1-7.8,7.85A7.81,7.81,0,0,1,25,104.38Zm0,12.18a4.35,4.35,0,1,0-4.32-4.33A4.36,4.36,0,0,0,25,116.56Z" style="fill: #3a4a93"/>
        <path d="M35.36,105a.41.41,0,0,1,.41-.41h6.51a4.64,4.64,0,0,1,1.52,9.06l3,5.53a.41.41,0,0,1-.37.63h-2.9a.38.38,0,0,1-.34-.2l-2.89-5.76H38.77v5.54a.43.43,0,0,1-.41.42H35.77a.41.41,0,0,1-.41-.42ZM42,111.1a1.75,1.75,0,0,0,1.66-1.74A1.67,1.67,0,0,0,42,107.71H38.77v3.39Z" style="fill: #3a4a93"/>
        <path d="M48.92,117.75l1-1.8a.55.55,0,0,1,.74-.13A6.55,6.55,0,0,0,53.77,117a1.36,1.36,0,0,0,1.5-1.3c0-.91-.76-1.61-2.24-2.2-1.87-.74-4.22-2.19-4.22-4.8,0-2.16,1.67-4.33,5-4.33A8.13,8.13,0,0,1,58.49,106c.26.15.21.54.13.7l-1.11,1.67c-.15.24-.55.43-.74.28a6.86,6.86,0,0,0-3.11-1.3,1.26,1.26,0,0,0-1.37,1.11c0,.8.65,1.41,2.37,2.11s4.39,2,4.39,5c0,2.24-1.93,4.51-5.13,4.51A6.88,6.88,0,0,1,49,118.36C48.81,118.14,48.74,118.06,48.92,117.75Z" style="fill: #3a4a93"/>
        <path d="M61.58,105a.41.41,0,0,1,.41-.41h9a.41.41,0,0,1,.41.41v2.37a.41.41,0,0,1-.41.41H65v2.7h5a.43.43,0,0,1,.41.41v2.37a.42.42,0,0,1-.41.42H65v2.93h6a.41.41,0,0,1,.41.42v2.36a.41.41,0,0,1-.41.42H62a.41.41,0,0,1-.41-.42Z" style="fill: #3a4a93"/>
        <path d="M80.62,104.73a.41.41,0,0,1,.39-.35h.35a.51.51,0,0,1,.37.22l5,9.39h0l5-9.39a.47.47,0,0,1,.37-.22h.34a.42.42,0,0,1,.4.35l2.45,14.61a.4.4,0,0,1-.41.48H92.44a.45.45,0,0,1-.41-.35l-1-6.72h0l-3.65,7A.52.52,0,0,1,87,120h-.4a.48.48,0,0,1-.37-.24l-3.67-7h0l-1,6.72a.42.42,0,0,1-.41.35H78.57a.4.4,0,0,1-.41-.48Z" style="fill: #3a4a93"/>
        <path d="M98,105a.41.41,0,0,1,.41-.41h9a.41.41,0,0,1,.42.41v2.37a.41.41,0,0,1-.42.41h-6v2.7h5a.43.43,0,0,1,.41.41v2.37a.41.41,0,0,1-.41.42h-5v2.93h6a.42.42,0,0,1,.42.42v2.36a.42.42,0,0,1-.42.42h-9a.41.41,0,0,1-.41-.42Z" style="fill: #3a4a93"/>
        <path d="M109,119.25l6.8-14.63a.45.45,0,0,1,.37-.24h.22a.44.44,0,0,1,.37.24l6.81,14.63a.39.39,0,0,1-.37.57H120.8c-.39,0-.56-.13-.76-.55l-.78-1.71h-5.92l-.78,1.74a.81.81,0,0,1-.78.52h-2.39A.39.39,0,0,1,109,119.25ZM118,114.6,116.3,111h0l-1.63,3.59Z" style="fill: #3a4a93"/>
        <path d="M126.19,107.79h-3.11a.41.41,0,0,1-.41-.41V105a.41.41,0,0,1,.41-.41h9.66a.41.41,0,0,1,.41.41v2.37a.41.41,0,0,1-.41.41h-3.11V119.4a.44.44,0,0,1-.42.42H126.6a.43.43,0,0,1-.41-.42Z" style="fill: #3a4a93"/>
        <path d="M140.12,105a.4.4,0,0,1,.39-.41h5.31a7.61,7.61,0,1,1,0,15.22h-5.31a.41.41,0,0,1-.39-.42Zm5.48,11.59a4.41,4.41,0,0,0,0-8.81h-2.09v8.81Z" style="fill: #3a4a93"/>
        <path d="M155.94,105a.43.43,0,0,1,.41-.41H159a.43.43,0,0,1,.42.41V119.4a.44.44,0,0,1-.42.42h-2.61a.43.43,0,0,1-.41-.42Z" style="fill: #3a4a93"/>
        <path d="M162.12,117.75l1-1.8a.55.55,0,0,1,.74-.13A6.5,6.5,0,0,0,167,117a1.36,1.36,0,0,0,1.5-1.3c0-.91-.76-1.61-2.24-2.2-1.88-.74-4.22-2.19-4.22-4.8,0-2.16,1.67-4.33,5-4.33a8.06,8.06,0,0,1,4.65,1.63.55.55,0,0,1,.13.7l-1.1,1.67c-.16.24-.55.43-.74.28a6.86,6.86,0,0,0-3.11-1.3,1.26,1.26,0,0,0-1.37,1.11c0,.8.65,1.41,2.37,2.11s4.39,2,4.39,5c0,2.24-1.94,4.51-5.13,4.51a6.86,6.86,0,0,1-4.89-1.68C162,118.14,161.94,118.06,162.12,117.75Z" style="fill: #3a4a93"/>
        <path d="M181.46,104.38a7.3,7.3,0,0,1,5.26,2,.41.41,0,0,1,0,.61l-1.7,1.76a.38.38,0,0,1-.54,0,4.42,4.42,0,0,0-2.93-1.11,4.45,4.45,0,0,0,0,8.9,4.56,4.56,0,0,0,2.91-1,.43.43,0,0,1,.56,0l1.7,1.81a.44.44,0,0,1,0,.59,7.49,7.49,0,0,1-5.28,2.11,7.83,7.83,0,1,1,0-15.66Z" style="fill: #3a4a93"/>
        <path d="M195.53,104.38a7.83,7.83,0,1,1-7.8,7.85A7.81,7.81,0,0,1,195.53,104.38Zm0,12.18a4.35,4.35,0,1,0-4.32-4.33A4.36,4.36,0,0,0,195.53,116.56Z" style="fill: #3a4a93"/>
        <path d="M210.22,113a3.11,3.11,0,1,1,3.07,3.07A3.15,3.15,0,0,1,210.22,113Z" style="fill: #071f38"/>
        <path d="M224.42,105a.41.41,0,0,1,.41-.41h5.24a4.85,4.85,0,1,1,0,9.7h-2.28v5.1a.43.43,0,0,1-.41.42h-2.57a.41.41,0,0,1-.41-.42Zm5.45,6.11a1.71,1.71,0,0,0,1.72-1.72,1.66,1.66,0,0,0-1.72-1.61h-2.06v3.33Z" style="fill: #e8ac8f"/>
        <path d="M236.87,105a.43.43,0,0,1,.41-.41h2.62a.43.43,0,0,1,.41.41V119.4a.43.43,0,0,1-.41.42h-2.62a.43.43,0,0,1-.41-.42Z" style="fill: #e8ac8f"/>
        <path d="M245.26,104.73a.41.41,0,0,1,.39-.35H246a.47.47,0,0,1,.37.22l5,9.39h0l5-9.39a.47.47,0,0,1,.37-.22h.34a.42.42,0,0,1,.4.35l2.45,14.61a.4.4,0,0,1-.41.48h-2.57a.45.45,0,0,1-.41-.35l-1-6.72h0l-3.66,7a.5.5,0,0,1-.37.24h-.39a.48.48,0,0,1-.37-.24l-3.67-7h0l-1,6.72a.44.44,0,0,1-.42.35h-2.56a.41.41,0,0,1-.42-.48Z" style="fill: #e8ac8f"/>
        <path d="M262.61,105a.41.41,0,0,1,.41-.41h5.24a4.85,4.85,0,1,1,0,9.7H266v5.1a.43.43,0,0,1-.41.42H263a.41.41,0,0,1-.41-.42Zm5.46,6.11a1.71,1.71,0,0,0,1.71-1.72,1.66,1.66,0,0,0-1.71-1.61H266v3.33Z" style="fill: #e8ac8f"/>
        <path d="M274.62,117.75l1-1.8a.55.55,0,0,1,.74-.13,6.6,6.6,0,0,0,3.09,1.19,1.36,1.36,0,0,0,1.5-1.3c0-.91-.76-1.61-2.24-2.2-1.87-.74-4.22-2.19-4.22-4.8,0-2.16,1.68-4.33,5-4.33a8.07,8.07,0,0,1,4.66,1.63.55.55,0,0,1,.13.7l-1.11,1.67c-.15.24-.54.43-.74.28a6.76,6.76,0,0,0-3.11-1.3,1.26,1.26,0,0,0-1.37,1.11c0,.8.65,1.41,2.37,2.11s4.4,2,4.4,5c0,2.24-1.94,4.51-5.14,4.51a6.91,6.91,0,0,1-4.89-1.68C274.51,118.14,274.45,118.06,274.62,117.75Z" style="fill: #e8ac8f"/>
        <path d="M298.9,104.38a7.83,7.83,0,1,1-7.8,7.85A7.81,7.81,0,0,1,298.9,104.38Zm0,12.18a4.35,4.35,0,1,0-4.33-4.33A4.36,4.36,0,0,0,298.9,116.56Z" style="fill: #e8ac8f"/>
        <path d="M309.22,105a.41.41,0,0,1,.41-.41h9a.41.41,0,0,1,.42.41v2.37a.41.41,0,0,1-.42.41h-6v3.13h5a.43.43,0,0,1,.41.42v2.37a.42.42,0,0,1-.41.41h-5v5.28a.43.43,0,0,1-.41.42h-2.57a.41.41,0,0,1-.41-.42Z" style="fill: #e8ac8f"/>
        <path d="M324.13,117.91l1.48-1.46a.4.4,0,0,1,.58,0,1.37,1.37,0,0,0,1.11.45c.61,0,1.28-.56,1.28-1.65V105a.41.41,0,0,1,.42-.41h2.65a.41.41,0,0,1,.41.41v10.26a4.51,4.51,0,0,1-4.67,4.77,4.17,4.17,0,0,1-3.31-1.59A.45.45,0,0,1,324.13,117.91Z" style="fill: #e8ac8f"/>
        <path d="M342.12,104.38a7.83,7.83,0,1,1-7.81,7.85A7.81,7.81,0,0,1,342.12,104.38Zm0,12.18a4.35,4.35,0,1,0-4.33-4.33A4.36,4.36,0,0,0,342.12,116.56Z" style="fill: #e8ac8f"/>
        <path d="M354.42,112.49l-4.81-7.26a.4.4,0,0,1,.35-.63h2.83a.44.44,0,0,1,.35.19l3,4.46,3-4.46a.41.41,0,0,1,.35-.19h2.83a.4.4,0,0,1,.35.63l-4.88,7.24v6.93a.43.43,0,0,1-.41.42h-2.59a.42.42,0,0,1-.41-.42Z" style="fill: #e8ac8f"/>
        <path d="M367.08,107.79H364a.41.41,0,0,1-.41-.41V105a.41.41,0,0,1,.41-.41h9.65a.41.41,0,0,1,.41.41v2.37a.41.41,0,0,1-.41.41h-3.11V119.4a.43.43,0,0,1-.41.42h-2.61a.43.43,0,0,1-.41-.42Z" style="fill: #e8ac8f"/>
        <path d="M375.84,105a.43.43,0,0,1,.41-.41h2.61a.42.42,0,0,1,.41.41V119.4a.43.43,0,0,1-.41.42h-2.61a.43.43,0,0,1-.41-.42Z" style="fill: #e8ac8f"/>
        <path d="M384.23,104.73a.41.41,0,0,1,.39-.35H385a.47.47,0,0,1,.37.22l5,9.39h.05l5-9.39a.49.49,0,0,1,.37-.22h.35a.41.41,0,0,1,.39.35L399,119.34a.4.4,0,0,1-.41.48h-2.57a.44.44,0,0,1-.41-.35l-1-6.72h0l-3.66,7a.5.5,0,0,1-.37.24h-.39a.48.48,0,0,1-.37-.24l-3.67-7h-.05l-.95,6.72a.44.44,0,0,1-.42.35h-2.56a.4.4,0,0,1-.42-.48Z" style="fill: #e8ac8f"/>
        <path d="M401.58,105a.41.41,0,0,1,.41-.41h9a.41.41,0,0,1,.41.41v2.37a.41.41,0,0,1-.41.41h-6v2.7h5a.43.43,0,0,1,.41.41v2.37a.42.42,0,0,1-.41.42h-5v2.93h6a.41.41,0,0,1,.41.42v2.36a.41.41,0,0,1-.41.42h-9a.41.41,0,0,1-.41-.42Z" style="fill: #e8ac8f"/>
        <path d="M1.72,128.05a.33.33,0,0,1,.34-.32H2.5l7.16,6.88h0v-6.36a.35.35,0,0,1,.34-.35h2.15a.36.36,0,0,1,.34.35v12.06a.34.34,0,0,1-.34.33h-.29a.58.58,0,0,1-.23-.09l-7.08-7.12h0v6.69a.34.34,0,0,1-.34.34H2.07a.36.36,0,0,1-.34-.34Z" style="fill: #5674e6"/>
        <path d="M15.4,128.25a.35.35,0,0,1,.34-.35h7.43a.35.35,0,0,1,.34.35v1.95a.34.34,0,0,1-.34.34h-5v2.22h4.09a.36.36,0,0,1,.34.34v2a.34.34,0,0,1-.34.34H18.2v2.42h5a.34.34,0,0,1,.34.34v2a.34.34,0,0,1-.34.34H15.74a.34.34,0,0,1-.34-.34Z" style="fill: #5674e6"/>
        <path d="M24.52,140l5.61-12.07a.38.38,0,0,1,.31-.19h.18a.37.37,0,0,1,.3.19L36.54,140a.32.32,0,0,1-.31.47h-2c-.32,0-.47-.11-.63-.45L33,138.59H28.09L27.44,140a.67.67,0,0,1-.64.43h-2A.32.32,0,0,1,24.52,140Zm7.37-3.84-1.36-3h0l-1.35,3Z" style="fill: #5674e6"/>
        <path d="M37.89,128.25a.35.35,0,0,1,.34-.35h2.13a.36.36,0,0,1,.34.35v9.57H45a.34.34,0,0,1,.34.34v2a.34.34,0,0,1-.34.34H38.23a.34.34,0,0,1-.34-.34Z" style="fill: #5674e6"/>
        <path d="M51,128.25a.35.35,0,0,1,.34-.35h7.43a.35.35,0,0,1,.34.35v1.95a.34.34,0,0,1-.34.34h-5v2.58h4.09a.35.35,0,0,1,.34.34v2a.35.35,0,0,1-.34.34H53.8v4.36a.35.35,0,0,1-.34.34H51.34a.34.34,0,0,1-.34-.34Z" style="fill: #5674e6"/>
        <path d="M60.89,128.25a.35.35,0,0,1,.34-.35h5.36a3.83,3.83,0,0,1,1.25,7.48l2.46,4.56a.34.34,0,0,1-.31.52H67.61a.35.35,0,0,1-.29-.16l-2.38-4.76H63.7v4.58a.35.35,0,0,1-.34.34H61.23a.34.34,0,0,1-.34-.34Zm5.46,5a1.45,1.45,0,0,0,1.37-1.44,1.38,1.38,0,0,0-1.37-1.36H63.7v2.8Z" style="fill: #5674e6"/>
        <path d="M71.45,140l5.61-12.07a.37.37,0,0,1,.3-.19h.18a.38.38,0,0,1,.31.19L83.46,140a.32.32,0,0,1-.3.47h-2c-.33,0-.47-.11-.63-.45l-.65-1.42H75L74.37,140a.68.68,0,0,1-.65.43h-2A.32.32,0,0,1,71.45,140Zm7.37-3.84-1.37-3h0l-1.35,3Z" style="fill: #5674e6"/>
        <path d="M84.79,128.05a.33.33,0,0,1,.34-.32h.45l7.16,6.88h0v-6.36a.35.35,0,0,1,.34-.35h2.16a.36.36,0,0,1,.34.35v12.06a.34.34,0,0,1-.34.33H95a.58.58,0,0,1-.23-.09l-7.09-7.12h0v6.69a.34.34,0,0,1-.34.34H85.15a.35.35,0,0,1-.34-.34Z" style="fill: #5674e6"/>
        <path d="M104.1,127.73a6,6,0,0,1,4.34,1.66.35.35,0,0,1,0,.51l-1.4,1.45a.33.33,0,0,1-.45,0,3.67,3.67,0,0,0-2.42-.92,3.67,3.67,0,0,0,0,7.34,3.81,3.81,0,0,0,2.4-.86.36.36,0,0,1,.47,0l1.4,1.49a.38.38,0,0,1,0,.49,6.17,6.17,0,0,1-4.36,1.74,6.46,6.46,0,1,1,0-12.91Z" style="fill: #5674e6"/>
        <path d="M110.35,128.25a.36.36,0,0,1,.34-.35h2.15a.37.37,0,0,1,.35.35v11.87a.36.36,0,0,1-.35.34h-2.15a.35.35,0,0,1-.34-.34Z" style="fill: #5674e6"/>
        <path d="M115.45,138.75l.84-1.48a.46.46,0,0,1,.61-.11,5.41,5.41,0,0,0,2.54,1,1.12,1.12,0,0,0,1.24-1.07c0-.76-.63-1.33-1.84-1.81-1.55-.61-3.48-1.81-3.48-4,0-1.77,1.38-3.56,4.14-3.56a6.74,6.74,0,0,1,3.84,1.34.46.46,0,0,1,.1.57l-.91,1.38c-.13.2-.45.36-.61.24a5.6,5.6,0,0,0-2.56-1.08,1,1,0,0,0-1.13.92c0,.66.53,1.16,2,1.74s3.62,1.65,3.62,4.08a3.94,3.94,0,0,1-4.23,3.72,5.69,5.69,0,0,1-4-1.38C115.36,139.08,115.3,139,115.45,138.75Z" style="fill: #5674e6"/>
        <path d="M129.48,134.83a2.59,2.59,0,0,1,2.53-2.6,2.57,2.57,0,1,1,0,5.13A2.57,2.57,0,0,1,129.48,134.83Z" style="fill: #071f38"/>
        <path d="M143.49,134.41l-4-6a.33.33,0,0,1,.29-.52h2.33a.36.36,0,0,1,.29.17l2.49,3.67,2.49-3.67a.32.32,0,0,1,.29-.17H150a.33.33,0,0,1,.28.52l-4,6v5.72a.35.35,0,0,1-.34.34h-2.14a.34.34,0,0,1-.34-.34Z" style="fill: #c46c49"/>
        <path d="M151.57,128.25a.36.36,0,0,1,.34-.35h2.21a.35.35,0,0,1,.34.35v7.26a2.23,2.23,0,1,0,4.45,0v-7.26a.35.35,0,0,1,.34-.35h2.21a.37.37,0,0,1,.34.35v7.4a5.12,5.12,0,0,1-10.23,0Z" style="fill: #c46c49"/>
        <path d="M164.55,128.34a.43.43,0,0,1,.43-.44h2.09a.44.44,0,0,1,.43.44v4.71l4-5a.52.52,0,0,1,.34-.18h2.25a.42.42,0,0,1,.33.67l-4.2,5.25,4.57,6a.42.42,0,0,1-.34.66H172a.43.43,0,0,1-.32-.13l-4.15-5.63V140a.43.43,0,0,1-.43.43H165a.43.43,0,0,1-.43-.43Z" style="fill: #c46c49"/>
        <path d="M175.84,138.75l.84-1.48a.46.46,0,0,1,.61-.11,5.47,5.47,0,0,0,2.55,1,1.12,1.12,0,0,0,1.24-1.07c0-.76-.63-1.33-1.85-1.81-1.54-.61-3.48-1.81-3.48-4,0-1.77,1.38-3.56,4.14-3.56a6.71,6.71,0,0,1,3.84,1.34.46.46,0,0,1,.11.57l-.92,1.38c-.12.2-.45.36-.61.24a5.6,5.6,0,0,0-2.56-1.08,1,1,0,0,0-1.13.92c0,.66.54,1.16,1.95,1.74s3.63,1.65,3.63,4.08a4,4,0,0,1-4.24,3.72,5.69,5.69,0,0,1-4-1.38C175.75,139.08,175.7,139,175.84,138.75Z" style="fill: #c46c49"/>
        <path d="M186.28,128.25a.35.35,0,0,1,.34-.35H194a.35.35,0,0,1,.34.35v1.95a.34.34,0,0,1-.34.34h-5v2.22h4.09a.36.36,0,0,1,.34.34v2a.34.34,0,0,1-.34.34h-4.09v2.42h5a.34.34,0,0,1,.34.34v2a.34.34,0,0,1-.34.34h-7.42a.34.34,0,0,1-.34-.34Z" style="fill: #c46c49"/>
        <path d="M196.78,128.34a.43.43,0,0,1,.43-.44h2.1a.44.44,0,0,1,.43.44v4.71l4-5a.52.52,0,0,1,.34-.18h2.26a.42.42,0,0,1,.32.67l-4.2,5.25,4.58,6a.42.42,0,0,1-.34.66H204.2a.45.45,0,0,1-.32-.13l-4.14-5.63V140a.44.44,0,0,1-.43.43h-2.1a.43.43,0,0,1-.43-.43Z" style="fill: #c46c49"/>
        <path d="M212.33,134.83a2.57,2.57,0,1,1,2.53,2.53A2.6,2.6,0,0,1,212.33,134.83Z" style="fill: #071f38"/>
        <path d="M224,128.25a.35.35,0,0,1,.34-.35h4.32a4,4,0,1,1,0,8h-1.88v4.22a.35.35,0,0,1-.34.34h-2.11a.34.34,0,0,1-.34-.34Zm4.5,5a1.4,1.4,0,0,0,1.41-1.41,1.36,1.36,0,0,0-1.41-1.33h-1.71v2.74Z" style="fill: #3a4a93"/>
        <path d="M234.31,128.25a.35.35,0,0,1,.34-.35h7.42a.35.35,0,0,1,.34.35v1.95a.34.34,0,0,1-.34.34h-5v2.22h4.09a.36.36,0,0,1,.34.34v2a.34.34,0,0,1-.34.34H237.1v2.42h5a.34.34,0,0,1,.34.34v2a.34.34,0,0,1-.34.34h-7.42a.34.34,0,0,1-.34-.34Z" style="fill: #3a4a93"/>
        <path d="M243.42,140,249,127.92a.37.37,0,0,1,.3-.19h.18a.35.35,0,0,1,.3.19L255.44,140a.32.32,0,0,1-.31.47h-2c-.32,0-.46-.11-.63-.45l-.64-1.42H247l-.64,1.44a.68.68,0,0,1-.65.43h-2A.32.32,0,0,1,243.42,140Zm7.37-3.84-1.36-3h0l-1.34,3Z" style="fill: #3a4a93"/>
        <path d="M256.77,128.05a.33.33,0,0,1,.34-.32h.45l7.15,6.88h0v-6.36a.35.35,0,0,1,.34-.35h2.15a.36.36,0,0,1,.34.35v12.06a.34.34,0,0,1-.34.33h-.28a.63.63,0,0,1-.24-.09l-7.08-7.12h0v6.69a.34.34,0,0,1-.34.34h-2.13a.35.35,0,0,1-.34-.34Z" style="fill: #3a4a93"/>
        <path d="M270.32,128.25a.36.36,0,0,1,.34-.35h2.21a.35.35,0,0,1,.34.35v7.26a2.23,2.23,0,1,0,4.45,0v-7.26a.35.35,0,0,1,.34-.35h2.2a.36.36,0,0,1,.34.35v7.4a5.11,5.11,0,0,1-10.22,0Z" style="fill: #3a4a93"/>
        <path d="M284.84,130.54h-2.56a.34.34,0,0,1-.34-.34v-1.95a.35.35,0,0,1,.34-.35h8a.35.35,0,0,1,.34.35v1.95a.34.34,0,0,1-.34.34h-2.56v9.58a.35.35,0,0,1-.34.34h-2.15a.36.36,0,0,1-.35-.34Z" style="fill: #3a4a93"/>
        <path d="M296.33,128.25a.35.35,0,0,1,.34-.35h4.18a3.61,3.61,0,0,1,3.85,3.34,3.55,3.55,0,0,1-2.08,2.83c.95.4,2.41,1.28,2.41,2.93a3.67,3.67,0,0,1-3.91,3.46h-4.45a.34.34,0,0,1-.34-.34Zm4.2,4.75a1.28,1.28,0,0,0,1.25-1.29,1.21,1.21,0,0,0-1.25-1.22h-1.4V133Zm.23,4.89a1.3,1.3,0,0,0,1.29-1.31,1.43,1.43,0,0,0-1.47-1.25h-1.45v2.56Z" style="fill: #3a4a93"/>
        <path d="M307,128.25a.37.37,0,0,1,.35-.35h2.2a.35.35,0,0,1,.34.35v7.26a2.23,2.23,0,1,0,4.45,0v-7.26a.35.35,0,0,1,.34-.35h2.21a.36.36,0,0,1,.34.35v7.4a5.12,5.12,0,0,1-10.23,0Z" style="fill: #3a4a93"/>
        <path d="M321.52,130.54H319a.34.34,0,0,1-.34-.34v-1.95a.35.35,0,0,1,.34-.35h8a.35.35,0,0,1,.34.35v1.95a.34.34,0,0,1-.34.34h-2.56v9.58a.35.35,0,0,1-.34.34h-2.15a.35.35,0,0,1-.34-.34Z" style="fill: #3a4a93"/>
        <path d="M331,130.54h-2.56a.34.34,0,0,1-.34-.34v-1.95a.35.35,0,0,1,.34-.35h8a.35.35,0,0,1,.34.35v1.95a.34.34,0,0,1-.34.34h-2.57v9.58a.35.35,0,0,1-.34.34h-2.15a.35.35,0,0,1-.34-.34Z" style="fill: #3a4a93"/>
        <path d="M338.23,128.25a.35.35,0,0,1,.34-.35H346a.35.35,0,0,1,.34.35v1.95a.34.34,0,0,1-.34.34h-5v2.22h4.09a.36.36,0,0,1,.34.34v2a.34.34,0,0,1-.34.34H341v2.42h5a.34.34,0,0,1,.34.34v2a.34.34,0,0,1-.34.34h-7.42a.34.34,0,0,1-.34-.34Z" style="fill: #3a4a93"/>
        <path d="M348.73,128.25a.35.35,0,0,1,.34-.35h5.36a3.83,3.83,0,0,1,1.26,7.48l2.45,4.56a.34.34,0,0,1-.3.52h-2.39a.32.32,0,0,1-.28-.16l-2.39-4.76h-1.24v4.58a.35.35,0,0,1-.34.34h-2.13a.34.34,0,0,1-.34-.34Zm5.47,5a1.45,1.45,0,0,0,1.36-1.44,1.37,1.37,0,0,0-1.36-1.36h-2.66v2.8Z" style="fill: #3a4a93"/>
        <path d="M363.58,128.34a.32.32,0,0,1,.33-.44H366a.38.38,0,0,1,.32.26l1.54,6.07h.07l2.78-6.31a.34.34,0,0,1,.31-.19h.32a.3.3,0,0,1,.3.19l2.78,6.31h.07l1.55-6.07a.36.36,0,0,1,.32-.26h2.1a.32.32,0,0,1,.32.44l-3.39,12a.35.35,0,0,1-.32.25h-.29a.36.36,0,0,1-.3-.2l-3.29-7.34h-.05l-3.26,7.34a.37.37,0,0,1-.31.2h-.28a.35.35,0,0,1-.33-.25Z" style="fill: #3a4a93"/>
        <path d="M385.86,127.73a6.46,6.46,0,1,1-6.43,6.47A6.44,6.44,0,0,1,385.86,127.73Zm0,10a3.59,3.59,0,1,0-3.57-3.57A3.6,3.6,0,0,0,385.86,137.77Z" style="fill: #3a4a93"/>
        <path d="M394.37,128.25a.35.35,0,0,1,.34-.35h2.13a.37.37,0,0,1,.35.35v9.57h4.26a.34.34,0,0,1,.34.34v2a.34.34,0,0,1-.34.34h-6.74a.34.34,0,0,1-.34-.34Z" style="fill: #3a4a93"/>
        <path d="M403.25,128.25a.35.35,0,0,1,.34-.35H411a.35.35,0,0,1,.34.35v1.95a.34.34,0,0,1-.34.34h-5v2.58h4.09a.35.35,0,0,1,.34.34v2a.35.35,0,0,1-.34.34h-4.09v4.36a.35.35,0,0,1-.34.34h-2.12a.34.34,0,0,1-.34-.34Z" style="fill: #3a4a93"/>
        <path d="M3.33,150H1.9a.19.19,0,0,1-.18-.19v-1.08a.19.19,0,0,1,.18-.19H6.32a.19.19,0,0,1,.19.19v1.08a.19.19,0,0,1-.19.19H4.9v5.31a.2.2,0,0,1-.19.19H3.52a.2.2,0,0,1-.19-.19Z" style="fill: #3a4a93"/>
        <path d="M7.43,148.73a.2.2,0,0,1,.19-.19H8.8a.19.19,0,0,1,.19.19v2.5h2.85v-2.5a.19.19,0,0,1,.19-.19h1.18a.2.2,0,0,1,.19.19v6.58a.2.2,0,0,1-.19.19H12a.19.19,0,0,1-.19-.19V152.7H9v2.61a.19.19,0,0,1-.19.19H7.62a.2.2,0,0,1-.19-.19Z" style="fill: #3a4a93"/>
        <path d="M15.1,148.73a.19.19,0,0,1,.19-.19h4.12a.19.19,0,0,1,.19.19v1.08a.19.19,0,0,1-.19.19H16.65v1.23h2.27a.2.2,0,0,1,.19.19v1.09a.19.19,0,0,1-.19.19H16.65V154h2.76a.19.19,0,0,1,.19.19v1.08a.19.19,0,0,1-.19.19H15.29a.19.19,0,0,1-.19-.19Z" style="fill: #3a4a93"/>
        <path d="M23.82,148.6a.19.19,0,0,1,.18-.16h.16a.22.22,0,0,1,.17.1l2.31,4.3h0l2.3-4.3a.22.22,0,0,1,.17-.1h.16a.19.19,0,0,1,.18.16l1.13,6.68a.19.19,0,0,1-.19.22H29.23a.2.2,0,0,1-.19-.16l-.44-3.07h0l-1.67,3.22a.28.28,0,0,1-.17.11h-.18a.22.22,0,0,1-.17-.11l-1.68-3.22h0l-.44,3.07a.19.19,0,0,1-.19.16H22.88a.18.18,0,0,1-.18-.22Z" style="fill: #3a4a93"/>
        <path d="M31.71,148.73a.2.2,0,0,1,.19-.19h1.22a.19.19,0,0,1,.19.19v4a1.24,1.24,0,1,0,2.47,0v-4a.19.19,0,0,1,.19-.19h1.22a.2.2,0,0,1,.19.19v4.11a2.84,2.84,0,0,1-5.67,0Z" style="fill: #3a4a93"/>
        <path d="M38.61,154.56l.46-.83a.26.26,0,0,1,.34-.06,3,3,0,0,0,1.41.55.63.63,0,0,0,.69-.6c0-.42-.35-.73-1-1-.85-.34-1.93-1-1.93-2.2a2.06,2.06,0,0,1,2.3-2,3.68,3.68,0,0,1,2.13.75.24.24,0,0,1,.06.31l-.51.77c-.07.11-.24.2-.33.13a3.13,3.13,0,0,0-1.43-.6.57.57,0,0,0-.62.51c0,.37.29.65,1.08,1s2,.92,2,2.27a2.18,2.18,0,0,1-2.35,2.06,3.17,3.17,0,0,1-2.24-.76C38.55,154.74,38.53,154.7,38.61,154.56Z" style="fill: #3a4a93"/>
        <path d="M45.43,150H44a.19.19,0,0,1-.19-.19v-1.08a.19.19,0,0,1,.19-.19h4.42a.19.19,0,0,1,.19.19v1.08a.19.19,0,0,1-.19.19H47v5.31a.2.2,0,0,1-.19.19H45.63a.2.2,0,0,1-.2-.19Z" style="fill: #3a4a93"/>
        <path d="M48.31,155.24l3.11-6.69a.2.2,0,0,1,.17-.11h.1a.2.2,0,0,1,.17.11L55,155.24a.18.18,0,0,1-.17.26H53.7c-.18,0-.26-.06-.35-.25l-.36-.78h-2.7l-.36.79a.37.37,0,0,1-.36.24H48.48A.18.18,0,0,1,48.31,155.24Zm4.09-2.12-.76-1.65h0l-.75,1.65Z" style="fill: #3a4a93"/>
        <path d="M58.64,148.44a3.35,3.35,0,0,1,2.4.92.19.19,0,0,1,0,.28l-.77.81a.18.18,0,0,1-.25,0,2,2,0,0,0-1.34-.51,2,2,0,0,0,0,4.07,2.11,2.11,0,0,0,1.33-.48.2.2,0,0,1,.26,0l.77.83a.2.2,0,0,1,0,.27,3.42,3.42,0,0,1-2.41,1,3.58,3.58,0,1,1,0-7.16Z" style="fill: #3a4a93"/>
        <path d="M62.2,148.73a.2.2,0,0,1,.19-.19h1.18a.19.19,0,0,1,.19.19v2.5h2.85v-2.5a.19.19,0,0,1,.19-.19H68a.2.2,0,0,1,.19.19v6.58a.2.2,0,0,1-.19.19H66.8a.19.19,0,0,1-.19-.19V152.7H63.76v2.61a.19.19,0,0,1-.19.19H62.39a.2.2,0,0,1-.19-.19Z" style="fill: #3a4a93"/>
        <path d="M69.87,148.73a.19.19,0,0,1,.19-.19h4.12a.19.19,0,0,1,.19.19v1.08a.19.19,0,0,1-.19.19H71.42v1.23h2.27a.2.2,0,0,1,.19.19v1.09a.19.19,0,0,1-.19.19H71.42V154h2.76a.19.19,0,0,1,.19.19v1.08a.19.19,0,0,1-.19.19H70.06a.19.19,0,0,1-.19-.19Z" style="fill: #3a4a93"/>
        <path d="M77.91,148.73a.19.19,0,0,1,.18-.19h2.32a1.79,1.79,0,0,1,1,3.42,1.89,1.89,0,0,1,1.33,1.62,2,2,0,0,1-2.17,1.92H78.09a.19.19,0,0,1-.18-.19Zm2.32,2.63a.7.7,0,0,0,.7-.71.68.68,0,0,0-.7-.68h-.77v1.39Zm.13,2.72a.73.73,0,0,0,.72-.73.8.8,0,0,0-.82-.69h-.8v1.42Z" style="fill: #3a4a93"/>
        <path d="M83.09,155.24l3.11-6.69a.2.2,0,0,1,.17-.11h.1a.2.2,0,0,1,.17.11l3.12,6.69a.18.18,0,0,1-.17.26H88.48c-.18,0-.26-.06-.34-.25l-.36-.78H85.07l-.36.79a.37.37,0,0,1-.36.24H83.26A.18.18,0,0,1,83.09,155.24Zm4.09-2.12-.76-1.65h0l-.74,1.65Z" style="fill: #3a4a93"/>
        <path d="M90.33,154.56l.46-.83a.26.26,0,0,1,.34-.06,3,3,0,0,0,1.42.55.62.62,0,0,0,.68-.6c0-.42-.35-.73-1-1-.86-.34-1.93-1-1.93-2.2a2.06,2.06,0,0,1,2.3-2,3.64,3.64,0,0,1,2.12.75.24.24,0,0,1,.06.31l-.5.77c-.07.11-.25.2-.34.13a3.13,3.13,0,0,0-1.42-.6.58.58,0,0,0-.63.51c0,.37.3.65,1.08,1s2,.92,2,2.27a2.18,2.18,0,0,1-2.34,2.06,3.15,3.15,0,0,1-2.24-.76C90.28,154.74,90.25,154.7,90.33,154.56Z" style="fill: #3a4a93"/>
        <path d="M96.21,148.73a.2.2,0,0,1,.19-.19h1.18a.19.19,0,0,1,.19.19v2.5h2.85v-2.5a.19.19,0,0,1,.19-.19H102a.2.2,0,0,1,.19.19v6.58a.2.2,0,0,1-.19.19h-1.18a.19.19,0,0,1-.19-.19V152.7H97.77v2.61a.19.19,0,0,1-.19.19H96.4a.2.2,0,0,1-.19-.19Z" style="fill: #3a4a93"/>
        <path d="M106.09,148.73a.19.19,0,0,1,.19-.19h4.12a.19.19,0,0,1,.19.19v1.08a.19.19,0,0,1-.19.19h-2.75v1.43h2.26a.2.2,0,0,1,.19.19v1.09a.2.2,0,0,1-.19.19h-2.26v2.41a.2.2,0,0,1-.19.19h-1.18a.19.19,0,0,1-.19-.19Z" style="fill: #3a4a93"/>
        <path d="M110.39,155.24l3.11-6.69a.2.2,0,0,1,.17-.11h.1a.2.2,0,0,1,.17.11l3.11,6.69a.18.18,0,0,1-.17.26h-1.1c-.18,0-.26-.06-.35-.25l-.36-.78h-2.7l-.36.79a.37.37,0,0,1-.36.24h-1.09A.18.18,0,0,1,110.39,155.24Zm4.09-2.12-.76-1.65h0l-.74,1.65Z" style="fill: #3a4a93"/>
        <path d="M118.8,148.6a.19.19,0,0,1,.17-.16h.16a.22.22,0,0,1,.17.1l2.31,4.3h0l2.31-4.3a.22.22,0,0,1,.17-.1h.16a.19.19,0,0,1,.18.16l1.12,6.68a.18.18,0,0,1-.19.22h-1.17a.2.2,0,0,1-.19-.16l-.45-3.07h0l-1.67,3.22a.23.23,0,0,1-.17.11h-.18a.22.22,0,0,1-.17-.11l-1.68-3.22h0l-.44,3.07a.19.19,0,0,1-.18.16h-1.18a.18.18,0,0,1-.19-.22Z" style="fill: #3a4a93"/>
        <path d="M126.83,148.73a.2.2,0,0,1,.19-.19h1.19a.2.2,0,0,1,.19.19v6.58a.2.2,0,0,1-.19.19H127a.2.2,0,0,1-.19-.19Z" style="fill: #3a4a93"/>
        <path d="M130.09,148.73a.19.19,0,0,1,.19-.19h1.18a.2.2,0,0,1,.19.19V154H134a.18.18,0,0,1,.18.19v1.08a.18.18,0,0,1-.18.19h-3.74a.19.19,0,0,1-.19-.19Z" style="fill: #3a4a93"/>
        <path d="M135.77,152.15l-2.19-3.32a.18.18,0,0,1,.15-.29H135a.2.2,0,0,1,.16.09l1.38,2,1.38-2a.18.18,0,0,1,.16-.09h1.3a.18.18,0,0,1,.15.29l-2.22,3.31v3.17a.2.2,0,0,1-.19.19H136a.19.19,0,0,1-.19-.19Z" style="fill: #3a4a93"/>
        <path d="M142.56,148.73a.19.19,0,0,1,.19-.19h2.32a1.79,1.79,0,0,1,1,3.42,1.89,1.89,0,0,1,1.33,1.62,2,2,0,0,1-2.17,1.92h-2.47a.19.19,0,0,1-.19-.19Zm2.33,2.63a.7.7,0,0,0,.7-.71.68.68,0,0,0-.7-.68h-.77v1.39Zm.13,2.72a.73.73,0,0,0,.72-.73.8.8,0,0,0-.82-.69h-.8v1.42Z" style="fill: #3a4a93"/>
        <path d="M147.75,155.24l3.11-6.69a.2.2,0,0,1,.17-.11h.1a.2.2,0,0,1,.17.11l3.12,6.69a.18.18,0,0,1-.17.26h-1.11c-.18,0-.26-.06-.35-.25l-.36-.78h-2.7l-.36.79a.37.37,0,0,1-.36.24h-1.09A.18.18,0,0,1,147.75,155.24Zm4.09-2.12-.76-1.65h0l-.74,1.65Z" style="fill: #3a4a93"/>
        <path d="M155.25,148.62a.19.19,0,0,1,.19-.18h.25l4,3.82h0v-3.53a.19.19,0,0,1,.19-.19h1.19a.2.2,0,0,1,.19.19v6.69a.19.19,0,0,1-.19.18h-.16a.29.29,0,0,1-.13,0l-3.93-4h0v3.71a.19.19,0,0,1-.19.19h-1.18a.2.2,0,0,1-.19-.19Z" style="fill: #3a4a93"/>
        <path d="M162.94,148.73a.19.19,0,0,1,.18-.19h2.43a3.48,3.48,0,1,1,0,7h-2.43a.19.19,0,0,1-.18-.19Zm2.51,5.3a2,2,0,0,0,0-4h-1v4Z" style="fill: #3a4a93"/>
        <path d="M172.2,152.38a1.42,1.42,0,1,1,1.4,1.4A1.43,1.43,0,0,1,172.2,152.38Z" style="fill: #071f38"/>
        <path d="M178.7,148.73a.19.19,0,0,1,.17-.19h2.43a3.48,3.48,0,1,1,0,7h-2.43a.19.19,0,0,1-.17-.19Zm2.5,5.3a2,2,0,0,0,0-4h-.95v4Z" style="fill: #5674e6"/>
        <path d="M186,148.73a.2.2,0,0,1,.19-.19h1.19a.2.2,0,0,1,.19.19v6.58a.2.2,0,0,1-.19.19h-1.19a.2.2,0,0,1-.19-.19Z" style="fill: #5674e6"/>
        <path d="M189,154.56l.46-.83a.26.26,0,0,1,.34-.06,3,3,0,0,0,1.41.55.63.63,0,0,0,.69-.6c0-.42-.35-.73-1-1-.86-.34-1.94-1-1.94-2.2a2.06,2.06,0,0,1,2.3-2,3.68,3.68,0,0,1,2.13.75.24.24,0,0,1,.06.31l-.51.77c-.07.11-.24.2-.33.13a3.13,3.13,0,0,0-1.43-.6.58.58,0,0,0-.62.51c0,.37.29.65,1.08,1s2,.92,2,2.27a2.18,2.18,0,0,1-2.35,2.06,3.17,3.17,0,0,1-2.24-.76C188.89,154.74,188.87,154.7,189,154.56Z" style="fill: #5674e6"/>
        <path d="M197.88,148.44a3.37,3.37,0,0,1,2.41.92.19.19,0,0,1,0,.28l-.78.81a.18.18,0,0,1-.25,0A2,2,0,0,0,196,152a2,2,0,0,0,2,2,2.09,2.09,0,0,0,1.33-.48.2.2,0,0,1,.26,0l.78.83a.2.2,0,0,1,0,.27,3.44,3.44,0,0,1-2.42,1,3.58,3.58,0,1,1,0-7.16Z" style="fill: #5674e6"/>
        <path d="M204.42,148.44a3.58,3.58,0,1,1-3.57,3.59A3.57,3.57,0,0,1,204.42,148.44Zm0,5.57a2,2,0,1,0,0-4,2,2,0,0,0,0,4Z" style="fill: #5674e6"/>
        <path d="M210,150h-1.42a.19.19,0,0,1-.19-.19v-1.08a.19.19,0,0,1,.19-.19H213a.19.19,0,0,1,.18.19v1.08a.19.19,0,0,1-.18.19h-1.43v5.31a.2.2,0,0,1-.19.19h-1.19a.2.2,0,0,1-.19-.19Z" style="fill: #5674e6"/>
        <path d="M217.13,148.44a3.58,3.58,0,1,1-3.57,3.59A3.57,3.57,0,0,1,217.13,148.44Zm0,5.57a2,2,0,1,0,0-4,2,2,0,0,0,0,4Z" style="fill: #5674e6"/>
        <path d="M221.52,154.56l.47-.83a.26.26,0,0,1,.34-.06,3,3,0,0,0,1.41.55.63.63,0,0,0,.69-.6c0-.42-.35-.73-1-1-.85-.34-1.93-1-1.93-2.2a2.06,2.06,0,0,1,2.3-2,3.68,3.68,0,0,1,2.13.75.24.24,0,0,1,.06.31l-.51.77c-.07.11-.25.2-.34.13a3.08,3.08,0,0,0-1.42-.6.58.58,0,0,0-.63.51c0,.37.3.65,1.09,1s2,.92,2,2.27a2.19,2.19,0,0,1-2.35,2.06,3.17,3.17,0,0,1-2.24-.76C221.47,154.74,221.44,154.7,221.52,154.56Z" style="fill: #5674e6"/>
        <path d="M227.41,148.73a.2.2,0,0,1,.18-.19h1.19a.19.19,0,0,1,.19.19v2.5h2.84v-2.5a.19.19,0,0,1,.19-.19h1.19a.2.2,0,0,1,.18.19v6.58a.2.2,0,0,1-.18.19H232a.19.19,0,0,1-.19-.19V152.7H229v2.61a.19.19,0,0,1-.19.19h-1.19a.2.2,0,0,1-.18-.19Z" style="fill: #5674e6"/>
        <path d="M235.08,148.73a.19.19,0,0,1,.19-.19h1.19a.2.2,0,0,1,.19.19v6.58a.2.2,0,0,1-.19.19h-1.19a.19.19,0,0,1-.19-.19Z" style="fill: #5674e6"/>
        <path d="M240.3,152.38a1.44,1.44,0,0,1,1.4-1.44,1.42,1.42,0,1,1,0,2.84A1.43,1.43,0,0,1,240.3,152.38Z" style="fill: #071f38"/>
        <path d="M245.91,155.24l3.11-6.69a.2.2,0,0,1,.17-.11h.1a.2.2,0,0,1,.17.11l3.11,6.69a.18.18,0,0,1-.17.26h-1.1c-.18,0-.26-.06-.35-.25l-.36-.78h-2.7l-.36.79a.37.37,0,0,1-.36.24h-1.09A.18.18,0,0,1,245.91,155.24Zm4.08-2.12-.75-1.65h0l-.75,1.65Z" style="fill: #c46c49"/>
        <path d="M253.41,148.73a.19.19,0,0,1,.19-.19h2.32a1.79,1.79,0,0,1,1,3.42,1.89,1.89,0,0,1,1.33,1.62,2,2,0,0,1-2.17,1.92H253.6a.19.19,0,0,1-.19-.19Zm2.33,2.63a.7.7,0,0,0,.7-.71.68.68,0,0,0-.7-.68H255v1.39Zm.13,2.72a.73.73,0,0,0,.72-.73.8.8,0,0,0-.82-.69H255v1.42Z" style="fill: #c46c49"/>
        <path d="M259.55,148.73a.19.19,0,0,1,.19-.19h2.32a1.79,1.79,0,0,1,1,3.42,1.89,1.89,0,0,1,1.33,1.62,2,2,0,0,1-2.17,1.92h-2.47a.19.19,0,0,1-.19-.19Zm2.33,2.63a.7.7,0,0,0,.7-.71.68.68,0,0,0-.7-.68h-.77v1.39Zm.13,2.72a.73.73,0,0,0,.72-.73.8.8,0,0,0-.82-.69h-.8v1.42Z" style="fill: #c46c49"/>
        <path d="M266.81,152.15l-2.2-3.32a.19.19,0,0,1,.16-.29h1.29a.2.2,0,0,1,.16.09l1.38,2,1.38-2a.18.18,0,0,1,.16-.09h1.3a.19.19,0,0,1,.16.29l-2.23,3.31v3.17a.2.2,0,0,1-.19.19H267a.19.19,0,0,1-.18-.19Z" style="fill: #c46c49"/>
        <path d="M273.58,148.62a.19.19,0,0,1,.19-.18H274l4,3.82h0v-3.53a.19.19,0,0,1,.19-.19h1.2a.2.2,0,0,1,.18.19v6.69a.19.19,0,0,1-.18.18h-.16a.29.29,0,0,1-.13,0l-3.93-4h0v3.71a.19.19,0,0,1-.19.19h-1.19a.2.2,0,0,1-.19-.19Z" style="fill: #c46c49"/>
        <path d="M284.37,148.44A3.58,3.58,0,1,1,280.8,152,3.58,3.58,0,0,1,284.37,148.44Zm0,5.57a2,2,0,1,0,0-4,2,2,0,0,0,0,4Z" style="fill: #c46c49"/>
        <path d="M289.18,148.73a.19.19,0,0,1,.19-.19h3a2.16,2.16,0,0,1,2.16,2.15,2.18,2.18,0,0,1-1.47,2l1.36,2.52a.19.19,0,0,1-.17.29h-1.32a.18.18,0,0,1-.16-.09l-1.32-2.63h-.69v2.53a.2.2,0,0,1-.19.19h-1.18a.19.19,0,0,1-.19-.19Zm3,2.78a.79.79,0,0,0,.75-.79.76.76,0,0,0-.75-.76h-1.48v1.55Z" style="fill: #c46c49"/>
        <path d="M296.48,148.6a.19.19,0,0,1,.18-.16h.15a.22.22,0,0,1,.17.1l2.31,4.3h0l2.31-4.3a.22.22,0,0,1,.17-.1H302a.19.19,0,0,1,.18.16l1.12,6.68a.18.18,0,0,1-.19.22h-1.17a.2.2,0,0,1-.19-.16l-.45-3.07h0l-1.67,3.22a.23.23,0,0,1-.17.11h-.18a.22.22,0,0,1-.17-.11l-1.68-3.22h0l-.44,3.07a.19.19,0,0,1-.18.16h-1.18a.18.18,0,0,1-.19-.22Z" style="fill: #c46c49"/>
        <path d="M303.88,155.24l3.12-6.69a.2.2,0,0,1,.17-.11h.1a.2.2,0,0,1,.17.11l3.11,6.69a.18.18,0,0,1-.17.26h-1.1c-.18,0-.26-.06-.35-.25l-.36-.78h-2.71l-.36.79a.35.35,0,0,1-.35.24h-1.1A.18.18,0,0,1,303.88,155.24Zm4.09-2.12-.75-1.65h0l-.75,1.65Z" style="fill: #c46c49"/>
        <path d="M311.39,148.73a.19.19,0,0,1,.19-.19h1.19a.2.2,0,0,1,.19.19V154h2.36a.19.19,0,0,1,.19.19v1.08a.19.19,0,0,1-.19.19h-3.74a.19.19,0,0,1-.19-.19Z" style="fill: #c46c49"/>
        <path d="M318.42,152.38a1.44,1.44,0,0,1,1.4-1.44,1.42,1.42,0,1,1,0,2.84A1.43,1.43,0,0,1,318.42,152.38Z" style="fill: #071f38"/>
        <path d="M324.52,154.56l.47-.83a.26.26,0,0,1,.34-.06,3,3,0,0,0,1.41.55.63.63,0,0,0,.69-.6c0-.42-.35-.73-1-1-.85-.34-1.93-1-1.93-2.2a2.06,2.06,0,0,1,2.3-2,3.68,3.68,0,0,1,2.13.75.24.24,0,0,1,.06.31l-.51.77c-.07.11-.25.2-.34.13a3.08,3.08,0,0,0-1.42-.6.58.58,0,0,0-.63.51c0,.37.3.65,1.09,1s2,.92,2,2.27a2.19,2.19,0,0,1-2.35,2.06,3.17,3.17,0,0,1-2.24-.76C324.47,154.74,324.44,154.7,324.52,154.56Z" style="fill: #e8ac8f"/>
        <path d="M330.41,148.73a.19.19,0,0,1,.19-.19h1.18a.19.19,0,0,1,.19.19v2.5h2.84v-2.5a.19.19,0,0,1,.19-.19h1.18a.2.2,0,0,1,.2.19v6.58a.2.2,0,0,1-.2.19H335a.19.19,0,0,1-.19-.19V152.7H332v2.61a.19.19,0,0,1-.19.19H330.6a.19.19,0,0,1-.19-.19Z" style="fill: #e8ac8f"/>
        <path d="M338.07,148.73a.19.19,0,0,1,.2-.19h4.11a.19.19,0,0,1,.19.19v1.08a.19.19,0,0,1-.19.19h-2.75v1.23h2.26a.21.21,0,0,1,.2.19v1.09a.2.2,0,0,1-.2.19h-2.26V154h2.75a.19.19,0,0,1,.19.19v1.08a.19.19,0,0,1-.19.19h-4.11a.19.19,0,0,1-.2-.19Z" style="fill: #e8ac8f"/>
        <path d="M343.34,155.11c.58-.75,2.05-2.75,2.64-3.65a1.44,1.44,0,0,0,.26-.75.78.78,0,0,0-.88-.72,1.4,1.4,0,0,0-1,.5.19.19,0,0,1-.28,0l-.61-.62a.19.19,0,0,1,0-.26,2.88,2.88,0,0,1,2-1,2,2,0,0,1,2.26,2,2.52,2.52,0,0,1-.39,1.29c-.32.57-1.13,1.63-1.6,2.29h1.75a.2.2,0,0,1,.19.19v.89a.2.2,0,0,1-.19.19h-4a.19.19,0,0,1-.19-.19Z" style="fill: #e8ac8f"/>
        <path d="M349.13,148.73a.2.2,0,0,1,.19-.19h1.18a.19.19,0,0,1,.19.19v2.5h2.85v-2.5a.19.19,0,0,1,.18-.19h1.19a.2.2,0,0,1,.19.19v6.58a.2.2,0,0,1-.19.19h-1.19a.19.19,0,0,1-.18-.19V152.7h-2.85v2.61a.19.19,0,0,1-.19.19h-1.18a.2.2,0,0,1-.19-.19Z" style="fill: #e8ac8f"/>
        <path d="M356.8,148.73a.19.19,0,0,1,.19-.19h4.12a.19.19,0,0,1,.19.19v1.08a.19.19,0,0,1-.19.19h-2.76v1.23h2.27a.2.2,0,0,1,.19.19v1.09a.19.19,0,0,1-.19.19h-2.27V154h2.76a.19.19,0,0,1,.19.19v1.08a.19.19,0,0,1-.19.19H357a.19.19,0,0,1-.19-.19Z" style="fill: #e8ac8f"/>
        <path d="M364.57,152.38a1.43,1.43,0,1,1,1.41,1.4A1.44,1.44,0,0,1,364.57,152.38Z" style="fill: #071f38"/>
        <path d="M371.07,148.73a.19.19,0,0,1,.18-.19h2.43a3.48,3.48,0,1,1,0,7h-2.43a.19.19,0,0,1-.18-.19Zm2.51,5.3a2,2,0,0,0,0-4h-.95v4Z" style="fill: #5674e6"/>
        <path d="M377.24,154.63l.67-.67a.19.19,0,0,1,.27,0,.63.63,0,0,0,.51.21c.28,0,.59-.26.59-.76v-4.68a.19.19,0,0,1,.18-.19h1.22a.19.19,0,0,1,.19.19v4.69a2.06,2.06,0,0,1-2.14,2.18,1.92,1.92,0,0,1-1.51-.72A.21.21,0,0,1,377.24,154.63Z" style="fill: #5674e6"/>
        <path d="M384.63,148.73a.19.19,0,0,1,.18-.19h2.43a3.48,3.48,0,1,1,0,7h-2.43a.19.19,0,0,1-.18-.19Zm2.51,5.3a2,2,0,0,0,0-4h-1v4Z" style="fill: #5674e6"/>
        <path d="M392,148.73a.2.2,0,0,1,.19-.19h1.2a.19.19,0,0,1,.18.19v6.58a.19.19,0,0,1-.18.19h-1.2a.2.2,0,0,1-.19-.19Z" style="fill: #5674e6"/>
        <path d="M394.37,155.24l3.11-6.69a.2.2,0,0,1,.17-.11h.1a.2.2,0,0,1,.17.11l3.11,6.69a.18.18,0,0,1-.17.26h-1.1c-.18,0-.26-.06-.35-.25l-.36-.78h-2.7l-.36.79a.37.37,0,0,1-.36.24h-1.09A.18.18,0,0,1,394.37,155.24Zm4.09-2.12-.76-1.65h0l-.75,1.65Z" style="fill: #5674e6"/>
        <path d="M401.88,148.73a.19.19,0,0,1,.19-.19h1.18a.2.2,0,0,1,.19.19V154h2.37a.19.19,0,0,1,.19.19v1.08a.19.19,0,0,1-.19.19h-3.74a.19.19,0,0,1-.19-.19Z" style="fill: #5674e6"/>
        <path d="M406.72,154.56l.47-.83a.26.26,0,0,1,.34-.06,2.93,2.93,0,0,0,1.41.55.62.62,0,0,0,.68-.6c0-.42-.34-.73-1-1-.86-.34-1.93-1-1.93-2.2a2.06,2.06,0,0,1,2.3-2,3.71,3.71,0,0,1,2.13.75.24.24,0,0,1,.06.31l-.51.77c-.07.11-.25.2-.34.13a3.08,3.08,0,0,0-1.42-.6.58.58,0,0,0-.63.51c0,.37.3.65,1.09,1s2,.92,2,2.27A2.19,2.19,0,0,1,409,155.6a3.15,3.15,0,0,1-2.24-.76C406.67,154.74,406.64,154.7,406.72,154.56Z" style="fill: #5674e6"/>
      </g>
      <path d="M1.6,57.08A1.1,1.1,0,0,1,2.7,56H16.18C23,56,28.62,60.67,28.62,66.74c0,4.46-4,7.7-6.72,9.14C25,77.16,29.66,80,29.66,85.31c0,6.48-5.73,11.16-12.62,11.16H2.7a1.1,1.1,0,0,1-1.1-1.1ZM15.14,72.41a4.12,4.12,0,0,0,4-4.17,3.92,3.92,0,0,0-4-3.93H10.63v8.1Zm.75,15.79A4.2,4.2,0,0,0,20.05,84c0-2.32-2.49-4-4.74-4H10.63V88.2Z" style="fill: #c46c49"/>
      <path d="M35.59,57.08A1.1,1.1,0,0,1,36.69,56H54a12.56,12.56,0,0,1,12.6,12.49c0,5.32-3.52,9.6-8.56,11.62L66,94.79a1.1,1.1,0,0,1-1,1.68H57.28a1.05,1.05,0,0,1-.92-.52l-7.7-15.33h-4V95.37a1.14,1.14,0,0,1-1.1,1.1H36.69a1.1,1.1,0,0,1-1.1-1.1Zm17.64,16.2a4.64,4.64,0,0,0,4.4-4.63,4.42,4.42,0,0,0-4.4-4.39H44.67v9Z" style="fill: #c46c49"/>
      <path d="M72.64,57.08A1.09,1.09,0,0,1,73.73,56h24a1.1,1.1,0,0,1,1.1,1.09v6.31a1.11,1.11,0,0,1-1.1,1.1h-16v7.17H94.85a1.14,1.14,0,0,1,1.09,1.1v6.3a1.09,1.09,0,0,1-1.09,1.1H81.66V88h16a1.1,1.1,0,0,1,1.1,1.1v6.3a1.1,1.1,0,0,1-1.1,1.1h-24a1.09,1.09,0,0,1-1.09-1.1Z" style="fill: #c46c49"/>
      <path d="M100.89,95,119,56a1.17,1.17,0,0,1,1-.63h.58a1.15,1.15,0,0,1,1,.63L139.64,95a1,1,0,0,1-1,1.5h-6.42c-1.05,0-1.51-.34-2-1.44l-2.08-4.57H112.4l-2.08,4.62a2.16,2.16,0,0,1-2.09,1.39h-6.36A1,1,0,0,1,100.89,95Zm23.77-12.38-4.4-9.54h-.05l-4.34,9.54Z" style="fill: #c46c49"/>
      <path d="M142.84,57.37A1.37,1.37,0,0,1,144.23,56H151a1.4,1.4,0,0,1,1.39,1.38V72.58l12.84-16a1.69,1.69,0,0,1,1.1-.57h7.28a1.33,1.33,0,0,1,1,2.14L161.12,75.07l14.75,19.2a1.36,1.36,0,0,1-1.1,2.14h-8a1.57,1.57,0,0,1-1-.4L152.39,77.85V95.08A1.41,1.41,0,0,1,151,96.47h-6.77a1.37,1.37,0,0,1-1.39-1.39Z" style="fill: #c46c49"/>
      <path d="M179.74,57.08A1.09,1.09,0,0,1,180.83,56h13.48c6.82,0,12.44,4.68,12.44,10.75,0,4.46-4,7.7-6.72,9.14,3.07,1.28,7.76,4.11,7.76,9.43,0,6.48-5.73,11.16-12.61,11.16H180.83a1.09,1.09,0,0,1-1.09-1.1Zm13.53,15.33a4.12,4.12,0,0,0,4-4.17,3.93,3.93,0,0,0-4-3.93h-4.51v8.1ZM194,88.2A4.2,4.2,0,0,0,198.19,84c0-2.32-2.49-4-4.75-4h-4.68V88.2Z" style="fill: #c46c49"/>
      <path d="M231.35,55.41a20.82,20.82,0,1,1-20.76,20.88A20.78,20.78,0,0,1,231.35,55.41Zm0,32.38a11.57,11.57,0,1,0-11.51-11.5A11.59,11.59,0,0,0,231.35,87.79Z" style="fill: #c46c49"/>
      <path d="M262.05,64.49h-8.27a1.11,1.11,0,0,1-1.1-1.1V57.08a1.1,1.1,0,0,1,1.1-1.09h25.68a1.09,1.09,0,0,1,1.1,1.09v6.31a1.1,1.1,0,0,1-1.1,1.1h-8.27V95.37a1.14,1.14,0,0,1-1.1,1.1h-6.94a1.14,1.14,0,0,1-1.1-1.1Z" style="fill: #c46c49"/>
      <path d="M295.15,65.28v-.09l-.58-.61a5.82,5.82,0,0,1-1.91-4.14c0-2.2,1.91-4.68,5.62-4.68,3.29,0,5.78,2.14,5.78,4.83,0,3.18-3.15,4.89-3.15,5.12l2.6,2.66a9.82,9.82,0,0,0,1-2.23c.17-.6.35-1.07,1.13-.78l2.11.75c.81.29.49,1,.37,1.33a17.46,17.46,0,0,1-1.82,3.62l2.46,2.29c.38.35.67.61-.06,1.33L307,76.33a.87.87,0,0,1-1.3-.09l-1.88-1.88s-2,2.23-6.31,2.23c-3.7,0-6.36-2.49-6.36-5.5C291.19,66.92,295.15,65.28,295.15,65.28ZM298,73a3.6,3.6,0,0,0,3.13-1.47l-3.79-4a3.21,3.21,0,0,0-2.05,3A2.55,2.55,0,0,0,298,73Zm2.32-12.12A2,2,0,0,0,298.22,59a1.52,1.52,0,0,0-1.71,1.41c0,.87.58,1.42,1.33,2.26l.64.64S300.36,62.47,300.36,60.85Z" style="fill: #c46c49"/>
      <path d="M317.12,56.59a.57.57,0,0,1,.55-.54h3.47a.57.57,0,0,1,.55.54V75.75a.57.57,0,0,1-.55.55h-3.47a.57.57,0,0,1-.55-.55Z" style="fill: #c46c49"/>
      <path d="M325.74,56.59a.55.55,0,0,1,.55-.54h8.65a6.18,6.18,0,0,1,2,12.06l4,7.35a.55.55,0,0,1-.5.84h-3.84a.53.53,0,0,1-.47-.26l-3.84-7.67h-2v7.38a.57.57,0,0,1-.55.55h-3.44a.55.55,0,0,1-.55-.55Zm8.82,8.11a2.32,2.32,0,0,0,2.2-2.32,2.22,2.22,0,0,0-2.2-2.2h-4.28V64.7Z" style="fill: #c46c49"/>
      <path d="M344.27,56.59a.55.55,0,0,1,.55-.54h12a.55.55,0,0,1,.55.54v3.16a.55.55,0,0,1-.55.55h-8v4.17h6.6a.57.57,0,0,1,.55.55v3.15a.57.57,0,0,1-.55.55h-6.6v7a.57.57,0,0,1-.55.55h-3.41a.55.55,0,0,1-.55-.55Z" style="fill: #c46c49"/>
      <path d="M355.85,75.55l9.06-19.48a.59.59,0,0,1,.49-.31h.29a.58.58,0,0,1,.49.31l9.06,19.48a.51.51,0,0,1-.49.75h-3.21c-.52,0-.76-.17-1-.72l-1-2.29h-7.87l-1,2.32a1.09,1.09,0,0,1-1,.69h-3.18A.51.51,0,0,1,355.85,75.55Zm11.9-6.2-2.2-4.77h0l-2.17,4.77Z" style="fill: #c46c49"/>
      <path d="M376.81,56.28a.54.54,0,0,1,.55-.52h.73l11.54,11.11h0V56.59a.55.55,0,0,1,.55-.54h3.47a.57.57,0,0,1,.55.54V76.07a.54.54,0,0,1-.55.52h-.46a.84.84,0,0,1-.38-.15L381.41,65h0V75.75a.55.55,0,0,1-.54.55h-3.45a.57.57,0,0,1-.55-.55Z" style="fill: #c46c49"/>
      <path d="M398.33,56.59a.55.55,0,0,1,.55-.54h12a.55.55,0,0,1,.55.54v3.16a.55.55,0,0,1-.55.55h-8v3.59h6.6a.57.57,0,0,1,.55.55v3.15a.55.55,0,0,1-.55.55h-6.6v3.91h8a.55.55,0,0,1,.55.55v3.15a.55.55,0,0,1-.55.55h-12a.55.55,0,0,1-.55-.55Z" style="fill: #c46c49"/>
      <g>
        <path d="M325.26,83.72a.35.35,0,0,1,.34-.36h4.6a6.6,6.6,0,1,1,0,13.19h-4.6a.35.35,0,0,1-.34-.36Zm4.75,10a3.82,3.82,0,0,0,0-7.63H328.2v7.63Z" style="fill: #c46c49"/>
        <path d="M336.77,94.89l1.28-1.26a.36.36,0,0,1,.51,0,1.15,1.15,0,0,0,1,.39c.52,0,1.11-.49,1.11-1.43V83.72a.36.36,0,0,1,.36-.36h2.3a.36.36,0,0,1,.35.36v8.89a3.9,3.9,0,0,1-4.05,4.13,3.59,3.59,0,0,1-2.86-1.38A.41.41,0,0,1,336.77,94.89Z" style="fill: #c46c49"/>
        <path d="M350,94.76l.88-1.56a.49.49,0,0,1,.64-.12,5.61,5.61,0,0,0,2.68,1A1.17,1.17,0,0,0,355.51,93c0-.79-.65-1.4-1.94-1.9-1.61-.64-3.65-1.91-3.65-4.17,0-1.86,1.45-3.74,4.35-3.74a7,7,0,0,1,4,1.41c.23.13.19.47.12.6l-1,1.45c-.13.21-.47.38-.63.24a6.05,6.05,0,0,0-2.7-1.12,1.08,1.08,0,0,0-1.18,1c0,.69.56,1.22,2.05,1.82s3.8,1.74,3.8,4.3a4.13,4.13,0,0,1-4.44,3.9,6,6,0,0,1-4.24-1.45C349.92,95.1,349.86,95,350,94.76Z" style="fill: #c46c49"/>
        <path d="M361,83.72a.36.36,0,0,1,.36-.36h7.8a.36.36,0,0,1,.36.36v2a.36.36,0,0,1-.36.36h-5.22v2.34h4.3a.37.37,0,0,1,.35.35v2.06a.36.36,0,0,1-.35.36h-4.3v2.54h5.22a.36.36,0,0,1,.36.36v2a.36.36,0,0,1-.36.36h-7.8a.36.36,0,0,1-.36-.36Z" style="fill: #c46c49"/>
        <path d="M373.8,86.13h-2.69a.36.36,0,0,1-.36-.36v-2a.36.36,0,0,1,.36-.36h8.36a.36.36,0,0,1,.36.36v2a.36.36,0,0,1-.36.36h-2.7V96.19a.36.36,0,0,1-.35.36h-2.26a.37.37,0,0,1-.36-.36Z" style="fill: #c46c49"/>
      </g>
      <path d="M383.43,89.93a3.06,3.06,0,1,1,3,3A3.1,3.1,0,0,1,383.43,89.93Z" style="fill: #c46c49"/>
      <path d="M394.35,89.93a3.06,3.06,0,1,1,3,3A3.11,3.11,0,0,1,394.35,89.93Z" style="fill: #c46c49"/>
      <path d="M405.28,89.93a3.06,3.06,0,1,1,3,3A3.11,3.11,0,0,1,405.28,89.93Z" style="fill: #c46c49"/>
      <path d="M290.93,89.93a3.06,3.06,0,1,1,3,3A3.1,3.1,0,0,1,290.93,89.93Z" style="fill: #c46c49"/>
      <path d="M301.86,89.93a3.1,3.1,0,0,1,3-3.1,3.06,3.06,0,1,1,0,6.12A3.07,3.07,0,0,1,301.86,89.93Z" style="fill: #c46c49"/>
      <path d="M312.79,89.93a3.1,3.1,0,0,1,3-3.1,3.06,3.06,0,1,1,0,6.12A3.07,3.07,0,0,1,312.79,89.93Z" style="fill: #c46c49"/>
    </g>
  </g>
</svg>
