<svg id="8a09cc50-d15a-4a65-8469-3a7dcaad18ae" data-name="Isolation Mode" xmlns="http://www.w3.org/2000/svg" viewBox="0 0 436.34 103.02"><defs><style>.ec025937-61d5-4db8-9976-1a21bd1fa64a{fill:#ee438b;}.cbb33f8d-e72e-4d90-b140-ebc823fa346e{fill:#5768fb;}.\38 72a76a7-1707-4c98-a629-04ab653162e1{fill:#f8a38e;}</style></defs><title>LineupLockup_1.0</title><path class="ec025937-61d5-4db8-9976-1a21bd1fa64a" d="M76.52,387H70.61a.78.78,0,0,1-.78-.78v-4.5a.78.78,0,0,1,.78-.79H89a.78.78,0,0,1,.78.79v4.5A.78.78,0,0,1,89,387H83.05V409a.81.81,0,0,1-.79.79h-5a.81.81,0,0,1-.79-.79Z" transform="translate(-69.83 -380.49)"/><path class="ec025937-61d5-4db8-9976-1a21bd1fa64a" d="M93.22,381.69a.81.81,0,0,1,.79-.79h4.91a.79.79,0,0,1,.79.79V392.1h11.81V381.69a.79.79,0,0,1,.79-.79h4.91a.81.81,0,0,1,.79.79V409a.81.81,0,0,1-.79.79h-4.91a.79.79,0,0,1-.79-.79V398.17H99.71V409a.79.79,0,0,1-.79.79H94a.81.81,0,0,1-.79-.79Z" transform="translate(-69.83 -380.49)"/><path class="ec025937-61d5-4db8-9976-1a21bd1fa64a" d="M124.74,381.69a.79.79,0,0,1,.79-.79h17.1a.79.79,0,0,1,.79.79v4.5a.78.78,0,0,1-.79.78H131.19v5.13h9.42a.81.81,0,0,1,.78.78v4.51a.78.78,0,0,1-.78.78h-9.42v5.58h11.44a.78.78,0,0,1,.79.78V409a.79.79,0,0,1-.79.79h-17.1a.79.79,0,0,1-.79-.79Z" transform="translate(-69.83 -380.49)"/><path class="ec025937-61d5-4db8-9976-1a21bd1fa64a" d="M158.1,381.69a.78.78,0,0,1,.78-.79H176a.78.78,0,0,1,.78.79v4.5a.78.78,0,0,1-.78.78H164.54v5.95H174a.82.82,0,0,1,.79.79v4.5a.81.81,0,0,1-.79.79h-9.42v10a.81.81,0,0,1-.78.79h-4.88a.78.78,0,0,1-.78-.79Z" transform="translate(-69.83 -380.49)"/><path class="ec025937-61d5-4db8-9976-1a21bd1fa64a" d="M180.93,381.69a.78.78,0,0,1,.78-.79h4.92a.81.81,0,0,1,.78.79v22.06h9.84a.78.78,0,0,1,.78.78V409a.78.78,0,0,1-.78.79H181.71a.78.78,0,0,1-.78-.79Z" transform="translate(-69.83 -380.49)"/><path class="ec025937-61d5-4db8-9976-1a21bd1fa64a" d="M214,380.49A14.87,14.87,0,1,1,199.2,395.4,14.84,14.84,0,0,1,214,380.49Zm0,23.13a8.26,8.26,0,1,0-8.22-8.22A8.27,8.27,0,0,0,214,403.62Z" transform="translate(-69.83 -380.49)"/><path class="ec025937-61d5-4db8-9976-1a21bd1fa64a" d="M246.64,380.49a14.87,14.87,0,1,1-14.83,14.91A14.84,14.84,0,0,1,246.64,380.49Zm0,23.13a8.26,8.26,0,1,0-8.22-8.22A8.27,8.27,0,0,0,246.64,403.62Z" transform="translate(-69.83 -380.49)"/><path class="ec025937-61d5-4db8-9976-1a21bd1fa64a" d="M263.08,408.29l11-21.23V387h-9a.81.81,0,0,1-.78-.78v-4.5a.81.81,0,0,1,.78-.79h17.56a.82.82,0,0,1,.79.79v.53l-10.62,21.44v.09h9a.78.78,0,0,1,.79.78V409a.79.79,0,0,1-.79.79H263.87a.81.81,0,0,1-.79-.79Z" transform="translate(-69.83 -380.49)"/><path class="ec025937-61d5-4db8-9976-1a21bd1fa64a" d="M287.71,381.69a.81.81,0,0,1,.78-.79h5a.81.81,0,0,1,.78.79V409a.81.81,0,0,1-.78.79h-5a.81.81,0,0,1-.78-.79Z" transform="translate(-69.83 -380.49)"/><path class="ec025937-61d5-4db8-9976-1a21bd1fa64a" d="M300.89,381.69a.79.79,0,0,1,.79-.79h17.1a.79.79,0,0,1,.79.79v4.5a.78.78,0,0,1-.79.78H307.34v5.13h9.42a.81.81,0,0,1,.78.78v4.51a.78.78,0,0,1-.78.78h-9.42v5.58h11.44a.78.78,0,0,1,.79.78V409a.79.79,0,0,1-.79.79h-17.1a.79.79,0,0,1-.79-.79Z" transform="translate(-69.83 -380.49)"/><path class="ec025937-61d5-4db8-9976-1a21bd1fa64a" d="M323.54,405.9l1.94-3.43a1.05,1.05,0,0,1,1.4-.25c.17.08,3.14,2.27,5.87,2.27A2.59,2.59,0,0,0,335.6,402c0-1.73-1.45-3.05-4.25-4.17-3.56-1.4-8-4.17-8-9.13,0-4.09,3.18-8.22,9.54-8.22a15.31,15.31,0,0,1,8.84,3.1,1,1,0,0,1,.25,1.32l-2.1,3.18c-.29.45-1,.83-1.41.54s-3.39-2.48-5.91-2.48a2.4,2.4,0,0,0-2.6,2.1c0,1.53,1.24,2.69,4.5,4s8.35,3.8,8.35,9.42c0,4.26-3.68,8.55-9.75,8.55-5.37,0-8.34-2.23-9.29-3.18C323.33,406.64,323.21,406.47,323.54,405.9Z" transform="translate(-69.83 -380.49)"/><path class="cbb33f8d-e72e-4d90-b140-ebc823fa346e" d="M355.69,381.69a.79.79,0,0,1,.79-.79h17.1a.79.79,0,0,1,.79.79v4.5a.79.79,0,0,1-.79.79H362.14v5.12h9.42a.81.81,0,0,1,.78.78v4.51a.78.78,0,0,1-.78.78h-9.42v5.58h11.44a.78.78,0,0,1,.79.78V409a.78.78,0,0,1-.79.78h-17.1a.78.78,0,0,1-.79-.78Z" transform="translate(-69.83 -380.49)"/><path class="cbb33f8d-e72e-4d90-b140-ebc823fa346e" d="M378.34,405.9l1.94-3.43a1.05,1.05,0,0,1,1.4-.25c.17.08,3.14,2.27,5.87,2.27A2.59,2.59,0,0,0,390.4,402c0-1.73-1.45-3.05-4.25-4.17-3.56-1.4-8-4.17-8-9.13,0-4.09,3.18-8.22,9.54-8.22a15.31,15.31,0,0,1,8.84,3.1,1,1,0,0,1,.25,1.32l-2.1,3.18c-.29.45-1,.83-1.41.54s-3.39-2.48-5.91-2.48a2.4,2.4,0,0,0-2.6,2.11c0,1.52,1.24,2.68,4.5,4s8.35,3.8,8.35,9.42c0,4.26-3.68,8.55-9.75,8.55-5.37,0-8.35-2.23-9.3-3.18C378.13,406.64,378,406.47,378.34,405.9Z" transform="translate(-69.83 -380.49)"/><path class="cbb33f8d-e72e-4d90-b140-ebc823fa346e" d="M415.13,380.49a13.89,13.89,0,0,1,10,3.84.77.77,0,0,1,0,1.16L422,388.83a.72.72,0,0,1-1,0,8.47,8.47,0,0,0-5.58-2.1,8.45,8.45,0,0,0,0,16.89,8.76,8.76,0,0,0,5.54-2,.81.81,0,0,1,1.07,0l3.22,3.43a.83.83,0,0,1,0,1.12,14.2,14.2,0,0,1-10,4,14.87,14.87,0,1,1,0-29.74Z" transform="translate(-69.83 -380.49)"/><path class="cbb33f8d-e72e-4d90-b140-ebc823fa346e" d="M441.94,380.49a14.87,14.87,0,1,1-14.83,14.91A14.84,14.84,0,0,1,441.94,380.49Zm0,23.13a8.26,8.26,0,1,0-8.22-8.22A8.27,8.27,0,0,0,441.94,403.62Z" transform="translate(-69.83 -380.49)"/><path class="cbb33f8d-e72e-4d90-b140-ebc823fa346e" d="M461.6,381.69a.79.79,0,0,1,.79-.79h12.35a9,9,0,0,1,9,8.93c0,3.8-2.52,6.85-6.11,8.3l5.66,10.49a.78.78,0,0,1-.7,1.2h-5.5a.77.77,0,0,1-.66-.37l-5.49-10.95h-2.85V409a.81.81,0,0,1-.79.78h-4.91a.78.78,0,0,1-.79-.78Zm12.6,11.56a3.31,3.31,0,0,0,3.14-3.3,3.16,3.16,0,0,0-3.14-3.14h-6.11v6.44Z" transform="translate(-69.83 -380.49)"/><path class="cbb33f8d-e72e-4d90-b140-ebc823fa346e" d="M493,387H487a.79.79,0,0,1-.78-.79v-4.5a.78.78,0,0,1,.78-.79h18.35a.78.78,0,0,1,.78.79v4.5a.79.79,0,0,1-.78.79h-5.91V409a.81.81,0,0,1-.79.78h-4.95A.81.81,0,0,1,493,409Z" transform="translate(-69.83 -380.49)"/><path class="ec025937-61d5-4db8-9976-1a21bd1fa64a" d="M74,451.38H70.31a.47.47,0,0,1-.48-.48v-2.77a.48.48,0,0,1,.48-.49h11.3a.48.48,0,0,1,.48.49v2.77a.47.47,0,0,1-.48.48H78V465a.5.5,0,0,1-.48.48H74.43A.5.5,0,0,1,74,465Z" transform="translate(-69.83 -380.49)"/><path class="ec025937-61d5-4db8-9976-1a21bd1fa64a" d="M84.88,448.13a.5.5,0,0,1,.48-.49h3a.48.48,0,0,1,.48.49v6.41h7.28v-6.41a.48.48,0,0,1,.48-.49h3a.5.5,0,0,1,.48.49V465a.5.5,0,0,1-.48.48h-3a.48.48,0,0,1-.48-.48v-6.69H88.87V465a.48.48,0,0,1-.48.48h-3a.5.5,0,0,1-.48-.48Z" transform="translate(-69.83 -380.49)"/><path class="ec025937-61d5-4db8-9976-1a21bd1fa64a" d="M104.91,448.13a.48.48,0,0,1,.48-.49h10.53a.48.48,0,0,1,.48.49v2.77a.47.47,0,0,1-.48.48h-7v3.16h5.81a.5.5,0,0,1,.48.48v2.77a.49.49,0,0,1-.48.49h-5.81v3.43h7a.48.48,0,0,1,.48.48V465a.48.48,0,0,1-.48.48H105.39a.48.48,0,0,1-.48-.48Z" transform="translate(-69.83 -380.49)"/><path class="ec025937-61d5-4db8-9976-1a21bd1fa64a" d="M127.17,447.8a.49.49,0,0,1,.46-.41h.4a.58.58,0,0,1,.44.25l5.9,11h0l5.9-11a.58.58,0,0,1,.43-.25h.41a.5.5,0,0,1,.46.41l2.87,17.09a.47.47,0,0,1-.48.56h-3a.52.52,0,0,1-.49-.41l-1.14-7.86h0l-4.28,8.24a.56.56,0,0,1-.43.28h-.45a.54.54,0,0,1-.44-.28l-4.3-8.24h-.05L128.27,465a.51.51,0,0,1-.49.41h-3a.47.47,0,0,1-.49-.56Z" transform="translate(-69.83 -380.49)"/><path class="ec025937-61d5-4db8-9976-1a21bd1fa64a" d="M147.76,448.13a.5.5,0,0,1,.49-.49h3.12a.49.49,0,0,1,.49.49v10.3a3.16,3.16,0,1,0,6.31,0v-10.3a.48.48,0,0,1,.48-.49h3.13a.5.5,0,0,1,.48.49v10.5a7.25,7.25,0,0,1-14.5,0Z" transform="translate(-69.83 -380.49)"/><path class="ec025937-61d5-4db8-9976-1a21bd1fa64a" d="M165.8,463l1.2-2.11a.65.65,0,0,1,.86-.15,7.68,7.68,0,0,0,3.61,1.4,1.6,1.6,0,0,0,1.76-1.53c0-1.07-.89-1.88-2.62-2.57-2.19-.86-4.93-2.57-4.93-5.62,0-2.52,1.95-5.06,5.87-5.06A9.42,9.42,0,0,1,177,449.3a.64.64,0,0,1,.16.81l-1.3,2c-.18.28-.64.51-.86.33s-2.09-1.53-3.64-1.53a1.49,1.49,0,0,0-1.61,1.3c0,.94.77,1.66,2.78,2.47s5.14,2.34,5.14,5.8c0,2.62-2.27,5.26-6,5.26a8.07,8.07,0,0,1-5.72-2C165.68,463.49,165.6,463.39,165.8,463Z" transform="translate(-69.83 -380.49)"/><path class="ec025937-61d5-4db8-9976-1a21bd1fa64a" d="M183.67,451.38H180a.48.48,0,0,1-.49-.48v-2.77a.49.49,0,0,1,.49-.49h11.29a.48.48,0,0,1,.48.49v2.77a.47.47,0,0,1-.48.48h-3.64V465a.5.5,0,0,1-.48.48h-3.05a.5.5,0,0,1-.49-.48Z" transform="translate(-69.83 -380.49)"/><path class="ec025937-61d5-4db8-9976-1a21bd1fa64a" d="M191.52,464.79l8-17.12a.51.51,0,0,1,.43-.28h.25a.54.54,0,0,1,.44.28l8,17.12a.45.45,0,0,1-.43.66H205.3c-.46,0-.66-.15-.89-.64l-.91-2h-6.92l-.92,2a.94.94,0,0,1-.91.61H192A.45.45,0,0,1,191.52,464.79ZM202,459.34,200,455.15h0l-1.91,4.19Z" transform="translate(-69.83 -380.49)"/><path class="ec025937-61d5-4db8-9976-1a21bd1fa64a" d="M218.38,447.39a8.54,8.54,0,0,1,6.16,2.37.47.47,0,0,1,0,.71l-2,2.06a.43.43,0,0,1-.63,0,5.22,5.22,0,0,0-3.44-1.3,5.2,5.2,0,0,0,0,10.4,5.39,5.39,0,0,0,3.41-1.22.5.5,0,0,1,.66,0l2,2.11a.52.52,0,0,1,0,.69,8.73,8.73,0,0,1-6.19,2.46,9.16,9.16,0,1,1,0-18.31Z" transform="translate(-69.83 -380.49)"/><path class="ec025937-61d5-4db8-9976-1a21bd1fa64a" d="M227.92,448.13a.5.5,0,0,1,.48-.49h3a.49.49,0,0,1,.49.49v6.41h7.27v-6.41a.48.48,0,0,1,.48-.49h3a.5.5,0,0,1,.48.49V465a.5.5,0,0,1-.48.48h-3a.48.48,0,0,1-.48-.48v-6.69h-7.27V465a.49.49,0,0,1-.49.48h-3a.5.5,0,0,1-.48-.48Z" transform="translate(-69.83 -380.49)"/><path class="ec025937-61d5-4db8-9976-1a21bd1fa64a" d="M248,448.13a.48.48,0,0,1,.48-.49H259a.49.49,0,0,1,.49.49v2.77a.48.48,0,0,1-.49.48h-7v3.16h5.79a.5.5,0,0,1,.49.48v2.77a.49.49,0,0,1-.49.49h-5.79v3.43h7a.49.49,0,0,1,.49.48V465a.49.49,0,0,1-.49.48H248.43A.48.48,0,0,1,248,465Z" transform="translate(-69.83 -380.49)"/><path class="ec025937-61d5-4db8-9976-1a21bd1fa64a" d="M268.46,448.13a.48.48,0,0,1,.48-.49h5.93c3,0,5.46,2.06,5.46,4.74,0,1.95-1.75,3.38-2.95,4,1.35.56,3.41,1.81,3.41,4.15,0,2.85-2.52,4.91-5.54,4.91h-6.31a.48.48,0,0,1-.48-.48Zm6,6.74a1.82,1.82,0,0,0,1.78-1.83,1.73,1.73,0,0,0-1.78-1.73h-2v3.56Zm.33,6.94a1.84,1.84,0,0,0,1.83-1.86,2,2,0,0,0-2.08-1.78h-2.06v3.64Z" transform="translate(-69.83 -380.49)"/><path class="ec025937-61d5-4db8-9976-1a21bd1fa64a" d="M282.14,464.79l8-17.12a.54.54,0,0,1,.44-.28h.25a.51.51,0,0,1,.43.28l8,17.12a.45.45,0,0,1-.43.66h-2.82c-.46,0-.66-.15-.89-.64l-.92-2H287.2l-.91,2a1,1,0,0,1-.92.61h-2.8A.45.45,0,0,1,282.14,464.79Zm10.46-5.45-1.94-4.19h0l-1.91,4.19Z" transform="translate(-69.83 -380.49)"/><path class="ec025937-61d5-4db8-9976-1a21bd1fa64a" d="M301,463l1.2-2.11a.66.66,0,0,1,.87-.15,7.58,7.58,0,0,0,3.61,1.4,1.6,1.6,0,0,0,1.75-1.53c0-1.07-.89-1.88-2.62-2.57-2.19-.86-4.93-2.57-4.93-5.62,0-2.52,1.95-5.06,5.87-5.06a9.49,9.49,0,0,1,5.45,1.91.65.65,0,0,1,.15.81l-1.3,2c-.17.28-.63.51-.86.33s-2.09-1.53-3.64-1.53a1.48,1.48,0,0,0-1.6,1.3c0,.94.76,1.66,2.77,2.47s5.14,2.34,5.14,5.8c0,2.62-2.27,5.26-6,5.26a8.07,8.07,0,0,1-5.72-2C300.91,463.49,300.83,463.39,301,463Z" transform="translate(-69.83 -380.49)"/><path class="ec025937-61d5-4db8-9976-1a21bd1fa64a" d="M316.49,448.13a.5.5,0,0,1,.48-.49h3a.48.48,0,0,1,.48.49v6.41h7.28v-6.41a.48.48,0,0,1,.48-.49h3a.5.5,0,0,1,.48.49V465a.5.5,0,0,1-.48.48h-3a.48.48,0,0,1-.48-.48v-6.69h-7.28V465a.48.48,0,0,1-.48.48h-3a.5.5,0,0,1-.48-.48Z" transform="translate(-69.83 -380.49)"/><path class="ec025937-61d5-4db8-9976-1a21bd1fa64a" d="M341.72,448.13a.48.48,0,0,1,.49-.49h10.53a.48.48,0,0,1,.48.49v2.77a.47.47,0,0,1-.48.48h-7.05v3.67h5.8a.49.49,0,0,1,.48.48v2.77a.49.49,0,0,1-.48.48h-5.8V465a.5.5,0,0,1-.48.48h-3a.48.48,0,0,1-.49-.48Z" transform="translate(-69.83 -380.49)"/><path class="ec025937-61d5-4db8-9976-1a21bd1fa64a" d="M353.2,464.79l8-17.12a.53.53,0,0,1,.43-.28h.26a.52.52,0,0,1,.43.28l8,17.12a.45.45,0,0,1-.43.66H367c-.46,0-.66-.15-.89-.64l-.92-2h-6.92l-.91,2a1,1,0,0,1-.92.61h-2.8A.45.45,0,0,1,353.2,464.79Zm10.46-5.45-1.94-4.19h0l-1.91,4.19Z" transform="translate(-69.83 -380.49)"/><path class="ec025937-61d5-4db8-9976-1a21bd1fa64a" d="M375.07,447.8a.49.49,0,0,1,.46-.41h.41a.58.58,0,0,1,.43.25l5.9,11h.05l5.9-11a.58.58,0,0,1,.43-.25h.41a.5.5,0,0,1,.46.41l2.87,17.09a.46.46,0,0,1-.48.56h-3a.52.52,0,0,1-.49-.41l-1.14-7.86h0L383,465.42a.59.59,0,0,1-.44.28h-.45a.54.54,0,0,1-.44-.28l-4.3-8.24h-.05L376.17,465a.5.5,0,0,1-.49.41h-3a.46.46,0,0,1-.48-.56Z" transform="translate(-69.83 -380.49)"/><path class="ec025937-61d5-4db8-9976-1a21bd1fa64a" d="M396,448.13a.5.5,0,0,1,.49-.49h3.05a.5.5,0,0,1,.48.49V465a.49.49,0,0,1-.48.48h-3.05A.5.5,0,0,1,396,465Z" transform="translate(-69.83 -380.49)"/><path class="ec025937-61d5-4db8-9976-1a21bd1fa64a" d="M404.81,448.13a.48.48,0,0,1,.48-.49h3a.5.5,0,0,1,.48.49v13.58h6.05a.49.49,0,0,1,.49.48V465a.49.49,0,0,1-.49.48h-9.56a.48.48,0,0,1-.48-.48Z" transform="translate(-69.83 -380.49)"/><path class="ec025937-61d5-4db8-9976-1a21bd1fa64a" d="M419.9,456.88l-5.62-8.5a.47.47,0,0,1,.41-.74H418a.53.53,0,0,1,.41.23l3.53,5.22,3.54-5.22a.47.47,0,0,1,.41-.23h3.3a.47.47,0,0,1,.41.74l-5.7,8.47V465a.5.5,0,0,1-.48.48h-3a.48.48,0,0,1-.48-.48Z" transform="translate(-69.83 -380.49)"/><path class="ec025937-61d5-4db8-9976-1a21bd1fa64a" d="M437.23,448.13a.48.48,0,0,1,.48-.49h5.93c3,0,5.46,2.06,5.46,4.74,0,1.95-1.75,3.38-3,4,1.35.56,3.41,1.81,3.41,4.15,0,2.85-2.51,4.91-5.54,4.91h-6.31a.48.48,0,0,1-.48-.48Zm5.95,6.74A1.81,1.81,0,0,0,445,453a1.72,1.72,0,0,0-1.78-1.73h-2v3.56Zm.33,6.94a1.84,1.84,0,0,0,1.83-1.86,2,2,0,0,0-2.08-1.78h-2.07v3.64Z" transform="translate(-69.83 -380.49)"/><path class="ec025937-61d5-4db8-9976-1a21bd1fa64a" d="M450.91,464.79l8-17.12a.53.53,0,0,1,.43-.28h.26a.52.52,0,0,1,.43.28l8,17.12a.45.45,0,0,1-.43.66H464.7c-.46,0-.66-.15-.89-.64l-.92-2H456l-.91,2a1,1,0,0,1-.92.61h-2.8A.45.45,0,0,1,450.91,464.79Zm10.46-5.45-1.94-4.19h0l-1.91,4.19Z" transform="translate(-69.83 -380.49)"/><path class="ec025937-61d5-4db8-9976-1a21bd1fa64a" d="M470.5,447.85a.48.48,0,0,1,.48-.46h.64l10.15,9.77h0v-9a.49.49,0,0,1,.49-.49h3.05a.5.5,0,0,1,.48.49v17.12a.47.47,0,0,1-.48.45h-.41a.77.77,0,0,1-.33-.12l-10-10.1h0V465a.48.48,0,0,1-.48.48h-3a.5.5,0,0,1-.48-.48Z" transform="translate(-69.83 -380.49)"/><path class="ec025937-61d5-4db8-9976-1a21bd1fa64a" d="M490.58,448.13a.48.48,0,0,1,.46-.49h6.2a8.91,8.91,0,1,1,0,17.81H491a.48.48,0,0,1-.46-.48ZM497,461.68a5.15,5.15,0,0,0,0-10.3h-2.44v10.3Z" transform="translate(-69.83 -380.49)"/><path class="cbb33f8d-e72e-4d90-b140-ebc823fa346e" d="M80.91,417.66a11.93,11.93,0,0,1,7.53,2.9.53.53,0,0,1,.06.83L86.06,424a.64.64,0,0,1-.83,0,5.71,5.71,0,0,0-4-1.48,6.19,6.19,0,0,0,0,12.38,7.34,7.34,0,0,0,2.75-.49v-1.79H82a.57.57,0,0,1-.59-.56V429a.57.57,0,0,1,.59-.59h6.21a.58.58,0,0,1,.55.59l0,8.3a.76.76,0,0,1-.24.49,15.59,15.59,0,0,1-7.66,2,11.08,11.08,0,1,1,0-22.16Z" transform="translate(-69.83 -380.49)"/><path class="cbb33f8d-e72e-4d90-b140-ebc823fa346e" d="M93.8,418.52a.59.59,0,0,1,.59-.59h9.23a6.59,6.59,0,0,1,2.16,12.87l4.23,7.85a.58.58,0,0,1-.52.89h-4.11a.54.54,0,0,1-.49-.28l-4.11-8.17H98.65V439a.61.61,0,0,1-.59.59H94.39a.59.59,0,0,1-.59-.59Zm9.42,8.64a2.48,2.48,0,0,0,2.35-2.47,2.37,2.37,0,0,0-2.35-2.34H98.65v4.81Z" transform="translate(-69.83 -380.49)"/><path class="cbb33f8d-e72e-4d90-b140-ebc823fa346e" d="M115,418.52a.59.59,0,0,1,.59-.59h12.78a.59.59,0,0,1,.58.59v3.36a.58.58,0,0,1-.58.59H119.8v3.83h7a.61.61,0,0,1,.59.59v3.36a.59.59,0,0,1-.59.59h-7V435h8.56a.59.59,0,0,1,.58.59V439a.59.59,0,0,1-.58.59H115.58A.59.59,0,0,1,115,439Z" transform="translate(-69.83 -380.49)"/><path class="cbb33f8d-e72e-4d90-b140-ebc823fa346e" d="M143.12,417.66a11.93,11.93,0,0,1,7.54,2.9.55.55,0,0,1,.06.83L148.28,424a.64.64,0,0,1-.83,0,5.75,5.75,0,0,0-4-1.48,6.19,6.19,0,0,0,0,12.38,7.31,7.31,0,0,0,2.75-.49v-1.79h-1.94a.57.57,0,0,1-.59-.56V429a.57.57,0,0,1,.59-.59h6.2a.59.59,0,0,1,.56.59l0,8.3a.78.78,0,0,1-.25.49,15.59,15.59,0,0,1-7.66,2,11.08,11.08,0,1,1,0-22.16Z" transform="translate(-69.83 -380.49)"/><path class="cbb33f8d-e72e-4d90-b140-ebc823fa346e" d="M160.13,418.67a.54.54,0,0,1,.56-.74h3.61a.64.64,0,0,1,.56.43l2.65,10.47h.13L172.42,418a.6.6,0,0,1,.52-.34h.56a.52.52,0,0,1,.52.34l4.79,10.87h.12l2.66-10.47a.63.63,0,0,1,.55-.43h3.62a.54.54,0,0,1,.55.74l-5.83,20.75a.61.61,0,0,1-.56.43h-.49a.64.64,0,0,1-.53-.34l-5.65-12.62h-.09l-5.62,12.62a.64.64,0,0,1-.52.34h-.5a.6.6,0,0,1-.55-.43Z" transform="translate(-69.83 -380.49)"/><path class="cbb33f8d-e72e-4d90-b140-ebc823fa346e" d="M190,418.52a.61.61,0,0,1,.59-.59h3.7a.61.61,0,0,1,.59.59V439a.61.61,0,0,1-.59.59h-3.7A.61.61,0,0,1,190,439Z" transform="translate(-69.83 -380.49)"/><path class="cbb33f8d-e72e-4d90-b140-ebc823fa346e" d="M200.58,418.52a.59.59,0,0,1,.59-.59h3.67a.6.6,0,0,1,.59.59V435h7.35a.58.58,0,0,1,.58.59V439a.58.58,0,0,1-.58.59H201.17a.59.59,0,0,1-.59-.59Z" transform="translate(-69.83 -380.49)"/><path class="cbb33f8d-e72e-4d90-b140-ebc823fa346e" d="M216.09,436.61l1.45-2.56a.79.79,0,0,1,1.05-.19c.13.06,2.35,1.7,4.38,1.7a1.93,1.93,0,0,0,2.13-1.85c0-1.3-1.08-2.29-3.17-3.12-2.66-1-6-3.12-6-6.82,0-3.06,2.38-6.15,7.13-6.15a11.43,11.43,0,0,1,6.6,2.32.79.79,0,0,1,.19,1l-1.58,2.37c-.21.34-.77.62-1,.41s-2.54-1.86-4.42-1.86a1.8,1.8,0,0,0-1.95,1.58c0,1.14.93,2,3.37,3s6.24,2.84,6.24,7c0,3.18-2.75,6.39-7.29,6.39-4,0-6.24-1.67-6.94-2.38C215.94,437.17,215.85,437,216.09,436.61Z" transform="translate(-69.83 -380.49)"/><path class="cbb33f8d-e72e-4d90-b140-ebc823fa346e" d="M244.28,417.62a11.12,11.12,0,1,1-11.08,11.15A11.1,11.1,0,0,1,244.28,417.62Zm0,17.29a6.18,6.18,0,1,0-6.14-6.14A6.18,6.18,0,0,0,244.28,434.91Z" transform="translate(-69.83 -380.49)"/><path class="cbb33f8d-e72e-4d90-b140-ebc823fa346e" d="M259.7,418.18a.58.58,0,0,1,.58-.56h.77l12.32,11.86h0v-11a.59.59,0,0,1,.59-.59h3.7a.61.61,0,0,1,.59.59v20.77a.59.59,0,0,1-.59.56h-.49a.83.83,0,0,1-.4-.16l-12.2-12.25h0V439a.58.58,0,0,1-.58.59h-3.68a.61.61,0,0,1-.58-.59Z" transform="translate(-69.83 -380.49)"/><path class="872a76a7-1707-4c98-a629-04ab653162e1" d="M291.65,418.52a.58.58,0,0,1,.56-.58h7.53a10.8,10.8,0,1,1,0,21.6h-7.53a.59.59,0,0,1-.56-.59ZM299.43,435a6.25,6.25,0,0,0,0-12.5h-3V435Z" transform="translate(-69.83 -380.49)"/><path class="872a76a7-1707-4c98-a629-04ab653162e1" d="M311.34,438.74,321,418a.62.62,0,0,1,.53-.34h.3a.62.62,0,0,1,.53.34L332,438.74a.55.55,0,0,1-.53.8h-3.42c-.56,0-.8-.19-1.08-.77l-1.11-2.44h-8.4l-1.11,2.47a1.15,1.15,0,0,1-1.11.74h-3.4A.54.54,0,0,1,311.34,438.74ZM324,432.13,321.68,427h0l-2.32,5.09Z" transform="translate(-69.83 -380.49)"/><path class="872a76a7-1707-4c98-a629-04ab653162e1" d="M335.11,418.18a.58.58,0,0,1,.59-.55h.77l12.31,11.85h0v-11a.58.58,0,0,1,.59-.58h3.71a.59.59,0,0,1,.58.58v20.77a.58.58,0,0,1-.58.56h-.5a.83.83,0,0,1-.4-.16L340,427.44h0V439a.59.59,0,0,1-.59.59h-3.67a.61.61,0,0,1-.59-.59Z" transform="translate(-69.83 -380.49)"/><path class="872a76a7-1707-4c98-a629-04ab653162e1" d="M359.45,418.18a.58.58,0,0,1,.59-.55h.77l12.32,11.85h0v-11a.57.57,0,0,1,.58-.58h3.71a.6.6,0,0,1,.59.58v20.77a.59.59,0,0,1-.59.56H377a.83.83,0,0,1-.4-.16l-12.19-12.25h0V439a.59.59,0,0,1-.59.59h-3.67a.6.6,0,0,1-.58-.59Z" transform="translate(-69.83 -380.49)"/><path class="872a76a7-1707-4c98-a629-04ab653162e1" d="M388,429.14l-6.83-10.31a.57.57,0,0,1,.5-.89h4a.64.64,0,0,1,.5.27l4.29,6.33,4.28-6.33a.59.59,0,0,1,.5-.27h4a.57.57,0,0,1,.5.89l-6.92,10.28V439a.61.61,0,0,1-.59.59h-3.67A.58.58,0,0,1,388,439Z" transform="translate(-69.83 -380.49)"/><path class="872a76a7-1707-4c98-a629-04ab653162e1" d="M409,418.68a.73.73,0,0,1,.74-.74h3.62a.75.75,0,0,1,.74.74v8.11l6.85-8.54a.88.88,0,0,1,.58-.31h3.9a.71.71,0,0,1,.55,1.14l-7.22,9,7.87,10.25a.72.72,0,0,1-.59,1.14h-4.26a.78.78,0,0,1-.55-.22l-7.13-9.69v9.2a.75.75,0,0,1-.74.74h-3.62a.73.73,0,0,1-.74-.74Z" transform="translate(-69.83 -380.49)"/><path class="872a76a7-1707-4c98-a629-04ab653162e1" d="M430.12,418.52a.58.58,0,0,1,.58-.58h9.23a6.7,6.7,0,0,1,6.73,6.66,6.78,6.78,0,0,1-4.57,6.21l4.23,7.84a.58.58,0,0,1-.52.89h-4.11a.54.54,0,0,1-.49-.28l-4.11-8.17H435V439a.61.61,0,0,1-.58.59H430.7a.59.59,0,0,1-.58-.59Zm9.41,8.64a2.47,2.47,0,0,0,2.35-2.46,2.37,2.37,0,0,0-2.35-2.35H435v4.81Z" transform="translate(-69.83 -380.49)"/><path class="872a76a7-1707-4c98-a629-04ab653162e1" d="M451.3,418.52a.6.6,0,0,1,.59-.58h3.7a.6.6,0,0,1,.59.58V439a.61.61,0,0,1-.59.59h-3.7a.61.61,0,0,1-.59-.59Z" transform="translate(-69.83 -380.49)"/><path class="872a76a7-1707-4c98-a629-04ab653162e1" d="M459.28,418.74a.54.54,0,0,1,.52-.8h4.11a.61.61,0,0,1,.53.34l5.09,11.26h.18l5.1-11.26a.58.58,0,0,1,.52-.34h4.1a.55.55,0,0,1,.53.8l-9.69,20.77a.61.61,0,0,1-.53.34h-.31a.6.6,0,0,1-.52-.34Z" transform="translate(-69.83 -380.49)"/><path class="872a76a7-1707-4c98-a629-04ab653162e1" d="M483.05,418.52a.6.6,0,0,1,.59-.58h3.7a.6.6,0,0,1,.59.58V439a.61.61,0,0,1-.59.59h-3.7a.61.61,0,0,1-.59-.59Z" transform="translate(-69.83 -380.49)"/><path class="872a76a7-1707-4c98-a629-04ab653162e1" d="M496.29,422.47h-4.41a.57.57,0,0,1-.58-.58v-3.37a.57.57,0,0,1,.58-.58h13.7a.58.58,0,0,1,.59.58v3.37a.58.58,0,0,1-.59.58h-4.41V439a.61.61,0,0,1-.58.59h-3.71a.61.61,0,0,1-.59-.59Z" transform="translate(-69.83 -380.49)"/><path class="cbb33f8d-e72e-4d90-b140-ebc823fa346e" d="M72.1,475.61h-2a.26.26,0,0,1-.27-.26v-1.53a.27.27,0,0,1,.27-.27h6.22a.27.27,0,0,1,.27.27v1.53a.26.26,0,0,1-.27.26h-2v7.49a.28.28,0,0,1-.27.27H72.37a.28.28,0,0,1-.27-.27Z" transform="translate(-69.83 -380.49)"/><path class="cbb33f8d-e72e-4d90-b140-ebc823fa346e" d="M77.75,473.82a.28.28,0,0,1,.27-.27h1.67a.28.28,0,0,1,.27.27v3.53h4v-3.53a.27.27,0,0,1,.27-.27h1.67a.27.27,0,0,1,.26.27v9.28a.27.27,0,0,1-.26.27H84.24a.27.27,0,0,1-.27-.27v-3.69H80v3.69a.28.28,0,0,1-.27.27H78a.28.28,0,0,1-.27-.27Z" transform="translate(-69.83 -380.49)"/><path class="cbb33f8d-e72e-4d90-b140-ebc823fa346e" d="M88.44,473.82a.27.27,0,0,1,.26-.27h5.81a.28.28,0,0,1,.27.27v1.53a.27.27,0,0,1-.27.26H90.62v1.74h3.2a.28.28,0,0,1,.27.27v1.53a.27.27,0,0,1-.27.26h-3.2v1.9h3.89a.27.27,0,0,1,.27.26v1.53a.28.28,0,0,1-.27.27H88.7a.27.27,0,0,1-.26-.27Z" transform="translate(-69.83 -380.49)"/><path class="cbb33f8d-e72e-4d90-b140-ebc823fa346e" d="M99.75,473.82a.27.27,0,0,1,.27-.27h3.38a3.13,3.13,0,1,1,0,6.26h-1.47v3.29a.28.28,0,0,1-.27.27H100a.27.27,0,0,1-.27-.27Zm3.52,3.94a1.1,1.1,0,0,0,1.11-1.11,1.07,1.07,0,0,0-1.11-1h-1.33v2.15Z" transform="translate(-69.83 -380.49)"/><path class="cbb33f8d-e72e-4d90-b140-ebc823fa346e" d="M107.68,473.82a.27.27,0,0,1,.26-.27h1.73a.28.28,0,0,1,.27.27v5.68a1.74,1.74,0,1,0,3.47,0v-5.68a.28.28,0,0,1,.27-.27h1.73a.27.27,0,0,1,.26.27v5.79a4,4,0,0,1-8,0Z" transform="translate(-69.83 -380.49)"/><path class="cbb33f8d-e72e-4d90-b140-ebc823fa346e" d="M117.27,482l.66-1.17a.35.35,0,0,1,.47-.08,4.21,4.21,0,0,0,2,.77.88.88,0,0,0,1-.84c0-.59-.49-1-1.44-1.42-1.21-.47-2.72-1.41-2.72-3.1,0-1.39,1.08-2.79,3.24-2.79a5.2,5.2,0,0,1,3,1,.35.35,0,0,1,.08.45l-.71,1.08c-.1.16-.35.28-.48.18a4.42,4.42,0,0,0-2-.84.82.82,0,0,0-.88.72c0,.52.42.91,1.53,1.36s2.83,1.29,2.83,3.2a3.08,3.08,0,0,1-3.31,2.9,4.45,4.45,0,0,1-3.15-1.08C117.2,482.29,117.15,482.23,117.27,482Z" transform="translate(-69.83 -380.49)"/><path class="cbb33f8d-e72e-4d90-b140-ebc823fa346e" d="M129.74,473.41a4.72,4.72,0,0,1,3.4,1.3.28.28,0,0,1,0,.4l-1.09,1.13a.24.24,0,0,1-.35,0,2.89,2.89,0,0,0-1.9-.71,2.87,2.87,0,0,0,0,5.74,3,3,0,0,0,1.88-.68.27.27,0,0,1,.36,0l1.1,1.16a.29.29,0,0,1,0,.38,4.79,4.79,0,0,1-3.41,1.36,5.05,5.05,0,1,1,0-10.1Z" transform="translate(-69.83 -380.49)"/><path class="cbb33f8d-e72e-4d90-b140-ebc823fa346e" d="M134.63,473.82a.28.28,0,0,1,.27-.27h1.68a.28.28,0,0,1,.27.27v9.28a.28.28,0,0,1-.27.27H134.9a.28.28,0,0,1-.27-.27Z" transform="translate(-69.83 -380.49)"/><path class="cbb33f8d-e72e-4d90-b140-ebc823fa346e" d="M139.1,473.82a.27.27,0,0,1,.26-.27h5.81a.27.27,0,0,1,.27.27v1.53a.26.26,0,0,1-.27.26h-3.88v1.74h3.19a.28.28,0,0,1,.27.27v1.53a.27.27,0,0,1-.27.26h-3.19v1.9h3.88a.26.26,0,0,1,.27.26v1.53a.27.27,0,0,1-.27.27h-5.81a.27.27,0,0,1-.26-.27Z" transform="translate(-69.83 -380.49)"/><path class="cbb33f8d-e72e-4d90-b140-ebc823fa346e" d="M149,482.14l1-.94a.26.26,0,0,1,.38,0,.91.91,0,0,0,.72.29c.39,0,.82-.36.82-1.07v-6.6a.28.28,0,0,1,.27-.27h1.71a.27.27,0,0,1,.27.27v6.62a2.91,2.91,0,0,1-3,3.07,2.7,2.7,0,0,1-2.13-1A.28.28,0,0,1,149,482.14Z" transform="translate(-69.83 -380.49)"/><path class="cbb33f8d-e72e-4d90-b140-ebc823fa346e" d="M160.65,473.41a5.05,5.05,0,1,1-5,5.06A5,5,0,0,1,160.65,473.41Zm0,7.86a2.81,2.81,0,1,0-2.8-2.8A2.81,2.81,0,0,0,160.65,481.27Z" transform="translate(-69.83 -380.49)"/><path class="cbb33f8d-e72e-4d90-b140-ebc823fa346e" d="M167.29,473.66a.27.27,0,0,1,.27-.25h.35l5.6,5.39h0v-5a.27.27,0,0,1,.27-.27h1.68a.28.28,0,0,1,.27.27v9.44a.27.27,0,0,1-.27.25h-.22a.36.36,0,0,1-.18-.07l-5.55-5.57h0v5.23a.27.27,0,0,1-.27.27h-1.67a.27.27,0,0,1-.26-.27Z" transform="translate(-69.83 -380.49)"/><path class="cbb33f8d-e72e-4d90-b140-ebc823fa346e" d="M178,473.82a.28.28,0,0,1,.27-.27h5.81a.27.27,0,0,1,.26.27v1.53a.26.26,0,0,1-.26.26h-3.89v1.74h3.2a.28.28,0,0,1,.27.27v1.53a.27.27,0,0,1-.27.26h-3.2v1.9h3.89a.26.26,0,0,1,.26.26v1.53a.27.27,0,0,1-.26.27h-5.81a.28.28,0,0,1-.27-.27Z" transform="translate(-69.83 -380.49)"/><path class="cbb33f8d-e72e-4d90-b140-ebc823fa346e" d="M185.67,482l.66-1.17a.37.37,0,0,1,.48-.08,4.21,4.21,0,0,0,2,.77.88.88,0,0,0,1-.84c0-.59-.49-1-1.45-1.42-1.2-.47-2.72-1.41-2.72-3.1,0-1.39,1.08-2.79,3.24-2.79a5.26,5.26,0,0,1,3,1,.36.36,0,0,1,.08.45l-.72,1.08c-.09.16-.35.28-.47.18a4.42,4.42,0,0,0-2-.84.82.82,0,0,0-.88.72c0,.52.42.91,1.53,1.36s2.83,1.29,2.83,3.2a3.08,3.08,0,0,1-3.31,2.9,4.5,4.5,0,0,1-3.16-1.08C185.6,482.29,185.56,482.23,185.67,482Z" transform="translate(-69.83 -380.49)"/><path class="cbb33f8d-e72e-4d90-b140-ebc823fa346e" d="M197,473.82a.27.27,0,0,1,.26-.27h4.2a3,3,0,0,1,1,5.85l1.92,3.56a.27.27,0,0,1-.24.41h-1.86a.27.27,0,0,1-.23-.13l-1.86-3.71h-1v3.57a.28.28,0,0,1-.27.27h-1.67a.27.27,0,0,1-.26-.27Zm4.28,3.92a1.12,1.12,0,0,0,1.06-1.12,1.07,1.07,0,0,0-1.06-1.06h-2.08v2.18Z" transform="translate(-69.83 -380.49)"/><path class="cbb33f8d-e72e-4d90-b140-ebc823fa346e" d="M206.28,473.82a.27.27,0,0,1,.27-.27h5.81a.27.27,0,0,1,.26.27v1.53a.26.26,0,0,1-.26.26h-3.89v1.74h3.2a.28.28,0,0,1,.27.27v1.53a.27.27,0,0,1-.27.26h-3.2v1.9h3.89a.26.26,0,0,1,.26.26v1.53a.27.27,0,0,1-.26.27h-5.81a.27.27,0,0,1-.27-.27Z" transform="translate(-69.83 -380.49)"/><path class="cbb33f8d-e72e-4d90-b140-ebc823fa346e" d="M213.42,473.91a.24.24,0,0,1,.23-.36h1.87a.28.28,0,0,1,.24.15l2.31,5.13h.09l2.31-5.13a.28.28,0,0,1,.24-.15h1.87a.25.25,0,0,1,.24.36l-4.41,9.45a.27.27,0,0,1-.24.15H218a.27.27,0,0,1-.24-.15Z" transform="translate(-69.83 -380.49)"/><path class="cbb33f8d-e72e-4d90-b140-ebc823fa346e" d="M223.8,473.82a.28.28,0,0,1,.27-.27h1.73a.27.27,0,0,1,.26.27v5.68a1.74,1.74,0,1,0,3.48,0v-5.68a.27.27,0,0,1,.27-.27h1.72a.28.28,0,0,1,.27.27v5.79a4,4,0,0,1-8,0Z" transform="translate(-69.83 -380.49)"/><path class="cbb33f8d-e72e-4d90-b140-ebc823fa346e" d="M234,473.82a.27.27,0,0,1,.27-.27H240a.27.27,0,0,1,.26.27v1.53a.26.26,0,0,1-.26.26h-3.89v1.74h3.2a.28.28,0,0,1,.27.27v1.53a.27.27,0,0,1-.27.26h-3.2v1.9H240a.26.26,0,0,1,.26.26v1.53a.27.27,0,0,1-.26.27h-5.81a.27.27,0,0,1-.27-.27Z" transform="translate(-69.83 -380.49)"/><path class="872a76a7-1707-4c98-a629-04ab653162e1" d="M249.77,473.82a.27.27,0,0,1,.27-.27h4.19a3,3,0,0,1,1,5.85l1.92,3.56a.26.26,0,0,1-.23.41H255a.24.24,0,0,1-.22-.13l-1.87-3.71h-1v3.57a.28.28,0,0,1-.27.27H250a.27.27,0,0,1-.27-.27Zm4.28,3.92a1.12,1.12,0,0,0,1.06-1.12,1.07,1.07,0,0,0-1.06-1.06H252v2.18Z" transform="translate(-69.83 -380.49)"/><path class="872a76a7-1707-4c98-a629-04ab653162e1" d="M258,483l4.39-9.45a.29.29,0,0,1,.24-.15h.14a.29.29,0,0,1,.24.15l4.39,9.45a.24.24,0,0,1-.24.36h-1.55c-.26,0-.37-.08-.5-.35l-.5-1.11h-3.82l-.5,1.12a.53.53,0,0,1-.51.34h-1.54A.25.25,0,0,1,258,483Zm5.77-3-1.07-2.31h0L261.66,480Z" transform="translate(-69.83 -380.49)"/><path class="872a76a7-1707-4c98-a629-04ab653162e1" d="M269.77,473.63a.27.27,0,0,1,.25-.22h.22a.32.32,0,0,1,.24.14l3.26,6.06h0l3.26-6.06a.32.32,0,0,1,.24-.14h.22a.27.27,0,0,1,.25.22l1.59,9.43a.26.26,0,0,1-.27.31H277.4a.29.29,0,0,1-.27-.22l-.63-4.34h0l-2.35,4.55a.35.35,0,0,1-.24.15h-.26a.3.3,0,0,1-.23-.15L271,478.81h0l-.62,4.34a.27.27,0,0,1-.27.22h-1.65a.26.26,0,0,1-.27-.31Z" transform="translate(-69.83 -380.49)"/><path class="872a76a7-1707-4c98-a629-04ab653162e1" d="M281,473.82a.27.27,0,0,1,.26-.27h3.27a2.52,2.52,0,0,1,1.39,4.83,2.64,2.64,0,0,1,1.88,2.28,2.87,2.87,0,0,1-3.06,2.71h-3.48a.27.27,0,0,1-.26-.27Zm3.28,3.71a1,1,0,0,0,1-1,1,1,0,0,0-1-.95h-1.1v2Zm.18,3.83a1,1,0,0,0,1-1,1.12,1.12,0,0,0-1.15-1h-1.14v2Z" transform="translate(-69.83 -380.49)"/><path class="872a76a7-1707-4c98-a629-04ab653162e1" d="M293.76,473.41a5.05,5.05,0,1,1-5,5.06A5,5,0,0,1,293.76,473.41Zm0,7.86a2.81,2.81,0,1,0-2.79-2.8A2.81,2.81,0,0,0,293.76,481.27Z" transform="translate(-69.83 -380.49)"/><path class="cbb33f8d-e72e-4d90-b140-ebc823fa346e" d="M306.72,482.14l1-.94a.26.26,0,0,1,.38,0,.88.88,0,0,0,.71.29c.39,0,.83-.36.83-1.07v-6.6a.27.27,0,0,1,.27-.27h1.71a.27.27,0,0,1,.26.27v6.62a2.9,2.9,0,0,1-3,3.07,2.73,2.73,0,0,1-2.14-1A.32.32,0,0,1,306.72,482.14Z" transform="translate(-69.83 -380.49)"/><path class="cbb33f8d-e72e-4d90-b140-ebc823fa346e" d="M312.43,483l4.39-9.45a.29.29,0,0,1,.24-.15h.14a.32.32,0,0,1,.24.15l4.39,9.45a.25.25,0,0,1-.24.36H320c-.25,0-.36-.08-.49-.35l-.51-1.11h-3.81l-.51,1.12a.52.52,0,0,1-.5.34h-1.54A.24.24,0,0,1,312.43,483Zm5.76-3-1.06-2.31h0L316.06,480Z" transform="translate(-69.83 -380.49)"/><path class="cbb33f8d-e72e-4d90-b140-ebc823fa346e" d="M324.16,473.63a.27.27,0,0,1,.25-.22h.23a.34.34,0,0,1,.24.14l3.25,6.06h0l3.25-6.06a.34.34,0,0,1,.24-.14h.23a.27.27,0,0,1,.25.22l1.58,9.43a.25.25,0,0,1-.26.31h-1.66a.28.28,0,0,1-.26-.22l-.63-4.34h0l-2.36,4.55a.33.33,0,0,1-.24.15H328a.3.3,0,0,1-.24-.15l-2.37-4.55h0l-.62,4.34a.26.26,0,0,1-.26.22h-1.66a.25.25,0,0,1-.26-.31Z" transform="translate(-69.83 -380.49)"/><path class="cbb33f8d-e72e-4d90-b140-ebc823fa346e" d="M335.35,473.82a.27.27,0,0,1,.27-.27h5.81a.27.27,0,0,1,.26.27v1.53a.26.26,0,0,1-.26.26h-3.89v1.74h3.2a.27.27,0,0,1,.26.27v1.53a.26.26,0,0,1-.26.26h-3.2v1.9h3.89a.26.26,0,0,1,.26.26v1.53a.27.27,0,0,1-.26.27h-5.81a.27.27,0,0,1-.27-.27Z" transform="translate(-69.83 -380.49)"/><path class="cbb33f8d-e72e-4d90-b140-ebc823fa346e" d="M343,482l.66-1.17a.37.37,0,0,1,.48-.08,4.11,4.11,0,0,0,2,.77.88.88,0,0,0,1-.84c0-.59-.49-1-1.45-1.42-1.2-.47-2.72-1.41-2.72-3.1,0-1.39,1.08-2.79,3.24-2.79a5.2,5.2,0,0,1,3,1,.36.36,0,0,1,.09.45l-.72,1.08c-.1.16-.35.28-.47.18a4.47,4.47,0,0,0-2-.84.81.81,0,0,0-.88.72c0,.52.42.91,1.52,1.36s2.84,1.29,2.84,3.2a3.08,3.08,0,0,1-3.31,2.9,4.46,4.46,0,0,1-3.16-1.08C343,482.29,342.91,482.23,343,482Z" transform="translate(-69.83 -380.49)"/><path class="cbb33f8d-e72e-4d90-b140-ebc823fa346e" d="M353.1,473.91a.25.25,0,0,1,.24-.36h1.87a.28.28,0,0,1,.24.15l2.31,5.13h.08l2.32-5.13a.27.27,0,0,1,.24-.15h1.86a.24.24,0,0,1,.24.36l-4.4,9.45a.29.29,0,0,1-.24.15h-.14a.27.27,0,0,1-.24-.15Z" transform="translate(-69.83 -380.49)"/><path class="cbb33f8d-e72e-4d90-b140-ebc823fa346e" d="M363.56,473.82a.27.27,0,0,1,.27-.27h5.8a.27.27,0,0,1,.27.27v1.53a.26.26,0,0,1-.27.26h-3.88v1.74H369a.27.27,0,0,1,.26.27v1.53a.26.26,0,0,1-.26.26h-3.2v1.9h3.88a.26.26,0,0,1,.27.26v1.53a.27.27,0,0,1-.27.27h-5.8a.27.27,0,0,1-.27-.27Z" transform="translate(-69.83 -380.49)"/><path class="cbb33f8d-e72e-4d90-b140-ebc823fa346e" d="M371.78,473.82a.27.27,0,0,1,.26-.27h1.67a.28.28,0,0,1,.27.27v7.49h3.34a.26.26,0,0,1,.26.26v1.53a.27.27,0,0,1-.26.27H372a.27.27,0,0,1-.26-.27Z" transform="translate(-69.83 -380.49)"/><path class="cbb33f8d-e72e-4d90-b140-ebc823fa346e" d="M376.61,473.91a.25.25,0,0,1,.24-.36h1.86a.27.27,0,0,1,.24.15l2.32,5.13h.08l2.32-5.13a.26.26,0,0,1,.24-.15h1.86a.25.25,0,0,1,.24.36l-4.41,9.45a.26.26,0,0,1-.23.15h-.14a.26.26,0,0,1-.24-.15Z" transform="translate(-69.83 -380.49)"/><path class="cbb33f8d-e72e-4d90-b140-ebc823fa346e" d="M387.07,473.82a.27.27,0,0,1,.26-.27h5.81a.27.27,0,0,1,.27.27v1.53a.26.26,0,0,1-.27.26h-3.88v1.74h3.19a.28.28,0,0,1,.27.27v1.53a.27.27,0,0,1-.27.26h-3.19v1.9h3.88a.26.26,0,0,1,.27.26v1.53a.27.27,0,0,1-.27.27h-5.81a.27.27,0,0,1-.26-.27Z" transform="translate(-69.83 -380.49)"/><path class="cbb33f8d-e72e-4d90-b140-ebc823fa346e" d="M396.58,475.61h-2a.26.26,0,0,1-.26-.26v-1.53a.27.27,0,0,1,.26-.27h6.23a.27.27,0,0,1,.27.27v1.53a.26.26,0,0,1-.27.26h-2v7.49a.27.27,0,0,1-.26.27h-1.69a.27.27,0,0,1-.26-.27Z" transform="translate(-69.83 -380.49)"/><path class="872a76a7-1707-4c98-a629-04ab653162e1" d="M409.08,483l4.39-9.45a.32.32,0,0,1,.24-.15h.14a.29.29,0,0,1,.24.15l4.39,9.45a.24.24,0,0,1-.23.36h-1.56c-.25,0-.37-.08-.49-.35l-.51-1.11h-3.81l-.51,1.12a.52.52,0,0,1-.5.34h-1.55A.25.25,0,0,1,409.08,483Zm5.77-3-1.07-2.31h0l-1,2.31Z" transform="translate(-69.83 -380.49)"/><path class="872a76a7-1707-4c98-a629-04ab653162e1" d="M419.54,473.82a.27.27,0,0,1,.27-.27h3.27a2.82,2.82,0,0,1,3,2.61,2.78,2.78,0,0,1-1.63,2.22,2.63,2.63,0,0,1,1.89,2.28,2.87,2.87,0,0,1-3.06,2.71h-3.48a.27.27,0,0,1-.27-.27Zm3.28,3.71a1,1,0,0,0,1-1,1,1,0,0,0-1-.95h-1.09v2Zm.19,3.83a1,1,0,0,0,1-1,1.13,1.13,0,0,0-1.15-1h-1.14v2Z" transform="translate(-69.83 -380.49)"/><path class="872a76a7-1707-4c98-a629-04ab653162e1" d="M428.07,473.82a.27.27,0,0,1,.26-.27h3.27a2.52,2.52,0,0,1,1.39,4.83,2.64,2.64,0,0,1,1.88,2.28,2.87,2.87,0,0,1-3.06,2.71h-3.48a.27.27,0,0,1-.26-.27Zm3.28,3.71a1,1,0,0,0,1-1,1,1,0,0,0-1-.95h-1.09v2Zm.18,3.83a1,1,0,0,0,1-1,1.12,1.12,0,0,0-1.15-1h-1.13v2Z" transform="translate(-69.83 -380.49)"/><path class="872a76a7-1707-4c98-a629-04ab653162e1" d="M438.15,478.64l-3.1-4.68a.26.26,0,0,1,.23-.41h1.82a.26.26,0,0,1,.22.13l1.95,2.87,2-2.87a.27.27,0,0,1,.23-.13h1.82a.26.26,0,0,1,.23.41l-3.14,4.67v4.47a.28.28,0,0,1-.27.27h-1.67a.27.27,0,0,1-.27-.27Z" transform="translate(-69.83 -380.49)"/><path class="872a76a7-1707-4c98-a629-04ab653162e1" d="M447.7,473.66a.27.27,0,0,1,.27-.25h.35l5.6,5.39h0v-5a.27.27,0,0,1,.27-.27h1.68a.28.28,0,0,1,.27.27v9.44a.27.27,0,0,1-.27.25h-.23a.4.4,0,0,1-.18-.07l-5.54-5.57h0v5.23a.28.28,0,0,1-.27.27H448a.28.28,0,0,1-.27-.27Z" transform="translate(-69.83 -380.49)"/><path class="872a76a7-1707-4c98-a629-04ab653162e1" d="M462.78,473.41a5.05,5.05,0,1,1-5,5.06A5,5,0,0,1,462.78,473.41Zm0,7.86a2.81,2.81,0,1,0-2.79-2.8A2.82,2.82,0,0,0,462.78,481.27Z" transform="translate(-69.83 -380.49)"/><path class="872a76a7-1707-4c98-a629-04ab653162e1" d="M469.43,473.82a.28.28,0,0,1,.27-.27h4.2a3,3,0,0,1,1,5.85L476.8,483a.27.27,0,0,1-.24.41H474.7a.26.26,0,0,1-.23-.13l-1.86-3.71h-1v3.57a.28.28,0,0,1-.27.27H469.7a.28.28,0,0,1-.27-.27Zm4.28,3.92a1.12,1.12,0,0,0,1.07-1.12,1.07,1.07,0,0,0-1.07-1.06h-2.07v2.18Z" transform="translate(-69.83 -380.49)"/><path class="872a76a7-1707-4c98-a629-04ab653162e1" d="M479.58,473.63a.28.28,0,0,1,.26-.22h.22a.32.32,0,0,1,.24.14l3.25,6.06h0l3.26-6.06a.3.3,0,0,1,.24-.14h.22a.27.27,0,0,1,.25.22l1.59,9.43a.26.26,0,0,1-.27.31h-1.65a.28.28,0,0,1-.27-.22l-.63-4.34h0l-2.36,4.55a.33.33,0,0,1-.24.15h-.25a.32.32,0,0,1-.24-.15l-2.37-4.55h0l-.61,4.34a.28.28,0,0,1-.27.22h-1.66a.26.26,0,0,1-.26-.31Z" transform="translate(-69.83 -380.49)"/><path class="872a76a7-1707-4c98-a629-04ab653162e1" d="M489.91,483l4.39-9.45a.29.29,0,0,1,.24-.15h.14a.28.28,0,0,1,.23.15l4.4,9.45a.25.25,0,0,1-.24.36h-1.56c-.25,0-.36-.08-.49-.35l-.51-1.11H492.7l-.51,1.12a.52.52,0,0,1-.5.34h-1.54A.24.24,0,0,1,489.91,483Zm5.76-3-1.06-2.31h0l-1,2.31Z" transform="translate(-69.83 -380.49)"/><path class="872a76a7-1707-4c98-a629-04ab653162e1" d="M500.36,473.82a.27.27,0,0,1,.27-.27h1.67a.28.28,0,0,1,.27.27v7.49h3.33a.26.26,0,0,1,.27.26v1.53a.27.27,0,0,1-.27.27h-5.27a.27.27,0,0,1-.27-.27Z" transform="translate(-69.83 -380.49)"/></svg>