<svg id="Layer_1" data-name="Layer 1" xmlns="http://www.w3.org/2000/svg" viewBox="0 0 444.87 175.33">
  <defs>
    <style>
      .cls-1 {
        fill: #653a17;
      }

      .cls-2 {
        fill: #ecc559;
      }

      .cls-3 {
        fill: #e46940;
      }
    </style>
  </defs>
  <title>lineup-mobile</title>
  <g>
    <path class="cls-1" d="M218.34,90.33H210.6a1,1,0,0,1-1-1V83.39a1,1,0,0,1,1-1h24.05a1,1,0,0,1,1,1V89.3a1,1,0,0,1-1,1H226.9v28.93a1.06,1.06,0,0,1-1,1h-6.51a1.07,1.07,0,0,1-1-1Z" transform="translate(-209.57 -81.82)"/>
    <path class="cls-1" d="M239,83.39a1.07,1.07,0,0,1,1-1h6.67a1,1,0,0,1,1,1v21.94a6.72,6.72,0,1,0,13.43,0V83.39a1,1,0,0,1,1-1h6.67a1.07,1.07,0,0,1,1,1v22.38a15.45,15.45,0,0,1-30.89,0Z" transform="translate(-209.57 -81.82)"/>
    <path class="cls-1" d="M284.71,100.84l-10.94-17a1,1,0,0,1,.92-1.52h7.91a1.18,1.18,0,0,1,.87.49l6.23,10.08h.05l6.34-10.08a1.08,1.08,0,0,1,.87-.49h7.91c.92,0,1.41.81.92,1.52l-11,17,11.38,17.93a1,1,0,0,1-.87,1.52h-7.53a1.2,1.2,0,0,1-.92-.49l-7.1-10.94h-.11l-6.93,10.94a1.2,1.2,0,0,1-.92.49h-7.54a1,1,0,0,1-.92-1.52Z" transform="translate(-209.57 -81.82)"/>
    <path class="cls-1" d="M310.17,83.39a1,1,0,0,1,1-1h22.43a1,1,0,0,1,1,1V89.3a1,1,0,0,1-1,1h-15V97H331a1.07,1.07,0,0,1,1,1V104a1,1,0,0,1-1,1H318.62v7.31h15a1,1,0,0,1,1,1v5.91a1,1,0,0,1-1,1H311.2a1,1,0,0,1-1-1Z" transform="translate(-209.57 -81.82)"/>
    <path class="cls-1" d="M341.07,83.39a1,1,0,0,1,1-1h13.22a19,19,0,1,1,0,37.93H342a1,1,0,0,1-1-1Zm13.65,28.88c6.12,0,10.56-4.82,10.56-11s-4.44-10.94-10.56-10.94h-5.2v21.94Z" transform="translate(-209.57 -81.82)"/>
    <path class="cls-1" d="M396.63,81.82a19.51,19.51,0,1,1-19.45,19.56A19.47,19.47,0,0,1,396.63,81.82Zm0,30.34a10.84,10.84,0,1,0-10.78-10.78A10.85,10.85,0,0,0,396.63,112.16Z" transform="translate(-209.57 -81.82)"/>
  </g>
  <g>
    <path class="cls-2" d="M451.35,81.82a19.51,19.51,0,1,1-19.45,19.56A19.47,19.47,0,0,1,451.35,81.82Zm0,30.34a10.84,10.84,0,1,0-10.78-10.78A10.86,10.86,0,0,0,451.35,112.16Z" transform="translate(-209.57 -81.82)"/>
    <path class="cls-2" d="M476.2,83.39a1,1,0,0,1,1-1h16.2a11.78,11.78,0,0,1,11.81,11.7c0,5-3.31,9-8,10.9l7.42,13.76a1,1,0,0,1-.92,1.57h-7.2a1,1,0,0,1-.87-.49l-7.21-14.36H484.7v13.82a1.06,1.06,0,0,1-1,1h-6.45a1,1,0,0,1-1-1Zm16.52,15.17a4.35,4.35,0,0,0,4.12-4.33,4.15,4.15,0,0,0-4.12-4.12h-8v8.45Z" transform="translate(-209.57 -81.82)"/>
    <path class="cls-2" d="M527.55,81.87A20.9,20.9,0,0,1,540.77,87a1,1,0,0,1,.11,1.46L536.6,93a1.15,1.15,0,0,1-1.46.06,10,10,0,0,0-7.1-2.6,10.86,10.86,0,0,0,.05,21.72,12.87,12.87,0,0,0,4.83-.87v-3.14H529.5a1,1,0,0,1-1-1v-5.37a1,1,0,0,1,1-1h10.89a1,1,0,0,1,1,1l0,14.58a1.34,1.34,0,0,1-.43.86,27.33,27.33,0,0,1-13.44,3.53,19.46,19.46,0,0,1,0-38.91Z" transform="translate(-209.57 -81.82)"/>
    <path class="cls-2" d="M564.63,81.82a19.51,19.51,0,1,1-19.45,19.56A19.47,19.47,0,0,1,564.63,81.82Zm0,30.34a10.84,10.84,0,1,0-10.78-10.78A10.86,10.86,0,0,0,564.63,112.16Z" transform="translate(-209.57 -81.82)"/>
    <path class="cls-2" d="M589.45,82.8a1,1,0,0,1,1-1h1.36l21.62,20.81h0V83.39a1,1,0,0,1,1-1H621a1.07,1.07,0,0,1,1,1v36.46a1,1,0,0,1-1,1h-.87a1.58,1.58,0,0,1-.7-.27l-21.4-21.51H598v20.21a1,1,0,0,1-1,1h-6.44a1.07,1.07,0,0,1-1-1Z" transform="translate(-209.57 -81.82)"/>
    <path class="cls-2" d="M629.94,83.39a1,1,0,0,1,1-1H653.4a1,1,0,0,1,1,1V89.3a1,1,0,0,1-1,1h-15V97h12.35a1.07,1.07,0,0,1,1,1V104a1,1,0,0,1-1,1H638.4v7.31h15a1,1,0,0,1,1,1v5.91a1,1,0,0,1-1,1H631a1,1,0,0,1-1-1Z" transform="translate(-209.57 -81.82)"/>
  </g>
  <g>
    <path class="cls-1" d="M212.48,177.49a.82.82,0,0,1,.82-.82h10.39a9.62,9.62,0,1,1,.05,19.23h-4.53V206a.85.85,0,0,1-.82.82H213.3a.82.82,0,0,1-.82-.82Zm10.83,12.12a3.39,3.39,0,0,0,3.4-3.41,3.29,3.29,0,0,0-3.4-3.19h-4.1v6.6Z" transform="translate(-209.57 -81.82)"/>
    <path class="cls-1" d="M236.46,177.49a.82.82,0,0,1,.82-.82h17.85a.82.82,0,0,1,.82.82v4.7a.82.82,0,0,1-.82.82H243.19v5.34H253a.85.85,0,0,1,.82.82v4.7a.82.82,0,0,1-.82.82h-9.83v5.82h11.94a.82.82,0,0,1,.82.82V206a.82.82,0,0,1-.82.82H237.28a.82.82,0,0,1-.82-.82Z" transform="translate(-209.57 -81.82)"/>
    <path class="cls-1" d="M257.79,205.73l13.49-29a.88.88,0,0,1,.73-.48h.44a.88.88,0,0,1,.73.48l13.49,29a.76.76,0,0,1-.73,1.12h-4.79c-.77,0-1.12-.26-1.5-1.08l-1.56-3.4H266.37l-1.55,3.44a1.61,1.61,0,0,1-1.56,1h-4.74A.76.76,0,0,1,257.79,205.73Zm17.72-9.23-3.28-7.11h0L269,196.5Z" transform="translate(-209.57 -81.82)"/>
    <path class="cls-1" d="M289.21,177a.82.82,0,0,1,.82-.78h1.08l17.2,16.56h0V177.49a.82.82,0,0,1,.82-.82h5.17a.84.84,0,0,1,.82.82v29a.8.8,0,0,1-.82.78h-.69a1.24,1.24,0,0,1-.56-.22l-17-17.11H296V206a.82.82,0,0,1-.82.82h-5.13a.85.85,0,0,1-.82-.82Z" transform="translate(-209.57 -81.82)"/>
    <path class="cls-1" d="M321.13,177.49a.84.84,0,0,1,.81-.82h5.31a.82.82,0,0,1,.82.82V195a5.35,5.35,0,1,0,10.69,0V177.49a.82.82,0,0,1,.82-.82h5.3a.85.85,0,0,1,.82.82V195.3a12.29,12.29,0,0,1-24.57,0Z" transform="translate(-209.57 -81.82)"/>
    <path class="cls-1" d="M355.35,183h-6.16a.82.82,0,0,1-.82-.82v-4.7a.82.82,0,0,1,.82-.82h19.14a.82.82,0,0,1,.82.82v4.7a.82.82,0,0,1-.82.82h-6.17v23a.85.85,0,0,1-.82.82h-5.17a.85.85,0,0,1-.82-.82Z" transform="translate(-209.57 -81.82)"/>
    <path class="cls-1" d="M383,177.49a.82.82,0,0,1,.82-.82h10.05c5.08,0,9.27,3.49,9.27,8,0,3.32-3,5.73-5,6.81,2.29.95,5.78,3.06,5.78,7,0,4.83-4.27,8.32-9.4,8.32H383.8A.82.82,0,0,1,383,206Zm10.09,11.43a3.08,3.08,0,0,0,3-3.11,2.93,2.93,0,0,0-3-2.93h-3.36v6Zm.56,11.76a3.13,3.13,0,0,0,3.11-3.14c0-1.73-1.86-3-3.54-3h-3.49v6.16Z" transform="translate(-209.57 -81.82)"/>
    <path class="cls-1" d="M408,177.49a.85.85,0,0,1,.82-.82h5.3a.82.82,0,0,1,.82.82V195a5.35,5.35,0,1,0,10.69,0V177.49a.82.82,0,0,1,.82-.82h5.3a.85.85,0,0,1,.82.82V195.3a12.29,12.29,0,0,1-24.57,0Z" transform="translate(-209.57 -81.82)"/>
    <path class="cls-1" d="M442.17,183H436a.82.82,0,0,1-.82-.82v-4.7a.82.82,0,0,1,.82-.82h19.14a.82.82,0,0,1,.82.82v4.7a.82.82,0,0,1-.82.82H449v23a.84.84,0,0,1-.81.82H443a.85.85,0,0,1-.82-.82Z" transform="translate(-209.57 -81.82)"/>
    <path class="cls-1" d="M464.41,183h-6.17a.81.81,0,0,1-.81-.82v-4.7a.81.81,0,0,1,.81-.82h19.15a.81.81,0,0,1,.81.82v4.7a.81.81,0,0,1-.81.82h-6.17v23a.85.85,0,0,1-.82.82h-5.17a.85.85,0,0,1-.82-.82Z" transform="translate(-209.57 -81.82)"/>
    <path class="cls-1" d="M481.06,177.49a.82.82,0,0,1,.82-.82h17.85a.82.82,0,0,1,.82.82v4.7a.82.82,0,0,1-.82.82H487.79v5.34h9.83a.85.85,0,0,1,.82.82v4.7a.82.82,0,0,1-.82.82h-9.83v5.82h11.94a.82.82,0,0,1,.82.82V206a.82.82,0,0,1-.82.82H481.88a.82.82,0,0,1-.82-.82Z" transform="translate(-209.57 -81.82)"/>
    <path class="cls-1" d="M505.66,177.49a.82.82,0,0,1,.82-.82h12.89a9.37,9.37,0,0,1,9.39,9.31c0,4-2.63,7.16-6.38,8.67l5.91,10.95a.82.82,0,0,1-.73,1.25h-5.74a.81.81,0,0,1-.69-.39L515.4,195h-3v11a.85.85,0,0,1-.82.82h-5.13a.82.82,0,0,1-.82-.82Zm13.15,12.07a3.46,3.46,0,0,0,3.27-3.45,3.3,3.3,0,0,0-3.27-3.27h-6.38v6.72Z" transform="translate(-209.57 -81.82)"/>
    <path class="cls-1" d="M541.4,177.71a.75.75,0,0,1,.77-1h5.05a.88.88,0,0,1,.77.61l3.71,14.61h.17l6.68-15.17a.83.83,0,0,1,.74-.48h.77a.72.72,0,0,1,.73.48l6.69,15.17h.17l3.71-14.61a.87.87,0,0,1,.77-.61h5a.75.75,0,0,1,.77,1l-8.15,29a.82.82,0,0,1-.77.6h-.69a.87.87,0,0,1-.73-.47l-7.89-17.64h-.13l-7.85,17.64a.89.89,0,0,1-.73.47h-.69a.83.83,0,0,1-.78-.6Z" transform="translate(-209.57 -81.82)"/>
    <path class="cls-1" d="M594.22,176.24a15.52,15.52,0,1,1-15.47,15.56A15.49,15.49,0,0,1,594.22,176.24Zm0,24.14a8.62,8.62,0,1,0-8.58-8.58A8.64,8.64,0,0,0,594.22,200.38Z" transform="translate(-209.57 -81.82)"/>
    <path class="cls-1" d="M614,177.49a.82.82,0,0,1,.82-.82H620a.84.84,0,0,1,.82.82v23H631a.82.82,0,0,1,.82.82V206a.82.82,0,0,1-.82.82H614.82A.82.82,0,0,1,614,206Z" transform="translate(-209.57 -81.82)"/>
    <path class="cls-1" d="M634.65,177.49a.82.82,0,0,1,.82-.82h17.85a.81.81,0,0,1,.81.82v4.7a.81.81,0,0,1-.81.82h-12v6.21h9.83a.85.85,0,0,1,.82.82v4.7a.84.84,0,0,1-.82.81h-9.83V206a.84.84,0,0,1-.81.82h-5.09a.82.82,0,0,1-.82-.82Z" transform="translate(-209.57 -81.82)"/>
  </g>
  <g>
    <path class="cls-2" d="M214,220.3h-3.87a.51.51,0,0,1-.51-.52v-2.95a.51.51,0,0,1,.51-.51h12a.51.51,0,0,1,.51.51v2.95a.52.52,0,0,1-.51.52h-3.87v14.45a.53.53,0,0,1-.52.51h-3.24a.53.53,0,0,1-.52-.51Z" transform="translate(-209.57 -81.82)"/>
    <path class="cls-2" d="M224.61,216.83a.53.53,0,0,1,.51-.51h3.22a.51.51,0,0,1,.51.51v6.82h7.74v-6.82a.51.51,0,0,1,.52-.51h3.22a.53.53,0,0,1,.51.51v17.92a.53.53,0,0,1-.51.51h-3.22a.51.51,0,0,1-.52-.51v-7.12h-7.74v7.12a.51.51,0,0,1-.51.51h-3.22a.53.53,0,0,1-.51-.51Z" transform="translate(-209.57 -81.82)"/>
    <path class="cls-2" d="M245,216.83a.51.51,0,0,1,.52-.51h11.2a.51.51,0,0,1,.52.51v2.95a.52.52,0,0,1-.52.52H249.2v3.35h6.17a.53.53,0,0,1,.51.52v3a.51.51,0,0,1-.51.51H249.2v3.65h7.49a.52.52,0,0,1,.52.52v2.95a.51.51,0,0,1-.52.51h-11.2a.51.51,0,0,1-.52-.51Z" transform="translate(-209.57 -81.82)"/>
    <path class="cls-2" d="M268.68,216.48a.52.52,0,0,1,.49-.43h.43a.59.59,0,0,1,.46.27L276.34,228h.05l6.28-11.69a.59.59,0,0,1,.46-.27h.43a.52.52,0,0,1,.49.43l3.06,18.19a.5.5,0,0,1-.52.59H283.4a.54.54,0,0,1-.51-.43l-1.22-8.36h-.06l-4.54,8.77a.64.64,0,0,1-.46.29h-.49a.59.59,0,0,1-.46-.29l-4.57-8.77H271l-1.19,8.36a.51.51,0,0,1-.51.43h-3.19a.5.5,0,0,1-.52-.59Z" transform="translate(-209.57 -81.82)"/>
    <path class="cls-2" d="M289.63,216.83a.53.53,0,0,1,.51-.51h3.33a.51.51,0,0,1,.51.51v11a3.36,3.36,0,1,0,6.72,0v-11a.51.51,0,0,1,.51-.51h3.33a.53.53,0,0,1,.51.51V228a7.71,7.71,0,0,1-15.42,0Z" transform="translate(-209.57 -81.82)"/>
    <path class="cls-2" d="M307.89,232.69l1.27-2.24a.7.7,0,0,1,.92-.17,8,8,0,0,0,3.85,1.49,1.69,1.69,0,0,0,1.86-1.62c0-1.14-.94-2-2.78-2.74-2.33-.92-5.25-2.73-5.25-6,0-2.67,2.08-5.38,6.25-5.38a10,10,0,0,1,5.79,2,.68.68,0,0,1,.16.86L318.58,221c-.19.3-.68.54-.92.35s-2.22-1.62-3.87-1.62a1.57,1.57,0,0,0-1.7,1.38c0,1,.81,1.76,2.94,2.62s5.47,2.49,5.47,6.17c0,2.79-2.41,5.6-6.38,5.6a8.6,8.6,0,0,1-6.09-2.08C307.76,233.18,307.67,233.07,307.89,232.69Z" transform="translate(-209.57 -81.82)"/>
    <path class="cls-2" d="M326,220.3h-3.87a.52.52,0,0,1-.52-.52v-2.95a.51.51,0,0,1,.52-.51h12a.51.51,0,0,1,.52.51v2.95a.52.52,0,0,1-.52.52h-3.87v14.45a.53.53,0,0,1-.51.51h-3.25a.53.53,0,0,1-.51-.51Z" transform="translate(-209.57 -81.82)"/>
    <path class="cls-2" d="M333.22,234.56l8.47-18.21a.53.53,0,0,1,.46-.3h.27a.53.53,0,0,1,.46.3l8.47,18.21a.48.48,0,0,1-.46.7h-3c-.48,0-.7-.16-.94-.67l-1-2.14H338.6l-1,2.16a1,1,0,0,1-1,.65h-3A.48.48,0,0,1,333.22,234.56Zm11.12-5.79-2.06-4.47h0l-2,4.47Z" transform="translate(-209.57 -81.82)"/>
    <path class="cls-2" d="M360.76,216.05a9.08,9.08,0,0,1,6.55,2.52.5.5,0,0,1,0,.75l-2.12,2.2a.48.48,0,0,1-.67,0,5.5,5.5,0,0,0-3.66-1.38,5.53,5.53,0,0,0,0,11.06,5.74,5.74,0,0,0,3.63-1.3.53.53,0,0,1,.7,0l2.11,2.25a.55.55,0,0,1,0,.73,9.32,9.32,0,0,1-6.58,2.62,9.74,9.74,0,1,1,0-19.48Z" transform="translate(-209.57 -81.82)"/>
    <path class="cls-2" d="M370,216.83a.53.53,0,0,1,.51-.51h3.22a.51.51,0,0,1,.52.51v6.82h7.74v-6.82a.51.51,0,0,1,.51-.51h3.22a.53.53,0,0,1,.52.51v17.92a.53.53,0,0,1-.52.51h-3.22a.51.51,0,0,1-.51-.51v-7.12H374.2v7.12a.51.51,0,0,1-.52.51h-3.22a.53.53,0,0,1-.51-.51Z" transform="translate(-209.57 -81.82)"/>
    <path class="cls-2" d="M390.32,216.83a.51.51,0,0,1,.51-.51H402a.51.51,0,0,1,.51.51v2.95a.52.52,0,0,1-.51.52h-7.5v3.35h6.17a.53.53,0,0,1,.51.52v3a.51.51,0,0,1-.51.51h-6.17v3.65H402a.52.52,0,0,1,.51.52v2.95a.51.51,0,0,1-.51.51H390.83a.51.51,0,0,1-.51-.51Z" transform="translate(-209.57 -81.82)"/>
    <path class="cls-2" d="M412.16,216.83a.51.51,0,0,1,.51-.51H419c3.19,0,5.81,2.19,5.81,5,0,2.09-1.86,3.6-3.14,4.28,1.44.59,3.63,1.92,3.63,4.41,0,3-2.68,5.22-5.9,5.22h-6.71a.51.51,0,0,1-.51-.51Zm6.33,7.18a1.93,1.93,0,0,0,1.89-1.95,1.83,1.83,0,0,0-1.89-1.84h-2.11V224Zm.35,7.38a2,2,0,0,0,2-2,2.16,2.16,0,0,0-2.22-1.9h-2.19v3.87Z" transform="translate(-209.57 -81.82)"/>
    <path class="cls-2" d="M425.77,234.56l8.47-18.21a.53.53,0,0,1,.46-.3H435a.53.53,0,0,1,.46.3l8.47,18.21a.48.48,0,0,1-.46.7h-3c-.49,0-.71-.16-.95-.67l-1-2.14h-7.36l-1,2.16a1,1,0,0,1-1,.65h-3A.48.48,0,0,1,425.77,234.56Zm11.12-5.79-2.05-4.47h0l-2,4.47Z" transform="translate(-209.57 -81.82)"/>
    <path class="cls-2" d="M445,232.69l1.27-2.24a.7.7,0,0,1,.92-.17,8,8,0,0,0,3.84,1.49,1.7,1.7,0,0,0,1.87-1.62c0-1.14-.95-2-2.79-2.74-2.32-.92-5.25-2.73-5.25-6,0-2.67,2.09-5.38,6.25-5.38a10,10,0,0,1,5.79,2,.67.67,0,0,1,.17.86L455.69,221c-.19.3-.68.54-.92.35s-2.22-1.62-3.87-1.62a1.57,1.57,0,0,0-1.71,1.38c0,1,.81,1.76,2.95,2.62s5.47,2.49,5.47,6.17c0,2.79-2.41,5.6-6.39,5.6a8.62,8.62,0,0,1-6.09-2.08C444.86,233.18,444.78,233.07,445,232.69Z" transform="translate(-209.57 -81.82)"/>
    <path class="cls-2" d="M460.51,216.83a.53.53,0,0,1,.52-.51h3.22a.51.51,0,0,1,.51.51v6.82h7.74v-6.82a.51.51,0,0,1,.52-.51h3.22a.53.53,0,0,1,.51.51v17.92a.53.53,0,0,1-.51.51H473a.51.51,0,0,1-.52-.51v-7.12h-7.74v7.12a.51.51,0,0,1-.51.51H461a.53.53,0,0,1-.52-.51Z" transform="translate(-209.57 -81.82)"/>
    <path class="cls-2" d="M487.39,216.83a.51.51,0,0,1,.51-.51h11.2a.51.51,0,0,1,.52.51v2.95a.52.52,0,0,1-.52.52h-7.49v3.89h6.17a.53.53,0,0,1,.51.52v2.95a.53.53,0,0,1-.51.51h-6.17v6.58a.53.53,0,0,1-.52.51H487.9a.51.51,0,0,1-.51-.51Z" transform="translate(-209.57 -81.82)"/>
    <path class="cls-2" d="M498.48,234.56l8.46-18.21a.56.56,0,0,1,.46-.3h.28a.55.55,0,0,1,.46.3l8.47,18.21a.48.48,0,0,1-.46.7h-3c-.49,0-.7-.16-.95-.67l-1-2.14h-7.36l-1,2.16a1,1,0,0,1-1,.65h-3A.47.47,0,0,1,498.48,234.56Zm11.12-5.79-2.06-4.47h0l-2,4.47Z" transform="translate(-209.57 -81.82)"/>
    <path class="cls-2" d="M520.91,216.48a.51.51,0,0,1,.49-.43h.43a.61.61,0,0,1,.46.27L528.57,228h0l6.28-11.69a.59.59,0,0,1,.46-.27h.43a.52.52,0,0,1,.49.43l3.06,18.19a.5.5,0,0,1-.52.59h-3.19a.56.56,0,0,1-.52-.43l-1.21-8.36h-.06l-4.54,8.77a.64.64,0,0,1-.46.29h-.49a.59.59,0,0,1-.46-.29l-4.57-8.77h-.06l-1.19,8.36a.52.52,0,0,1-.51.43h-3.2a.49.49,0,0,1-.51-.59Z" transform="translate(-209.57 -81.82)"/>
    <path class="cls-2" d="M542.26,216.83a.53.53,0,0,1,.51-.51H546a.53.53,0,0,1,.51.51v17.92a.53.53,0,0,1-.51.51h-3.25a.53.53,0,0,1-.51-.51Z" transform="translate(-209.57 -81.82)"/>
    <path class="cls-2" d="M550.62,216.83a.51.51,0,0,1,.52-.51h3.22a.53.53,0,0,1,.51.51v14.45h6.44a.51.51,0,0,1,.51.52v2.95a.51.51,0,0,1-.51.51H551.14a.51.51,0,0,1-.52-.51Z" transform="translate(-209.57 -81.82)"/>
    <path class="cls-2" d="M565.44,226.14l-6-9a.5.5,0,0,1,.43-.78h3.52a.56.56,0,0,1,.43.24l3.76,5.55,3.76-5.55a.52.52,0,0,1,.44-.24h3.51a.5.5,0,0,1,.44.78l-6.06,9v8.63a.53.53,0,0,1-.52.51H566a.51.51,0,0,1-.51-.51Z" transform="translate(-209.57 -81.82)"/>
    <path class="cls-2" d="M583.89,216.83a.51.51,0,0,1,.52-.51h6.3c3.19,0,5.82,2.19,5.82,5,0,2.09-1.87,3.6-3.14,4.28,1.43.59,3.63,1.92,3.63,4.41,0,3-2.68,5.22-5.9,5.22h-6.71a.51.51,0,0,1-.52-.51Zm6.33,7.18a1.94,1.94,0,0,0,1.9-1.95,1.84,1.84,0,0,0-1.9-1.84h-2.11V224Zm.36,7.38a2,2,0,0,0,1.94-2,2.16,2.16,0,0,0-2.21-1.9h-2.2v3.87Z" transform="translate(-209.57 -81.82)"/>
    <path class="cls-2" d="M597.51,234.56,606,216.35a.53.53,0,0,1,.46-.3h.27a.53.53,0,0,1,.46.3l8.47,18.21a.48.48,0,0,1-.46.7h-3c-.48,0-.7-.16-.94-.67l-1-2.14h-7.36l-1,2.16a1,1,0,0,1-1,.65h-3A.47.47,0,0,1,597.51,234.56Zm11.12-5.79-2.06-4.47h0l-2,4.47Z" transform="translate(-209.57 -81.82)"/>
    <path class="cls-2" d="M617.42,216.54a.51.51,0,0,1,.51-.49h.68l10.8,10.39h0v-9.61a.51.51,0,0,1,.51-.51h3.25a.53.53,0,0,1,.51.51v18.22a.5.5,0,0,1-.51.48h-.44a.87.87,0,0,1-.35-.13l-10.69-10.75h0v10.1a.51.51,0,0,1-.52.51H618a.53.53,0,0,1-.51-.51Z" transform="translate(-209.57 -81.82)"/>
    <path class="cls-2" d="M637.84,216.83a.51.51,0,0,1,.49-.51h6.6a9.47,9.47,0,1,1,0,18.94h-6.6a.51.51,0,0,1-.49-.51Zm6.82,14.43a5.48,5.48,0,0,0,0-11h-2.59v11Z" transform="translate(-209.57 -81.82)"/>
  </g>
  <g>
    <path class="cls-3" d="M212,244.55a.32.32,0,0,1,.32-.28h.28a.41.41,0,0,1,.31.18l4.15,7.73h0l4.16-7.73a.38.38,0,0,1,.3-.18h.29a.34.34,0,0,1,.32.28l2,12a.32.32,0,0,1-.34.39H221.7a.36.36,0,0,1-.34-.28l-.81-5.53h0l-3,5.79a.4.4,0,0,1-.3.2h-.32a.4.4,0,0,1-.31-.2l-3-5.79h0l-.79,5.53a.34.34,0,0,1-.34.28h-2.11a.33.33,0,0,1-.34-.39Z" transform="translate(-209.57 -81.82)"/>
    <path class="cls-3" d="M226.16,244.79a.35.35,0,0,1,.34-.34h2.15a.35.35,0,0,1,.34.34v11.84a.35.35,0,0,1-.34.34H226.5a.35.35,0,0,1-.34-.34Z" transform="translate(-209.57 -81.82)"/>
    <path class="cls-3" d="M231.77,244.79a.34.34,0,0,1,.32-.34h4.37a6.26,6.26,0,1,1,0,12.52h-4.37a.34.34,0,0,1-.32-.34Zm4.51,9.53a3.62,3.62,0,0,0,0-7.24h-1.72v7.24Z" transform="translate(-209.57 -81.82)"/>
    <path class="cls-3" d="M246.06,247.08H243.5a.34.34,0,0,1-.34-.34v-2a.34.34,0,0,1,.34-.34h7.94a.34.34,0,0,1,.34.34v2a.34.34,0,0,1-.34.34h-2.56v9.55a.35.35,0,0,1-.34.34H246.4a.35.35,0,0,1-.34-.34Z" transform="translate(-209.57 -81.82)"/>
    <path class="cls-3" d="M258.62,244.27a6.44,6.44,0,1,1-6.42,6.46A6.43,6.43,0,0,1,258.62,244.27Zm0,10a3.58,3.58,0,1,0-3.56-3.56A3.59,3.59,0,0,0,258.62,254.29Z" transform="translate(-209.57 -81.82)"/>
    <path class="cls-3" d="M265.61,244.88a.31.31,0,0,1,.32-.43H268a.37.37,0,0,1,.33.25l1.53,6.06H270l2.77-6.3a.34.34,0,0,1,.3-.19h.33a.31.31,0,0,1,.3.19l2.77,6.3h.08L278,244.7a.37.37,0,0,1,.33-.25h2.09a.31.31,0,0,1,.32.43l-3.38,12a.35.35,0,0,1-.32.25h-.29a.36.36,0,0,1-.3-.2l-3.28-7.31h0L269.9,257a.36.36,0,0,1-.3.2h-.29a.35.35,0,0,1-.32-.25Z" transform="translate(-209.57 -81.82)"/>
    <path class="cls-3" d="M282.33,244.59a.33.33,0,0,1,.34-.32h.44l7.14,6.87h0v-6.35a.34.34,0,0,1,.34-.34h2.15a.35.35,0,0,1,.34.34v12a.33.33,0,0,1-.34.32h-.29a.5.5,0,0,1-.23-.09l-7.07-7.1h0v6.67a.34.34,0,0,1-.34.34h-2.13a.35.35,0,0,1-.33-.34Z" transform="translate(-209.57 -81.82)"/>
    <path class="cls-3" d="M299.42,255.27l.84-1.48a.46.46,0,0,1,.61-.11,5.3,5.3,0,0,0,2.54,1,1.12,1.12,0,0,0,1.23-1.07c0-.75-.62-1.32-1.84-1.81-1.54-.61-3.47-1.8-3.47-3.95,0-1.77,1.37-3.56,4.13-3.56a6.7,6.7,0,0,1,3.83,1.34.46.46,0,0,1,.11.57l-.92,1.38c-.12.2-.44.36-.6.23a5.61,5.61,0,0,0-2.56-1.07,1,1,0,0,0-1.13.91c0,.66.54,1.17,1.95,1.74s3.61,1.64,3.61,4.08a3.93,3.93,0,0,1-4.22,3.7,5.68,5.68,0,0,1-4-1.38C299.33,255.59,299.27,255.52,299.42,255.27Z" transform="translate(-209.57 -81.82)"/>
    <path class="cls-3" d="M315.22,244.27a6.44,6.44,0,1,1-6.43,6.46A6.43,6.43,0,0,1,315.22,244.27Zm0,10a3.58,3.58,0,1,0-3.56-3.56A3.59,3.59,0,0,0,315.22,254.29Z" transform="translate(-209.57 -81.82)"/>
    <path class="cls-3" d="M329.28,244.27a6,6,0,0,1,4.33,1.66.33.33,0,0,1,0,.5l-1.4,1.45a.3.3,0,0,1-.44,0,3.68,3.68,0,0,0-2.42-.91,3.66,3.66,0,0,0,0,7.32,3.83,3.83,0,0,0,2.4-.86.34.34,0,0,1,.46,0l1.4,1.48a.38.38,0,0,1,0,.49,6.15,6.15,0,0,1-4.35,1.73,6.44,6.44,0,1,1,0-12.88Z" transform="translate(-209.57 -81.82)"/>
    <path class="cls-3" d="M335.44,244.79a.35.35,0,0,1,.34-.34h2.15a.35.35,0,0,1,.34.34v11.84a.35.35,0,0,1-.34.34h-2.15a.35.35,0,0,1-.34-.34Z" transform="translate(-209.57 -81.82)"/>
    <path class="cls-3" d="M339.52,256.51l5.6-12a.38.38,0,0,1,.31-.19h.18a.37.37,0,0,1,.3.19l5.6,12a.31.31,0,0,1-.3.46h-2c-.32,0-.47-.1-.63-.44l-.64-1.42h-4.87l-.64,1.43a.67.67,0,0,1-.65.43h-2A.31.31,0,0,1,339.52,256.51Zm7.36-3.83-1.36-3h0l-1.34,3Z" transform="translate(-209.57 -81.82)"/>
    <path class="cls-3" d="M352.78,244.79a.34.34,0,0,1,.34-.34h2.13a.35.35,0,0,1,.34.34v9.55h4.26a.34.34,0,0,1,.34.34v1.95a.34.34,0,0,1-.34.34h-6.73a.34.34,0,0,1-.34-.34Z" transform="translate(-209.57 -81.82)"/>
  </g>
  <g>
    <path class="cls-1" d="M365.88,244.88a.42.42,0,0,1,.43-.43h2.09a.43.43,0,0,1,.43.43v4.7l4-5a.52.52,0,0,1,.34-.18h2.25a.41.41,0,0,1,.32.66l-4.18,5.24,4.56,5.94a.42.42,0,0,1-.34.66h-2.47a.48.48,0,0,1-.32-.12l-4.14-5.62v5.33a.43.43,0,0,1-.43.43h-2.09a.42.42,0,0,1-.43-.43Z" transform="translate(-209.57 -81.82)"/>
    <path class="cls-1" d="M382.68,244.27a6.44,6.44,0,1,1-6.43,6.46A6.43,6.43,0,0,1,382.68,244.27Zm0,10a3.58,3.58,0,1,0-3.56-3.56A3.59,3.59,0,0,0,382.68,254.29Z" transform="translate(-209.57 -81.82)"/>
    <path class="cls-1" d="M391.08,244.59a.34.34,0,0,1,.34-.32h.45l7.14,6.87h0v-6.35a.34.34,0,0,1,.34-.34h2.15a.36.36,0,0,1,.34.34v12a.34.34,0,0,1-.34.32h-.29a.46.46,0,0,1-.23-.09l-7.07-7.1h0v6.67a.34.34,0,0,1-.34.34h-2.13a.35.35,0,0,1-.34-.34Z" transform="translate(-209.57 -81.82)"/>
  </g>
  <g>
    <path class="cls-3" d="M407.13,255.4l1.22-1.2a.35.35,0,0,1,.49,0,1.11,1.11,0,0,0,.91.37c.5,0,1.05-.46,1.05-1.36v-8.42a.34.34,0,0,1,.34-.34h2.19a.34.34,0,0,1,.34.34v8.44a3.71,3.71,0,0,1-3.85,3.92,3.43,3.43,0,0,1-2.72-1.3A.39.39,0,0,1,407.13,255.4Z" transform="translate(-209.57 -81.82)"/>
    <path class="cls-3" d="M414.32,256.51l5.6-12a.38.38,0,0,1,.31-.19h.18a.37.37,0,0,1,.3.19l5.6,12a.31.31,0,0,1-.3.46h-2c-.32,0-.47-.1-.63-.44l-.64-1.42h-4.87l-.64,1.43a.67.67,0,0,1-.65.43h-2A.31.31,0,0,1,414.32,256.51Zm7.36-3.83-1.36-3h0l-1.34,3Z" transform="translate(-209.57 -81.82)"/>
    <path class="cls-3" d="M429.22,244.55a.34.34,0,0,1,.33-.28h.28a.41.41,0,0,1,.31.18l4.15,7.73h0l4.16-7.73a.38.38,0,0,1,.3-.18h.29a.34.34,0,0,1,.32.28l2,12a.33.33,0,0,1-.34.39H439a.36.36,0,0,1-.34-.28l-.81-5.53h0l-3,5.79a.4.4,0,0,1-.3.2h-.32a.39.39,0,0,1-.31-.2l-3-5.79h0l-.79,5.53a.34.34,0,0,1-.34.28h-2.11a.33.33,0,0,1-.34-.39Z" transform="translate(-209.57 -81.82)"/>
    <path class="cls-3" d="M443.42,244.79a.34.34,0,0,1,.34-.34h7.41a.34.34,0,0,1,.34.34v2a.34.34,0,0,1-.34.34h-5v2.22h4.08a.35.35,0,0,1,.34.34v2a.34.34,0,0,1-.34.34h-4.08v2.41h5a.34.34,0,0,1,.34.34v1.95a.34.34,0,0,1-.34.34h-7.41a.34.34,0,0,1-.34-.34Z" transform="translate(-209.57 -81.82)"/>
    <path class="cls-3" d="M453.13,255.27l.84-1.48a.46.46,0,0,1,.61-.11,5.3,5.3,0,0,0,2.54,1,1.12,1.12,0,0,0,1.24-1.07c0-.75-.63-1.32-1.85-1.81-1.54-.61-3.47-1.8-3.47-3.95,0-1.77,1.38-3.56,4.14-3.56a6.63,6.63,0,0,1,3.82,1.34.45.45,0,0,1,.11.57l-.91,1.38c-.13.2-.45.36-.61.23a5.61,5.61,0,0,0-2.56-1.07,1,1,0,0,0-1.13.91c0,.66.54,1.17,2,1.74s3.61,1.64,3.61,4.08a3.93,3.93,0,0,1-4.22,3.7,5.69,5.69,0,0,1-4-1.38C453,255.59,453,255.52,453.13,255.27Z" transform="translate(-209.57 -81.82)"/>
    <path class="cls-3" d="M466,244.91a.31.31,0,0,1,.3-.46h2.38a.35.35,0,0,1,.31.19l2.95,6.53h.11l2.95-6.53a.33.33,0,0,1,.3-.19h2.38a.32.32,0,0,1,.31.46l-5.62,12a.35.35,0,0,1-.31.2h-.17a.34.34,0,0,1-.31-.2Z" transform="translate(-209.57 -81.82)"/>
    <path class="cls-3" d="M479.26,244.79a.34.34,0,0,1,.34-.34H487a.34.34,0,0,1,.34.34v2a.34.34,0,0,1-.34.34h-5v2.22h4.08a.35.35,0,0,1,.34.34v2a.34.34,0,0,1-.34.34h-4.08v2.41h5a.34.34,0,0,1,.34.34v1.95a.34.34,0,0,1-.34.34H479.6a.34.34,0,0,1-.34-.34Z" transform="translate(-209.57 -81.82)"/>
    <path class="cls-3" d="M489.66,244.79a.34.34,0,0,1,.34-.34h2.13a.35.35,0,0,1,.34.34v9.55h4.26a.34.34,0,0,1,.34.34v1.95a.34.34,0,0,1-.34.34H490a.34.34,0,0,1-.34-.34Z" transform="translate(-209.57 -81.82)"/>
    <path class="cls-3" d="M495.72,244.91a.31.31,0,0,1,.3-.46h2.38a.36.36,0,0,1,.31.19l3,6.53h.11l3-6.53a.33.33,0,0,1,.3-.19h2.38a.32.32,0,0,1,.31.46l-5.62,12a.35.35,0,0,1-.31.2h-.18a.33.33,0,0,1-.3-.2Z" transform="translate(-209.57 -81.82)"/>
    <path class="cls-3" d="M509,244.79a.34.34,0,0,1,.34-.34h7.41a.34.34,0,0,1,.34.34v2a.34.34,0,0,1-.34.34h-5v2.22h4.08a.35.35,0,0,1,.34.34v2a.34.34,0,0,1-.34.34h-4.08v2.41h5a.34.34,0,0,1,.34.34v1.95a.34.34,0,0,1-.34.34h-7.41a.34.34,0,0,1-.34-.34Z" transform="translate(-209.57 -81.82)"/>
    <path class="cls-3" d="M521,247.08h-2.56a.34.34,0,0,1-.34-.34v-2a.34.34,0,0,1,.34-.34h7.94a.34.34,0,0,1,.34.34v2a.34.34,0,0,1-.34.34h-2.55v9.55a.36.36,0,0,1-.34.34h-2.15a.35.35,0,0,1-.34-.34Z" transform="translate(-209.57 -81.82)"/>
  </g>
  <g>
    <path class="cls-1" d="M530.9,256.51l5.6-12a.37.37,0,0,1,.3-.19H537a.38.38,0,0,1,.31.19l5.6,12a.32.32,0,0,1-.31.46h-2c-.33,0-.47-.1-.63-.44l-.64-1.42h-4.87l-.65,1.43a.64.64,0,0,1-.64.43h-2A.31.31,0,0,1,530.9,256.51Zm7.35-3.83-1.36-3h0l-1.34,3Z" transform="translate(-209.57 -81.82)"/>
    <path class="cls-1" d="M544.16,244.79a.34.34,0,0,1,.34-.34h4.17a3.21,3.21,0,0,1,1.77,6.15c.95.4,2.4,1.27,2.4,2.92a3.65,3.65,0,0,1-3.9,3.45H544.5a.34.34,0,0,1-.34-.34Zm4.19,4.74a1.27,1.27,0,0,0,1.25-1.29,1.21,1.21,0,0,0-1.25-1.22H547v2.51Zm.23,4.88a1.3,1.3,0,0,0,1.29-1.3,1.43,1.43,0,0,0-1.47-1.26H547v2.56Z" transform="translate(-209.57 -81.82)"/>
    <path class="cls-1" d="M555,244.79a.34.34,0,0,1,.34-.34h4.17a3.21,3.21,0,0,1,1.77,6.15c1,.4,2.4,1.27,2.4,2.92a3.65,3.65,0,0,1-3.9,3.45H555.3a.34.34,0,0,1-.34-.34Zm4.19,4.74a1.27,1.27,0,0,0,1.25-1.29,1.21,1.21,0,0,0-1.25-1.22h-1.4v2.51Zm.23,4.88a1.3,1.3,0,0,0,1.29-1.3,1.43,1.43,0,0,0-1.47-1.26h-1.45v2.56Z" transform="translate(-209.57 -81.82)"/>
    <path class="cls-1" d="M567.74,250.94l-4-6a.33.33,0,0,1,.28-.52h2.33a.35.35,0,0,1,.28.16l2.49,3.67,2.49-3.67a.32.32,0,0,1,.28-.16h2.33a.33.33,0,0,1,.29.52l-4,5.95v5.71a.35.35,0,0,1-.34.34h-2.13a.34.34,0,0,1-.34-.34Z" transform="translate(-209.57 -81.82)"/>
    <path class="cls-1" d="M579.93,244.59a.33.33,0,0,1,.34-.32h.44l7.14,6.87h0v-6.35a.34.34,0,0,1,.34-.34h2.15a.35.35,0,0,1,.34.34v12a.33.33,0,0,1-.34.32h-.29a.5.5,0,0,1-.23-.09l-7.07-7.1h0v6.67a.34.34,0,0,1-.34.34h-2.13a.36.36,0,0,1-.34-.34Z" transform="translate(-209.57 -81.82)"/>
    <path class="cls-1" d="M599.08,244.27a6.44,6.44,0,1,1-6.42,6.46A6.44,6.44,0,0,1,599.08,244.27Zm0,10a3.58,3.58,0,1,0-3.56-3.56A3.59,3.59,0,0,0,599.08,254.29Z" transform="translate(-209.57 -81.82)"/>
    <path class="cls-1" d="M607.5,244.79a.34.34,0,0,1,.34-.34h5.35a3.82,3.82,0,0,1,1.25,7.46l2.45,4.54a.34.34,0,0,1-.3.52h-2.38a.34.34,0,0,1-.29-.16l-2.38-4.74h-1.23v4.56a.35.35,0,0,1-.34.34h-2.13a.34.34,0,0,1-.34-.34Zm5.45,5a1.43,1.43,0,0,0,1.36-1.43A1.36,1.36,0,0,0,613,247h-2.64v2.79Z" transform="translate(-209.57 -81.82)"/>
    <path class="cls-1" d="M620.36,244.55a.34.34,0,0,1,.32-.28H621a.38.38,0,0,1,.3.18l4.15,7.73h0l4.15-7.73a.41.41,0,0,1,.31-.18h.28a.32.32,0,0,1,.32.28l2,12a.33.33,0,0,1-.34.39H630.1a.35.35,0,0,1-.34-.28l-.81-5.53h0l-3,5.79a.44.44,0,0,1-.31.2h-.32a.37.37,0,0,1-.3-.2l-3-5.79h0l-.79,5.53a.35.35,0,0,1-.34.28h-2.11a.32.32,0,0,1-.34-.39Z" transform="translate(-209.57 -81.82)"/>
    <path class="cls-1" d="M633.47,256.51l5.6-12a.37.37,0,0,1,.3-.19h.18a.35.35,0,0,1,.3.19l5.6,12a.31.31,0,0,1-.3.46h-2c-.32,0-.46-.1-.62-.44l-.65-1.42H637l-.65,1.43a.65.65,0,0,1-.64.43h-2A.31.31,0,0,1,633.47,256.51Zm7.35-3.83-1.36-3h0l-1.34,3Z" transform="translate(-209.57 -81.82)"/>
    <path class="cls-1" d="M646.73,244.79a.34.34,0,0,1,.34-.34h2.13a.35.35,0,0,1,.34.34v9.55h4.26a.34.34,0,0,1,.33.34v1.95a.34.34,0,0,1-.33.34h-6.73a.34.34,0,0,1-.34-.34Z" transform="translate(-209.57 -81.82)"/>
  </g>
  <g>
    <path class="cls-3" d="M212.48,130.57a1,1,0,0,1,1-1h13.23a19,19,0,1,1,0,38H213.46a1,1,0,0,1-1-1Zm13.67,28.91c6.13,0,10.58-4.83,10.58-11s-4.45-11-10.58-11H221v22Z" transform="translate(-209.57 -81.82)"/>
    <path class="cls-3" d="M252,130.57a1,1,0,0,1,1-1H275.5a1,1,0,0,1,1,1v5.92a1,1,0,0,1-1,1h-15v6.73h12.37a1.07,1.07,0,0,1,1,1v5.91a1,1,0,0,1-1,1H260.47v7.33h15a1,1,0,0,1,1,1v5.91a1,1,0,0,1-1,1H253a1,1,0,0,1-1-1Z" transform="translate(-209.57 -81.82)"/>
    <path class="cls-3" d="M283.85,130.57a1,1,0,0,1,1-1h16.21a11.8,11.8,0,0,1,11.83,11.72c0,5-3.31,9-8,10.9l7.43,13.77a1,1,0,0,1-.92,1.58h-7.22a1,1,0,0,1-.86-.49l-7.22-14.37h-3.74v13.83a1.07,1.07,0,0,1-1,1h-6.45a1,1,0,0,1-1-1Zm16.54,15.19a4.35,4.35,0,0,0,4.12-4.34,4.15,4.15,0,0,0-4.12-4.12h-8v8.46Z" transform="translate(-209.57 -81.82)"/>
    <path class="cls-3" d="M319.74,130.57a1,1,0,0,1,1-1H337a11.8,11.8,0,0,1,11.83,11.72c0,5-3.31,9-8,10.9l7.43,13.77a1,1,0,0,1-.92,1.58h-7.21a1,1,0,0,1-.87-.49L332,152.65h-3.75v13.83a1.06,1.06,0,0,1-1,1h-6.45a1,1,0,0,1-1-1Zm16.54,15.19a4.35,4.35,0,0,0,4.12-4.34,4.15,4.15,0,0,0-4.12-4.12h-8v8.46Z" transform="translate(-209.57 -81.82)"/>
    <path class="cls-3" d="M355.63,130.57a1.07,1.07,0,0,1,1-1h6.51a1.07,1.07,0,0,1,1,1v35.91a1.07,1.07,0,0,1-1,1h-6.51a1.07,1.07,0,0,1-1-1Z" transform="translate(-209.57 -81.82)"/>
    <path class="cls-3" d="M390,129a18.22,18.22,0,0,1,13.12,5,1,1,0,0,1,.05,1.52L398.9,140a1,1,0,0,1-1.36,0,11.1,11.1,0,0,0-7.32-2.77c-6.13,0-10.63,5.1-10.63,11.17a10.74,10.74,0,0,0,10.68,11,11.47,11.47,0,0,0,7.27-2.6,1.09,1.09,0,0,1,1.41,0l4.23,4.5a1.09,1.09,0,0,1-.06,1.47A18.59,18.59,0,0,1,390,168.05,19.53,19.53,0,1,1,390,129Z" transform="translate(-209.57 -81.82)"/>
    <path class="cls-3" d="M408.94,130.85a1.29,1.29,0,0,1,1.3-1.31h6.34a1.32,1.32,0,0,1,1.3,1.31v14.26l12-15a1.65,1.65,0,0,1,1-.55h6.84a1.25,1.25,0,0,1,1,2l-12.69,15.89,13.83,18a1.27,1.27,0,0,1-1,2h-7.48a1.46,1.46,0,0,1-1-.38l-12.53-17V166.2a1.32,1.32,0,0,1-1.3,1.31h-6.34a1.29,1.29,0,0,1-1.3-1.31Z" transform="translate(-209.57 -81.82)"/>
    <path class="cls-3" d="M474.26,129a18.22,18.22,0,0,1,13.12,5,1,1,0,0,1,.05,1.52l-4.22,4.4a1,1,0,0,1-1.36,0,11.08,11.08,0,0,0-7.32-2.77c-6.13,0-10.63,5.1-10.63,11.17a10.74,10.74,0,0,0,10.68,11,11.47,11.47,0,0,0,7.27-2.6,1.09,1.09,0,0,1,1.41,0l4.23,4.5a1.09,1.09,0,0,1-.06,1.47,18.59,18.59,0,0,1-13.17,5.26,19.53,19.53,0,1,1,0-39.05Z" transform="translate(-209.57 -81.82)"/>
    <path class="cls-3" d="M489.65,166.1l17-36.5a1.09,1.09,0,0,1,.92-.6h.54a1.09,1.09,0,0,1,.92.6l17,36.5a1,1,0,0,1-.92,1.41h-6c-1,0-1.41-.33-1.9-1.36l-1.95-4.28H500.45l-2,4.33a2,2,0,0,1-1.95,1.31h-6A1,1,0,0,1,489.65,166.1Zm22.29-11.61-4.12-9h-.05l-4.07,9Z" transform="translate(-209.57 -81.82)"/>
    <path class="cls-3" d="M530.16,130.57a1,1,0,0,1,1-1H547.4a11.8,11.8,0,0,1,11.83,11.72c0,5-3.31,9-8,10.9l7.43,13.77a1,1,0,0,1-.92,1.58h-7.22a1,1,0,0,1-.86-.49l-7.22-14.37h-3.74v13.83a1.07,1.07,0,0,1-1,1h-6.45a1,1,0,0,1-1-1Zm16.54,15.19a4.35,4.35,0,0,0,4.12-4.34,4.15,4.15,0,0,0-4.12-4.12h-8v8.46Z" transform="translate(-209.57 -81.82)"/>
    <path class="cls-3" d="M571.31,137.51h-7.75a1,1,0,0,1-1-1v-5.92a1,1,0,0,1,1-1h24.08a1,1,0,0,1,1,1v5.92a1,1,0,0,1-1,1h-7.76v29a1.07,1.07,0,0,1-1,1h-6.51a1.07,1.07,0,0,1-1-1Z" transform="translate(-209.57 -81.82)"/>
    <path class="cls-3" d="M593.24,130.57a1,1,0,0,1,1-1h22.45a1,1,0,0,1,1,1v5.92a1,1,0,0,1-1,1h-15v6.73h12.36a1.07,1.07,0,0,1,1,1v5.91a1,1,0,0,1-1,1H601.7v7.33h15a1,1,0,0,1,1,1v5.91a1,1,0,0,1-1,1H594.27a1,1,0,0,1-1-1Z" transform="translate(-209.57 -81.82)"/>
    <path class="cls-3" d="M625.06,130.57a1,1,0,0,1,1-1h16.21a11.79,11.79,0,0,1,11.82,11.72c0,5-3.3,9-8,10.9l7.43,13.77a1,1,0,0,1-.92,1.58H645.4a1,1,0,0,1-.87-.49l-7.21-14.37h-3.74v13.83a1.07,1.07,0,0,1-1,1H626.1a1,1,0,0,1-1-1Zm16.55,15.19a4.35,4.35,0,0,0,4.12-4.34,4.15,4.15,0,0,0-4.12-4.12h-8v8.46Z" transform="translate(-209.57 -81.82)"/>
  </g>
</svg>
