<svg id="Layer_1" data-name="Layer 1" xmlns="http://www.w3.org/2000/svg" viewBox="0 0 228.98 609.89">
  <defs>
    <style>
      .cls-1, .cls-5 {
        fill: #f9eccf;
      }

      .cls-2 {
        fill: #663b17;
      }

      .cls-3 {
        fill: #e46940;
      }

      .cls-4 {
        fill: #ecc559;
      }

      .cls-5 {
        stroke: #663b17;
        stroke-miterlimit: 10;
        stroke-width: 2px;
      }

      .cls-6 {
        fill: #653a17;
      }
    </style>
  </defs>
  <title>set-times</title>
  <g>
    <g>
      <path class="cls-1" d="M746.28,649.18c0,17.42,4.15,41.07,21.45,41.07,25.61,0,33.69-34,37.38-.62,3.53,32-30,41.27-6,68.23s44.55,55.87,40.14,89.6c-4.34,33.29-30.46,68-108.66,68s-102-35.32-107.05-62.84c-5.7-30.78,2.12-56.74,32.07-87.32,18.68-19.08,17.51-32.66,4.15-56-14.52-25.37-3.23-60.15,53.06-60.15Z" transform="translate(-612.87 -307.6)"/>
      <path class="cls-2" d="M730.59,917.49c-35.5,0-63.14-7.23-82.15-21.5a68.64,68.64,0,0,1-26.87-43c-6.09-32.89,3.66-59.53,32.61-89.08,18.64-19,16.25-31.92,3.84-53.61-7.53-13.16-8-28-1.26-39.59,8.8-15.19,28.72-23.55,56.06-23.55h35.46v2c0,9.17,1.4,39.07,19.45,39.07,10.31,0,17.71-6,23.11-10.37,4.07-3.3,7.28-5.9,10.44-4.6s4.66,5.64,5.82,16.13c1.57,14.18-3.79,24-8.52,32.7-6.3,11.58-10.86,19.94,2,34.42,23.8,26.74,45.19,56.3,40.64,91.19C837.84,873.78,818.94,917.49,730.59,917.49ZM712.82,651.18c-25.86,0-44.54,7.66-52.6,21.56-6,10.37-5.54,23.68,1.28,35.6,7.5,13.12,10.56,22.3,10.2,30.67-.4,9.22-4.92,17.77-14.66,27.72-28.3,28.89-37.44,53.68-31.54,85.55,4.24,22.86,23.52,61.21,105.09,61.21,36.61,0,99.15-8.61,106.68-66.29,4.35-33.3-16.49-62-39.65-88-14.76-16.58-8.83-27.47-2.55-39,4.66-8.56,9.48-17.4,8-30.34-1.2-10.87-2.75-12.62-3.36-12.87-1-.39-4,2-6.4,4-5.54,4.48-13.9,11.26-25.63,11.26-20.49,0-23.19-29.22-23.43-41.07Z" transform="translate(-612.87 -307.6)"/>
    </g>
    <g>
      <path class="cls-3" d="M730.58,909.15c-33.4,0-90.81-7.48-100.08-57.54-5.65-30.49,3.16-54.28,30.4-82.09,21.88-22.34,18.69-39.41,5.13-63.09-6.56-11.48-6.66-24-.26-33.4,7.77-11.45,24-17.51,47.05-17.51h26.56c1.39,26.2,11.54,41.07,28.35,41.07,13.73,0,23-7.49,29.09-12.44l.35-.28c.29,1.53.61,3.6.92,6.38,1.3,11.77-3.23,20.08-7.6,28.11-6.33,11.62-13.5,24.79,3.11,43.47,22.52,25.3,42.79,53.11,38.65,84.89-2.31,17.66-10.45,31.92-24.2,42.4C790.63,902.41,764.56,909.15,730.58,909.15Z" transform="translate(-612.87 -307.6)"/>
      <path class="cls-2" d="M730.58,911.15c-16.09,0-39.53-1.76-59.85-10.15-23.8-9.82-38-26.32-42.2-49-5.78-31.21,3.19-55.51,30.94-83.85,21.11-21.55,18.19-37.35,4.83-60.7-7-12.16-7-25.43-.18-35.51,8.16-12,25-18.39,48.7-18.39h26.56a2,2,0,0,1,2,1.9c1.33,25.26,10.69,39.17,26.35,39.17,13,0,21.93-7.22,27.83-12l.35-.29a2,2,0,0,1,3.22,1.18c.35,1.8.66,4,1,6.55,1.36,12.39-3.31,21-7.83,29.28-6.31,11.58-12.84,23.55,2.84,41.18,22.84,25.66,43.39,53.9,39.14,86.48-2.38,18.2-10.77,32.92-25,43.74C791.48,904.27,765,911.15,730.58,911.15ZM712.82,657.52c-22.31,0-38,5.75-45.39,16.63-6,8.79-5.84,20.48.34,31.29,7.92,13.85,11.21,23.74,11,33.09-.26,10.93-5.48,21.22-16.42,32.39-26.72,27.29-35.38,50.56-29.87,80.32,9,48.65,65.34,55.91,98.12,55.91,33.53,0,59.19-6.6,76.26-19.62,13.31-10.14,21.19-24,23.42-41.07,4-31-16-58.35-38.15-83.3-17.55-19.73-9.69-34.16-3.38-45.76,4.23-7.76,8.6-15.78,7.37-26.93-.11-1-.23-2-.36-2.89-6.28,4.94-15.24,11-28,11-17.43,0-28.38-14.94-30.23-41.07Z" transform="translate(-612.87 -307.6)"/>
    </g>
    <g>
      <rect class="cls-4" x="90.08" y="401.83" width="52.77" height="28.12" rx="1.68"/>
      <path class="cls-2" d="M754,739.55H704.63a3.68,3.68,0,0,1-3.68-3.68V711.11a3.68,3.68,0,0,1,3.68-3.68H754a3.68,3.68,0,0,1,3.68,3.68v24.76A3.68,3.68,0,0,1,754,739.55Zm-49.09-4h48.77V711.43H705Z" transform="translate(-612.87 -307.6)"/>
    </g>
    <g>
      <rect class="cls-4" x="90.08" y="468.61" width="52.77" height="28.12" rx="1.68"/>
      <path class="cls-2" d="M754,806.34H704.63a3.68,3.68,0,0,1-3.68-3.68V777.9a3.68,3.68,0,0,1,3.68-3.68H754a3.68,3.68,0,0,1,3.68,3.68v24.76A3.68,3.68,0,0,1,754,806.34Zm-49.09-4h48.77V778.22H705Z" transform="translate(-612.87 -307.6)"/>
    </g>
    <g>
      <rect class="cls-1" x="90.08" y="537.57" width="52.77" height="13.99" rx="1.68"/>
      <path class="cls-2" d="M754,861.17H704.63a3.68,3.68,0,0,1-3.68-3.68V846.86a3.68,3.68,0,0,1,3.68-3.68H754a3.68,3.68,0,0,1,3.68,3.68v10.63A3.68,3.68,0,0,1,754,861.17Zm-49.09-4h48.77v-10H705Z" transform="translate(-612.87 -307.6)"/>
    </g>
    <g>
      <line class="cls-1" x1="127.04" y1="544.57" x2="127.04" y2="143.47"/>
      <path class="cls-2" d="M739.91,854.17a2,2,0,0,1-2-2V451.08a2,2,0,0,1,4,0V852.17A2,2,0,0,1,739.91,854.17Z" transform="translate(-612.87 -307.6)"/>
    </g>
    <g>
      <line class="cls-1" x1="133.89" y1="544.57" x2="133.89" y2="290.16"/>
      <path class="cls-2" d="M746.76,854.17a2,2,0,0,1-2-2V597.76a2,2,0,0,1,4,0V852.17A2,2,0,0,1,746.76,854.17Z" transform="translate(-612.87 -307.6)"/>
    </g>
    <g>
      <line class="cls-1" x1="99.35" y1="544.57" x2="99.35" y2="126.72"/>
      <path class="cls-2" d="M712.23,854.17a2,2,0,0,1-2-2V434.32a2,2,0,1,1,4,0V852.17A2,2,0,0,1,712.23,854.17Z" transform="translate(-612.87 -307.6)"/>
    </g>
    <g>
      <line class="cls-1" x1="120.13" y1="544.57" x2="120.13" y2="27.68"/>
      <path class="cls-2" d="M733,854.17a2,2,0,0,1-2-2V335.28a2,2,0,0,1,4,0V852.17A2,2,0,0,1,733,854.17Z" transform="translate(-612.87 -307.6)"/>
    </g>
    <g>
      <line class="cls-1" x1="113.22" y1="544.57" x2="113.22" y2="274.64"/>
      <path class="cls-2" d="M726.09,854.17a2,2,0,0,1-2-2V582.24a2,2,0,0,1,4,0V852.17A2,2,0,0,1,726.09,854.17Z" transform="translate(-612.87 -307.6)"/>
    </g>
    <g>
      <line class="cls-1" x1="106.31" y1="544.57" x2="106.31" y2="274.64"/>
      <path class="cls-2" d="M719.19,854.17a2,2,0,0,1-2-2V582.24a2,2,0,0,1,4,0V852.17A2,2,0,0,1,719.19,854.17Z" transform="translate(-612.87 -307.6)"/>
    </g>
    <path class="cls-5" d="M746.59,649.18" transform="translate(-612.87 -307.6)"/>
    <path class="cls-5" d="M712.45,649.18" transform="translate(-612.87 -307.6)"/>
    <g>
      <g>
        <circle class="cls-1" cx="70.61" cy="379.53" r="9.14"/>
        <path class="cls-2" d="M683.48,698.28a11.14,11.14,0,1,1,11.14-11.14A11.16,11.16,0,0,1,683.48,698.28Zm0-18.28a7.14,7.14,0,1,0,7.14,7.14A7.14,7.14,0,0,0,683.48,680Z" transform="translate(-612.87 -307.6)"/>
      </g>
      <circle class="cls-2" cx="70.61" cy="379.53" r="2.67"/>
    </g>
    <circle class="cls-2" cx="133.89" cy="544.57" r="2.67"/>
    <circle class="cls-2" cx="127.04" cy="544.57" r="2.67"/>
    <circle class="cls-2" cx="120.18" cy="544.57" r="2.67"/>
    <circle class="cls-2" cx="113.33" cy="544.57" r="2.67"/>
    <circle class="cls-2" cx="106.48" cy="544.57" r="2.67"/>
    <circle class="cls-2" cx="99.63" cy="544.57" r="2.67"/>
    <g>
      <g>
        <circle class="cls-4" cx="192.98" cy="508.35" r="9.14"/>
        <path class="cls-2" d="M805.86,827.1A11.14,11.14,0,1,1,817,816,11.16,11.16,0,0,1,805.86,827.1Zm0-18.28A7.14,7.14,0,1,0,813,816,7.14,7.14,0,0,0,805.86,808.82Z" transform="translate(-612.87 -307.6)"/>
      </g>
      <circle class="cls-2" cx="192.96" cy="508.35" r="4.35"/>
    </g>
    <g>
      <g>
        <circle class="cls-4" cx="192.98" cy="547.86" r="9.14"/>
        <path class="cls-2" d="M805.86,866.61A11.14,11.14,0,1,1,817,855.47,11.16,11.16,0,0,1,805.86,866.61Zm0-18.28a7.14,7.14,0,1,0,7.14,7.14A7.14,7.14,0,0,0,805.86,848.33Z" transform="translate(-612.87 -307.6)"/>
      </g>
      <circle class="cls-2" cx="192.96" cy="547.86" r="4.35"/>
    </g>
    <g>
      <g>
        <circle class="cls-4" cx="167.08" cy="528.26" r="9.14"/>
        <path class="cls-2" d="M780,847a11.14,11.14,0,1,1,11.13-11.14A11.15,11.15,0,0,1,780,847Zm0-18.28a7.14,7.14,0,1,0,7.13,7.14A7.14,7.14,0,0,0,780,828.72Z" transform="translate(-612.87 -307.6)"/>
      </g>
      <circle class="cls-2" cx="167.06" cy="528.26" r="4.35"/>
    </g>
    <g>
      <g>
        <circle class="cls-4" cx="167.08" cy="567.77" r="9.14"/>
        <path class="cls-2" d="M780,886.51a11.14,11.14,0,1,1,11.13-11.14A11.15,11.15,0,0,1,780,886.51Zm0-18.28a7.14,7.14,0,1,0,7.13,7.14A7.14,7.14,0,0,0,780,868.23Z" transform="translate(-612.87 -307.6)"/>
      </g>
      <circle class="cls-2" cx="167.06" cy="567.77" r="4.35"/>
    </g>
  </g>
  <path class="cls-2" d="M761.89,619.9a9.57,9.57,0,0,1-9.57-9.56V558.4a1.78,1.78,0,0,0-3.56,0v41.22a2,2,0,1,1-4,0V558.4a5.78,5.78,0,0,1,11.56,0v51.94a5.58,5.58,0,0,0,5.57,5.56,2,2,0,0,1,0,4Z" transform="translate(-612.87 -307.6)"/>
  <path class="cls-2" d="M755,471.37a9.57,9.57,0,0,1-9.57-9.56V441.87a1.78,1.78,0,1,0-3.56,0v21.22a2,2,0,1,1-4,0V441.87a5.78,5.78,0,1,1,11.56,0v19.94a5.58,5.58,0,0,0,5.57,5.56,2,2,0,0,1,0,4Z" transform="translate(-612.87 -307.6)"/>
  <path class="cls-2" d="M755,471.37a2,2,0,0,1,0-4,5.57,5.57,0,0,0,5.56-5.56V411a2,2,0,0,1,4,0v50.84A9.57,9.57,0,0,1,755,471.37Z" transform="translate(-612.87 -307.6)"/>
  <path class="cls-2" d="M762.63,431.7a2,2,0,0,1-2-2V409.77a9.57,9.57,0,0,1,9.56-9.56,2,2,0,0,1,0,4,5.56,5.56,0,0,0-5.56,5.56V429.7A2,2,0,0,1,762.63,431.7Z" transform="translate(-612.87 -307.6)"/>
  <path class="cls-2" d="M777.75,545.61a2,2,0,0,1-2-2V409.77a5.56,5.56,0,0,0-5.56-5.56,2,2,0,0,1,0-4,9.57,9.57,0,0,1,9.56,9.56V543.61A2,2,0,0,1,777.75,545.61Z" transform="translate(-612.87 -307.6)"/>
  <path class="cls-2" d="M697.1,587.9a2,2,0,0,1,0-4,5.58,5.58,0,0,0,5.57-5.56v-158a5.78,5.78,0,1,1,11.56,0v41.21a2,2,0,0,1-4,0V420.35a1.78,1.78,0,1,0-3.56,0v158A9.57,9.57,0,0,1,697.1,587.9Z" transform="translate(-612.87 -307.6)"/>
  <path class="cls-2" d="M697.1,587.9a9.57,9.57,0,0,1-9.56-9.56V549.4a2,2,0,0,1,4,0v28.94a5.57,5.57,0,0,0,5.56,5.56,2,2,0,0,1,0,4Z" transform="translate(-612.87 -307.6)"/>
  <g>
    <g>
      <circle class="cls-1" cx="120.18" cy="64.68" r="10.35"/>
      <path class="cls-2" d="M733.06,384.64a12.36,12.36,0,1,1,12.35-12.36A12.37,12.37,0,0,1,733.06,384.64Zm0-20.71a8.36,8.36,0,1,0,8.35,8.35A8.36,8.36,0,0,0,733.06,363.93Z" transform="translate(-612.87 -307.6)"/>
    </g>
    <g>
      <path class="cls-3" d="M733.06,410.7c21.11,0,8.48-32.26,21.11-44.9C737.39,365.8,733.06,368,733.06,410.7Z" transform="translate(-612.87 -307.6)"/>
      <path class="cls-2" d="M733.06,412.7a2,2,0,0,1-2-2c0-42.57,4.38-46.9,23.11-46.9a2,2,0,0,1,1.42,3.42c-4.85,4.85-5.62,13.31-6.37,21.49C748.2,400,747,412.7,733.06,412.7Zm17-44.85c-11.2.38-14.86,4.12-15,40.73,8-1,9.11-8.53,10.18-20.23C745.9,381.05,746.59,373.55,750.06,367.85Z" transform="translate(-612.87 -307.6)"/>
    </g>
    <path class="cls-2" d="M735.06,407h-4a39,39,0,0,1,3-14.85c2.89-6.47,7.6-9.89,13.62-9.89v4c-4.38,0-7.74,2.53-10,7.52A34.79,34.79,0,0,0,735.06,407Z" transform="translate(-612.87 -307.6)"/>
    <g>
      <path class="cls-1" d="M733.06,335.28s9.78-25.68,0-25.68S733.06,335.28,733.06,335.28Z" transform="translate(-612.87 -307.6)"/>
      <path class="cls-2" d="M733.06,340.9,731.19,336c-1.24-3.25-7.21-19.8-3-25.94a6,6,0,0,1,9.68,0c4.23,6.14-1.73,22.69-3,25.94Zm0-29.3a1.64,1.64,0,0,0-1.55.72c-1.73,2.51-.41,10,1.55,16.67,2-6.65,3.27-14.17,1.54-16.67A1.62,1.62,0,0,0,733.06,311.6Z" transform="translate(-612.87 -307.6)"/>
    </g>
    <g>
      <path class="cls-1" d="M733.06,410.7c-21.12,0-8.48-32.26-21.12-44.9C728.72,365.8,733.06,368,733.06,410.7Z" transform="translate(-612.87 -307.6)"/>
      <path class="cls-2" d="M733.06,412.7c-14,0-15.14-12.75-16.17-24-.74-8.18-1.51-16.64-6.36-21.49a2,2,0,0,1,1.41-3.42c18.74,0,23.12,4.33,23.12,46.9A2,2,0,0,1,733.06,412.7Zm-17-44.85c3.47,5.7,4.15,13.2,4.82,20.5,1.06,11.7,2.18,19.2,10.17,20.23C730.92,372,727.26,368.23,716.06,367.85Z" transform="translate(-612.87 -307.6)"/>
    </g>
    <path class="cls-2" d="M735.06,407h-4a35,35,0,0,0-2.61-13.22c-2.23-5-5.59-7.52-10-7.52v-4c6,0,10.74,3.42,13.63,9.89A39.2,39.2,0,0,1,735.06,407Z" transform="translate(-612.87 -307.6)"/>
    <g>
      <circle class="cls-1" cx="120.19" cy="39.62" r="5.35"/>
      <path class="cls-2" d="M733.06,354.57a7.35,7.35,0,1,1,7.35-7.35A7.36,7.36,0,0,1,733.06,354.57Zm0-10.7a3.35,3.35,0,1,0,3.35,3.35A3.36,3.36,0,0,0,733.06,343.87Z" transform="translate(-612.87 -307.6)"/>
    </g>
  </g>
  <g>
    <g>
      <circle class="cls-1" cx="164.88" cy="199" r="10.35"/>
      <path class="cls-2" d="M777.75,519A12.36,12.36,0,1,1,790.1,506.6,12.37,12.37,0,0,1,777.75,519Zm0-20.71a8.36,8.36,0,1,0,8.35,8.35A8.36,8.36,0,0,0,777.75,498.25Z" transform="translate(-612.87 -307.6)"/>
    </g>
    <g>
      <path class="cls-3" d="M777.75,468.19c-21.11,0-8.48,32.26-21.11,44.89C773.42,513.08,777.75,510.88,777.75,468.19Z" transform="translate(-612.87 -307.6)"/>
      <path class="cls-2" d="M756.64,515.08a2,2,0,0,1-1.42-3.41c4.85-4.85,5.62-13.31,6.37-21.49,1-11.25,2.18-24,16.16-24a2,2,0,0,1,2,2C779.75,510.76,775.37,515.08,756.64,515.08Zm19.11-44.77c-8,1-9.11,8.53-10.18,20.23-.66,7.3-1.34,14.8-4.82,20.5C772,510.66,775.62,506.92,775.75,470.31Z" transform="translate(-612.87 -307.6)"/>
    </g>
    <path class="cls-2" d="M763.17,496.64v-4c4.39,0,7.74-2.53,10-7.52a34.82,34.82,0,0,0,2.61-13.22h4a39,39,0,0,1-3,14.85C773.9,493.22,769.19,496.64,763.17,496.64Z" transform="translate(-612.87 -307.6)"/>
    <g>
      <path class="cls-1" d="M777.75,543.61s-9.77,25.67,0,25.67S777.75,543.61,777.75,543.61Z" transform="translate(-612.87 -307.6)"/>
      <path class="cls-2" d="M777.75,571.28a5.62,5.62,0,0,1-4.84-2.44c-4.23-6.15,1.73-22.69,3-26l1.87-4.9,1.87,4.9c1.24,3.26,7.21,19.8,3,26A5.6,5.6,0,0,1,777.75,571.28Zm0-21.38c-2,6.65-3.27,14.16-1.54,16.67a1.62,1.62,0,0,0,1.54.71,1.64,1.64,0,0,0,1.55-.71C781,564.06,779.71,556.55,777.75,549.9Z" transform="translate(-612.87 -307.6)"/>
    </g>
    <g>
      <path class="cls-1" d="M777.75,468.19c21.12,0,8.48,32.26,21.12,44.89C782.09,513.08,777.75,510.88,777.75,468.19Z" transform="translate(-612.87 -307.6)"/>
      <path class="cls-2" d="M798.87,515.08c-18.74,0-23.12-4.32-23.12-46.89a2,2,0,0,1,2-2c14,0,15.14,12.74,16.17,24,.74,8.18,1.51,16.64,6.36,21.49a2,2,0,0,1,.43,2.18A2,2,0,0,1,798.87,515.08Zm-19.11-44.77c.13,36.61,3.79,40.35,15,40.73-3.47-5.7-4.15-13.2-4.82-20.5C788.87,478.84,787.75,471.34,779.76,470.31Z" transform="translate(-612.87 -307.6)"/>
    </g>
    <path class="cls-2" d="M792.34,496.64c-6,0-10.74-3.42-13.63-9.89a39.2,39.2,0,0,1-3-14.85h4a35,35,0,0,0,2.61,13.22c2.23,5,5.59,7.52,10,7.52Z" transform="translate(-612.87 -307.6)"/>
    <g>
      <circle class="cls-3" cx="164.88" cy="224.06" r="5.35"/>
      <path class="cls-2" d="M777.75,539a7.35,7.35,0,1,1,7.35-7.34A7.35,7.35,0,0,1,777.75,539Zm0-10.69a3.35,3.35,0,1,0,3.35,3.35A3.36,3.36,0,0,0,777.75,528.32Z" transform="translate(-612.87 -307.6)"/>
    </g>
  </g>
  <g>
    <g>
      <circle class="cls-1" cx="76.66" cy="209.74" r="10.35"/>
      <path class="cls-2" d="M689.54,529.7a12.35,12.35,0,1,1,12.35-12.35A12.36,12.36,0,0,1,689.54,529.7Zm0-20.7a8.35,8.35,0,1,0,8.35,8.35A8.35,8.35,0,0,0,689.54,509Z" transform="translate(-612.87 -307.6)"/>
    </g>
    <g>
      <path class="cls-3" d="M689.54,555.76c21.11,0,8.48-32.26,21.11-44.89C693.87,510.87,689.54,513.07,689.54,555.76Z" transform="translate(-612.87 -307.6)"/>
      <path class="cls-2" d="M689.54,557.76a2,2,0,0,1-2-2c0-42.57,4.38-46.89,23.11-46.89a2,2,0,0,1,1.42,3.41c-4.85,4.85-5.62,13.31-6.37,21.49C704.68,545,703.52,557.76,689.54,557.76Zm17-44.85c-11.2.38-14.87,4.12-15,40.73,8-1,9.11-8.53,10.18-20.23C702.38,526.11,703.07,518.61,706.54,512.91Z" transform="translate(-612.87 -307.6)"/>
    </g>
    <path class="cls-2" d="M691.54,552.05h-4a39,39,0,0,1,3-14.85c2.89-6.47,7.6-9.89,13.62-9.89v4c-4.38,0-7.74,2.53-10,7.52A34.82,34.82,0,0,0,691.54,552.05Z" transform="translate(-612.87 -307.6)"/>
    <g>
      <path class="cls-1" d="M689.54,480.34s9.78-25.67,0-25.67S689.54,480.34,689.54,480.34Z" transform="translate(-612.87 -307.6)"/>
      <path class="cls-2" d="M689.54,486l-1.87-4.9c-1.24-3.26-7.21-19.8-3-25.95a6,6,0,0,1,9.68,0c4.23,6.15-1.73,22.69-3,25.95Zm0-29.29a1.64,1.64,0,0,0-1.55.71c-1.73,2.51-.41,10,1.55,16.67,2-6.65,3.27-14.16,1.54-16.67A1.62,1.62,0,0,0,689.54,456.67Z" transform="translate(-612.87 -307.6)"/>
    </g>
    <g>
      <path class="cls-1" d="M689.54,555.76c-21.12,0-8.48-32.26-21.12-44.89C685.2,510.87,689.54,513.07,689.54,555.76Z" transform="translate(-612.87 -307.6)"/>
      <path class="cls-2" d="M689.54,557.76c-14,0-15.14-12.74-16.17-24-.74-8.18-1.51-16.64-6.36-21.49a2,2,0,0,1-.43-2.18,2,2,0,0,1,1.84-1.23c18.74,0,23.12,4.32,23.12,46.89A2,2,0,0,1,689.54,557.76Zm-17-44.85c3.47,5.7,4.15,13.2,4.82,20.5,1.06,11.7,2.18,19.2,10.17,20.23C687.4,517,683.74,513.29,672.54,512.91Z" transform="translate(-612.87 -307.6)"/>
    </g>
    <path class="cls-2" d="M691.54,552.05h-4a35,35,0,0,0-2.61-13.22c-2.23-5-5.59-7.52-10-7.52v-4c6,0,10.74,3.42,13.63,9.89A39.2,39.2,0,0,1,691.54,552.05Z" transform="translate(-612.87 -307.6)"/>
    <g>
      <circle class="cls-1" cx="76.66" cy="184.68" r="5.35"/>
      <path class="cls-2" d="M689.54,499.63a7.35,7.35,0,1,1,7.35-7.34A7.35,7.35,0,0,1,689.54,499.63Zm0-10.69a3.35,3.35,0,1,0,3.35,3.35A3.35,3.35,0,0,0,689.54,488.94Z" transform="translate(-612.87 -307.6)"/>
    </g>
  </g>
  <path class="cls-2" d="M810,619.9H761.89a2,2,0,0,1,0-4H810a2,2,0,0,1,0,4Z" transform="translate(-612.87 -307.6)"/>
  <g>
    <g>
      <path class="cls-3" d="M801.12,617.9s-25.68-9.79-25.68,0S801.12,617.9,801.12,617.9Z" transform="translate(-612.87 -307.6)"/>
      <path class="cls-2" d="M782.23,624.23a11.33,11.33,0,0,1-6.35-1.5,6,6,0,0,1,0-9.68c6.15-4.23,22.69,1.74,26,3l4.91,1.87-4.91,1.87C799.4,620.69,789.61,624.23,782.23,624.23Zm-.24-8.69a7,7,0,0,0-3.84.81,1.62,1.62,0,0,0-.71,1.54,1.64,1.64,0,0,0,.71,1.55c2.51,1.73,10,.42,16.68-1.54A50.51,50.51,0,0,0,782,615.54Z" transform="translate(-612.87 -307.6)"/>
    </g>
    <g>
      <path class="cls-3" d="M807.06,612s9.78-25.68,0-25.68S807.06,612,807.06,612Z" transform="translate(-612.87 -307.6)"/>
      <path class="cls-2" d="M807.06,617.58l-1.87-4.91c-1.24-3.26-7.21-19.8-3-25.95a6,6,0,0,1,9.68,0c4.23,6.15-1.73,22.69-3,25.95Zm0-29.3a1.64,1.64,0,0,0-1.55.71c-1.73,2.51-.41,10,1.55,16.68,2-6.65,3.27-14.17,1.55-16.68A1.64,1.64,0,0,0,807.06,588.28Z" transform="translate(-612.87 -307.6)"/>
    </g>
    <g>
      <path class="cls-1" d="M810,612.75s21.31-17.35,12.84-22.23S810,612.75,810,612.75Z" transform="translate(-612.87 -307.6)"/>
      <path class="cls-2" d="M807.22,617.62l.84-5.19c.55-3.43,3.66-20.74,10.4-23.95a6,6,0,0,1,8.38,4.84c.6,7.44-12.84,18.78-15.55,21Zm13.63-25.7a1.62,1.62,0,0,0-.68.17c-2.74,1.31-5.36,8.48-7,15.21,5-4.78,9.92-10.63,9.67-13.66a1.61,1.61,0,0,0-1-1.39A2,2,0,0,0,820.85,591.92Z" transform="translate(-612.87 -307.6)"/>
    </g>
    <g>
      <path class="cls-4" d="M812.21,614.93s27.12-4.37,22.24-12.84S812.21,614.93,812.21,614.93Z" transform="translate(-612.87 -307.6)"/>
      <path class="cls-2" d="M807.34,617.74l3.32-4.07c2.2-2.7,13.58-16.13,21-15.55a6,6,0,0,1,4.84,8.38c-3.2,6.75-20.52,9.85-24,10.4ZM831.1,602.1c-3.1,0-8.78,4.78-13.44,9.68,6.73-1.62,13.9-4.24,15.21-7a2,2,0,0,0-1.55-2.68Z" transform="translate(-612.87 -307.6)"/>
    </g>
    <g>
      <path class="cls-3" d="M813,617.9s25.68,9.78,25.68,0S813,617.9,813,617.9Z" transform="translate(-612.87 -307.6)"/>
      <path class="cls-2" d="M831.89,624.24c-7.38,0-17.17-3.55-19.6-4.47l-4.91-1.87,4.91-1.87c3.26-1.24,19.8-7.2,26-3a6,6,0,0,1,0,9.68A11.33,11.33,0,0,1,831.89,624.24ZM819.3,617.9c6.65,2,14.16,3.28,16.67,1.55a1.64,1.64,0,0,0,.71-1.55,1.62,1.62,0,0,0-.71-1.54C833.46,614.63,826,615.94,819.3,617.9Z" transform="translate(-612.87 -307.6)"/>
    </g>
    <g>
      <path class="cls-4" d="M812.21,620.87s17.34,21.31,22.23,12.84S812.21,620.87,812.21,620.87Z" transform="translate(-612.87 -307.6)"/>
      <path class="cls-2" d="M831.15,637.7c-7.44,0-18.34-12.92-20.49-15.56l-3.32-4.08,5.19.84c3.43.55,20.75,3.66,24,10.4a6,6,0,0,1-4.84,8.38A4,4,0,0,1,831.15,637.7ZM817.66,624c4.77,5,10.62,9.93,13.66,9.68a2,2,0,0,0,1.55-2.68C831.56,628.27,824.39,625.65,817.66,624Z" transform="translate(-612.87 -307.6)"/>
    </g>
    <g>
      <path class="cls-1" d="M810,623.05s4.37,27.13,12.84,22.24S810,623.05,810,623.05Z" transform="translate(-612.87 -307.6)"/>
      <path class="cls-2" d="M820.85,647.88a5.58,5.58,0,0,1-2.4-.56c-6.74-3.2-9.84-20.52-10.39-24l-.84-5.19,4.07,3.32c2.7,2.2,16.14,13.54,15.55,21a5.64,5.64,0,0,1-3,4.54A6,6,0,0,1,820.85,647.88Zm-7.67-19.38c1.62,6.74,4.24,13.9,7,15.21a2,2,0,0,0,2.68-1.55C823.09,639.13,818.2,633.28,813.18,628.5Z" transform="translate(-612.87 -307.6)"/>
    </g>
    <g>
      <path class="cls-3" d="M807.06,623.84s-9.78,25.68,0,25.68S807.06,623.84,807.06,623.84Z" transform="translate(-612.87 -307.6)"/>
      <path class="cls-2" d="M807.05,651.52h0a5.62,5.62,0,0,1-4.84-2.44c-4.23-6.15,1.74-22.69,3-26l1.87-4.91,1.87,4.91c1.24,3.26,7.2,19.8,3,26A5.6,5.6,0,0,1,807.05,651.52Zm0-21.38c-2,6.65-3.28,14.16-1.55,16.67a1.62,1.62,0,0,0,1.54.71h0a1.64,1.64,0,0,0,1.55-.71C810.33,644.3,809,636.79,807.06,630.14Z" transform="translate(-612.87 -307.6)"/>
    </g>
    <g>
      <path class="cls-1" d="M804.09,623.05s-21.31,17.34-12.85,22.23S804.09,623.05,804.09,623.05Z" transform="translate(-612.87 -307.6)"/>
      <path class="cls-2" d="M793.26,647.87a5.93,5.93,0,0,1-3-.86,5.6,5.6,0,0,1-3-4.53c-.6-7.44,12.84-18.79,15.54-21l4.08-3.32-.84,5.19c-.55,3.43-3.66,20.75-10.4,24A5.57,5.57,0,0,1,793.26,647.87Zm7.68-19.38c-5,4.78-9.92,10.63-9.68,13.67a2,2,0,0,0,2.68,1.54C796.69,642.4,799.31,635.23,800.94,628.49Z" transform="translate(-612.87 -307.6)"/>
    </g>
    <g>
      <path class="cls-4" d="M801.91,620.87s-27.13,4.37-22.24,12.83S801.91,620.87,801.91,620.87Z" transform="translate(-612.87 -307.6)"/>
      <path class="cls-2" d="M783,637.69a4.1,4.1,0,0,1-.49,0,6,6,0,0,1-4.83-8.38c3.2-6.74,20.52-9.84,24-10.39l5.19-.84-3.32,4.07C801.31,624.78,790.4,637.69,783,637.69ZM796.46,624c-6.74,1.62-13.9,4.24-15.21,7a2,2,0,0,0,1.54,2.68C785.85,633.93,791.69,629,796.46,624Z" transform="translate(-612.87 -307.6)"/>
    </g>
    <g>
      <path class="cls-4" d="M801.91,614.93s-17.34-21.32-22.23-12.85S801.91,614.93,801.91,614.93Z" transform="translate(-612.87 -307.6)"/>
      <path class="cls-2" d="M806.78,617.74l-5.19-.84c-3.43-.55-20.74-3.67-24-10.41a6,6,0,0,1,4.85-8.38c7.39-.59,18.78,12.85,21,15.55ZM783,602.09h-.23a2,2,0,0,0-1.54,2.68c1.3,2.75,8.47,5.37,15.21,7C791.8,606.88,786.12,602.09,783,602.09Z" transform="translate(-612.87 -307.6)"/>
    </g>
    <g>
      <path class="cls-1" d="M804.09,612.75s-4.36-27.13-12.83-22.24S804.09,612.75,804.09,612.75Z" transform="translate(-612.87 -307.6)"/>
      <path class="cls-2" d="M806.9,617.62l-4.07-3.32c-2.7-2.2-16.14-13.55-15.54-21a6,6,0,0,1,8.38-4.83c6.74,3.2,9.84,20.52,10.39,23.95Zm-13.62-25.7a2,2,0,0,0-1,.32,1.62,1.62,0,0,0-1,1.39c-.25,3,4.65,8.89,9.67,13.67-1.63-6.74-4.25-13.9-7-15.21A1.62,1.62,0,0,0,793.28,591.92Z" transform="translate(-612.87 -307.6)"/>
    </g>
    <g>
      <circle class="cls-1" cx="194.19" cy="310.3" r="7.56"/>
      <path class="cls-2" d="M807.06,627.46a9.56,9.56,0,1,1,9.56-9.56A9.57,9.57,0,0,1,807.06,627.46Zm0-15.12a5.56,5.56,0,1,0,5.56,5.56A5.56,5.56,0,0,0,807.06,612.34Z" transform="translate(-612.87 -307.6)"/>
    </g>
  </g>
  <g id="qKobkB">
    <g>
      <path class="cls-6" d="M682.41,825.89c-.49.45-.95.89-1.43,1.31a16.73,16.73,0,0,1-2.87,2.23,5.11,5.11,0,0,1-1,.45,1.38,1.38,0,0,1-1.84-.89c-.1-.24-.19-.49-.3-.78l-.34.24c-.79.64-1.57,1.29-2.37,1.91a.52.52,0,0,0-.23.62c.16.6.29,1.2.45,1.86a4.39,4.39,0,0,1-.45-.05c-.79-.15-1.58-.32-2.37-.44-.38-.06-.56-.22-.6-.58a2.48,2.48,0,0,0-.12-.54,1.48,1.48,0,0,1,.37-1.68c.48-.59.9-1.23,1.36-1.85.1-.14.23-.28.42-.52l.74,2.83a3.23,3.23,0,0,0,.4-.24c.81-.63,1.61-1.28,2.43-1.91a1.13,1.13,0,0,0,.46-.75,4.39,4.39,0,0,1,2.25-3.1,1.92,1.92,0,0,1,.51-.22c.64-.17,1.09.21,1,.86a1.86,1.86,0,0,1-.42.87c-.44.49-.95.91-1.43,1.36-.19.17-.5.24-.47.59a2,2,0,0,0,.34,1.29.67.67,0,0,0,.74.18,3.2,3.2,0,0,0,.72-.35,27.36,27.36,0,0,0,3.81-3.15.74.74,0,0,0,.18-.63,5.72,5.72,0,0,1,.87-3,3.15,3.15,0,0,1,2.5-1.72c.22,0,.28-.14.29-.32l.06-.93c.1-2,.2-3.91.32-5.87a4.8,4.8,0,0,1,.15-.91,1,1,0,0,1,.3-.45c.29-.25.58-.16.64.21a6.16,6.16,0,0,1,.05,1c-.07,3.22-.15,6.44-.22,9.65a2.65,2.65,0,0,0,.07.8.56.56,0,0,0,.82.39,1.72,1.72,0,0,0,.54-.31c1-.88,2-1.79,3.09-2.67.2-.17.14-.36.13-.56a4.62,4.62,0,0,1,.93-3.13,3.5,3.5,0,0,1,1.41-1.09,1.23,1.23,0,0,1,1.74.67c0,.1.08.2.11.29.19.65.25.68.88.52a6.18,6.18,0,0,0,2.74-1.62,3.6,3.6,0,0,1,.41-.37.22.22,0,0,1,.22,0,.25.25,0,0,1,.07.21,1.26,1.26,0,0,1-.24.36,6.16,6.16,0,0,1-3.66,2c-.28,0-.3.18-.35.4a9.92,9.92,0,0,1-.51,1.71,3.7,3.7,0,0,1-.84,1.13,1.79,1.79,0,0,1-2.71-.07l-1.09,1c-.68.58-1.33,1.18-2,1.72a5.18,5.18,0,0,1-1.35.73c-.82.29-1.33,0-1.6-.86-.06-.19-.11-.39-.18-.64-.21.57-.38,1.1-.61,1.61a8.43,8.43,0,0,1-.65,1.18,1.72,1.72,0,0,1-.54.5,1,1,0,0,1-1.49-.32A1.85,1.85,0,0,1,682.41,825.89ZM695,816.44c-.27,0-.44,0-.53.09a2.89,2.89,0,0,0-.7.74,4,4,0,0,0-.43,2.57,2.51,2.51,0,0,0,.28.81.6.6,0,0,0,1.06.11,1.87,1.87,0,0,0,.35-.57c.18-.5.33-1,.46-1.53a.65.65,0,0,0-.41-.88c-.5-.21-.53-.52-.27-1C694.8,816.71,694.85,816.64,695,816.44ZM683.83,825c0,.07.14.27.22.27a.62.62,0,0,0,.4-.22,2.51,2.51,0,0,0,.32-.52,15.25,15.25,0,0,0,1.05-3.23c.09-.44-.08-.6-.55-.54a.83.83,0,0,0-.48.25,3.8,3.8,0,0,0-.59.85,5.71,5.71,0,0,0-.45,2.65C683.76,824.63,683.8,824.77,683.83,825Zm-7.25,1.42a3.46,3.46,0,0,0,1.4-1.12,1.07,1.07,0,0,0,.2-.51.53.53,0,0,0-.15-.41.42.42,0,0,0-.39,0,2.84,2.84,0,0,0-.6.6A2.78,2.78,0,0,0,676.58,826.39Z" transform="translate(-612.87 -307.6)"/>
      <path class="cls-6" d="M665.41,821.59c.18-.43.38-.85.54-1.29a5,5,0,0,0,.28-1.07c.07-.63-.25-.93-.89-.85a4.87,4.87,0,0,0-.83.23,18.14,18.14,0,0,0-3.74,1.93c-3.12,2-6.22,4.12-9.32,6.19l-1.46,1,.46,0a7.83,7.83,0,0,1,1,.15,1.52,1.52,0,0,1,1.17,1.61,5,5,0,0,1-.12.86l-2.82,15a1.36,1.36,0,0,1-1.33,1.14c-.2,0-.32-.06-.29-.28s0-.21.05-.31q1.44-7.47,2.86-15a5.58,5.58,0,0,0,.14-1.35,1.2,1.2,0,0,0-1.3-1.27,2.37,2.37,0,0,0-1.41.34,38,38,0,0,1-6.75,3.37c-.34.13-.7.22-1.06.32-.17.05-.34,0-.41-.16a.37.37,0,0,1,.13-.49c.29-.17.58-.33.88-.47,1.79-.83,3.58-1.69,5.4-2.47a16.27,16.27,0,0,0,3.14-1.73c1.76-1.26,3.5-2.55,5.24-3.83a45.89,45.89,0,0,1,6.74-4.27,11.64,11.64,0,0,1,3.2-1.14,3.69,3.69,0,0,1,1.1,0,1,1,0,0,1,1,1.19,2.49,2.49,0,0,1-.23.89c-.28.55-.61,1.07-.92,1.6a1.12,1.12,0,0,1-.26.22Z" transform="translate(-612.87 -307.6)"/>
      <path class="cls-6" d="M659.17,836.46c-.07.18-.16.36-.23.55-.27.67-.49,1.36-.81,2a2.36,2.36,0,0,1-.77.86.81.81,0,0,1-1.34-.58,3,3,0,0,1,0-.73c0-.78,0-1.56,0-2.33-.08,0-.12-.05-.16,0s-.31.27-.49.08-.06-.38.07-.55l.69-.88a.55.55,0,0,1,.22-.21c.24-.09.52-.25.74-.19s.3.41.29.68c0,.86,0,1.73,0,2.6,0,.19-.12.47.14.54s.34-.21.42-.39a8.42,8.42,0,0,0,.47-1.21c.26-.82.48-1.66.73-2.49a9.24,9.24,0,0,1,.36-.92.56.56,0,0,1,.59-.36c.32,0,.41.27.46.51a4.11,4.11,0,0,1,.07.86c0,.78,0,1.57-.06,2.35,0,.25,0,.54.2.68s.53,0,.74-.16a14.36,14.36,0,0,0,1.26-1.08c.54-.57,1-1.18,1.56-1.76a.7.7,0,0,0,.18-.68c-.17-.85-.31-1.7-.46-2.56,0-.15,0-.32-.06-.53a4,4,0,0,1,.43.05c.73.16,1.45.34,2.18.49.28.05.45.16.48.46,0,0,0,0,0,.06a2.1,2.1,0,0,1-.51,2.7L665.36,836c-.09.13-.19.24-.35.43-.08-.36-.14-.63-.19-.91a1.43,1.43,0,0,0-.26-.79l-.49.57a14,14,0,0,1-2.41,2.39,5.2,5.2,0,0,1-1,.59c-.83.33-1.38,0-1.43-.93l-.06-.92v-.15Z" transform="translate(-612.87 -307.6)"/>
      <path class="cls-6" d="M668.55,830.5c.12.54.21,1,.33,1.5a.34.34,0,0,1-.25.47l-1,.39a8.77,8.77,0,0,1-.37-1.63c0-.09.13-.25.24-.3C667.8,830.77,668.14,830.66,668.55,830.5Z" transform="translate(-612.87 -307.6)"/>
    </g>
  </g>
  <g>
    <path class="cls-1" d="M661.82,737.25c-7.47-6.49-16.67-10.22-25.2-13.68-7.35-3-23.27-5.24-21.83-17.64s0-.14,0-.14c5-16.29,22.39-7,29.46-1C652.72,711.92,659.07,724.18,661.82,737.25Z" transform="translate(-612.87 -307.6)"/>
    <path class="cls-2" d="M664.72,742.19l-4.1-3.56c-7.24-6.3-16.1-9.89-24.68-13.37-1.27-.52-2.86-1-4.55-1.57-7.87-2.52-19.76-6.32-18.41-18a10.88,10.88,0,0,1,3.5-6.87,11.59,11.59,0,0,1,5.49-3.48c8.22-2.4,18.63,3.9,23.49,8,8.45,7.16,15.24,19.68,18.14,33.5Zm-48.12-36c-.93,7.12,6.68,11.06,15.9,14,1.76.56,3.42,1.09,4.81,1.66,7,2.82,14.66,5.94,21.46,10.7-3.17-11-8.84-20.63-15.67-26.41-4-3.39-13.35-9.27-20.1-7.3A9.68,9.68,0,0,0,616.6,706.21Z" transform="translate(-612.87 -307.6)"/>
  </g>
  <g>
    <path class="cls-1" d="M655.92,740.69c-6.5-.27-12.75,1.6-18.55,3.32-5,1.49-9.72,2.9-14.29,3-1.54,0-3.14-1.15-4.16-3.05l0-.08a6.21,6.21,0,0,1-.55-4.44,4.41,4.41,0,0,1,.77-1.53c3.52-4.59,8.4-6.82,14.48-6.66C640.84,731.42,649.14,735.11,655.92,740.69Z" transform="translate(-612.87 -307.6)"/>
    <path class="cls-2" d="M623,749c-2.27,0-4.52-1.57-5.88-4.11l-.06-.1a8.15,8.15,0,0,1-.69-5.9,6.2,6.2,0,0,1,1.1-2.21c3.94-5.12,9.37-7.63,16.12-7.43,7.45.2,16.26,3.91,23.56,9.91l4.6,3.79-5.95-.24c-6.18-.25-12.13,1.52-17.9,3.24-5.13,1.53-10,3-14.82,3.05ZM633,733.22a14.73,14.73,0,0,0-12.28,5.88,2.42,2.42,0,0,0-.42.85,4.28,4.28,0,0,0,.39,3c.78,1.45,1.78,2.1,2.4,2.05,4.29-.06,8.89-1.43,13.75-2.88A81.38,81.38,0,0,1,650.12,739c-5.51-3.5-11.45-5.58-16.6-5.73Z" transform="translate(-612.87 -307.6)"/>
  </g>
  <g>
    <path class="cls-1" d="M647.61,698.5c-2-6.18-2-12.7-1.88-18.75.07-5.22,1.64-14.65-5.13-17.72s-.08,0-.08,0c-9.7-2.71-9.95,11.79-8.13,17.59C634.57,686.53,640.39,693.51,647.61,698.5Z" transform="translate(-612.87 -307.6)"/>
    <path class="cls-2" d="M651.37,703.54l-4.9-3.39c-7.78-5.38-13.75-12.84-16-19.95-1.31-4.16-2-13.79,2.4-18.28a7.27,7.27,0,0,1,2.75-1.8,10.17,10.17,0,0,1,5.79.09c7.06,3.2,6.65,11.65,6.39,17.23,0,.84-.08,1.63-.09,2.34-.07,6-.15,12.24,1.77,18.1Zm-13.11-39.87a3.27,3.27,0,0,0-2.5,1c-2.7,2.79-2.67,10.45-1.46,14.29,1.54,4.91,5.17,10.06,10.05,14.4a81.94,81.94,0,0,1-.62-13.66c0-.76,0-1.6.09-2.49.29-6.12.2-11.35-3.89-13.33A6.15,6.15,0,0,0,638.26,663.67Z" transform="translate(-612.87 -307.6)"/>
  </g>
</svg>
