<svg xmlns="http://www.w3.org/2000/svg" viewBox="0 0 1199.95 484.92">
  <defs>
    <style>
      .cls-1 {
        fill: #6f421f;
      }

      .cls-2 {
        fill: #f6eedd;
      }

      .cls-3 {
        fill: #5f2a34;
      }

      .cls-4 {
        fill: #eed188;
      }

      .cls-5 {
        fill: #af7544;
      }

      .cls-6 {
        fill: #4d96c9;
      }

      .cls-7 {
        fill: #c2deec;
      }

      .cls-8 {
        fill: none;
      }
    </style>
  </defs>
  <title>set-times</title>
  <g id="Layer_2" data-name="Layer 2">
    <g id="Set_Times_Desktop" data-name="Set Times Desktop">
      <g>
        <path class="cls-1" d="M917,400.12l2.8.63c6.61,1.43,13.22,2.84,19.83,4.31,2.66.59,3.15,1.45,2.61,4-.45,2.14-.84,4.3-1.27,6.45a8.47,8.47,0,0,1-.4,1.67c-1.8,4.13-2.67,8.55-4,12.82a31.49,31.49,0,0,0-1.74,9.24,6.26,6.26,0,0,1-2.23,4.79c-.87.75-1.71,1.54-2.58,2.28-2.69,2.28-7,2-10,.32a3,3,0,0,1-.52-4.72c2.48-2.59,5.37-4.72,9-5.09A3.37,3.37,0,0,0,931.9,434q1.2-4.42,2.47-8.83c.48-1.64,1-3.27,1.55-4.9.29-.94.18-1.18-.69-1.54a6,6,0,0,0-1.08-.37c-2.06-.41-4.11-.86-6.19-1.15A68.14,68.14,0,0,1,917.89,415c-2-.62-2.11-.59-3,1.27a14.23,14.23,0,0,0-1.2,3.18,67.74,67.74,0,0,0-1.17,6.76,19.12,19.12,0,0,1-6.06,11.69c-1,1-2.3,1.7-3.36,2.66-1.68,1.52-3.56,1.1-5.42.68a2.11,2.11,0,0,1-1.14-1.17,5.85,5.85,0,0,1,.77-6.7,10.59,10.59,0,0,1,2.59-2.22c2.37-1.38,4.69-3,7.65-2.9.41,0,1-.56,1.2-1a11.77,11.77,0,0,0,.7-2.76,68,68,0,0,1,2-9.5,112.41,112.41,0,0,0,2.29-11.47c.07-.37,0-.76.08-1.14C914.08,400.55,914.84,400,917,400.12Zm2.91,4.73c-2.36,0-2.42,0-3.08,2.1-.23.73-.45,1.46-.64,2.19-.31,1.19-.1,1.58,1.05,1.82,5.86,1.22,11.71,2.51,17.6,3.57,2.77.5,2.62.21,3.12-2.33.11-.56.11-1.14.22-1.7a1.3,1.3,0,0,0-1.06-1.71c-2.29-.63-4.57-1.32-6.88-1.84C926.79,406.18,923.33,405.54,919.89,404.85Z"/>
        <path class="cls-1" d="M1119.61,128.91c.09,3.72-1.59,6.81-3.57,9.79-1.31,2-2.72,3.93-3.92,6a24.67,24.67,0,0,0-1.76,4.2,1.85,1.85,0,0,0,.83,2.24,6.16,6.16,0,0,0,5.47.81,12.83,12.83,0,0,1,2.18-.64,1.93,1.93,0,0,1,1.41.67c.18.22,0,.95-.25,1.28-2.62,3.52-9.17,3.52-11.31.93a6.12,6.12,0,0,1-1.63-3.55,10,10,0,0,1,1.39-6.06c1.78-2.82,3.65-5.58,5.42-8.4a25.29,25.29,0,0,0,2.21-4,8.65,8.65,0,0,0-1.94-10,22.8,22.8,0,0,0-3.91-2.88,4.1,4.1,0,0,0-1.92-.42,1.07,1.07,0,0,0-.76.64,11.65,11.65,0,0,0-.23,1.69,21.17,21.17,0,0,1-.56,3.1c-1.56,4.86-1.92,9.92-2.58,14.93-.18,1.42-.48,2.82-.63,4.24-.45,4.27-.83,8.55-1.3,12.82a21.88,21.88,0,0,1-.73,3.94,11.77,11.77,0,0,1-8.11,8.16,11.09,11.09,0,0,0-1.62.57c-1.92,1-3.73.26-5.54-.3a1.86,1.86,0,0,1-.85-.73,14,14,0,0,1-1-1.72,5.4,5.4,0,0,1,1.36-6.94,19.79,19.79,0,0,1,11.57-4.42c1.42,0,1.59-.14,1.86-1.58.2-1,.1-2.09.22-3.13.74-6.16,1.47-12.33,2.29-18.48a26.57,26.57,0,0,1,1.08-4.75,35.1,35.1,0,0,0,1.45-9,3.66,3.66,0,0,1,2.45-3.47,1.94,1.94,0,0,1,1.35-.13,35.45,35.45,0,0,1,4.31,2.17,16.24,16.24,0,0,1,6.08,6.69A9.09,9.09,0,0,1,1119.61,128.91Z"/>
        <path class="cls-1" d="M878.31,87.52l3.09-.34c.56-.07,1.13-.12,1.69-.24a1.59,1.59,0,0,0,1.38-1.59c.29-4.46.85-8.9,1.1-13.37a38.08,38.08,0,0,1,1.14-9,20.55,20.55,0,0,0,.49-4.53c.08-1.14.06-2.29.11-3.43a4.91,4.91,0,0,1,.09-.85c.27-1.12,1.07-2,1.83-1.94s1.43.84,1.51,2.13a17.5,17.5,0,0,1,0,2.29c-.55,8-1.19,16-1.64,24-.21,3.81-1,7.57-.67,11.42.19,2.35-1.52,3.65-3.34,4.57a38.8,38.8,0,0,1-5.34,2.07,6.56,6.56,0,0,1-4.73-.48,4.25,4.25,0,0,1-2.19-3.79c-.27-3,1.57-4.74,3.93-6.09a10.58,10.58,0,0,1,1.6-.61Z"/>
        <path class="cls-1" d="M1193.84,312.93a31.71,31.71,0,0,0-1.63-6.55,12,12,0,0,1-.91-3,61.34,61.34,0,0,0-3.3-12.65,21.16,21.16,0,0,1-.94-4.17,4,4,0,0,1,.44-2.17,1.47,1.47,0,0,1,2.71.09,6,6,0,0,1,.46,2.23,6.64,6.64,0,0,0,1,3.52,2.47,2.47,0,0,1,.49,1c.37,2.93,1.85,5.59,2,8.58a11,11,0,0,0,1.27,4.31,19.33,19.33,0,0,1,1.34,5.23,48.71,48.71,0,0,0,2.64,9.63,6.78,6.78,0,0,1-3,8.41,11.36,11.36,0,0,1-5.43,1.52,5.85,5.85,0,0,1-2.46-.62,6.72,6.72,0,0,1-3.3-9.94C1187.36,314.73,1188.69,313.82,1193.84,312.93Zm2.11,8.19c0-2.59-1.51-4.32-3.73-4.07a4.6,4.6,0,0,0-3.91,2.94c-.91,2.21.2,4.09,2.59,4.26a8.79,8.79,0,0,0,3.32-.53A2.41,2.41,0,0,0,1196,321.12Z"/>
        <path class="cls-2" d="M1196,321.12a2.41,2.41,0,0,1-1.73,2.6,8.79,8.79,0,0,1-3.32.53c-2.39-.17-3.5-2.05-2.59-4.26a4.6,4.6,0,0,1,3.91-2.94C1194.44,316.8,1196,318.53,1196,321.12Z"/>
        <path class="cls-1" d="M1.6,325.21,4,323.68q8.54-5.48,17.09-10.94c2.3-1.45,3.26-1.19,4.7,1,1.19,1.83,2.44,3.64,3.65,5.46a8.59,8.59,0,0,1,.89,1.47c1.64,4.19,4.14,7.94,6.22,11.9a31.75,31.75,0,0,0,5.29,7.78,6.23,6.23,0,0,1,1.8,5c-.09,1.14-.13,2.29-.22,3.43-.29,3.52-3.52,6.38-6.84,7.26a3,3,0,0,1-3.69-3c-.08-3.59.46-7.13,2.81-10a3.38,3.38,0,0,0,.34-4.39q-2.26-4-4.47-8c-.83-1.51-1.58-3.05-2.37-4.57-.45-.87-.71-1-1.57-.6a6.09,6.09,0,0,0-1,.49c-1.74,1.17-3.51,2.3-5.19,3.55a67.93,67.93,0,0,1-8.66,5.58c-1.89,1-1.91,1.07-1.24,3a14,14,0,0,0,1.4,3.11,65.91,65.91,0,0,0,3.94,5.62,19.12,19.12,0,0,1,3.95,12.55c0,1.42-.43,2.84-.51,4.26C20.21,366,18.57,367,17,368a2.17,2.17,0,0,1-1.64,0,5.85,5.85,0,0,1-4.18-5.29,10.22,10.22,0,0,1,.27-3.4c.7-2.66,1.24-5.41,3.37-7.46a1.73,1.73,0,0,0,.15-1.55,12.23,12.23,0,0,0-1.45-2.46,66.64,66.64,0,0,1-5.29-8.13,112.76,112.76,0,0,0-6.47-9.75c-.21-.31-.52-.56-.75-.86C-.15,327.56,0,326.6,1.6,325.21Zm5.4,1.3c-1.69,1.64-1.71,1.71-.7,3.67.35.67.71,1.34,1.09,2,.62,1.06,1,1.19,2,.54,5-3.27,10.07-6.49,15-9.89,2.32-1.6,2-1.69.57-3.85-.31-.47-.73-.88-1-1.36a1.31,1.31,0,0,0-2-.46c-2.07,1.17-4.17,2.28-6.18,3.55C12.83,322.58,9.93,324.57,7,326.51Z"/>
        <path class="cls-1" d="M164.55,111.92c1.64,3.34,1.41,6.85.88,10.39-.36,2.36-.82,4.7-1,7.08a25.7,25.7,0,0,0,.17,4.55,1.84,1.84,0,0,0,1.69,1.68,6.17,6.17,0,0,0,5.31-1.56,13.14,13.14,0,0,1,1.7-1.5,2,2,0,0,1,1.57,0c.26.13.39.87.31,1.27-.89,4.29-6.83,7-9.87,5.6a6.09,6.09,0,0,1-3-2.54,10,10,0,0,1-1.29-6.07c.43-3.31,1-6.6,1.39-9.91a26.89,26.89,0,0,0,.31-4.56,8.65,8.65,0,0,0-6-8.27,21.86,21.86,0,0,0-4.76-1,4,4,0,0,0-1.92.42,1.08,1.08,0,0,0-.43.9,11.07,11.07,0,0,0,.51,1.64,19.43,19.43,0,0,1,.79,3c.63,5.07,2.44,9.81,3.95,14.63.43,1.36.75,2.76,1.21,4.11,1.39,4.07,2.84,8.11,4.22,12.18a22.53,22.53,0,0,1,1,3.88,11.77,11.77,0,0,1-3.92,10.81,10,10,0,0,0-1.23,1.21c-1.31,1.72-3.27,1.8-5.15,2.05a1.89,1.89,0,0,1-1.08-.3,15,15,0,0,1-1.64-1.14,5.41,5.41,0,0,1-1.68-6.87,19.75,19.75,0,0,1,8.63-8.87c1.27-.65,1.39-.81,1-2.22-.25-1-.79-1.94-1.11-2.94-1.93-5.9-3.86-11.8-5.71-17.72a25.16,25.16,0,0,1-1-4.77,35.3,35.3,0,0,0-2.49-8.78,3.68,3.68,0,0,1,.77-4.18,2,2,0,0,1,1.17-.69,36.92,36.92,0,0,1,4.82.16,16.21,16.21,0,0,1,8.33,3.51A9,9,0,0,1,164.55,111.92Z"/>
        <path class="cls-1" d="M5.54,81.87l3.08-.35a16.15,16.15,0,0,0,1.7-.23,1.58,1.58,0,0,0,1.37-1.59c.29-4.46.85-8.9,1.11-13.37a37.58,37.58,0,0,1,1.14-9,21.24,21.24,0,0,0,.48-4.53c.08-1.14.07-2.29.11-3.43a4,4,0,0,1,.1-.85c.26-1.12,1.07-2,1.83-1.95s1.42.85,1.51,2.14a17.51,17.51,0,0,1,0,2.29c-.55,8-1.18,16-1.63,24-.21,3.81-1,7.57-.68,11.42.2,2.34-1.51,3.65-3.34,4.57A38.27,38.27,0,0,1,6.94,93a6.54,6.54,0,0,1-4.72-.47A4.24,4.24,0,0,1,0,88.74C-.24,85.73,1.6,84,4,82.66a10.7,10.7,0,0,1,1.61-.61Z"/>
        <path class="cls-1" d="M144.12,441.33a31.53,31.53,0,0,0,.6-6.72,13.08,13.08,0,0,1,.12-3.13,60.59,60.59,0,0,0,1-13,21.71,21.71,0,0,1,.48-4.25,4.08,4.08,0,0,1,1.13-1.9,1.47,1.47,0,0,1,2.53,1,6,6,0,0,1-.3,2.25,6.53,6.53,0,0,0-.19,3.66,2.78,2.78,0,0,1,.13,1.13c-.62,2.89-.09,5.89-.89,8.78a10.87,10.87,0,0,0-.21,4.49,19.37,19.37,0,0,1-.45,5.38,48.09,48.09,0,0,0-.66,10,6.79,6.79,0,0,1-5.61,6.95,11.3,11.3,0,0,1-5.63-.34,5.87,5.87,0,0,1-2.12-1.39,6.73,6.73,0,0,1,.14-10.48C137.41,440.9,139,440.48,144.12,441.33Zm-.69,8.43c.89-2.43,0-4.57-2.19-5.07a4.6,4.6,0,0,0-4.66,1.5c-1.59,1.79-1.15,3.93,1,4.87a8.63,8.63,0,0,0,3.31.59A2.42,2.42,0,0,0,143.43,449.76Z"/>
        <path class="cls-3" d="M997.77,234.17a17.24,17.24,0,0,0-1.55,1,23.3,23.3,0,0,1-9,3.15c1.09-1,1.59-1.49,2.16-1.92a23.16,23.16,0,0,0,5.9-6.15,16.25,16.25,0,0,0,1.24-3.05c0-.11-.23-.37-.4-.52a.38.38,0,0,0-.36,0,17.48,17.48,0,0,0-1.23,1.37,24,24,0,0,1-9.3,7.51q2.33-3.56,4.64-7.12a44.88,44.88,0,0,0,2.74-4.41c.7-1.42.76-2.94-.88-3.93-1.43-.87-1.57-2.11-1.07-3.55a4.73,4.73,0,0,0,.25-1.1c.38-3.82-.3-4.46-4-3.7-2.06.43-4.24,1.07-6.24.79-3.1-.43-5.61.73-8.2,1.9a2.68,2.68,0,0,0-1.93,2.5c0,1.37-.92,1.88-2,2.54a47.87,47.87,0,0,1-3.78-5.06,3,3,0,0,0-3.6-1.75c-3.54.63-7.11,1.09-10.65,1.7-1.32.23-2.84-.48-4,.62-1.4,1.38,0,2.81.12,4.21.21,2.39,0,2.77-2.45,3.71-1.82.7-2.12,1.42-1.43,3.43a35.24,35.24,0,0,1,1.52,4.59,8.9,8.9,0,0,0,3.79,5.74c1.51,1.09,3,2.23,4.54,3.24,2,1.29,3.2,2.73,1.48,5.07a1.36,1.36,0,0,0-.16.73,1.79,1.79,0,0,0,1,1.86c3.64,1.64,7.27,3.21,11.46,2.17a40.08,40.08,0,0,1,4.8-.59c4.74-.62,8.59-2.41,9.91-7.55.05-.2.31-.34.54-.59a12.11,12.11,0,0,0,6.56-.24,25.92,25.92,0,0,0,8.26-3.3,13.26,13.26,0,0,0,2.31-2.36.69.69,0,0,0,0-.67C998.44,234.28,998,234.07,997.77,234.17Zm-23.2-17.46c1.38-.5,2.95-1.53,4.16-1.22,3.21.8,6.06-.32,9.69-1a16.23,16.23,0,0,1-.86,2.75,2.13,2.13,0,0,1-1.37,1.08c-3.57.17-7.16.22-10.74.3a1.22,1.22,0,0,1-.69-.24c-.27-.22-.64-.49-.67-.78A1,1,0,0,1,974.57,216.71Zm-21.81.25c2-.35,3.94-.45,5.9-.78a4.23,4.23,0,0,1,4.52,1.81c1.24,1.67,2.68,3.21,4,4.8.24.28.49.72.77.76,3.49.43,2.23,3.21,2.58,5.17,0,.14-.25.43-.43.47a.74.74,0,0,1-.65-.18c-1-1.26-2-2.55-2.93-3.85-.6-.79-1.15-1.62-1.75-2.41a5.9,5.9,0,0,0-5.16-2.33,42.36,42.36,0,0,0-9.61,1.2,4.56,4.56,0,0,1-.39-.62C949.29,217.61,949.17,217.6,952.76,217Zm2.09,21.19c-1.4-1.22-3-2.27-4.45-3.37-2.75-2-3.46-5-4-8.11a1.68,1.68,0,0,1,1-1.31c3.58-.41,6.86-2.43,9.77-2a28.42,28.42,0,0,1,3.43.18,3,3,0,0,1,1.58.83,42,42,0,0,1,3.69,4.64,9,9,0,0,0,2.77,2.92,10,10,0,0,1,2.38,2.34,1.48,1.48,0,0,1-1,2.48c-4,.71-8.06,1.37-12.08,2.15A3.21,3.21,0,0,1,954.85,238.15Zm22.88,4.5a8.06,8.06,0,0,1-1.79,2.27,5.81,5.81,0,0,1-2,.94c-3.93,1.3-8,1.32-12.1,1.56-.88.05-1.82-.7-2.71-1.1-1.7-.76-2.06-1.78-.79-2.9a10.66,10.66,0,0,1,4-2.48,76.91,76.91,0,0,1,8.3-1.28c1.88.31,4,.61,6,1A1.39,1.39,0,0,1,977.73,242.65Zm4.63-7.42a8.51,8.51,0,0,1-1.25,1.37c-1.24,1.23-4.52,1.29-5.72.08a2,2,0,0,1-.43-1,46.19,46.19,0,0,1-1.09-5c-.29-2.32-.23-4.66-1-6.93-.47-1.33.07-1.69,1.72-1.82,2.71-.21,5.4-.53,8.57-.84,1.53.24,3.48.49,5.41.87,1.31.26,1.69,1.1,1.05,2.11Q986,229.66,982.36,235.23Z"/>
        <path class="cls-4" d="M970,236.75a1.48,1.48,0,0,0,1-2.48,10,10,0,0,0-2.38-2.34,9,9,0,0,1-2.77-2.92,42,42,0,0,0-3.69-4.64,3,3,0,0,0-1.58-.83,28.42,28.42,0,0,0-3.43-.18c-2.91-.43-6.19,1.59-9.77,2a1.68,1.68,0,0,0-1,1.31c.57,3.07,1.28,6.11,4,8.11,1.5,1.1,3.05,2.15,4.45,3.37a3.21,3.21,0,0,0,3.06.75C961.93,238.12,966,237.46,970,236.75Z"/>
        <path class="cls-4" d="M988.53,221.94c-1.93-.38-3.88-.63-5.41-.87-3.17.31-5.86.63-8.57.84-1.65.13-2.19.49-1.72,1.82.81,2.27.75,4.61,1,6.93a46.19,46.19,0,0,0,1.09,5,2,2,0,0,0,.43,1c1.2,1.21,4.48,1.15,5.72-.08a8.51,8.51,0,0,0,1.25-1.37q3.64-5.56,7.22-11.18C990.22,223,989.84,222.2,988.53,221.94Z"/>
        <path class="cls-4" d="M976.69,240.67c-2.05-.4-4.13-.7-6-1a76.91,76.91,0,0,0-8.3,1.28,10.66,10.66,0,0,0-4,2.48c-1.27,1.12-.91,2.14.79,2.9.89.4,1.83,1.15,2.71,1.1,4.06-.24,8.17-.26,12.1-1.56a5.81,5.81,0,0,0,2-.94,8.06,8.06,0,0,0,1.79-2.27A1.39,1.39,0,0,0,976.69,240.67Z"/>
        <path class="cls-5" d="M950,221.62a42.36,42.36,0,0,1,9.61-1.2,5.9,5.9,0,0,1,5.16,2.33c.6.79,1.15,1.62,1.75,2.41,1,1.3,1.93,2.59,2.93,3.85a.74.74,0,0,0,.65.18c.18,0,.45-.33.43-.47-.35-2,.91-4.74-2.58-5.17-.28,0-.53-.48-.77-.76-1.36-1.59-2.8-3.13-4-4.8a4.23,4.23,0,0,0-4.52-1.81c-2,.33-3.95.43-5.9.78-3.59.64-3.47.65-3.11,4A4.56,4.56,0,0,0,950,221.62Z"/>
        <path class="cls-5" d="M974.76,218.36a1.22,1.22,0,0,0,.69.24c3.58-.08,7.17-.13,10.74-.3a2.13,2.13,0,0,0,1.37-1.08,16.23,16.23,0,0,0,.86-2.75c-3.63.7-6.48,1.82-9.69,1-1.21-.31-2.78.72-4.16,1.22a1,1,0,0,0-.48.87C974.12,217.87,974.49,218.14,974.76,218.36Z"/>
        <path class="cls-3" d="M13.15,194.37a.69.69,0,0,0,0,.67,12.93,12.93,0,0,0,2.31,2.36,25.64,25.64,0,0,0,8.25,3.3,12.12,12.12,0,0,0,6.56.24c.23.25.49.39.54.6,1.32,5.13,5.18,6.92,9.92,7.54a40.08,40.08,0,0,1,4.8.59c4.19,1,7.82-.53,11.46-2.17a1.78,1.78,0,0,0,.94-1.86,1.27,1.27,0,0,0-.15-.73c-1.72-2.34-.53-3.78,1.48-5.07,1.56-1,3-2.15,4.54-3.24a8.93,8.93,0,0,0,3.79-5.74,35.24,35.24,0,0,1,1.52-4.59c.69-2,.39-2.73-1.43-3.42-2.49-.95-2.67-1.33-2.46-3.71.13-1.4,1.53-2.84.13-4.22-1.11-1.1-2.63-.39-3.95-.62-3.54-.61-7.11-1.07-10.65-1.69a3,3,0,0,0-3.61,1.74,45.27,45.27,0,0,1-3.78,5.06c-1.12-.66-2.08-1.17-2-2.54a2.66,2.66,0,0,0-1.93-2.49c-2.59-1.18-5.1-2.34-8.2-1.91-2,.28-4.18-.36-6.24-.78-3.75-.77-4.43-.13-4,3.7a4.77,4.77,0,0,0,.25,1.09c.49,1.44.35,2.68-1.08,3.55-1.63,1-1.57,2.51-.88,3.93a47.11,47.11,0,0,0,2.75,4.42q2.31,3.56,4.64,7.11a23.79,23.79,0,0,1-9.3-7.51c-.37-.48-.81-.92-1.23-1.37a.38.38,0,0,0-.36,0c-.17.15-.45.41-.41.52a17,17,0,0,0,1.24,3.05,23,23,0,0,0,5.91,6.15c.56.43,1.07.95,2.16,1.92a23.3,23.3,0,0,1-8.95-3.15,17.24,17.24,0,0,0-1.55-1C13.85,194,13.41,194.19,13.15,194.37Zm24.61-16.88c0,.29-.4.56-.67.78a1.22,1.22,0,0,1-.69.24c-3.58-.07-7.17-.13-10.75-.3a2.13,2.13,0,0,1-1.36-1.07,16.84,16.84,0,0,1-.86-2.75c3.63.69,6.47,1.81,9.69,1,1.21-.31,2.78.72,4.15,1.22A1,1,0,0,1,37.76,177.49Zm24.43,3.42c0,.11-.12.2-.38.62a42.43,42.43,0,0,0-9.61-1.2A5.89,5.89,0,0,0,47,182.66c-.6.79-1.15,1.62-1.75,2.41-1,1.3-1.93,2.59-2.93,3.85a.77.77,0,0,1-.66.18c-.17,0-.44-.33-.42-.47.35-2-.92-4.74,2.57-5.17.29,0,.54-.48.77-.76,1.37-1.59,2.8-3.12,4.05-4.8a4.23,4.23,0,0,1,4.52-1.81c2,.33,4,.44,5.89.78C62.68,177.51,62.55,177.52,62.19,180.91Zm-8.26,17.9c-4-.78-8-1.44-12.07-2.15a1.49,1.49,0,0,1-1-2.48,10,10,0,0,1,2.39-2.34A9.1,9.1,0,0,0,46,188.92a42,42,0,0,1,3.69-4.64,3,3,0,0,1,1.58-.83,28.42,28.42,0,0,1,3.43-.18c2.91-.43,6.19,1.6,9.77,2a1.68,1.68,0,0,1,1,1.31c-.57,3.07-1.28,6.11-4,8.11-1.51,1.1-3.05,2.15-4.45,3.37A3.24,3.24,0,0,1,53.93,198.81Zm-18.77,1.77c2.05-.4,4.12-.7,6-1a76.33,76.33,0,0,1,8.29,1.28,10.58,10.58,0,0,1,4,2.48c1.28,1.12.92,2.14-.78,2.9-.9.41-1.83,1.15-2.71,1.1-4.06-.24-8.18-.25-12.1-1.56a5.72,5.72,0,0,1-2-.94,8.1,8.1,0,0,1-1.8-2.27A1.4,1.4,0,0,1,35.16,200.58ZM22.27,184c-.65-1-.26-1.85,1.05-2.11,1.93-.38,3.88-.63,5.41-.87,3.16.32,5.86.63,8.57.84,1.65.13,2.19.49,1.71,1.82-.81,2.27-.75,4.61-1,6.93a49.41,49.41,0,0,1-1.09,5.05,2,2,0,0,1-.43,1c-1.2,1.21-4.48,1.15-5.72-.08a8.07,8.07,0,0,1-1.25-1.37Q25.85,189.58,22.27,184Z"/>
        <path class="cls-6" d="M41.86,196.66a1.49,1.49,0,0,1-1-2.48,10,10,0,0,1,2.39-2.34A9.1,9.1,0,0,0,46,188.92a42,42,0,0,1,3.69-4.64,3,3,0,0,1,1.58-.83,28.42,28.42,0,0,1,3.43-.18c2.91-.43,6.19,1.6,9.77,2a1.68,1.68,0,0,1,1,1.31c-.57,3.07-1.28,6.11-4,8.11-1.51,1.1-3.05,2.15-4.45,3.37a3.24,3.24,0,0,1-3.07.75C49.92,198,45.89,197.37,41.86,196.66Z"/>
        <path class="cls-6" d="M23.32,181.85c1.93-.38,3.88-.63,5.41-.87,3.16.32,5.86.63,8.57.84,1.65.13,2.19.49,1.71,1.82-.81,2.27-.75,4.61-1,6.93a49.41,49.41,0,0,1-1.09,5.05,2,2,0,0,1-.43,1c-1.2,1.21-4.48,1.15-5.72-.08a8.07,8.07,0,0,1-1.25-1.37q-3.64-5.56-7.22-11.18C21.62,183,22,182.11,23.32,181.85Z"/>
        <path class="cls-4" d="M35.16,200.58c2.05-.4,4.12-.7,6-1a76.33,76.33,0,0,1,8.29,1.28,10.58,10.58,0,0,1,4,2.48c1.28,1.12.92,2.14-.78,2.9-.9.41-1.83,1.15-2.71,1.1-4.06-.24-8.18-.25-12.1-1.56a5.72,5.72,0,0,1-2-.94,8.1,8.1,0,0,1-1.8-2.27A1.4,1.4,0,0,1,35.16,200.58Z"/>
        <path class="cls-7" d="M61.81,181.53a42.43,42.43,0,0,0-9.61-1.2A5.89,5.89,0,0,0,47,182.66c-.6.79-1.15,1.62-1.75,2.41-1,1.3-1.93,2.59-2.93,3.85a.77.77,0,0,1-.66.18c-.17,0-.44-.33-.42-.47.35-2-.92-4.74,2.57-5.17.29,0,.54-.48.77-.76,1.37-1.59,2.8-3.12,4.05-4.8a4.23,4.23,0,0,1,4.52-1.81c2,.33,4,.44,5.89.78,3.6.64,3.47.65,3.11,4C62.18,181,62.07,181.11,61.81,181.53Z"/>
        <path class="cls-7" d="M37.09,178.27a1.22,1.22,0,0,1-.69.24c-3.58-.07-7.17-.13-10.75-.3a2.13,2.13,0,0,1-1.36-1.07,16.84,16.84,0,0,1-.86-2.75c3.63.69,6.47,1.81,9.69,1,1.21-.31,2.78.72,4.15,1.22a1,1,0,0,1,.49.87C37.72,177.78,37.36,178.05,37.09,178.27Z"/>
        <path class="cls-1" d="M1091.05,413.36c-1.19,1.21-1.15,2.58-1.2,3.85-.07,1.9.09,3.81,0,5.71-.2,5.81.06,11.65-1.42,17.36a6.57,6.57,0,0,1-2.65,3.94,5.2,5.2,0,0,1-4.33.79,22,22,0,0,1-7.23-2.58,3.22,3.22,0,0,0-1.33-.5c-2.24-.24-3.78-1.71-5.45-3-1-.74-2-1.46-3-2.17-.78-.55-1.59-1.05-2.37-1.59a18.13,18.13,0,0,0-2.35-1.61,20.52,20.52,0,0,1-8.41-7.52,29.08,29.08,0,0,1-2.86-4.94,18.46,18.46,0,0,1,0-15.29,16.07,16.07,0,0,1,6.28-6,27.74,27.74,0,0,0,4.18-2.43,4.74,4.74,0,0,1,3.48-.91,8,8,0,0,0,5-.62c.84-.43,2-.19,3-.24a20.65,20.65,0,0,0-6.14-1.9,13.83,13.83,0,0,1-1.7-.2c-3.45-.76-6.89-1.55-10.33-2.31a8.18,8.18,0,0,0-1.7-.23,17.91,17.91,0,0,1-7.65-2.11,7.06,7.06,0,0,1-1.4-1,15.55,15.55,0,0,1-3.85-5.62,5.26,5.26,0,0,1-.08-3.92c.91-2.91,1.65-5.9,2.81-8.71a35.42,35.42,0,0,1,3.27-5.36c.3-.49.71-.91,1-1.4a.85.85,0,0,0,0-.74.88.88,0,0,0-.76-.17c-2.75.94-5.44.56-8.17-.17a7.65,7.65,0,0,1-5.79-5.37,3.57,3.57,0,0,1-.21-1.11c.24-9.42,6.63-14.4,14.49-14.36a24.08,24.08,0,0,1,3.49.54,4.23,4.23,0,0,0-.55-.94c-2.68-2.26-4-5.32-4.92-8.57a15.35,15.35,0,0,1,.39-8.76c.91-3.15,3.63-4.68,6.67-5.18a7.1,7.1,0,0,1,7.59,3.44c1.69,2.66,3.43,5.28,5.15,7.92a2.08,2.08,0,0,0,.41.37c1.16-1.83,2.35-3.65,3.48-5.5a17.83,17.83,0,0,1,5.75-5.9,7.74,7.74,0,0,1,7.39-.78c.52.22,1,.53,1.56.71a4.26,4.26,0,0,1,2.46,2.62,9.89,9.89,0,0,1,.28,7.8c-1,2.39-1.79,4.84-2.86,7.18a34.3,34.3,0,0,1-2.53,4c.54.21,1,.42,1.54.58,1.37.42,2.78.72,4.1,1.26a10,10,0,0,1,6.33,7.89,5.86,5.86,0,0,1-1.56,5c-2.76,2.91-5.7,5.71-9.94,6.32-1.12.16-2.26.16-3.53.25.66,3.79,1.2,7.44,3.11,10.72a10.48,10.48,0,0,1,1.15,2.61c.93,3.43,3,6.16,5.18,8.82.1.12.35.12.55.19.44-4.53.87-9.06,1.35-13.59a18.24,18.24,0,0,1,.58-2.51c.81-3.24,1.32-6.59,2.5-9.68a33.55,33.55,0,0,1,9.49-14.12c2.8-2.35,6.09-2.4,9.22-.35a10.26,10.26,0,0,0,1.54.71,17.82,17.82,0,0,1,5.82,4.08,34.51,34.51,0,0,0,4.7,4.58,15.18,15.18,0,0,1,2.62,3c2.31,2.9,4.68,5.76,6.88,8.75a14.18,14.18,0,0,1,2.85,10.5,1.89,1.89,0,0,1-1.06,1.56,54.11,54.11,0,0,1-6.91,3.42c-3.31,1.22-6.55,2.59-9.92,3.67a52.16,52.16,0,0,0-7.73,3.71c-1.5.79-3.27,1.11-4.7,2.68a5.64,5.64,0,0,0,1.33.15,42.41,42.41,0,0,0,4.5-.82,9.19,9.19,0,0,1,4.8.13c1.74.46,3.43,1.22,5.3,1,4.08,1.35,8.35,2.45,11.64,5.29,4.17,3.59,7.64,7.77,7.84,13.74a11.11,11.11,0,0,1-3.38,9,36.31,36.31,0,0,0-6.6,8.55,27.61,27.61,0,0,1-7.05,8.18c-1.92,1.53-4,2.91-5.49,4.95a6.16,6.16,0,0,1-1.33,1.08c-1.58,1.22-3.14,2.47-4.76,3.64a15.23,15.23,0,0,1-2.24,1.24,4,4,0,0,1-5-.75,12.21,12.21,0,0,1-3.93-6.17c-.89-4.1-1.75-8.22-2.81-12.28A134.36,134.36,0,0,0,1091.05,413.36Zm2.33-17.77c0-.28,0-.57,0-.86a3.71,3.71,0,0,1,1.1-3c1.8-2.11,4.25-3.22,6.34-4.86a27.69,27.69,0,0,1,4.11-2.51c1.52-.79,3.15-1.35,4.65-2.17a37.08,37.08,0,0,1,7.4-3,85.36,85.36,0,0,0,8.5-3.31c1-.4,1.82-1,2.75-1.53a2.09,2.09,0,0,0,1-2.15,8,8,0,0,0-1.85-4.73c-3.57-4.83-6.89-9.87-11.57-13.76a8.24,8.24,0,0,1-1.37-1.46,11,11,0,0,0-3.93-3.25,29.19,29.19,0,0,1-3.78-2,4,4,0,0,0-4.55-.3,9.85,9.85,0,0,0-3.29,2.22,46.82,46.82,0,0,0-5.8,8.82c-1.45,2.85-1.75,6-2.58,9a69.6,69.6,0,0,0-2.15,18.42c0,.68.12,1.35,1.07,1.59.19-.4.4-.81.56-1.24,1-2.5,1.77-5.06,2.88-7.48a35,35,0,0,1,3.31-5.67c1.09-1.53,2.26-1.62,3.74-.74.58.35.64,1.11,0,1.36-2,.84-3,2.6-3.79,4.44s-1.69,3.84-2.39,5.81a24,24,0,0,0-1.68,8.36,5.78,5.78,0,0,0,1.33,4c.1.95.25,1.9.29,2.85s-.37,1.86,0,2.47,1.46,1.17,2.25,1.71c.63.43,1.32.77,1.92,1.25,1.19.95,2.38,1.92,3.48,3a1.13,1.13,0,0,1-.1,1.57c-.46.57-1,.43-1.5.05a5,5,0,0,1-.43-.37c-3.2-3-6.88-4.76-11.37-4.52a3.62,3.62,0,0,1-1.14-.07,5.18,5.18,0,0,1-3.22-2.18c-1.3-2,.17-4.11-.19-6.18-.13-.75.65-1.73,1.17-2.49a6.33,6.33,0,0,1,1.66-1.56,12.08,12.08,0,0,1,1.89-.88c-.87-.7-1.58-1.33-2.34-1.87a25.08,25.08,0,0,1-8.48-10.22,91.29,91.29,0,0,1-5-13.72,65,65,0,0,0-3.82-9.86,14,14,0,0,0-3.81-5,2.3,2.3,0,0,0-2.38-.52,6.23,6.23,0,0,0-1.87.69c-2,1.5-3.87,3.09-5.8,4.66-2.18,3.67-5.91,6.3-7.16,10.61-.12.43-.6.74-.82,1.16-1.44,2.68-3.37,5.11-4.24,8.09-.53,1.84-1.05,3.67-1.52,5.52a2.89,2.89,0,0,0-.12,1.68c1.09,2.53,2.7,4.63,5.55,5.31,2.12.51,4.28.84,6.42,1.29,3.45.72,6.89,1.51,10.35,2.2,1.59.32,3.23.38,4.8.76,3.7.91,7.37,1.95,11.06,2.93,1,.27,1.49,1,1.49,2.4a1.67,1.67,0,0,1-1.51,1.78c-1.3.32-2.62.54-3.9.92a11.46,11.46,0,0,1-5.07.63,4.24,4.24,0,0,0-2.22.31,8,8,0,0,1-4.49.56,5.25,5.25,0,0,0-4.46,1.4,8.11,8.11,0,0,1-2.57,1.72c-3.21,1-4.79,3.39-5.59,6.35a15.38,15.38,0,0,0-.07,7.36,17.58,17.58,0,0,0,3.83,7.59,26.68,26.68,0,0,0,5.21,4.86c3.59,2.49,7.3,4.82,10.82,7.44a12.2,12.2,0,0,0,2.26,1.2c1,.47,2.1.9,3.17,1.3,1.86.7,3.61,1.72,5.72,1.64s3.26-.85,3.78-2.76a20.57,20.57,0,0,0,.91-4.49c.2-5.71.94-11.43.29-17.15-.38-3.31,1-5.94,2.76-8.52a2.06,2.06,0,0,1,3.56.17,5.87,5.87,0,0,1,.63,1.58c1,3.48,2,7,3,10.44.14.46.23.94.41,1.38a49.24,49.24,0,0,1,2.57,10.24,47.7,47.7,0,0,0,2.51,7.89c.47,1.28,1.68,2,2.76,2.8.93-.4,1.87-.77,2.78-1.21a4.28,4.28,0,0,0,.9-.7c2.65-2.31,5.58-4.28,8-6.88a29.43,29.43,0,0,1,2.48-2.39,42.57,42.57,0,0,0,6.78-7.72c1.46-2,3-4,4.4-6a48,48,0,0,0,3.29-5,6.59,6.59,0,0,0,.78-3.28,13.68,13.68,0,0,0-5-9.93c-3.35-2.87-7.44-4.2-11.67-5.13-2-.43-3.92-.83-5.89-1.14a10.21,10.21,0,0,0-3.38-.21c-3.56.66-7.09,1.49-10.62,2.31a4.44,4.44,0,0,1-3.07-.07A3,3,0,0,0,1093.38,395.59ZM1044.28,358c3.33-.15,5.65-2.28,7.58-5.06a10.87,10.87,0,0,1,2.17-2.27c1.8-1.41,3.66-2.75,5.54-4.06a5,5,0,0,1,6.58.36,10,10,0,0,1,1.73,1.89c1.49,2.22,3,4.44,4.33,6.74,1.46,2.5,3.53,3,5.79,1.92,1.28-.63,2.46-1.47,3.75-2.05a9.55,9.55,0,0,0,3.52-2.84c2.13-2.61,1.52-5.65-1.57-6.92-1.39-.58-2.93-.79-4.37-1.26-2.42-.8-4.7-.77-6.8.85a1.71,1.71,0,0,1-.5.26A1.82,1.82,0,0,1,1070,345a1.47,1.47,0,0,1-.12-1.87,10.35,10.35,0,0,1,1.43-1.74c.89-.86,1.91-1.59,2.77-2.48,1.72-1.79,3.46-3.66,4.21-6.05a42.68,42.68,0,0,1,2.08-5.31,6,6,0,0,0,.49-3.63,3,3,0,0,0-1.8-2.4c-2.16-1-4.09-.3-5.94.83s-3.16,3-4.55,4.71c-2.74,3.34-4.11,7.07-3.32,11.43a5.77,5.77,0,0,1,0,1.71,1.59,1.59,0,0,1-1.47,1.49,1.46,1.46,0,0,1-1.5-1.1,12,12,0,0,1-.69-3.06,9.83,9.83,0,0,0-1.28-4.66c-1.61-2.91-3.31-5.78-5-8.63a4.76,4.76,0,0,0-2.61-2.13,5.73,5.73,0,0,0-7.28,4.13c-1.21,5.55,2.35,11.84,5.88,13.63.59.3,1.17.65,1.78.92s1.35.75,1.2,1.7a1.77,1.77,0,0,1-1.55,1.46c-1,.27-2,.59-3.06.8a3.38,3.38,0,0,1-1.67,0,12.59,12.59,0,0,0-7.86.38,9.31,9.31,0,0,0-6.66,8.4c-.07,2.75,1.08,4.56,3.89,5.16A11.9,11.9,0,0,0,1044.28,358Zm46.43,38.67a13.76,13.76,0,0,0-1.35-1.85,1.4,1.4,0,0,0-2.23.05,17,17,0,0,0-1.57,3.28c-.12.32.2.91.47,1.24a2.91,2.91,0,0,0,3.61.37A2.37,2.37,0,0,0,1090.71,396.65Z"/>
        <path class="cls-4" d="M1093.38,395.59a3,3,0,0,1,1.12,0,4.44,4.44,0,0,0,3.07.07c3.53-.82,7.06-1.65,10.62-2.31a10.21,10.21,0,0,1,3.38.21c2,.31,3.94.71,5.89,1.14,4.23.93,8.32,2.26,11.67,5.13a13.68,13.68,0,0,1,5,9.93,6.59,6.59,0,0,1-.78,3.28,48,48,0,0,1-3.29,5c-1.43,2-2.94,4-4.4,6a42.57,42.57,0,0,1-6.78,7.72,29.43,29.43,0,0,0-2.48,2.39c-2.39,2.6-5.32,4.57-8,6.88a4.28,4.28,0,0,1-.9.7c-.91.44-1.85.81-2.78,1.21-1.08-.78-2.29-1.52-2.76-2.8a47.7,47.7,0,0,1-2.51-7.89A49.24,49.24,0,0,0,1097,422c-.18-.44-.27-.92-.41-1.38-1-3.48-2-7-3-10.44a5.87,5.87,0,0,0-.63-1.58,2.06,2.06,0,0,0-3.56-.17c-1.71,2.58-3.14,5.21-2.76,8.52.65,5.72-.09,11.44-.29,17.15a20.57,20.57,0,0,1-.91,4.49c-.52,1.91-1.82,2.69-3.78,2.76s-3.86-.94-5.72-1.64c-1.07-.4-2.13-.83-3.17-1.3a12.2,12.2,0,0,1-2.26-1.2c-3.52-2.62-7.23-4.95-10.82-7.44a26.68,26.68,0,0,1-5.21-4.86,17.58,17.58,0,0,1-3.83-7.59,15.38,15.38,0,0,1,.07-7.36c.8-3,2.38-5.36,5.59-6.35a8.11,8.11,0,0,0,2.57-1.72,5.25,5.25,0,0,1,4.46-1.4,8,8,0,0,0,4.49-.56,4.24,4.24,0,0,1,2.22-.31A11.46,11.46,0,0,0,1075,399c1.28-.38,2.6-.6,3.9-.92a1.67,1.67,0,0,0,1.51-1.78c0-1.42-.46-2.13-1.49-2.4-3.69-1-7.36-2-11.06-2.93-1.57-.38-3.21-.44-4.8-.76-3.46-.69-6.9-1.48-10.35-2.2-2.14-.45-4.3-.78-6.42-1.29-2.85-.68-4.46-2.78-5.55-5.31a2.89,2.89,0,0,1,.12-1.68c.47-1.85,1-3.68,1.52-5.52.87-3,2.8-5.41,4.24-8.09.22-.42.7-.73.82-1.16,1.25-4.31,5-6.94,7.16-10.61,1.93-1.57,3.83-3.16,5.8-4.66a6.23,6.23,0,0,1,1.87-.69,2.3,2.3,0,0,1,2.38.52,14,14,0,0,1,3.81,5,65,65,0,0,1,3.82,9.86,91.29,91.29,0,0,0,5,13.72,25.08,25.08,0,0,0,8.48,10.22c.76.54,1.47,1.17,2.34,1.87a12.08,12.08,0,0,0-1.89.88,6.33,6.33,0,0,0-1.66,1.56c-.52.76-1.3,1.74-1.17,2.49.36,2.07-1.11,4.15.19,6.18a5.18,5.18,0,0,0,3.22,2.18,3.62,3.62,0,0,0,1.14.07c4.49-.24,8.17,1.52,11.37,4.52a5,5,0,0,0,.43.37c.51.38,1,.52,1.5-.05a1.13,1.13,0,0,0,.1-1.57c-1.1-1.06-2.29-2-3.48-3-.6-.48-1.29-.82-1.92-1.25-.79-.54-1.81-1-2.25-1.71s0-1.64,0-2.47-.19-1.9-.29-2.85Zm-31.85-17.53a3.72,3.72,0,0,0-.39,1c-.08,1.36.94,2,1.85,2.69a108.18,108.18,0,0,0,13.59,8.36,3.46,3.46,0,0,0,1.31.52,1.44,1.44,0,0,0,1.15-.47,1.27,1.27,0,0,0-.2-1.21,17.83,17.83,0,0,0-2.22-1.25c-4.49-2.48-9.07-4.81-12.8-8.44a8.13,8.13,0,0,0-1.37-1A3.35,3.35,0,0,0,1061.53,378.06Zm19.52,25.55c-.7.44-1.81,1.16-2.92,1.88-2,1.27-3.43,3.34-5.94,3.81-.65.13-.84,1.09-.5,1.69a1.57,1.57,0,0,0,1.91.88,7.71,7.71,0,0,0,2-1c2.45-1.78,4.61-4,7.47-5.18a1,1,0,0,0,.39-1.49,1.26,1.26,0,0,0-1.36-.81C1081.94,403.41,1081.75,403.46,1081.05,403.61Z"/>
        <path class="cls-4" d="M1093.42,395.55a5.78,5.78,0,0,1-1.33-4,24,24,0,0,1,1.68-8.36c.7-2,1.54-3.9,2.39-5.81s1.75-3.6,3.79-4.44c.63-.25.57-1,0-1.36-1.48-.88-2.65-.79-3.74.74a35,35,0,0,0-3.31,5.67c-1.11,2.42-1.93,5-2.88,7.48-.16.43-.37.84-.56,1.24-1-.24-1.07-.91-1.07-1.59a69.6,69.6,0,0,1,2.15-18.42c.83-3,1.13-6.17,2.58-9a46.82,46.82,0,0,1,5.8-8.82,9.85,9.85,0,0,1,3.29-2.22,4,4,0,0,1,4.55.3,29.19,29.19,0,0,0,3.78,2,11,11,0,0,1,3.93,3.25,8.24,8.24,0,0,0,1.37,1.46c4.68,3.89,8,8.93,11.57,13.76a8,8,0,0,1,1.85,4.73,2.09,2.09,0,0,1-1,2.15c-.93.5-1.79,1.13-2.75,1.53a85.36,85.36,0,0,1-8.5,3.31,37.08,37.08,0,0,0-7.4,3c-1.5.82-3.13,1.38-4.65,2.17a27.69,27.69,0,0,0-4.11,2.51c-2.09,1.64-4.54,2.75-6.34,4.86a3.71,3.71,0,0,0-1.1,3c0,.29,0,.58,0,.86Z"/>
        <path class="cls-6" d="M1044.28,358a11.9,11.9,0,0,1-7,.73c-2.81-.6-4-2.41-3.89-5.16a9.31,9.31,0,0,1,6.66-8.4,12.59,12.59,0,0,1,7.86-.38,3.38,3.38,0,0,0,1.67,0c1-.21,2-.53,3.06-.8a1.77,1.77,0,0,0,1.55-1.46c.15-.95-.45-1.37-1.2-1.7s-1.19-.62-1.78-.92c-3.53-1.79-7.09-8.08-5.88-13.63a5.73,5.73,0,0,1,7.28-4.13,4.76,4.76,0,0,1,2.61,2.13c1.74,2.85,3.44,5.72,5,8.63a9.83,9.83,0,0,1,1.28,4.66,12,12,0,0,0,.69,3.06,1.46,1.46,0,0,0,1.5,1.1,1.59,1.59,0,0,0,1.47-1.49,5.77,5.77,0,0,0,0-1.71c-.79-4.36.58-8.09,3.32-11.43,1.39-1.69,2.62-3.54,4.55-4.71s3.78-1.82,5.94-.83a3,3,0,0,1,1.8,2.4,6,6,0,0,1-.49,3.63,42.68,42.68,0,0,0-2.08,5.31c-.75,2.39-2.49,4.26-4.21,6.05-.86.89-1.88,1.62-2.77,2.48a10.35,10.35,0,0,0-1.43,1.74A1.47,1.47,0,0,0,1070,345a1.82,1.82,0,0,0,2.08.54,1.71,1.71,0,0,0,.5-.26c2.1-1.62,4.38-1.65,6.8-.85,1.44.47,3,.68,4.37,1.26,3.09,1.27,3.7,4.31,1.57,6.92a9.55,9.55,0,0,1-3.52,2.84c-1.29.58-2.47,1.42-3.75,2.05-2.26,1.1-4.33.58-5.79-1.92-1.35-2.3-2.84-4.52-4.33-6.74a10,10,0,0,0-1.73-1.89,5,5,0,0,0-6.58-.36c-1.88,1.31-3.74,2.65-5.54,4.06a10.87,10.87,0,0,0-2.17,2.27C1049.93,355.7,1047.61,357.83,1044.28,358Z"/>
        <path class="cls-2" d="M1090.71,396.65a2.37,2.37,0,0,1-1.07,3.09,2.91,2.91,0,0,1-3.61-.37c-.27-.33-.59-.92-.47-1.24a17,17,0,0,1,1.57-3.28,1.4,1.4,0,0,1,2.23-.05A13.76,13.76,0,0,1,1090.71,396.65Z"/>
        <path class="cls-1" d="M1061.53,378.06a3.35,3.35,0,0,1,.92.2,8.13,8.13,0,0,1,1.37,1c3.73,3.63,8.31,6,12.8,8.44a17.83,17.83,0,0,1,2.22,1.25,1.27,1.27,0,0,1,.2,1.21,1.44,1.44,0,0,1-1.15.47,3.46,3.46,0,0,1-1.31-.52,108.18,108.18,0,0,1-13.59-8.36c-.91-.68-1.93-1.33-1.85-2.69A3.72,3.72,0,0,1,1061.53,378.06Z"/>
        <path class="cls-1" d="M1081.05,403.61c.7-.15.89-.2,1.08-.23a1.26,1.26,0,0,1,1.36.81,1,1,0,0,1-.39,1.49c-2.86,1.21-5,3.4-7.47,5.18a7.71,7.71,0,0,1-2,1,1.57,1.57,0,0,1-1.91-.88c-.34-.6-.15-1.56.5-1.69,2.51-.47,4-2.54,5.94-3.81C1079.24,404.77,1080.35,404.05,1081.05,403.61Z"/>
        <path class="cls-1" d="M144.25,275.57a21.21,21.21,0,0,1,.2-4c1.13-4.74,3.81-8.27,8.47-10.08a26.28,26.28,0,0,0,3.72-1.5,6.78,6.78,0,0,1,5.28-.44c2.87.72,5.7,1.61,8.53,2.49a4.79,4.79,0,0,1,1.69,1,31.62,31.62,0,0,1,7.12,8.52,5.16,5.16,0,0,1,.44,4.11,18.77,18.77,0,0,1-3.58,6.45,6.65,6.65,0,0,0-.92,1.09c-1.08,2.32-3,3.56-5.24,4.64-2.49,1.22-4.89,2.61-7.34,3.91a29.75,29.75,0,0,0-5.89,4.52,4.2,4.2,0,0,0-1.34,1.82c-.57,2.18-.55,2.7,1.83,2.39a8.5,8.5,0,0,0,4.41-1.92A51.64,51.64,0,0,0,166,294.4,12.28,12.28,0,0,1,176,290.82c.57.1,1.14.16,1.71.23a7.57,7.57,0,0,1,6.5,5.34,23.65,23.65,0,0,1-1,19.43,73.29,73.29,0,0,1-5.15,9.21,25.83,25.83,0,0,1-6.88,7.21c-2.5,1.59-5.27,2.68-8.4,2.18-1.23-.2-2.48-.22-3.72-.31a8,8,0,0,1-7.05-4.63c-1.52-3.12-2.78-6.27-2.45-9.88a17.94,17.94,0,0,0-.37-4,2,2,0,0,0-1.11-1.56c-1.41-.78-2-.63-2.65.87a34.24,34.24,0,0,0-2.06,8.91,23.45,23.45,0,0,1-2.31,7.05,8.93,8.93,0,0,1-5.12,4.37,29.21,29.21,0,0,1-5,1.18,6.56,6.56,0,0,1-2.25-.07,23.34,23.34,0,0,1-7.27-2.55c-1.83-1-3.74-1.89-5.58-2.87a6.47,6.47,0,0,1-1.62-1.16c-2.94-3-5.84-6-8.75-9.08a3,3,0,0,1-.71-.89c-1.1-2.83-2.51-5.53-2.38-8.75a16.43,16.43,0,0,1,2.92-8.56,8.58,8.58,0,0,1,5.57-3.72c.66-.14,1.33-.21,2-.4a3.16,3.16,0,0,1,3,.65c1.92,1.52,4.25,2.51,5.71,4.63a3.67,3.67,0,0,0,1.63,1.07,21.28,21.28,0,0,0,3,1c.4.1,1.06.09,1.25-.15a1.4,1.4,0,0,0,0-1.29,11.37,11.37,0,0,0-2-2.73,16.52,16.52,0,0,0-3.33-2.19,42.63,42.63,0,0,1-7.13-4.77,17.52,17.52,0,0,0-1.79-1.43c-2.18-1.34-3.4-3.58-5.07-5.4a4.8,4.8,0,0,1-.94-2.66c-.45-4.48.49-8.62,3.77-11.87a73.2,73.2,0,0,1,10.2-8.78A27.76,27.76,0,0,1,133.33,260a4.81,4.81,0,0,1,5.18,4.53,12.52,12.52,0,0,1-.23,3.12c-.78,3.53-1.37,7.11-3.1,10.38a21.93,21.93,0,0,0-1.38,4.36,5.41,5.41,0,0,0-.18,1.7,2.25,2.25,0,0,0,2.47,2.21l.28,0c3.44-.37,7.37-4.39,7.66-7.85.08-.95.08-1.9.12-2.86Zm18.18,55.59c3,.32,5.46-.72,7.91-3.06a43.47,43.47,0,0,0,9.33-12.94,23.09,23.09,0,0,0,1.81-15.61c-.47-2-1.42-3.67-3.51-4.1-4.22-.87-8.17-.59-11.12,3.23a16.69,16.69,0,0,1-3.45,3.42,12.25,12.25,0,0,1-8.88,2.47c-2.06-.27-3-1.3-3.27-3.36a7.29,7.29,0,0,1,2.5-6.93,45.1,45.1,0,0,1,10-7.08c1.37-.67,2.68-1.47,4.06-2.12a17,17,0,0,0,6.62-6.18c2.32-3.35,2.25-4.73-.24-7.94a6.9,6.9,0,0,0-.75-.86c-2-1.88-4.13-3.69-6.87-4.52-1.37-.42-2.72-.92-4.06-1.43a8,8,0,0,0-5.88,0,26,26,0,0,0-4.18,1.84c-2.62,1.57-4.68,3.63-4.9,7-.09,1.42-.32,2.84-.48,4.26-.14,1.24-.2,2.49-.42,3.71a7.18,7.18,0,0,1-2,4,28.89,28.89,0,0,1-2.9,2.75,23.41,23.41,0,0,1-4.17,2.48,5,5,0,0,1-7-4,16.74,16.74,0,0,1,1.09-7.55c1.28-3.18,2.34-6.45,3.44-9.7a5.32,5.32,0,0,0,.17-1.7,2.66,2.66,0,0,0-3.32-2.85,20.31,20.31,0,0,0-6.57,1.9,44.77,44.77,0,0,0-11.05,8.1c-2.77,2.67-3.71,6.11-3.79,9.85a3.35,3.35,0,0,0,.94,2.33,62.62,62.62,0,0,0,9.42,8.32,7.31,7.31,0,0,0,2.23,1.24,13.1,13.1,0,0,1,5.92,4.28,6.89,6.89,0,0,1,1.31,7c-.65,1.89-1.4,2.37-3.39,2.41a7,7,0,0,1-4.12-1c-1.51-1-3-2.06-4.44-3.11s-2.73-2.11-4.2-3a3.93,3.93,0,0,0-2.46-.4,6.17,6.17,0,0,0-3.68,2c-2.11,2.33-2,5.25-2.47,8.05a1.28,1.28,0,0,0,.14.55c.94,2.9,1.88,5.76,4.41,7.82a37.75,37.75,0,0,1,5,4.76,14.51,14.51,0,0,0,5.75,4.12,8.75,8.75,0,0,1,1.78.9,11.74,11.74,0,0,0,10.91,1.39,8.37,8.37,0,0,0,5.42-5c1.18-2.77,1.52-5.71,2.15-8.59.44-1.95.79-3.93,1.42-5.83a3.92,3.92,0,0,1,3.55-2.9c2.83-.24,6.06,2.06,6.55,4.84a25.51,25.51,0,0,1,.5,5.7c-.15,2.82,1,5.23,2,7.67a5.19,5.19,0,0,0,1.32,1.46C158.13,330.8,160.2,331.09,162.43,331.16Z"/>
        <path class="cls-7" d="M162.43,331.16c-2.23-.07-4.3-.36-5.94-1.91a5.19,5.19,0,0,1-1.32-1.46c-1.06-2.44-2.17-4.85-2-7.67a25.51,25.51,0,0,0-.5-5.7c-.49-2.78-3.72-5.08-6.55-4.84a3.92,3.92,0,0,0-3.55,2.9c-.63,1.9-1,3.88-1.42,5.83-.63,2.88-1,5.82-2.15,8.59a8.37,8.37,0,0,1-5.42,5,11.74,11.74,0,0,1-10.91-1.39,8.75,8.75,0,0,0-1.78-.9,14.51,14.51,0,0,1-5.75-4.12,37.75,37.75,0,0,0-5-4.76c-2.53-2.06-3.47-4.92-4.41-7.82a1.28,1.28,0,0,1-.14-.55c.45-2.8.36-5.72,2.47-8.05a6.17,6.17,0,0,1,3.68-2,3.93,3.93,0,0,1,2.46.4c1.47.86,2.8,2,4.2,3s2.93,2.12,4.44,3.11a7,7,0,0,0,4.12,1c2,0,2.74-.52,3.39-2.41a6.89,6.89,0,0,0-1.31-7,13.1,13.1,0,0,0-5.92-4.28,7.31,7.31,0,0,1-2.23-1.24,62.62,62.62,0,0,1-9.42-8.32,3.35,3.35,0,0,1-.94-2.33c.08-3.74,1-7.18,3.79-9.85a44.77,44.77,0,0,1,11.05-8.1,20.31,20.31,0,0,1,6.57-1.9,2.66,2.66,0,0,1,3.32,2.85,5.32,5.32,0,0,1-.17,1.7c-1.1,3.25-2.16,6.52-3.44,9.7a16.74,16.74,0,0,0-1.09,7.55,5,5,0,0,0,7,4,23.41,23.41,0,0,0,4.17-2.48,28.89,28.89,0,0,0,2.9-2.75,7.18,7.18,0,0,0,2-4c.22-1.22.28-2.47.42-3.71.16-1.42.39-2.84.48-4.26.22-3.33,2.28-5.39,4.9-7a26,26,0,0,1,4.18-1.84,8,8,0,0,1,5.88,0c1.34.51,2.69,1,4.06,1.43,2.74.83,4.83,2.64,6.87,4.52a6.9,6.9,0,0,1,.75.86c2.49,3.21,2.56,4.59.24,7.94a17,17,0,0,1-6.62,6.18c-1.38.65-2.69,1.45-4.06,2.12a45.1,45.1,0,0,0-10,7.08,7.29,7.29,0,0,0-2.5,6.93c.29,2.06,1.21,3.09,3.27,3.36a12.25,12.25,0,0,0,8.88-2.47,16.69,16.69,0,0,0,3.45-3.42c3-3.82,6.9-4.1,11.12-3.23,2.09.43,3,2.09,3.51,4.1a23.09,23.09,0,0,1-1.81,15.61,43.47,43.47,0,0,1-9.33,12.94C167.89,330.44,165.42,331.48,162.43,331.16Zm-24-30.19c0,1-.06,1.38-.08,1.76a3.65,3.65,0,0,0,2.38,3.57,3.6,3.6,0,0,0,4-.74c1.52-1.18,1.7-2.92,1.73-4.62,0-1.15-1.82-3-2.89-3.25C141,297.16,138.6,298.94,138.45,301Z"/>
        <path class="cls-1" d="M138.45,301c.15-2,2.51-3.81,5.11-3.28,1.07.22,2.91,2.1,2.89,3.25,0,1.7-.21,3.44-1.73,4.62a3.6,3.6,0,0,1-4,.74,3.65,3.65,0,0,1-2.38-3.57C138.39,302.35,138.41,302,138.45,301Zm5,1.5c-.42-.41-.62-.77-.91-.86a.71.71,0,0,0-1,.64c0,.28.36.82.55.81A4.3,4.3,0,0,0,143.42,302.47Z"/>
        <path class="cls-2" d="M143.42,302.47a4.3,4.3,0,0,1-1.36.59c-.19,0-.56-.53-.55-.81a.71.71,0,0,1,1-.64C142.8,301.7,143,302.06,143.42,302.47Z"/>
        <path class="cls-3" d="M965.32,97.54a14.92,14.92,0,0,0-3.5,5.21,3.89,3.89,0,0,0,.76,4.45,16.33,16.33,0,0,0,1.29,1.34c3.39,3.18,7.79,3,10.81-.53a26.76,26.76,0,0,0,1.84-2.78c.38-.57.78-1.12,1.37-1.94.87,1.46,1.5,2.66,2.28,3.76a18.41,18.41,0,0,0,2.61,3.09c1.15,1,2.51,1.59,4.08.63a15.77,15.77,0,0,1,1.76-.58,3.31,3.31,0,0,0,2-2.44,8.76,8.76,0,0,0-1.86-8c-.64-.75-1.43-1.38-2.12-2.09-1-1.06-1-1.42-.06-2.44a16.73,16.73,0,0,0,1.58-1.57,11.56,11.56,0,0,0,2.55-8c-.2-3.18-2.59-4.63-4.56-6.45-1.37-1.27-2.78-.46-4.2-.07a4.1,4.1,0,0,1-1.48.14A3,3,0,0,0,978,80.58c-.67.73-1.38,1.43-2,2.21s-.94,1.55-1.64,2.73c-.3-1-.5-1.53-.62-2.1A8.42,8.42,0,0,0,971.17,79a4.55,4.55,0,0,0-6.61,0c-1,.92-1.89,2-2.9,2.9a4.16,4.16,0,0,0-1.32,3.35,7.85,7.85,0,0,0,1.21,4.61c1.23,1.71,2.52,3.38,3.85,5C966.5,96.18,966.63,96.4,965.32,97.54Zm22.79,8.22c-.26,2.6-2.39,3.31-4.26,1.83a8.37,8.37,0,0,1-2.42-3.22c-1-2.27-1.6-4.66-2.42-7.14a23.15,23.15,0,0,1,3.16.42,5.15,5.15,0,0,1,2.27,1.15,34.22,34.22,0,0,1,3,3.77A4.36,4.36,0,0,1,988.11,105.76ZM973.91,95c.22-.8.22-1.59.54-1.74s1,.17,1.55.29a4.56,4.56,0,0,1-.59,1.46C975.23,95.23,974.62,95,973.91,95Zm3.94-9.88a5.51,5.51,0,0,1,2.06-3,6.8,6.8,0,0,1,4.19-1c1.18.19,2.2,1.44,3.17,2.14a4,4,0,0,1,.55,1.16c.23,4.69-1.31,9.28-7,10.2-1.42.23-1.84-.07-2.36-1.59-.13-.35-.08-.83-.31-1.06C976.07,89.86,977.14,87.43,977.85,85.14Zm-14.4,1.94a5.39,5.39,0,0,1,2.42-6.42,2.8,2.8,0,0,1,4.17.88,16.83,16.83,0,0,1,1.21,2.7c.37.91.67,1.85,1,2.77.46,1.13,1.52,2.39,1.29,3.35-.31,1.27-1.55,2.37-2.53,3.41a2.16,2.16,0,0,1-1.68.37c-1.54-.26-2.61-1.16-4.2-3A41.14,41.14,0,0,1,963.45,87.08Zm8.73,10.06a5,5,0,0,1,2.68.88,1.39,1.39,0,0,1,.4,1.28,42,42,0,0,1-2.44,6.54,4,4,0,0,1-4,2.2c-2.23-.17-3.54-1.52-4.55-3.31a1.34,1.34,0,0,1-.08-1.07c.82-1.75,1.24-3.78,3.06-5.06A34.76,34.76,0,0,1,972.18,97.14Z"/>
        <path class="cls-5" d="M980.87,94.72c5.64-.92,7.18-5.51,7-10.2a4,4,0,0,0-.55-1.16c-1-.7-2-2-3.17-2.14a6.8,6.8,0,0,0-4.19,1,5.51,5.51,0,0,0-2.06,3c-.71,2.29-1.78,4.72.35,6.93.23.23.18.71.31,1.06C979,94.65,979.45,95,980.87,94.72Z"/>
        <path class="cls-5" d="M971.05,93.77c1-1,2.22-2.14,2.53-3.41.23-1-.83-2.22-1.29-3.35-.37-.92-.67-1.86-1-2.77a16.83,16.83,0,0,0-1.21-2.7,2.8,2.8,0,0,0-4.17-.88,5.39,5.39,0,0,0-2.42,6.42,41.14,41.14,0,0,0,1.72,4.06c1.59,1.84,2.66,2.74,4.2,3A2.16,2.16,0,0,0,971.05,93.77Z"/>
        <path class="cls-5" d="M964.22,103.66a1.34,1.34,0,0,0,.08,1.07c1,1.79,2.32,3.14,4.55,3.31a4,4,0,0,0,4-2.2,42,42,0,0,0,2.44-6.54,1.39,1.39,0,0,0-.4-1.28,5,5,0,0,0-2.68-.88,34.76,34.76,0,0,0-4.9,1.46C965.46,99.88,965,101.91,964.22,103.66Z"/>
        <path class="cls-5" d="M982.17,97.65a23.15,23.15,0,0,0-3.16-.42c.82,2.48,1.46,4.87,2.42,7.14a8.37,8.37,0,0,0,2.42,3.22c1.87,1.48,4,.77,4.26-1.83a4.36,4.36,0,0,0-.67-3.19,34.22,34.22,0,0,0-3-3.77A5.15,5.15,0,0,0,982.17,97.65Z"/>
        <path class="cls-2" d="M976,93.57c-.53-.12-1.17-.47-1.55-.29s-.32.94-.54,1.74c.71,0,1.32.21,1.5,0A4.56,4.56,0,0,0,976,93.57Z"/>
        <path class="cls-3" d="M1155.19,31.55a3.22,3.22,0,0,1-1.68-3.46c.66-3.23-1.22-5.08-3.31-7a6.58,6.58,0,0,0-7.62-.81c-2.21,1.24-4.24,2.84-4.94,5.33-.93,3.28-2.93,4.62-6.2,4.72A3.59,3.59,0,0,0,1129,31.7a7.18,7.18,0,0,1-2.86,2.26,3.82,3.82,0,0,0-1.3,1.26c-2,2.82-1.72,6.08.55,8.93a6.45,6.45,0,0,0,5.14,2.56,3.87,3.87,0,0,1,4.14,3.46c.4,1.94.89,3.85,1.31,5.78.16.72.23,1.46.29,1.86a5.58,5.58,0,0,0,8.41,2,14.84,14.84,0,0,0,3.93-5.35,9.62,9.62,0,0,1,7.23-5.27,5.85,5.85,0,0,0,2.41-.82c2.57-2,4.65-4.2,3.33-7.85a3.57,3.57,0,0,1-.1-.74,8.47,8.47,0,0,0-4.1-6.73C1156.59,32.56,1155.92,32,1155.19,31.55Zm3.44,11.61c-.32,1.57-1.54,2.16-2.88,2.6a36.93,36.93,0,0,0-4.53,1.49c-2.91,1.38-4.69,3.94-6.32,6.6a26.44,26.44,0,0,0-1.48,2.58c-.58,1.27-1.54,1.41-2.77,1.28a1.53,1.53,0,0,1-1.48-1.38c-.26-1.34-.44-2.7-.74-4s-.69-2.9-1.15-4.32a5.26,5.26,0,0,0-5-3.74,10.51,10.51,0,0,0-1.86,0,2.55,2.55,0,0,1-2.45-1.39,6.22,6.22,0,0,1-1.23-4.2,2.93,2.93,0,0,1,.57-1.7c1.64-1.48,3.4-2.82,4.82-4,1-.25,1.64-.46,2.25-.54a6.12,6.12,0,0,0,5.63-4.66,8.35,8.35,0,0,1,3-4.15,4.51,4.51,0,0,1,6.83.81,3.31,3.31,0,0,1,.69,2.38c-.84,3.36.91,5.37,3.37,7.09.31.21.68.32,1,.52A8.87,8.87,0,0,1,1158.63,43.16Z"/>
        <path class="cls-2" d="M1153.9,33.89c-2.46-1.72-4.21-3.73-3.37-7.09a3.31,3.31,0,0,0-.69-2.38,4.51,4.51,0,0,0-6.83-.81,8.35,8.35,0,0,0-3,4.15,6.12,6.12,0,0,1-5.63,4.66c-.61.08-1.21.29-2.25.54-1.42,1.15-3.18,2.49-4.82,4a2.93,2.93,0,0,0-.57,1.7,6.22,6.22,0,0,0,1.23,4.2,2.55,2.55,0,0,0,2.45,1.39,10.51,10.51,0,0,1,1.86,0,5.26,5.26,0,0,1,5,3.74c.46,1.42.82,2.87,1.15,4.32s.48,2.68.74,4a1.53,1.53,0,0,0,1.48,1.38c1.23.13,2.19,0,2.77-1.28a26.44,26.44,0,0,1,1.48-2.58c1.63-2.66,3.41-5.22,6.32-6.6a36.93,36.93,0,0,1,4.53-1.49c1.34-.44,2.56-1,2.88-2.6a8.87,8.87,0,0,0-3.74-8.75C1154.58,34.21,1154.21,34.1,1153.9,33.89ZM1147,43a1.87,1.87,0,1,1-1.27-3.49,1.45,1.45,0,0,1,2,1C1148.27,41.81,1148,42.64,1147,43Z"/>
        <path class="cls-3" d="M1145.76,39.52A1.87,1.87,0,1,0,1147,43c1-.37,1.24-1.2.76-2.48A1.45,1.45,0,0,0,1145.76,39.52Z"/>
        <path class="cls-3" d="M317.43,311.43c-1.19-1.5-2.25-2.87-4.21-3.43a38.71,38.71,0,0,1-4.82-1.87,17.89,17.89,0,0,0-10.87-1,44.62,44.62,0,0,0-8.17,2.43c-2.09.85-2.36,2-1,3.77a14.68,14.68,0,0,0,5.51,4.82c3.39,1.48,6.77,3.35,10.75,2.62a61.43,61.43,0,0,0,6.67-.58,8.45,8.45,0,0,0,6.32-4.15A2,2,0,0,0,317.43,311.43Zm-4,2.23a14.31,14.31,0,0,1-6.07,1.66c-.87,0-1.74,0-2.81,0-3.33.72-6.35-.89-9.45-2.1a5.71,5.71,0,0,1-1.31-.71c-1-.77-1.9-2.4-1.43-2.77a6.87,6.87,0,0,1,2.32-1c5.39-1.5,10.58-.54,15.68,1.31a19.86,19.86,0,0,1,3.29,1.73A1.12,1.12,0,0,1,313.4,313.66Z"/>
        <path class="cls-4" d="M310.33,310.06c-5.1-1.85-10.29-2.81-15.68-1.31a6.87,6.87,0,0,0-2.32,1c-.47.37.39,2,1.43,2.77a5.71,5.71,0,0,0,1.31.71c3.1,1.21,6.12,2.82,9.45,2.1,1.07,0,1.94,0,2.81,0a14.31,14.31,0,0,0,6.07-1.66,1.12,1.12,0,0,0,.22-1.87A19.86,19.86,0,0,0,310.33,310.06Z"/>
        <g>
          <path class="cls-8" d="M317.76,25.13a3.73,3.73,0,0,1-1.18-1.56c-.85-2.15-1.46-4.35-.81-6.7.16-.55.18-1.13.29-1.7a2.9,2.9,0,0,0-1.18-3c-.6-.48-1.15-1-1.78-1.44a3.58,3.58,0,0,0-3.55-.46c-1.38.64-2.76,1.31-4.07,2.08a13.22,13.22,0,0,1-5.1,1.78c-3.51.43-5.38-.5-7-3.65-.69-1.36-1.27-2.78-1.93-4.16-1.08-2.25-2.61-2.73-4.88-1.62-.56.28-1.09.6-1.62.92l8.12,22.86c2-.91,3.13-.46,3.67,2.67a30.73,30.73,0,0,1,.41,8.81l4.6,12.94a14.71,14.71,0,0,1,3.26-.83,14,14,0,0,0,2.26-.35c3.13-1,6.24-.53,9.35.06,1.21.23,1.75.9,1.46,2-.85,3.24-1.81,6.45-4.05,9.07-1.18,1.37-2.46,2.66-3.67,4-.93,1-1.82,2.09-2.58,3l.26.76a11.65,11.65,0,0,0,1.46,1,5,5,0,0,0,5.86-.65A45.33,45.33,0,0,0,323.53,61a3.65,3.65,0,0,0,.4-3.28c-.22-.63-.34-1.3-.61-1.91a6.6,6.6,0,0,1,1.1-7.69,17.42,17.42,0,0,0,4-8.43c.24-1.28.53-2.83,0-3.92-1.21-2.66-2.58-5.3-5.3-6.91A62.61,62.61,0,0,1,317.76,25.13Z"/>
          <path class="cls-8" d="M307.79,64a44.53,44.53,0,0,0,4.6-5.44c.54-.7,1.49-1.71.75-2.5-.48-.51-1.78-.45-2.68-.34-1.79.23-3.54.83-5.33,1a8.73,8.73,0,0,0-1.87.37l3,8.33C306.75,64.92,307.28,64.46,307.79,64Z"/>
          <path class="cls-4" d="M275.23,67.92c-.33,2.11-.51,4.25-.77,6.56.53-.16.87-.16,1-.33,1.8-1.83,3.88-3.48,5.28-5.58a105.34,105.34,0,0,0,6.07-10.71c2-3.91,3.71-8,5.53-12a7.76,7.76,0,0,0,.73-2.16c.38-2.83.69-5.68.95-8.53a11.05,11.05,0,0,0-.37-2.4c-2.47,1.66-4.6,3.09-6.08,5.26-1.24,1.81-2.42,3.66-3.64,5.48a11.27,11.27,0,0,1-1.52,2.07,11.39,11.39,0,0,0-2.66,4.66c-.63,1.7-1.34,3.36-2,5.06a13.9,13.9,0,0,0-.79,2.44C276.37,61.16,275.76,64.53,275.23,67.92Z"/>
          <path class="cls-4" d="M287.31,83.77c-2-.6-4-1.1-6.11-.09a6.2,6.2,0,0,1-2,.26l-2.84.31c.85,1.32,1.41,2.3,2.08,3.21a5.11,5.11,0,0,0,1.57,1.6,33.18,33.18,0,0,1,5.5,4,17,17,0,0,0,2.2,1.27c1.07.61,2.47,1,3.14,1.88a4.79,4.79,0,0,0,3.95,1.91,9.26,9.26,0,0,1,4,1.33,6.77,6.77,0,0,0,2.34.89,40.59,40.59,0,0,0,9.08-.29c.54-.08.91-.4.73-1-1.06-3.45-2.56-6.55-6.09-8.2-3.27-1.52-6.34-3.44-9.7-4.82a32.86,32.86,0,0,0-5.93-1.93C288.61,84.06,287.94,84,287.31,83.77Z"/>
          <path class="cls-4" d="M307.51,70.18c.21.14.38.28.56.42l-.26-.76C307.71,69.94,307.6,70.07,307.51,70.18Z"/>
          <path class="cls-4" d="M272.85,58.39a46.32,46.32,0,0,0-1.56-14.72c-1-3.39-1.62-6.87-2.31-10.33a21.84,21.84,0,0,0-3.63-8.2c-.33.32-.52.42-.59.58a10.35,10.35,0,0,0-.66,1.58,64.05,64.05,0,0,0-2.23,15.83A90.34,90.34,0,0,0,263.81,61a19.46,19.46,0,0,0,1.6,4.56,24.48,24.48,0,0,1,1.14,2.87,24.21,24.21,0,0,0,2.18,4.27c.32.55,1.07.34,1.3-.32.09-.27.14-.55.21-.83.66-2.88,1.36-5.75,2-8.64A27.54,27.54,0,0,0,272.85,58.39Z"/>
          <path class="cls-4" d="M268,82.12a1,1,0,0,0-1.28-.81,3.69,3.69,0,0,0-.81.28,51.36,51.36,0,0,0-10,6c-2.63,2.19-5.17,4.52-8,6.47-4.1,2.86-7,6.74-9.79,10.71-1.27,1.79-2.4,3.68-3.52,5.57a21.18,21.18,0,0,0-1.15,2.57c1,.77,2-.09,2.93-.21,1.14-.14,2.26-.37,3.65-.61,1.1-.61,2.49-1.25,3.75-2.09,2.29-1.54,4.54-3.15,6.74-4.81a29.47,29.47,0,0,0,3.19-2.83c2.36-2.35,4.71-4.71,7-7.14a33.3,33.3,0,0,0,6.85-9.8A4.82,4.82,0,0,0,268,82.12Z"/>
          <path class="cls-4" d="M256.85,80.08c1.48-.49,2.82-1.78,4.58-.84.2.1.56,0,.82-.15,1.14-.44,2.27-.91,3.7-1.48-5.64-4.27-13.73-5.68-19.6-5.51-3.42.09-6.85.36-10.25.78a67.49,67.49,0,0,0-7.83,1.6,37.84,37.84,0,0,0-4.57,1.66.94.94,0,0,0-.52.59.85.85,0,0,0,.44.62c2.24,1,4.4,2.19,6.74,3,3.71,1.35,7.41,2.34,11.39,1.83a4.37,4.37,0,0,1,1.14,0c3.76.51,7.35-.88,11.05-1C254.93,81.12,255.87,80.41,256.85,80.08Z"/>
          <path class="cls-4" d="M256.58,68.7c1.6.58,3.22,1.15,4.83,1.69a18.46,18.46,0,0,0,1.82.39,5.11,5.11,0,0,0-.6-1c-2-1.57-3.2-3.72-4.48-5.85a28.28,28.28,0,0,0-2.57-3.42,30.73,30.73,0,0,0-2.53-2.7,23.68,23.68,0,0,0-6.77-4.73c-4.51-1.94-9.39-2.43-14.19-3.15-.15,0-.33.12-.49.18,0,.18-.06.41,0,.53q2.83,3.95,5.72,7.87a5.36,5.36,0,0,0,1.42,1.39c3.15,2,6.24,4.05,9.54,5.71A74.48,74.48,0,0,0,256.58,68.7Z"/>
          <path class="cls-4" d="M271.46,84.61a38.56,38.56,0,0,0-2.39,11.84,70.85,70.85,0,0,0,.62,10.28c.4,2.93.83,5.84,1.34,8.76a36.17,36.17,0,0,0,5,13,4.93,4.93,0,0,0,2.46,2.3,9.74,9.74,0,0,0,1-4,28.4,28.4,0,0,1,.46-3.69,36.41,36.41,0,0,0,1-9.64c-.11-3.14.3-6.31-.39-9.42-.48-2.14-1.16-4.23-1.65-6.37a18.53,18.53,0,0,0-2.59-6C274.83,89.45,273.28,87.28,271.46,84.61Z"/>
          <path class="cls-1" d="M324,24.8c-1.34-.92-2.61-1.93-4-2.83a2.14,2.14,0,0,1-1-2.2c.15-1.23.35-2.46.42-3.7a9.15,9.15,0,0,0-.17-2.82,10.07,10.07,0,0,0-5.55-6.53c-2.59-1.29-5.25-1.61-7.85.11a13.77,13.77,0,0,1-2.22,1.31,23.13,23.13,0,0,1-4,1.47c-2.63.59-3.83-.18-4.89-2.72-.67-1.58-1.41-3.13-2.1-4.7A3.07,3.07,0,0,0,290.6.38a8,8,0,0,0-6.1.49c-.34.18-.67.39-1,.58a33.63,33.63,0,0,0-9.2,8.87,37.5,37.5,0,0,0-6,11,9.22,9.22,0,0,1-.55,1.11c-.65-.76-1.18-1.29-1.6-1.9-1.42-2.1-2.5-2.6-3.86.6-.08.18-.16.35-.22.53-1.34,4.68-2.93,9.29-3.36,14.18a46,46,0,0,0-.3,8.86c.4,3.69.71,7.4,1,11.11.05.49.4,1.11-.34,1.56-1.55-.62-2.49-2-3.46-3.24a9.55,9.55,0,0,0-4.79-3.47,8.92,8.92,0,0,1-2.5-1.31,12.74,12.74,0,0,0-7.42-2.6,8.12,8.12,0,0,1-3.63-.57c-3.48-1.8-7.33-1-10.93-1.8a3.55,3.55,0,0,0-1.41.22c-1.63.36-2,1.25-1,2.65,1.25,1.8,2.59,3.54,4,5.25,2.37,3,4.88,5.87,7.14,9a9.05,9.05,0,0,0,3,2.6c1.9,1.08,3.85,2.09,5.77,3.15a8,8,0,0,1,1.07.89c-1,.22-1.57.43-2.2.5-.95.11-1.91.1-2.86.19-1.88.17-3.78.31-5.65.57-1.69.24-3.35.8-5,.88a12,12,0,0,0-4.9,1.4,7.75,7.75,0,0,1-2.37,1c-1.47.17-2.67,1-4,1.39a2.67,2.67,0,0,0-1.91,2.58c-.1,1.16.7,1.71,1.53,2.21A52.51,52.51,0,0,0,227,83.74c4.24,1.49,8.5,3,13.06,2.88a62.82,62.82,0,0,0,7.11-.65,42,42,0,0,1,4.78-.32c-.07.38,0,.62-.14.7-1.45,1.24-2.86,2.54-4.39,3.65-3.66,2.64-7.09,5.45-9.56,9.32-2.36,3.7-4.93,7.27-7.31,11a21.19,21.19,0,0,0-2,4.1,2.2,2.2,0,0,0,1.7,3,6.33,6.33,0,0,0,2,.14c1.7-.17,3.39-.57,5.09-.62,2.84-.09,5.09-1.43,7.27-3s4.46-3.28,6.68-4.94a45.55,45.55,0,0,0,4-3.16c1.6-1.5,3-3.19,4.55-4.77,1.9-1.95,3.84-3.86,5.87-5.9.21,2.54.4,4.89.59,7.24.25,3,.43,6.09.76,9.12.22,2,.65,4,1,5.93a35.87,35.87,0,0,0,6.51,14.5,6.1,6.1,0,0,0,2.84,2.31l.29.08a2.06,2.06,0,0,0,2.74-.77l.19-.27a9.4,9.4,0,0,0,2-5.23c.17-2.45.25-4.92.4-7.37.12-1.91.4-3.81.41-5.71a83.3,83.3,0,0,0-.16-10.83,25.39,25.39,0,0,0-.64-4.8,23.16,23.16,0,0,1-.56-4.17c1.56,1,2.78,1.92,4.06,2.7s2.66,1.46,3.95,2.25a17.36,17.36,0,0,0,5.13,2.41,13.51,13.51,0,0,1,4.26,1.59,5.77,5.77,0,0,0,2.75.68,39.06,39.06,0,0,0,10.76-1.24,7.6,7.6,0,0,0,1.61-.6,1.11,1.11,0,0,0,.69-1.39A41.81,41.81,0,0,0,314,97c-1.94-4.47-4.7-8.25-9.24-10.46a17.42,17.42,0,0,1-3.47-2,9.77,9.77,0,0,0-4.35-2,9.88,9.88,0,0,1-4.85-2.8l1.27-.69c2.47-1.42,5.18-2.4,7.45-4.17a6.65,6.65,0,0,1,7-.79c.57.22,1.15.41,1.73.6s1.38.42,2.09.58a4.76,4.76,0,0,0,4.29-1.06,64.68,64.68,0,0,0,9-8.71c2.14-2.66,3.34-5.45,2-9A6.83,6.83,0,0,1,328.16,49a14.42,14.42,0,0,0,1.41-1.81,9.88,9.88,0,0,0,1.2-2.24,27.16,27.16,0,0,0,1.17-4.42,10.08,10.08,0,0,0,.07-4.23C330.59,31.68,328.17,27.62,324,24.8ZM277.79,55.35c.65-1.7,1.36-3.36,2-5.06a11.39,11.39,0,0,1,2.66-4.66A11.27,11.27,0,0,0,284,43.56c1.22-1.82,2.4-3.67,3.64-5.48,1.48-2.17,3.61-3.6,6.08-5.26a11.05,11.05,0,0,1,.37,2.4c-.26,2.85-.57,5.7-.95,8.53a7.76,7.76,0,0,1-.73,2.16c-1.82,4-3.55,8-5.53,12a105.34,105.34,0,0,1-6.07,10.71c-1.4,2.1-3.48,3.75-5.28,5.58-.16.17-.5.17-1,.33.26-2.31.44-4.45.77-6.56.53-3.39,1.14-6.76,1.77-10.13A13.9,13.9,0,0,1,277.79,55.35Zm-39,4.55a5.36,5.36,0,0,1-1.42-1.39q-2.9-3.91-5.72-7.87c-.08-.12,0-.35,0-.53.16-.06.34-.2.49-.18,4.8.72,9.68,1.21,14.19,3.15a23.68,23.68,0,0,1,6.77,4.73,30.73,30.73,0,0,1,2.53,2.7,28.28,28.28,0,0,1,2.57,3.42c1.28,2.13,2.49,4.28,4.48,5.85a5.11,5.11,0,0,1,.6,1,18.46,18.46,0,0,1-1.82-.39c-1.61-.54-3.23-1.11-4.83-1.69a74.48,74.48,0,0,1-8.28-3.09C245,64,241.91,61.85,238.76,59.9Zm4.13,22.28a4.37,4.37,0,0,0-1.14,0c-4,.51-7.68-.48-11.39-1.83-2.34-.85-4.5-2-6.74-3a.85.85,0,0,1-.44-.62.94.94,0,0,1,.52-.59,37.84,37.84,0,0,1,4.57-1.66,67.49,67.49,0,0,1,7.83-1.6c3.4-.42,6.83-.69,10.25-.78,5.87-.17,14,1.24,19.6,5.51-1.43.57-2.56,1-3.7,1.48-.26.1-.62.25-.82.15-1.76-.94-3.1.35-4.58.84-1,.33-1.92,1-2.91,1.08C250.24,81.3,246.65,82.69,242.89,82.18Zm17.82,13.07c-2.27,2.43-4.62,4.79-7,7.14a29.47,29.47,0,0,1-3.19,2.83c-2.2,1.66-4.45,3.27-6.74,4.81-1.26.84-2.65,1.48-3.75,2.09-1.39.24-2.51.47-3.65.61-1,.12-1.9,1-2.93.21a21.18,21.18,0,0,1,1.15-2.57c1.12-1.89,2.25-3.78,3.52-5.57,2.81-4,5.69-7.85,9.79-10.71,2.8-2,5.34-4.28,8-6.47a51.36,51.36,0,0,1,10-6,3.69,3.69,0,0,1,.81-.28,1,1,0,0,1,1.28.81,4.82,4.82,0,0,1-.46,3.33A33.3,33.3,0,0,1,260.71,95.25Zm18.16,2.46c.49,2.14,1.17,4.23,1.65,6.37.69,3.11.28,6.28.39,9.42a36.41,36.41,0,0,1-1,9.64,28.4,28.4,0,0,0-.46,3.69,9.74,9.74,0,0,1-1,4,4.93,4.93,0,0,1-2.46-2.3,36.17,36.17,0,0,1-5-13c-.51-2.92-.94-5.83-1.34-8.76a70.85,70.85,0,0,1-.62-10.28,38.56,38.56,0,0,1,2.39-11.84c1.82,2.67,3.37,4.84,4.82,7.08A18.53,18.53,0,0,1,278.87,97.71Zm-8.63-26.17c-.07.28-.12.56-.21.83-.23.66-1,.87-1.3.32a24.21,24.21,0,0,1-2.18-4.27,24.48,24.48,0,0,0-1.14-2.87,19.46,19.46,0,0,1-1.6-4.56,90.34,90.34,0,0,1-1.94-17.86A64.05,64.05,0,0,1,264.1,27.3a10.35,10.35,0,0,1,.66-1.58c.07-.16.26-.26.59-.58a21.84,21.84,0,0,1,3.63,8.2c.69,3.46,1.34,6.94,2.31,10.33a46.32,46.32,0,0,1,1.56,14.72,27.54,27.54,0,0,1-.65,4.51C271.6,65.79,270.9,68.66,270.24,71.54Zm24.95,14.58c3.36,1.38,6.43,3.3,9.7,4.82,3.53,1.65,5,4.75,6.09,8.2.18.56-.19.88-.73,1a40.59,40.59,0,0,1-9.08.29,6.77,6.77,0,0,1-2.34-.89,9.26,9.26,0,0,0-4-1.33,4.79,4.79,0,0,1-3.95-1.91c-.67-.9-2.07-1.27-3.14-1.88a17,17,0,0,1-2.2-1.27,33.18,33.18,0,0,0-5.5-4,5.11,5.11,0,0,1-1.57-1.6c-.67-.91-1.23-1.89-2.08-3.21l2.84-.31a6.2,6.2,0,0,0,2-.26c2.08-1,4.08-.51,6.11.09.63.19,1.3.29,1.95.42A32.86,32.86,0,0,1,295.19,86.12ZM299.48,71l-.24.16c-3.16,1.75-6.31,3.51-9.48,5.23a4.71,4.71,0,0,1-1.37.38c-2.72.48-5.43,1-8.16,1.39a9.55,9.55,0,0,1-1.67-.08c.36-1.6,1.42-2.37,2.21-3.27,2-2.2,4.11-4.24,6-6.46a30.74,30.74,0,0,1,8.2-6.6c1.32-.75,2.6-1.58,3.87-2.42a16.54,16.54,0,0,1,4.38-2.25,8.73,8.73,0,0,1,1.87-.37c1.79-.15,3.54-.75,5.33-1,.9-.11,2.2-.17,2.68.34.74.79-.21,1.8-.75,2.5a44.53,44.53,0,0,1-4.6,5.44c-.51.48-1,.94-1.57,1.4C304,67.3,301.72,69.1,299.48,71Zm29-31.29a17.42,17.42,0,0,1-4,8.43,6.6,6.6,0,0,0-1.1,7.69c.27.61.39,1.28.61,1.91a3.65,3.65,0,0,1-.4,3.28,45.33,45.33,0,0,1-8.14,9.94,5,5,0,0,1-5.86.65,11.65,11.65,0,0,1-1.46-1c-.18-.14-.35-.28-.56-.42.09-.11.2-.24.3-.34.76-.9,1.65-2,2.58-3,1.21-1.35,2.49-2.64,3.67-4,2.24-2.62,3.2-5.83,4.05-9.07.29-1.1-.25-1.77-1.46-2-3.11-.59-6.22-1.06-9.35-.06a14,14,0,0,1-2.26.35,14.71,14.71,0,0,0-3.26.83,18.52,18.52,0,0,0-3.35,1.7c-2.39,1.53-5,2.76-7.47,4.11,1.64-3.74,3.27-7.48,4.94-11.21a6.2,6.2,0,0,0,.83-3.56,4.44,4.44,0,0,1,.1-1.7,20,20,0,0,0,.35-2.28,30.73,30.73,0,0,0-.41-8.81c-.54-3.13-1.66-3.58-3.67-2.67a7.72,7.72,0,0,0-.81.41A17.8,17.8,0,0,0,286,34.14c-1.68,2.43-3.73,4.59-5.43,7-1.36,2-2.43,4.11-3.63,6.17-.33.56-.67,1.11-1.19,2a11.4,11.4,0,0,1-.56-1.5c-1.33-6.35-2.85-12.66-4.69-18.89a3.66,3.66,0,0,1,0-2.22,40.37,40.37,0,0,1,8.73-16.23A27.74,27.74,0,0,1,285,5.61c.53-.32,1.06-.64,1.62-.92,2.27-1.11,3.8-.63,4.88,1.62.66,1.38,1.24,2.8,1.93,4.16,1.59,3.15,3.46,4.08,7,3.65a13.22,13.22,0,0,0,5.1-1.78c1.31-.77,2.69-1.44,4.07-2.08a3.58,3.58,0,0,1,3.55.46c.63.41,1.18,1,1.78,1.44a2.9,2.9,0,0,1,1.18,3c-.11.57-.13,1.15-.29,1.7-.65,2.35,0,4.55.81,6.7a3.73,3.73,0,0,0,1.18,1.56,62.61,62.61,0,0,0,5.42,3.72c2.72,1.61,4.09,4.25,5.3,6.91C329,36.85,328.68,38.4,328.44,39.68Z"/>
        </g>
        <path class="cls-7" d="M290.94,58.73c1.65-3.74,3.28-7.5,5-11.24a6.2,6.2,0,0,0,.83-3.56,4.44,4.44,0,0,1,.1-1.7,28,28,0,0,0-.06-11.09c-.61-3.54-2-3.66-4.48-2.26A17.8,17.8,0,0,0,286,34.14c-1.68,2.43-3.73,4.59-5.43,7-1.36,2-2.43,4.11-3.63,6.17-.33.56-.67,1.12-1.19,2a11.4,11.4,0,0,1-.56-1.5c-1.33-6.36-2.85-12.66-4.69-18.89a3.66,3.66,0,0,1,0-2.22,40.37,40.37,0,0,1,8.73-16.23,25.73,25.73,0,0,1,7.41-5.76c2.27-1.11,3.8-.63,4.88,1.62.66,1.38,1.24,2.8,1.93,4.16,1.59,3.15,3.46,4.08,7,3.65a13.22,13.22,0,0,0,5.1-1.78c1.31-.77,2.69-1.44,4.07-2.08a3.58,3.58,0,0,1,3.55.46c.63.41,1.18,1,1.78,1.44a2.9,2.9,0,0,1,1.18,3c-.11.57-.13,1.15-.29,1.7-.65,2.35,0,4.55.81,6.7a3.73,3.73,0,0,0,1.18,1.56,62.61,62.61,0,0,0,5.42,3.72c2.72,1.61,4.09,4.25,5.3,6.91.49,1.09.2,2.64,0,3.92a17.42,17.42,0,0,1-4,8.43,6.6,6.6,0,0,0-1.1,7.69c.27.61.39,1.28.61,1.91a3.65,3.65,0,0,1-.4,3.28,45.33,45.33,0,0,1-8.14,9.94,5,5,0,0,1-5.86.65,18.7,18.7,0,0,1-2-1.4c.83-1,1.83-2.16,2.88-3.33,1.21-1.35,2.49-2.64,3.67-4,2.24-2.62,3.2-5.83,4.05-9.07.29-1.1-.25-1.77-1.46-2-3.11-.59-6.22-1.06-9.35-.06a14,14,0,0,1-2.26.35,16,16,0,0,0-6.61,2.53c-2.4,1.54-5,2.77-7.51,4.13Z"/>
        <path class="cls-4" d="M265.35,25.14a21.84,21.84,0,0,1,3.63,8.2c.69,3.46,1.34,6.94,2.31,10.33a46.32,46.32,0,0,1,1.56,14.72,27.54,27.54,0,0,1-.65,4.51c-.6,2.89-1.3,5.76-2,8.64-.07.28-.12.56-.21.83-.23.66-1,.87-1.3.32a24,24,0,0,1-2.18-4.28,25,25,0,0,0-1.14-2.86,19.46,19.46,0,0,1-1.6-4.56,90.34,90.34,0,0,1-1.94-17.86A64,64,0,0,1,264.1,27.3a10.35,10.35,0,0,1,.66-1.58C264.83,25.56,265,25.46,265.35,25.14Z"/>
        <path class="cls-4" d="M293.68,32.82a11.05,11.05,0,0,1,.37,2.4c-.26,2.85-.57,5.7-.95,8.53a7.76,7.76,0,0,1-.73,2.16c-1.82,4-3.55,8-5.53,12a105.34,105.34,0,0,1-6.07,10.71c-1.4,2.1-3.48,3.75-5.28,5.58-.16.17-.5.17-1,.33.26-2.31.44-4.45.77-6.56.53-3.39,1.14-6.76,1.77-10.13a13.9,13.9,0,0,1,.79-2.44c.65-1.7,1.36-3.36,2-5.06a11.39,11.39,0,0,1,2.66-4.66A11.27,11.27,0,0,0,284,43.56c1.22-1.82,2.4-3.67,3.64-5.48C289.08,35.91,291.21,34.48,293.68,32.82Z"/>
        <path class="cls-4" d="M266,77.61c-1.43.57-2.56,1-3.7,1.48-.26.1-.62.25-.82.15-1.76-.94-3.1.35-4.58.84-1,.33-1.92,1-2.91,1.08-3.7.14-7.29,1.53-11.05,1a4.37,4.37,0,0,0-1.14,0c-4,.51-7.68-.48-11.39-1.83-2.34-.85-4.5-2-6.74-3a.85.85,0,0,1-.44-.62.94.94,0,0,1,.52-.59,37.84,37.84,0,0,1,4.57-1.66,67.49,67.49,0,0,1,7.83-1.6c3.4-.42,6.83-.69,10.25-.78C252.22,71.93,260.32,73.34,266,77.61Z"/>
        <path class="cls-4" d="M278.56,78.05c.36-1.6,1.42-2.37,2.21-3.27,2-2.2,4.11-4.24,6-6.46a30.74,30.74,0,0,1,8.2-6.6c1.32-.75,2.6-1.58,3.87-2.42a13.14,13.14,0,0,1,6.25-2.62c1.79-.15,3.54-.75,5.33-1,.9-.11,2.2-.17,2.68.34.74.79-.21,1.8-.75,2.5a43.79,43.79,0,0,1-4.6,5.44c-2.64,2.46-5.53,4.67-8.31,7l-.24.16c-3.16,1.75-6.31,3.51-9.48,5.23a4.71,4.71,0,0,1-1.37.38c-2.72.48-5.43,1-8.16,1.39A9.55,9.55,0,0,1,278.56,78.05Z"/>
        <path class="cls-4" d="M231.6,50.11c.16-.06.34-.2.49-.18,4.8.72,9.68,1.21,14.19,3.15a23.86,23.86,0,0,1,6.78,4.73,32.2,32.2,0,0,1,2.52,2.7,28.28,28.28,0,0,1,2.57,3.42c1.28,2.13,2.49,4.28,4.48,5.85a5.11,5.11,0,0,1,.6,1,18.46,18.46,0,0,1-1.82-.39c-1.61-.54-3.23-1.11-4.83-1.69a74.48,74.48,0,0,1-8.28-3.09c-3.3-1.67-6.39-3.76-9.54-5.71a5.36,5.36,0,0,1-1.42-1.39q-2.9-3.91-5.72-7.87C231.54,50.52,231.6,50.29,231.6,50.11Z"/>
        <path class="cls-2" d="M290.92,58.72h0Z"/>
        <path class="cls-3" d="M23.37,457.43a2.88,2.88,0,0,0,3-1.77,7.09,7.09,0,0,0-.17-7.45,4.85,4.85,0,0,0-8.33,0,9.24,9.24,0,0,0-1.29,5c0,3.38.53,4,3.8,4.15.37,0,.75,0,1.12,0v.05C22.12,457.43,22.75,457.39,23.37,457.43Zm-4.17-5.79A2.93,2.93,0,0,1,22,448.8a3.13,3.13,0,0,1-.18,6.25C20.26,455.18,19.11,453,19.2,451.64Z"/>
        <path class="cls-7" d="M24.86,452A3.07,3.07,0,0,0,22,448.8a2.93,2.93,0,0,0-2.8,2.84c-.09,1.35,1.06,3.54,2.62,3.41A3.1,3.1,0,0,0,24.86,452Z"/>
        <path class="cls-3" d="M108.27,19.09c-3.28-.09-4.92-2.07-5.62-5a12,12,0,0,0-2.89-5.52,4.5,4.5,0,0,0-3.3-1.44c-1.87-.1-3.3.92-4.91,1.51a5.39,5.39,0,0,0-3.93,5.65A6.58,6.58,0,0,1,83,21.18c-.7.27-1.38.56-2.06.87a22.35,22.35,0,0,0-3.35,1.58c-2.64,1.77-4.44,4.31-3.76,7.51.56,2.62,1,5.75,4.43,6.68,1.57,1.82,3.9,2.09,6,2.73,3.29,1,6.42,2.78,9.51,2.55,3.4.16,5.19-1.1,6-3.88a4.75,4.75,0,0,0,.33-1.45c0-3.2,2.12-4.55,4.62-5.61A31.56,31.56,0,0,0,107.83,31c3.6-2,5.49-5.16,3.83-8.86C111,20.68,110.21,19.14,108.27,19.09Zm.83,6.52a4.69,4.69,0,0,1-2.46,2.65c-1.31.71-2.72,1.2-4.07,1.85-3.07,1.47-5.29,3.59-5.68,7.24-.27,2.64-.58,2.84-3.13,3.24-.49.08-1,.07-1.49.11l.09.09-.19,0,.06-.09c-4.16-1.7-8.58-2.77-12.57-5-.94-.51-1.74-.84-2-1.92a1.76,1.76,0,0,0-.28-.69c-1.89-2.29-1-4.29.57-6.29a3.15,3.15,0,0,1,2.15-1.23c3-.45,5.36-2.44,8-3.85C89.5,21,89.45,19.26,90,17.9a5.09,5.09,0,0,0,.19-1.84c0-1.37-.07-2.72,1.11-3.78a8.27,8.27,0,0,1,4.7-2A2.63,2.63,0,0,1,98,11,7.53,7.53,0,0,1,100,14.83c.59,3.7,2.44,6.43,6.51,7a4.75,4.75,0,0,1,1.43.39C109.31,22.88,109.6,24.09,109.1,25.61Z"/>
        <path class="cls-7" d="M108,22.22a4.75,4.75,0,0,0-1.43-.39c-4.07-.57-5.92-3.3-6.51-7A7.53,7.53,0,0,0,98,11a2.63,2.63,0,0,0-2-.72,8.27,8.27,0,0,0-4.7,2c-1.18,1.06-1.11,2.41-1.11,3.78A5.09,5.09,0,0,1,90,17.9c-.53,1.36-.48,3.13-1.92,3.91-2.59,1.41-4.92,3.4-8,3.85A3.15,3.15,0,0,0,78,26.89c-1.62,2-2.46,4-.57,6.29a1.76,1.76,0,0,1,.28.69c.25,1.08,1,1.41,2,1.92,4,2.18,8.41,3.25,12.57,5l0,0c.5,0,1,0,1.49-.11,2.55-.4,2.86-.6,3.13-3.24.39-3.65,2.61-5.77,5.68-7.24,1.35-.65,2.76-1.14,4.07-1.85a4.69,4.69,0,0,0,2.46-2.65C109.6,24.09,109.31,22.88,108,22.22ZM93.32,28.5a3.3,3.3,0,0,1-2.42-.13,6.84,6.84,0,0,1-1.33-2.48c0-.08.06-.23.12-.34a2.55,2.55,0,0,1,2.66-.77,2.38,2.38,0,0,1,2,2.66C94.1,27.67,93.78,28.39,93.32,28.5Z"/>
        <polygon class="cls-2" points="92.17 40.83 92.36 40.79 92.27 40.7 92.23 40.74 92.17 40.83"/>
        <path class="cls-3" d="M92.35,24.78a2.55,2.55,0,0,0-2.66.77c-.06.11-.15.26-.12.34a6.84,6.84,0,0,0,1.33,2.48,3.3,3.3,0,0,0,2.42.13c.46-.11.78-.83,1-1.06A2.38,2.38,0,0,0,92.35,24.78Z"/>
        <path class="cls-3" d="M807,46.36c1.27.44,2.56-.45,3.59-1.43,2.17-2,4.32-4.1,6.58-6a13.9,13.9,0,0,0,4.25-6.44c.9-2.7,1.88-5.38,2.77-8.08a23.39,23.39,0,0,0,.55-2.35c0-2.69-.72-3.22-2.72-2.67-3.8,1-6.49,3.52-8.81,6.52a29,29,0,0,1-2.27,3,12.09,12.09,0,0,0-2.92,4.7c-.75,2.1-1.51,4.21-2.18,6.34a6.82,6.82,0,0,0-.36,2.57C805.58,43.88,805.29,45.78,807,46.36ZM809,39.88c1.21-3.47,2-7.16,4.93-9.79a10.4,10.4,0,0,0,2.16-3c.88-1.65,2.47-2.37,3.9-3.3.15-.09.55.21.83.33a11.65,11.65,0,0,1-.27,1.22c-.6,1.76-1.32,3.48-1.81,5.27a15.63,15.63,0,0,1-5.44,7.77c-.94.8-1.81,1.68-2.77,2.45a3.47,3.47,0,0,1-1.19.39C809.25,40.78,808.91,40.25,809,39.88Z"/>
        <path class="cls-2" d="M810.57,40.85c1-.77,1.83-1.65,2.77-2.45a15.63,15.63,0,0,0,5.44-7.77c.49-1.79,1.21-3.51,1.81-5.27a11.65,11.65,0,0,0,.27-1.22c-.28-.12-.68-.42-.83-.33-1.43.93-3,1.65-3.9,3.3a10.4,10.4,0,0,1-2.16,3c-3,2.63-3.72,6.32-4.93,9.79-.13.37.21.9.34,1.36A3.47,3.47,0,0,0,810.57,40.85Z"/>
        <path class="cls-3" d="M337.52,456.08a20.44,20.44,0,0,0-11,6.59c-1.27,1.51-2.68,2.91-4.06,4.32a12.58,12.58,0,0,0-3.65,9.41c0,1.66.5,2.35,2.1,2.52,5.27.56,8.51.24,11.26-4.28a8.39,8.39,0,0,1,.64-.92c2.72-3.48,4.11-7.61,5.37-11.73C338.76,460.11,339.15,457.86,337.52,456.08Zm-8.22,17.29a5.92,5.92,0,0,1-5.79,2.63c-1.78-.18-2.17-.64-1.39-2.33a13.62,13.62,0,0,1,3.32-4.9,41.29,41.29,0,0,0,3.2-3.63,37.59,37.59,0,0,1,3.13-3.18c1-.85,1.85-2.11,3.48-1.55-.25,1-.5,2.08-.77,3.12-.06.25-.15.48-.33,1C333.38,467.71,331.33,470.54,329.3,473.37Z"/>
        <path class="cls-5" d="M334.48,463.53c.27-1,.52-2.08.77-3.12-1.63-.56-2.5.7-3.48,1.55a37.59,37.59,0,0,0-3.13,3.18,41.29,41.29,0,0,1-3.2,3.63,13.62,13.62,0,0,0-3.32,4.9c-.78,1.69-.39,2.15,1.39,2.33a5.92,5.92,0,0,0,5.79-2.63c2-2.83,4.08-5.66,4.85-8.84C334.33,464,334.42,463.78,334.48,463.53Z"/>
        <path class="cls-3" d="M778,484.91a2.9,2.9,0,0,0,3-1.77,7.11,7.11,0,0,0-.17-7.46,4.86,4.86,0,0,0-8.33,0,9.25,9.25,0,0,0-1.29,5c0,3.37.54,4,3.8,4.14.38,0,.75,0,1.12,0v0C776.76,484.9,777.38,484.86,778,484.91Zm-4.16-5.79a2.92,2.92,0,0,1,2.79-2.85,3.14,3.14,0,0,1-.18,6.26C774.89,482.65,773.74,480.46,773.84,479.12Z"/>
        <path class="cls-7" d="M779.49,479.49a3.07,3.07,0,0,0-2.86-3.22,2.92,2.92,0,0,0-2.79,2.85c-.1,1.34,1,3.53,2.61,3.41A3.1,3.1,0,0,0,779.49,479.49Z"/>
        <path class="cls-3" d="M420.31,24.94a2.88,2.88,0,0,0,3-1.77,7.06,7.06,0,0,0-.17-7.46,4.84,4.84,0,0,0-8.32,0,9.13,9.13,0,0,0-1.29,5c0,3.38.53,4,3.8,4.15.37,0,.74,0,1.12,0v0C419.06,24.93,419.69,24.89,420.31,24.94Zm-4.17-5.79a2.91,2.91,0,0,1,2.79-2.84,3.13,3.13,0,0,1-.18,6.25C417.19,22.69,416,20.5,416.14,19.15Z"/>
        <path class="cls-7" d="M421.8,19.52a3.08,3.08,0,0,0-2.87-3.21,2.91,2.91,0,0,0-2.79,2.84c-.1,1.35,1.05,3.54,2.61,3.41A3.11,3.11,0,0,0,421.8,19.52Z"/>
      </g>
    </g>
  </g>
</svg>
