<svg xmlns="http://www.w3.org/2000/svg" viewBox="0 0 149.96 428.64">
  <defs>
    <style>
      .cls-1 {
        fill: #6f421f;
      }

      .cls-2 {
        fill: #f6eedd;
      }

      .cls-3 {
        fill: #5f2a34;
      }

      .cls-4 {
        fill: #eed188;
      }

      .cls-5 {
        fill: #af7544;
      }

      .cls-6 {
        fill: #4d96c9;
      }

      .cls-7 {
        fill: #c2deec;
      }
    </style>
  </defs>
  <title>set-times-mobile</title>
  <g id="Layer_2" data-name="Layer 2">
    <g id="Set_Times_Mobile" data-name="Set Times Mobile">
      <g>
        <path class="cls-1" d="M110.06,384.38c.39.09.92.22,1.46.33L121.87,387c1.38.31,1.64.76,1.36,2.11-.24,1.12-.44,2.24-.66,3.36a4.81,4.81,0,0,1-.21.87,65,65,0,0,0-2.09,6.7,16.38,16.38,0,0,0-.9,4.82,3.27,3.27,0,0,1-1.17,2.5l-1.34,1.19a4.72,4.72,0,0,1-5.21.16,1.56,1.56,0,0,1-.27-2.46,7.63,7.63,0,0,1,4.72-2.65,1.77,1.77,0,0,0,1.74-1.5c.42-1.54.85-3.07,1.29-4.6.25-.86.54-1.71.81-2.57.15-.48.09-.61-.36-.8a2.84,2.84,0,0,0-.56-.19c-1.08-.21-2.15-.45-3.23-.6a36.5,36.5,0,0,1-5.26-1.13c-1.07-.32-1.1-.31-1.57.66a7.65,7.65,0,0,0-.63,1.67,35,35,0,0,0-.61,3.52,9.91,9.91,0,0,1-3.16,6.1c-.53.52-1.2.89-1.75,1.39-.88.79-1.86.57-2.83.36-.24-.05-.48-.37-.6-.62a3.07,3.07,0,0,1,.4-3.49,5.58,5.58,0,0,1,1.36-1.16,7.66,7.66,0,0,1,4-1.51c.21,0,.53-.3.63-.53a6.33,6.33,0,0,0,.36-1.44,36.6,36.6,0,0,1,1-4.95,57.18,57.18,0,0,0,1.2-6,5.85,5.85,0,0,0,0-.59C108.54,384.61,108.94,384.29,110.06,384.38Zm1.52,2.47c-1.24,0-1.27,0-1.61,1.1-.12.38-.24.76-.34,1.14-.16.62,0,.83.55,1,3.06.64,6.11,1.31,9.19,1.86,1.44.27,1.36.12,1.63-1.21,0-.29,0-.6.11-.89a.68.68,0,0,0-.55-.89c-1.2-.33-2.39-.69-3.6-1C115.18,387.55,113.37,387.21,111.58,386.85Z"/>
        <path class="cls-1" d="M127.87,109.1a8.83,8.83,0,0,1-1.86,5.12c-.69,1-1.42,2-2.05,3.12a14.07,14.07,0,0,0-.92,2.19,1,1,0,0,0,.44,1.17,3.22,3.22,0,0,0,2.85.43,6.17,6.17,0,0,1,1.14-.34,1,1,0,0,1,.73.35c.1.12,0,.49-.13.67-1.36,1.83-4.78,1.83-5.9.48a3.19,3.19,0,0,1-.85-1.85,5.24,5.24,0,0,1,.73-3.16c.93-1.47,1.9-2.91,2.83-4.39A14.17,14.17,0,0,0,126,110.8a4.52,4.52,0,0,0-1-5.23,11.66,11.66,0,0,0-2-1.5,2.14,2.14,0,0,0-1-.22c-.13,0-.35.19-.39.33a5.16,5.16,0,0,0-.12.89,12,12,0,0,1-.29,1.61,43,43,0,0,0-1.35,7.8c-.1.73-.25,1.47-.33,2.21-.24,2.23-.44,4.46-.68,6.69a10.9,10.9,0,0,1-.38,2.05,6.15,6.15,0,0,1-4.23,4.26,4.75,4.75,0,0,0-.85.3c-1,.53-1.94.14-2.89-.16a1,1,0,0,1-.44-.37,8.29,8.29,0,0,1-.53-.91,2.82,2.82,0,0,1,.72-3.62,10.29,10.29,0,0,1,6-2.3c.74,0,.83-.08,1-.83.1-.53,0-1.09.11-1.63.39-3.22.77-6.44,1.19-9.65a14,14,0,0,1,.57-2.47,18.52,18.52,0,0,0,.75-4.71,1.92,1.92,0,0,1,1.28-1.81,1,1,0,0,1,.71-.07,19,19,0,0,1,2.25,1.14,8.42,8.42,0,0,1,3.17,3.49A4.7,4.7,0,0,1,127.87,109.1Z"/>
        <path class="cls-1" d="M38,165.93l1.6-.18c.3,0,.6-.06.89-.12a.84.84,0,0,0,.72-.83c.15-2.33.44-4.65.57-7a20,20,0,0,1,.6-4.72,10.8,10.8,0,0,0,.25-2.36c0-.6,0-1.2.06-1.79a2.3,2.3,0,0,1,.05-.45c.14-.58.56-1,.95-1s.75.44.79,1.12a7.9,7.9,0,0,1,0,1.19c-.28,4.17-.62,8.35-.85,12.53a42.29,42.29,0,0,0-.35,6c.1,1.22-.79,1.9-1.75,2.38a20.26,20.26,0,0,1-2.78,1.08,3.4,3.4,0,0,1-2.47-.25,2.22,2.22,0,0,1-1.14-2C35,168,36,167,37.21,166.34A6.81,6.81,0,0,1,38,166Z"/>
        <path class="cls-1" d="M133.69,280.82a15.48,15.48,0,0,0-.85-3.41,6.75,6.75,0,0,1-.47-1.57,32.06,32.06,0,0,0-1.72-6.6,10.82,10.82,0,0,1-.49-2.17,2.08,2.08,0,0,1,.23-1.14.77.77,0,0,1,1.41.05,3,3,0,0,1,.24,1.16,3.4,3.4,0,0,0,.53,1.84,1.46,1.46,0,0,1,.26.53c.19,1.53,1,2.92,1.06,4.48a5.77,5.77,0,0,0,.66,2.25,10,10,0,0,1,.7,2.73,25.16,25.16,0,0,0,1.38,5,3.54,3.54,0,0,1-1.58,4.39,6,6,0,0,1-2.83.79,3.22,3.22,0,0,1-1.28-.32,3.51,3.51,0,0,1-1.73-5.19C130.32,281.76,131,281.29,133.69,280.82Zm1.11,4.28c0-1.35-.79-2.25-2-2.13a2.41,2.41,0,0,0-2,1.54,1.49,1.49,0,0,0,1.35,2.22,4.76,4.76,0,0,0,1.74-.27A1.28,1.28,0,0,0,134.8,285.1Z"/>
        <path class="cls-2" d="M134.8,285.1a1.28,1.28,0,0,1-.9,1.36,4.76,4.76,0,0,1-1.74.27,1.49,1.49,0,0,1-1.35-2.22,2.41,2.41,0,0,1,2-1.54C134,282.85,134.82,283.75,134.8,285.1Z"/>
        <path class="cls-3" d="M108.72,8.65a7.57,7.57,0,0,0-.47.84,12.09,12.09,0,0,1-3.42,3.58c.28-.71.39-1.06.55-1.4a12.09,12.09,0,0,0,1.29-4.26,9,9,0,0,0-.15-1.71c0-.06-.2-.12-.31-.15a.22.22,0,0,0-.17.09,7.47,7.47,0,0,0-.24.93,12.41,12.41,0,0,1-2.55,5.69c.16-1.46.32-2.93.47-4.4A24.76,24.76,0,0,0,104,5.15a1.43,1.43,0,0,0-1.34-1.62c-.87-.06-1.23-.6-1.35-1.39a2.26,2.26,0,0,0-.14-.57c-.73-1.87-1.2-2-2.76-.76a9.89,9.89,0,0,1-2.71,1.85,7.52,7.52,0,0,0-3.36,2.83A1.4,1.4,0,0,0,92,7.11c.34.62,0,1.09-.35,1.66a23.19,23.19,0,0,1-3-1.45,1.57,1.57,0,0,0-2.09,0c-1.49,1.13-3,2.2-4.54,3.32-.56.42-1.44.45-1.69,1.23-.33,1,.67,1.3,1.06,1.92.66,1.06.66,1.28-.27,2.31-.68.76-.64,1.17.15,1.93a17.81,17.81,0,0,1,1.8,1.78,4.68,4.68,0,0,0,3.12,1.77c1,.14,1.92.32,2.88.42,1.24.13,2.14.51,1.9,2a.63.63,0,0,0,.1.37.92.92,0,0,0,.88.64c2.08-.1,4.14-.23,5.84-1.71a20.11,20.11,0,0,1,2.09-1.41c2.06-1.42,3.42-3.16,2.82-5.86,0-.11.06-.24.11-.41a6.25,6.25,0,0,0,3-1.67,13.2,13.2,0,0,0,3-3.49,6.52,6.52,0,0,0,.51-1.64.35.35,0,0,0-.16-.31C109.06,8.54,108.81,8.54,108.72,8.65ZM93.8,6c.52-.56,1-1.41,1.64-1.56,1.69-.39,2.74-1.59,4.26-2.77A8.41,8.41,0,0,1,100,3.19a1.12,1.12,0,0,1-.38.83C98,5,96.3,5.82,94.65,6.7a.59.59,0,0,1-.37.06c-.18,0-.42-.08-.5-.2A.56.56,0,0,1,93.8,6ZM83.72,11.33c.83-.62,1.73-1.15,2.56-1.76a2.2,2.2,0,0,1,2.53-.24c1,.49,2,.86,3,1.28.17.07.39.22.53.17,1.73-.63,1.8,1,2.43,1.79a.34.34,0,0,1-.09.32.4.4,0,0,1-.35.07c-.76-.35-1.52-.72-2.27-1.09-.47-.23-.92-.48-1.38-.71a3.12,3.12,0,0,0-3,.14,22.49,22.49,0,0,0-4.18,2.84c-.22-.13-.29-.15-.32-.2C82.26,12.46,82.2,12.48,83.72,11.33Zm6,9.36c-.94-.24-1.91-.36-2.87-.52-1.75-.27-2.8-1.52-3.79-2.81a.85.85,0,0,1,.14-.84c1.57-1,2.62-2.76,4.07-3.25a12.69,12.69,0,0,1,1.64-.73,1.55,1.55,0,0,1,.93,0,21.73,21.73,0,0,1,2.82,1.28,4.8,4.8,0,0,0,2,.7,5,5,0,0,1,1.66.52.78.78,0,0,1,.13,1.39C94.72,17.72,93,19,91.32,20.3A1.67,1.67,0,0,1,89.72,20.69Zm11.71-3.35a4.39,4.39,0,0,1-.3,1.48,3.12,3.12,0,0,1-.71.92,24.46,24.46,0,0,1-5.25,3.6,3.75,3.75,0,0,1-1.52.13c-1,.05-1.39-.34-1.06-1.17a5.51,5.51,0,0,1,1.3-2.11,37.74,37.74,0,0,1,3.55-2.56c1-.31,2-.66,3-1A.73.73,0,0,1,101.43,17.34Zm.38-4.54a4.58,4.58,0,0,1-.25.93,2.58,2.58,0,0,1-2.64,1.39,1,1,0,0,1-.43-.35,24.21,24.21,0,0,1-1.71-2.08,16.3,16.3,0,0,0-2.12-3c-.54-.5-.37-.8.36-1.25,1.21-.74,2.39-1.53,3.79-2.43.76-.25,1.73-.59,2.72-.88.67-.19,1,.11,1,.73C102.29,8.19,102.06,10.49,101.81,12.8Z"/>
        <path class="cls-4" d="M96.43,16.44a.78.78,0,0,0-.13-1.39,5,5,0,0,0-1.66-.52,4.8,4.8,0,0,1-2-.7,21.73,21.73,0,0,0-2.82-1.28,1.55,1.55,0,0,0-.93,0,12.69,12.69,0,0,0-1.64.73c-1.45.49-2.5,2.21-4.07,3.25a.85.85,0,0,0-.14.84c1,1.29,2,2.54,3.79,2.81,1,.16,1.93.28,2.87.52a1.67,1.67,0,0,0,1.6-.39C93,19,94.72,17.72,96.43,16.44Z"/>
        <path class="cls-4" d="M101.53,5.15c-1,.29-2,.63-2.72.88-1.4.9-2.58,1.69-3.79,2.43-.73.45-.9.75-.36,1.25a16.3,16.3,0,0,1,2.12,3,24.21,24.21,0,0,0,1.71,2.08,1,1,0,0,0,.43.35,2.58,2.58,0,0,0,2.64-1.39,4.58,4.58,0,0,0,.25-.93c.25-2.31.48-4.61.71-6.92C102.58,5.26,102.2,5,101.53,5.15Z"/>
        <path class="cls-4" d="M100.47,16.67c-1,.3-2.08.65-3,1a37.74,37.74,0,0,0-3.55,2.56,5.51,5.51,0,0,0-1.3,2.11c-.33.83.09,1.22,1.06,1.17a3.75,3.75,0,0,0,1.52-.13,24.46,24.46,0,0,0,5.25-3.6,3.12,3.12,0,0,0,.71-.92,4.39,4.39,0,0,0,.3-1.48A.73.73,0,0,0,100.47,16.67Z"/>
        <path class="cls-5" d="M83.56,14.14a22.49,22.49,0,0,1,4.18-2.84,3.12,3.12,0,0,1,3-.14c.46.23.91.48,1.38.71.75.37,1.51.74,2.27,1.09a.4.4,0,0,0,.35-.07.34.34,0,0,0,.09-.32c-.63-.83-.7-2.42-2.43-1.79-.14.05-.36-.1-.53-.17-1-.42-2-.79-3-1.28a2.2,2.2,0,0,0-2.53.24c-.83.61-1.73,1.14-2.56,1.76-1.52,1.15-1.46,1.13-.48,2.61C83.27,14,83.34,14,83.56,14.14Z"/>
        <path class="cls-5" d="M94.28,6.76a.59.59,0,0,0,.37-.06C96.3,5.82,98,5,99.58,4a1.12,1.12,0,0,0,.38-.83,8.41,8.41,0,0,0-.26-1.48c-1.52,1.18-2.57,2.38-4.26,2.77-.63.15-1.12,1-1.64,1.56a.56.56,0,0,0,0,.52C93.86,6.68,94.1,6.72,94.28,6.76Z"/>
        <path class="cls-1" d="M80.05,333.24a2.62,2.62,0,0,0-.62,2c0,1,0,2,0,3-.1,3,0,6.08-.74,9a3.43,3.43,0,0,1-1.38,2.06,2.75,2.75,0,0,1-2.26.42,11.57,11.57,0,0,1-3.77-1.35,1.66,1.66,0,0,0-.7-.26,5.88,5.88,0,0,1-2.85-1.55c-.51-.39-1-.77-1.56-1.14l-1.24-.82a10,10,0,0,0-1.23-.85,10.67,10.67,0,0,1-4.39-3.92,15.14,15.14,0,0,1-1.49-2.58,9.66,9.66,0,0,1,0-8,8.42,8.42,0,0,1,3.28-3.12,13.61,13.61,0,0,0,2.18-1.27,2.43,2.43,0,0,1,1.82-.47,4.13,4.13,0,0,0,2.6-.33A4.28,4.28,0,0,1,69.3,324a11,11,0,0,0-3.2-1,6.56,6.56,0,0,1-.89-.11c-1.8-.39-3.6-.8-5.39-1.2a3.82,3.82,0,0,0-.89-.12,9.29,9.29,0,0,1-4-1.11,3.31,3.31,0,0,1-.73-.51,8,8,0,0,1-2-2.93,2.72,2.72,0,0,1,0-2c.47-1.52.86-3.08,1.46-4.55a18.91,18.91,0,0,1,1.71-2.8c.16-.25.37-.47.52-.73a.45.45,0,0,0,0-.39.44.44,0,0,0-.39-.08,7.15,7.15,0,0,1-4.27-.09,4,4,0,0,1-3-2.81,1.6,1.6,0,0,1-.11-.57c.12-4.92,3.46-7.52,7.56-7.5a11.18,11.18,0,0,1,1.82.29,2.17,2.17,0,0,0-.28-.5,8.79,8.79,0,0,1-2.57-4.47,8,8,0,0,1,.2-4.57,4,4,0,0,1,3.48-2.71,3.7,3.7,0,0,1,4,1.8c.89,1.39,1.79,2.76,2.69,4.13a1.42,1.42,0,0,0,.22.2c.6-1,1.22-1.91,1.81-2.87a9.31,9.31,0,0,1,3-3.08,4,4,0,0,1,3.86-.41,8.41,8.41,0,0,0,.81.37A2.22,2.22,0,0,1,75.93,285a5.14,5.14,0,0,1,.14,4.07c-.49,1.25-.93,2.52-1.49,3.74a17,17,0,0,1-1.32,2.08c.29.11.54.22.81.3.71.22,1.45.38,2.14.66a5.21,5.21,0,0,1,3.3,4.12,3,3,0,0,1-.82,2.63c-1.44,1.51-3,3-5.19,3.3-.58.08-1.17.08-1.84.12a16.34,16.34,0,0,0,1.63,5.6,5.87,5.87,0,0,1,.6,1.36,12.35,12.35,0,0,0,2.7,4.6c.06.07.18.07.29.11.23-2.37.45-4.74.7-7.1a12.36,12.36,0,0,1,.3-1.31,47.34,47.34,0,0,1,1.31-5.05,17.54,17.54,0,0,1,5-7.37A3.8,3.8,0,0,1,89,296.7a5.3,5.3,0,0,0,.8.37,9,9,0,0,1,3,2.13,18.54,18.54,0,0,0,2.46,2.39,7.73,7.73,0,0,1,1.37,1.57c1.2,1.51,2.44,3,3.59,4.56a7.41,7.41,0,0,1,1.48,5.48,1,1,0,0,1-.55.81,27.55,27.55,0,0,1-3.61,1.79c-1.72.64-3.41,1.35-5.17,1.92a26.11,26.11,0,0,0-4,1.93,7.07,7.07,0,0,0-2.46,1.4,2.87,2.87,0,0,0,.7.08,20.5,20.5,0,0,0,2.34-.43,4.85,4.85,0,0,1,2.51.07,7.29,7.29,0,0,0,2.77.52c2.12.7,4.35,1.27,6.07,2.75,2.17,1.88,4,4.06,4.09,7.18a5.85,5.85,0,0,1-1.76,4.72,18.81,18.81,0,0,0-3.45,4.46,14.44,14.44,0,0,1-3.68,4.27,14,14,0,0,0-2.86,2.58,3.45,3.45,0,0,1-.69.56c-.83.64-1.65,1.29-2.49,1.9a7.42,7.42,0,0,1-1.17.65,2.08,2.08,0,0,1-2.59-.39,6.33,6.33,0,0,1-2-3.22c-.47-2.14-.92-4.29-1.47-6.41A71,71,0,0,0,80.05,333.24ZM81.27,324c0-.15,0-.3,0-.44a1.94,1.94,0,0,1,.57-1.57,20.65,20.65,0,0,1,3.31-2.54,14.69,14.69,0,0,1,2.15-1.31c.79-.41,1.65-.7,2.43-1.13a19.62,19.62,0,0,1,3.86-1.56A42.83,42.83,0,0,0,98,313.69c.5-.21.95-.54,1.43-.8a1.12,1.12,0,0,0,.55-1.13,4.21,4.21,0,0,0-1-2.47c-1.86-2.51-3.59-5.14-6-7.18a4.58,4.58,0,0,1-.71-.75,5.71,5.71,0,0,0-2-1.7,14.31,14.31,0,0,1-2-1.07,2.11,2.11,0,0,0-2.38-.16,5.32,5.32,0,0,0-1.72,1.16,24.67,24.67,0,0,0-3,4.6,23.65,23.65,0,0,0-1.35,4.71,36.15,36.15,0,0,0-1.12,9.61c0,.36.06.71.56.83.09-.21.2-.42.29-.64.49-1.31.92-2.64,1.5-3.91a19.07,19.07,0,0,1,1.73-3,1.27,1.27,0,0,1,2-.38.39.39,0,0,1,0,.71,3.84,3.84,0,0,0-2,2.31c-.45,1-.88,2-1.25,3a12.74,12.74,0,0,0-.88,4.36,3,3,0,0,0,.7,2.07c0,.5.13,1,.15,1.49s-.19,1,0,1.29a3.86,3.86,0,0,0,1.18.89c.33.22.69.4,1,.65.62.5,1.24,1,1.81,1.56a.58.58,0,0,1,0,.82c-.25.3-.52.22-.79,0a1.3,1.3,0,0,1-.22-.19,7.82,7.82,0,0,0-5.94-2.36,1.68,1.68,0,0,1-.59,0,2.68,2.68,0,0,1-1.68-1.13c-.68-1.06.09-2.15-.1-3.23-.07-.39.34-.9.61-1.3a3.21,3.21,0,0,1,.87-.81,6.29,6.29,0,0,1,1-.46c-.45-.37-.82-.69-1.22-1a13.09,13.09,0,0,1-4.43-5.33,48.51,48.51,0,0,1-2.59-7.16,34.71,34.71,0,0,0-2-5.15,7.24,7.24,0,0,0-2-2.59,1.19,1.19,0,0,0-1.24-.27,3.47,3.47,0,0,0-1,.36c-1,.78-2,1.62-3,2.43-1.14,1.92-3.09,3.29-3.74,5.54-.06.23-.31.39-.43.61a22.31,22.31,0,0,0-2.21,4.22c-.27,1-.54,1.92-.79,2.88a1.5,1.5,0,0,0-.07.88,4.32,4.32,0,0,0,2.9,2.77c1.11.27,2.24.44,3.35.67,1.8.38,3.6.79,5.4,1.15.83.17,1.69.2,2.51.4,1.93.47,3.85,1,5.77,1.53.54.14.78.51.78,1.25a.87.87,0,0,1-.79.93c-.68.16-1.37.28-2,.48a6,6,0,0,1-2.64.33,2.21,2.21,0,0,0-1.16.16,4.21,4.21,0,0,1-2.34.29,2.74,2.74,0,0,0-2.33.73,4.33,4.33,0,0,1-1.34.9A4.3,4.3,0,0,0,59,331.48a8,8,0,0,0,0,3.84,9.1,9.1,0,0,0,2,4,14.19,14.19,0,0,0,2.72,2.53c1.88,1.3,3.81,2.52,5.65,3.88a6.35,6.35,0,0,0,1.18.63c.54.24,1.1.47,1.66.68a7.71,7.71,0,0,0,3,.86,1.87,1.87,0,0,0,2-1.45,9.92,9.92,0,0,0,.47-2.34,59.42,59.42,0,0,0,.16-8.95,6.55,6.55,0,0,1,1.44-4.45,1.08,1.08,0,0,1,1.86.09,3.35,3.35,0,0,1,.33.83c.53,1.81,1,3.63,1.58,5.45a7.36,7.36,0,0,0,.21.71,26.2,26.2,0,0,1,1.34,5.35,25,25,0,0,0,1.31,4.12,3.55,3.55,0,0,0,1.44,1.46c.49-.21,1-.4,1.45-.63a2.07,2.07,0,0,0,.47-.37,48.88,48.88,0,0,0,4.16-3.59,13.82,13.82,0,0,1,1.3-1.24,22.64,22.64,0,0,0,3.53-4c.77-1,1.55-2.07,2.3-3.12a24.6,24.6,0,0,0,1.72-2.62,3.39,3.39,0,0,0,.4-1.71,7.09,7.09,0,0,0-2.63-5.18,13.36,13.36,0,0,0-6.08-2.68c-1-.23-2-.43-3.08-.6A5.54,5.54,0,0,0,89,322.8c-1.86.35-3.71.78-5.55,1.21a2.26,2.26,0,0,1-1.6,0A1.6,1.6,0,0,0,81.27,324ZM55.64,304.34c1.74-.08,3-1.2,4-2.65a5.75,5.75,0,0,1,1.13-1.18c.94-.74,1.91-1.44,2.89-2.12a2.64,2.64,0,0,1,3.44.19,5.3,5.3,0,0,1,.9,1c.78,1.15,1.55,2.31,2.26,3.51a2.11,2.11,0,0,0,3,1c.67-.33,1.28-.76,2-1.07A5.09,5.09,0,0,0,77,301.53a2.15,2.15,0,0,0-.83-3.61c-.72-.3-1.52-.41-2.28-.66a3.58,3.58,0,0,0-3.54.45,1,1,0,0,1-.27.13.92.92,0,0,1-1.08-.28.76.76,0,0,1-.06-1,5,5,0,0,1,.74-.91c.47-.45,1-.83,1.45-1.3a8.44,8.44,0,0,0,2.2-3.16,22.7,22.7,0,0,1,1.08-2.77,3.14,3.14,0,0,0,.26-1.89,1.56,1.56,0,0,0-.94-1.25,3.12,3.12,0,0,0-3.1.43,9.94,9.94,0,0,0-2.38,2.46,7.05,7.05,0,0,0-1.73,6,3,3,0,0,1,0,.89.82.82,0,0,1-.77.78.75.75,0,0,1-.78-.57,6.59,6.59,0,0,1-.36-1.6,5.09,5.09,0,0,0-.67-2.43c-.84-1.52-1.73-3-2.63-4.5A2.51,2.51,0,0,0,60,285.61a3,3,0,0,0-3.8,2.16,7.07,7.07,0,0,0,3.06,7.11c.31.16.61.34.93.48s.71.39.63.89A.92.92,0,0,1,60,297c-.53.14-1.06.31-1.59.42a1.75,1.75,0,0,1-.88,0,6.54,6.54,0,0,0-4.1.2A4.88,4.88,0,0,0,50,302a2.38,2.38,0,0,0,2,2.69A6.26,6.26,0,0,0,55.64,304.34Zm24.24,20.18a8,8,0,0,0-.71-1,.73.73,0,0,0-1.16,0,8.4,8.4,0,0,0-.82,1.71c-.07.17.1.47.24.65a1.53,1.53,0,0,0,1.89.19A1.25,1.25,0,0,0,79.88,324.52Z"/>
        <path class="cls-4" d="M81.27,324a1.6,1.6,0,0,1,.58,0,2.26,2.26,0,0,0,1.6,0c1.84-.43,3.69-.86,5.55-1.21a5.54,5.54,0,0,1,1.76.11c1,.17,2.06.37,3.08.6a13.36,13.36,0,0,1,6.08,2.68,7.09,7.09,0,0,1,2.63,5.18,3.39,3.39,0,0,1-.4,1.71,24.6,24.6,0,0,1-1.72,2.62c-.75,1.05-1.53,2.08-2.3,3.12a22.64,22.64,0,0,1-3.53,4,13.82,13.82,0,0,0-1.3,1.24,48.88,48.88,0,0,1-4.16,3.59,2.07,2.07,0,0,1-.47.37c-.47.23-1,.42-1.45.63a3.55,3.55,0,0,1-1.44-1.46,25,25,0,0,1-1.31-4.12,26.2,26.2,0,0,0-1.34-5.35,7.36,7.36,0,0,1-.21-.71c-.53-1.82-1-3.64-1.58-5.45a3.35,3.35,0,0,0-.33-.83,1.08,1.08,0,0,0-1.86-.09,6.55,6.55,0,0,0-1.44,4.45,59.42,59.42,0,0,1-.16,8.95,9.92,9.92,0,0,1-.47,2.34,1.87,1.87,0,0,1-2,1.45,7.71,7.71,0,0,1-3-.86c-.56-.21-1.12-.44-1.66-.68a6.35,6.35,0,0,1-1.18-.63c-1.84-1.36-3.77-2.58-5.65-3.88a14.19,14.19,0,0,1-2.72-2.53,9.1,9.1,0,0,1-2-4,8,8,0,0,1,0-3.84,4.3,4.3,0,0,1,2.92-3.31,4.33,4.33,0,0,0,1.34-.9,2.74,2.74,0,0,1,2.33-.73,4.21,4.21,0,0,0,2.34-.29,2.21,2.21,0,0,1,1.16-.16,6,6,0,0,0,2.64-.33c.67-.2,1.36-.32,2-.48a.87.87,0,0,0,.79-.93c0-.74-.24-1.11-.78-1.25-1.92-.51-3.84-1.06-5.77-1.53-.82-.2-1.68-.23-2.51-.4-1.8-.36-3.6-.77-5.4-1.15-1.11-.23-2.24-.4-3.35-.67a4.32,4.32,0,0,1-2.9-2.77,1.5,1.5,0,0,1,.07-.88c.25-1,.52-1.92.79-2.88a22.31,22.31,0,0,1,2.21-4.22c.12-.22.37-.38.43-.61.65-2.25,2.6-3.62,3.74-5.54,1-.81,2-1.65,3-2.43a3.47,3.47,0,0,1,1-.36,1.19,1.19,0,0,1,1.24.27,7.24,7.24,0,0,1,2,2.59,34.71,34.71,0,0,1,2,5.15,48.51,48.51,0,0,0,2.59,7.16,13.09,13.09,0,0,0,4.43,5.33c.4.29.77.61,1.22,1a6.29,6.29,0,0,0-1,.46,3.21,3.21,0,0,0-.87.81c-.27.4-.68.91-.61,1.3.19,1.08-.58,2.17.1,3.23a2.68,2.68,0,0,0,1.68,1.13,1.68,1.68,0,0,0,.59,0,7.82,7.82,0,0,1,5.94,2.36,1.3,1.3,0,0,0,.22.19c.27.2.54.28.79,0a.58.58,0,0,0,0-.82c-.57-.56-1.19-1.06-1.81-1.56-.31-.25-.67-.43-1-.65a3.86,3.86,0,0,1-1.18-.89c-.18-.32,0-.86,0-1.29s-.1-1-.15-1.49Zm-16.63-9.15a2.24,2.24,0,0,0-.2.54c0,.7.49,1,1,1.4a54.81,54.81,0,0,0,7.09,4.36,1.89,1.89,0,0,0,.68.28.75.75,0,0,0,.6-.25.64.64,0,0,0-.1-.63,8.21,8.21,0,0,0-1.16-.65,30.33,30.33,0,0,1-6.68-4.41,4.1,4.1,0,0,0-.71-.53A2.12,2.12,0,0,0,64.64,314.81Zm10.19,13.34-1.52,1c-1,.66-1.79,1.74-3.1,2-.34.06-.44.57-.26.88a.82.82,0,0,0,1,.46,4,4,0,0,0,1.06-.53,20.55,20.55,0,0,1,3.9-2.7.54.54,0,0,0,.21-.78.65.65,0,0,0-.72-.42Z"/>
        <path class="cls-4" d="M81.29,323.94a3,3,0,0,1-.7-2.07,12.74,12.74,0,0,1,.88-4.36c.37-1,.8-2,1.25-3a3.84,3.84,0,0,1,2-2.31.39.39,0,0,0,0-.71,1.27,1.27,0,0,0-2,.38,19.07,19.07,0,0,0-1.73,3c-.58,1.27-1,2.6-1.5,3.91-.09.22-.2.43-.29.64-.5-.12-.56-.47-.56-.83a36.15,36.15,0,0,1,1.12-9.61,23.65,23.65,0,0,1,1.35-4.71,24.67,24.67,0,0,1,3-4.6,5.32,5.32,0,0,1,1.72-1.16,2.11,2.11,0,0,1,2.38.16,14.31,14.31,0,0,0,2,1.07,5.71,5.71,0,0,1,2,1.7,4.58,4.58,0,0,0,.71.75c2.45,2,4.18,4.67,6,7.18a4.21,4.21,0,0,1,1,2.47,1.12,1.12,0,0,1-.55,1.13c-.48.26-.93.59-1.43.8a42.83,42.83,0,0,1-4.44,1.72A19.62,19.62,0,0,0,89.71,317c-.78.43-1.64.72-2.43,1.13a14.69,14.69,0,0,0-2.15,1.31A20.65,20.65,0,0,0,81.82,322a1.94,1.94,0,0,0-.57,1.57c0,.14,0,.29,0,.44Z"/>
        <path class="cls-6" d="M55.64,304.34a6.26,6.26,0,0,1-3.65.37A2.38,2.38,0,0,1,50,302a4.88,4.88,0,0,1,3.48-4.38,6.54,6.54,0,0,1,4.1-.2,1.75,1.75,0,0,0,.88,0c.53-.11,1.06-.28,1.59-.42a.92.92,0,0,0,.81-.76c.08-.5-.23-.71-.63-.89s-.62-.32-.93-.48a7.07,7.07,0,0,1-3.06-7.11,3,3,0,0,1,3.8-2.16,2.51,2.51,0,0,1,1.36,1.12c.9,1.48,1.79,3,2.63,4.5a5.09,5.09,0,0,1,.67,2.43,6.59,6.59,0,0,0,.36,1.6.75.75,0,0,0,.78.57.82.82,0,0,0,.77-.78,3,3,0,0,0,0-.89,7.05,7.05,0,0,1,1.73-6,9.94,9.94,0,0,1,2.38-2.46,3.12,3.12,0,0,1,3.1-.43,1.56,1.56,0,0,1,.94,1.25,3.14,3.14,0,0,1-.26,1.89,22.7,22.7,0,0,0-1.08,2.77,8.44,8.44,0,0,1-2.2,3.16c-.45.47-1,.85-1.45,1.3a5,5,0,0,0-.74.91.76.76,0,0,0,.06,1,.92.92,0,0,0,1.08.28,1,1,0,0,0,.27-.13,3.58,3.58,0,0,1,3.54-.45c.76.25,1.56.36,2.28.66a2.15,2.15,0,0,1,.83,3.61A5.09,5.09,0,0,1,75.2,303c-.68.31-1.29.74-2,1.07a2.11,2.11,0,0,1-3-1c-.71-1.2-1.48-2.36-2.26-3.51a5.3,5.3,0,0,0-.9-1,2.64,2.64,0,0,0-3.44-.19c-1,.68-1.95,1.38-2.89,2.12a5.75,5.75,0,0,0-1.13,1.18C58.59,303.14,57.38,304.26,55.64,304.34Z"/>
        <path class="cls-2" d="M79.88,324.52a1.25,1.25,0,0,1-.56,1.61,1.53,1.53,0,0,1-1.89-.19c-.14-.18-.31-.48-.24-.65a8.4,8.4,0,0,1,.82-1.71.73.73,0,0,1,1.16,0A8,8,0,0,1,79.88,324.52Z"/>
        <path class="cls-1" d="M64.64,314.81a2.12,2.12,0,0,1,.49.11,4.1,4.1,0,0,1,.71.53,30.33,30.33,0,0,0,6.68,4.41,8.21,8.21,0,0,1,1.16.65.64.64,0,0,1,.1.63.75.75,0,0,1-.6.25,1.89,1.89,0,0,1-.68-.28,54.81,54.81,0,0,1-7.09-4.36c-.48-.35-1-.7-1-1.4A2.24,2.24,0,0,1,64.64,314.81Z"/>
        <path class="cls-1" d="M74.83,328.15l.56-.12a.65.65,0,0,1,.72.42.54.54,0,0,1-.21.78,20.55,20.55,0,0,0-3.9,2.7,4,4,0,0,1-1.06.53.82.82,0,0,1-1-.46c-.18-.31-.08-.82.26-.88,1.31-.25,2.07-1.33,3.1-2Z"/>
        <path class="cls-3" d="M122.86,214.29A7.75,7.75,0,0,0,121,217a2,2,0,0,0,.39,2.32c.21.25.44.48.67.71a3.7,3.7,0,0,0,5.65-.28,15.73,15.73,0,0,0,.95-1.45c.2-.3.41-.59.72-1,.46.77.78,1.39,1.19,2a9.65,9.65,0,0,0,1.36,1.62,1.66,1.66,0,0,0,2.13.33,7.07,7.07,0,0,1,.92-.3,1.7,1.7,0,0,0,1.06-1.28,4.52,4.52,0,0,0-1-4.18c-.33-.39-.74-.72-1.1-1.09-.55-.55-.55-.74,0-1.27a9.07,9.07,0,0,0,.82-.82,6,6,0,0,0,1.33-4.15c-.1-1.66-1.35-2.42-2.38-3.37-.71-.66-1.45-.23-2.19,0a2,2,0,0,1-.77.07,1.56,1.56,0,0,0-1.33.66c-.35.38-.72.75-1,1.16a15.08,15.08,0,0,0-.85,1.42c-.16-.51-.26-.8-.33-1.09a4.34,4.34,0,0,0-1.34-2.32,2.38,2.38,0,0,0-3.45,0c-.52.48-1,1-1.51,1.51a2.2,2.2,0,0,0-.69,1.75,4.16,4.16,0,0,0,.63,2.41c.64.89,1.32,1.76,2,2.61S123.55,213.7,122.86,214.29Zm11.9,4.29a1.29,1.29,0,0,1-2.23,1,4.46,4.46,0,0,1-1.26-1.68c-.5-1.18-.84-2.43-1.26-3.73a13.35,13.35,0,0,1,1.64.22,2.69,2.69,0,0,1,1.19.6,18.84,18.84,0,0,1,1.57,2A2.33,2.33,0,0,1,134.76,218.58Zm-7.42-5.6c.12-.42.12-.83.28-.91s.54.09.81.15a2.06,2.06,0,0,1-.31.76C128,213.09,127.71,213,127.34,213Zm2.06-5.16a2.89,2.89,0,0,1,1.08-1.55,3.52,3.52,0,0,1,2.18-.49c.62.1,1.15.75,1.66,1.11a2.23,2.23,0,0,1,.28.61c.12,2.45-.68,4.84-3.63,5.32-.73.12-.95,0-1.23-.83-.06-.18,0-.43-.16-.55C128.47,210.28,129,209,129.4,207.82Zm-7.52,1a2.81,2.81,0,0,1,1.26-3.34,1.46,1.46,0,0,1,2.18.45,10,10,0,0,1,.64,1.41c.19.48.35,1,.54,1.45s.79,1.25.67,1.75a4.7,4.7,0,0,1-1.32,1.78,1.15,1.15,0,0,1-.87.19,3.77,3.77,0,0,1-2.2-1.57C122.48,210.25,122.11,209.56,121.88,208.83Zm4.56,5.26a2.66,2.66,0,0,1,1.4.45.75.75,0,0,1,.21.67,22.21,22.21,0,0,1-1.27,3.42,2.12,2.12,0,0,1-2.08,1.14,2.89,2.89,0,0,1-2.37-1.72.69.69,0,0,1,0-.56c.44-.91.65-2,1.6-2.64A17,17,0,0,1,126.44,214.09Z"/>
        <path class="cls-5" d="M131,212.82c2.95-.48,3.75-2.87,3.63-5.32a2.23,2.23,0,0,0-.28-.61c-.51-.36-1-1-1.66-1.11a3.52,3.52,0,0,0-2.18.49,2.89,2.89,0,0,0-1.08,1.55c-.37,1.2-.93,2.46.18,3.62.12.12.1.37.16.55C130,212.78,130.24,212.94,131,212.82Z"/>
        <path class="cls-5" d="M125.85,212.33a4.7,4.7,0,0,0,1.32-1.78c.12-.5-.43-1.16-.67-1.75s-.35-1-.54-1.45a10,10,0,0,0-.64-1.41,1.46,1.46,0,0,0-2.18-.45,2.81,2.81,0,0,0-1.26,3.34c.23.73.6,1.42.9,2.12a3.77,3.77,0,0,0,2.2,1.57A1.15,1.15,0,0,0,125.85,212.33Z"/>
        <path class="cls-5" d="M122.28,217.49a.69.69,0,0,0,0,.56,2.89,2.89,0,0,0,2.37,1.72,2.12,2.12,0,0,0,2.08-1.14,22.21,22.21,0,0,0,1.27-3.42.75.75,0,0,0-.21-.67,2.66,2.66,0,0,0-1.4-.45,17,17,0,0,0-2.56.76C122.93,215.52,122.72,216.58,122.28,217.49Z"/>
        <path class="cls-5" d="M131.65,214.35a13.35,13.35,0,0,0-1.64-.22c.42,1.3.76,2.55,1.26,3.73a4.46,4.46,0,0,0,1.26,1.68,1.29,1.29,0,0,0,2.23-1,2.33,2.33,0,0,0-.35-1.66,18.84,18.84,0,0,0-1.57-2A2.69,2.69,0,0,0,131.65,214.35Z"/>
        <path class="cls-2" d="M128.43,212.22c-.27-.06-.61-.25-.81-.15s-.16.49-.28.91c.37,0,.69.11.78,0A2.06,2.06,0,0,0,128.43,212.22Z"/>
        <path class="cls-3" d="M146.44,48.28a1.7,1.7,0,0,1-.88-1.81c.35-1.68-.63-2.65-1.73-3.63a3.4,3.4,0,0,0-4-.43,4.88,4.88,0,0,0-2.58,2.78A3.07,3.07,0,0,1,134,47.66a1.84,1.84,0,0,0-1.29.7,3.79,3.79,0,0,1-1.5,1.17,2.14,2.14,0,0,0-.68.66,3.71,3.71,0,0,0,.29,4.66,3.36,3.36,0,0,0,2.68,1.34A2,2,0,0,1,135.7,58c.21,1,.47,2,.69,3,.08.38.12.76.15,1a2.9,2.9,0,0,0,4.39,1,7.72,7.72,0,0,0,2-2.79,5,5,0,0,1,3.77-2.75A3.08,3.08,0,0,0,148,57c1.34-1,2.43-2.2,1.74-4.1a1.67,1.67,0,0,1-.05-.39A4.45,4.45,0,0,0,147.56,49C147.17,48.81,146.82,48.52,146.44,48.28Zm1.79,6.06c-.16.82-.8,1.12-1.5,1.35a20.38,20.38,0,0,0-2.36.78,8.2,8.2,0,0,0-3.3,3.45,11.9,11.9,0,0,0-.77,1.34c-.31.67-.81.74-1.45.67a.79.79,0,0,1-.77-.72c-.14-.7-.23-1.41-.39-2.1s-.36-1.51-.6-2.25a2.72,2.72,0,0,0-2.62-2,5.24,5.24,0,0,0-1,0,1.32,1.32,0,0,1-1.28-.73,3.19,3.19,0,0,1-.64-2.19,1.57,1.57,0,0,1,.29-.89c.86-.76,1.78-1.47,2.52-2.06a10.74,10.74,0,0,1,1.17-.29,3.2,3.2,0,0,0,2.94-2.43,4.37,4.37,0,0,1,1.59-2.17,2.35,2.35,0,0,1,3.56.43A1.75,1.75,0,0,1,144,45.8c-.44,1.75.47,2.8,1.76,3.7.16.11.35.17.51.27A4.6,4.6,0,0,1,148.23,54.34Z"/>
        <path class="cls-2" d="M145.77,49.5c-1.29-.9-2.2-2-1.76-3.7a1.75,1.75,0,0,0-.36-1.24,2.35,2.35,0,0,0-3.56-.43,4.37,4.37,0,0,0-1.59,2.17,3.2,3.2,0,0,1-2.94,2.43,10.74,10.74,0,0,0-1.17.29c-.74.59-1.66,1.3-2.52,2.06a1.57,1.57,0,0,0-.29.89,3.19,3.19,0,0,0,.64,2.19,1.32,1.32,0,0,0,1.28.73,5.24,5.24,0,0,1,1,0,2.72,2.72,0,0,1,2.62,2c.24.74.43,1.49.6,2.25s.25,1.4.39,2.1a.79.79,0,0,0,.77.72c.64.07,1.14,0,1.45-.67a11.9,11.9,0,0,1,.77-1.34,8.2,8.2,0,0,1,3.3-3.45,20.38,20.38,0,0,1,2.36-.78c.7-.23,1.34-.53,1.5-1.35a4.6,4.6,0,0,0-1.95-4.57C146.12,49.67,145.93,49.61,145.77,49.5Zm-3.59,4.76a1,1,0,1,1-.66-1.82.75.75,0,0,1,1.06.53C142.83,53.64,142.7,54.07,142.18,54.26Z"/>
        <path class="cls-3" d="M141.52,52.44a1,1,0,1,0,.66,1.82c.52-.19.65-.62.4-1.29A.75.75,0,0,0,141.52,52.44Z"/>
        <path class="cls-3" d="M.8,144.45c.66.23,1.34-.24,1.88-.75,1.13-1.06,2.25-2.14,3.43-3.14a7.36,7.36,0,0,0,2.22-3.37c.47-1.41,1-2.8,1.44-4.21a11.47,11.47,0,0,0,.29-1.23c0-1.4-.37-1.68-1.42-1.39a8.77,8.77,0,0,0-4.6,3.4,13.93,13.93,0,0,1-1.18,1.54,6.24,6.24,0,0,0-1.52,2.46c-.4,1.1-.8,2.19-1.14,3.3A3.48,3.48,0,0,0,0,142.41C.08,143.16-.07,144.14.8,144.45Zm1.08-3.39c.63-1.81,1-3.73,2.58-5.1a5.64,5.64,0,0,0,1.12-1.56,5.14,5.14,0,0,1,2-1.72c.08-.05.29.11.43.17-.06.26-.08.46-.14.64-.31.92-.69,1.82-.94,2.75a8.22,8.22,0,0,1-2.84,4c-.49.42-.95.88-1.45,1.28a2,2,0,0,1-.62.21C2,141.54,1.81,141.26,1.88,141.06Z"/>
        <path class="cls-2" d="M2.68,141.57c.5-.4,1-.86,1.45-1.28a8.22,8.22,0,0,0,2.84-4c.25-.93.63-1.83.94-2.75.06-.18.08-.38.14-.64-.14-.06-.35-.22-.43-.17a5.14,5.14,0,0,0-2,1.72A5.64,5.64,0,0,1,4.46,136c-1.55,1.37-1.95,3.29-2.58,5.1-.07.2.11.48.18.72A2,2,0,0,0,2.68,141.57Z"/>
        <path class="cls-3" d="M37.53,428.63a1.5,1.5,0,0,0,1.56-.92,3.69,3.69,0,0,0-.09-3.89,2.53,2.53,0,0,0-4.34,0,4.82,4.82,0,0,0-.68,2.6c0,1.76.28,2.07,2,2.17h.58v0C36.88,428.63,37.2,428.61,37.53,428.63Zm-2.18-3a1.53,1.53,0,0,1,1.46-1.48,1.63,1.63,0,0,1-.09,3.26C35.9,427.46,35.3,426.31,35.35,425.61Z"/>
        <path class="cls-7" d="M38.3,425.8a1.6,1.6,0,0,0-1.49-1.67,1.53,1.53,0,0,0-1.46,1.48c-.05.7.55,1.85,1.37,1.78A1.61,1.61,0,0,0,38.3,425.8Z"/>
      </g>
    </g>
  </g>
</svg>
