<svg id="Layer_1" data-name="Layer 1" xmlns="http://www.w3.org/2000/svg" viewBox="0 0 524.23 562.09">
  <defs>
    <style>
      .cls-1 {
        fill: #ecc559;
      }

      .cls-2 {
        fill: #e46940;
      }

      .cls-3 {
        fill: #f9eccf;
      }

      .cls-4 {
        fill: #653a17;
      }

      .cls-5 {
        fill: #663b17;
      }

      .cls-6 {
        fill: none;
        stroke: #663b17;
        stroke-miterlimit: 10;
        stroke-width: 4px;
      }
    </style>
  </defs>
  <title>tradition</title>
  <g>
    <g>
      <path class="cls-1" d="M500.3,524.43a56.06,56.06,0,0,1,6.87.86c-.85-2.68-1.82-5.4-2.81-8.19s-2.05-5.8-3-8.77C501.11,515.27,500.66,520.83,500.3,524.43Z" transform="translate(-171.19 -362.49)"/>
      <path class="cls-2" d="M518.45,481.76c0-.11,0-.21,0-.32-3.65-23.14-11.47-50.63-27.77-74.78-3-.67-6.08-1.3-9.14-1.87a131.65,131.65,0,0,1,10.34,23.86c14.18,23.48,24.45,63.4,29.53,86.34A249.21,249.21,0,0,0,518.45,481.76Z" transform="translate(-171.19 -362.49)"/>
      <path class="cls-1" d="M520.28,529.39c-.68-3.49-1.85-9.17-3.45-16.21a115,115,0,0,1-2,14.08C516.72,527.88,518.52,528.6,520.28,529.39Z" transform="translate(-171.19 -362.49)"/>
      <path class="cls-2" d="M511.25,524.94a152.57,152.57,0,0,0,2.25-25.58c-4.12-16.28-9.8-35.72-16.75-52,.28,1.38.58,2.75.85,4.16a245.2,245.2,0,0,1,3.81,36.3,1.94,1.94,0,0,1,.17.69c.33,9.77,3.49,18.65,6.55,27.25C509.24,518.89,510.32,521.92,511.25,524.94Z" transform="translate(-171.19 -362.49)"/>
      <path class="cls-2" d="M537.76,541.5c2.41-10.75,4.67-30.31-.26-58.61a2,2,0,0,1,.06-.87c-7.47-25.72-19.64-52.24-39.32-73.55-.65-.17-1.31-.32-2-.48,15,23.73,22.45,50.15,26,72.58,7.18,11.43,12.44,43.26,14.84,60.33Z" transform="translate(-171.19 -362.49)"/>
      <path class="cls-2" d="M505.27,410.36C547.77,460.54,553,534.82,553.21,565h10.58a6.23,6.23,0,0,1,2.29.45c-.83-76.65-21-122.44-45.61-150.2Q513,412.58,505.27,410.36Z" transform="translate(-171.19 -362.49)"/>
      <path class="cls-1" d="M549.07,557.58A329.87,329.87,0,0,0,544.44,512c.31,15.41-1.62,26.43-3.38,33.16A57.94,57.94,0,0,1,549.07,557.58Z" transform="translate(-171.19 -362.49)"/>
      <path class="cls-1" d="M532.48,536.8c-1.79-12-4.63-28.41-8.22-40.71a233,233,0,0,1,.81,35.74A59.51,59.51,0,0,1,532.48,536.8Z" transform="translate(-171.19 -362.49)"/>
      <path class="cls-2" d="M487.72,495.69c-2.38-8.87-5-18.9-7.68-29.05a514.79,514.79,0,0,1,1.21,55.26C484.76,515.63,489.21,505.4,487.72,495.69Z" transform="translate(-171.19 -362.49)"/>
      <path class="cls-1" d="M477.07,527.68q.4-11.49.41-21.8a126.67,126.67,0,0,1-5.6,23.91C473.57,529,475.31,528.31,477.07,527.68Z" transform="translate(-171.19 -362.49)"/>
      <path class="cls-2" d="M387.67,457.9a1.89,1.89,0,0,1,.16-.63c2.69-24.78,7.38-42.25,12.48-54.85-3.08.38-6.14.84-9.19,1.33a134.71,134.71,0,0,0-12.63,29.06c-6.91,27.36,1.47,63.47,7.07,82.53a475.5,475.5,0,0,1,2-55.84C387.63,459,387.64,458.44,387.67,457.9Z" transform="translate(-171.19 -362.49)"/>
      <path class="cls-2" d="M404.84,401.9c-5.41,12.66-10.47,30.76-13.22,57.35-1.55,32.38,2.55,53.47,5.76,64.56.51-14,1.53-39.47,2.82-58.32a257.72,257.72,0,0,1,12.63-64.34C410.16,401.35,407.5,401.61,404.84,401.9Z" transform="translate(-171.19 -362.49)"/>
      <path class="cls-1" d="M384.76,526.13c-1.05-3.09-2.61-7.94-4.3-14-.49,5.06-1.13,9.6-1.63,12.77A58.81,58.81,0,0,1,384.76,526.13Z" transform="translate(-171.19 -362.49)"/>
      <path class="cls-2" d="M476.22,403.87c-3.19-.52-6.38-1-9.61-1.42a159.23,159.23,0,0,1,8.45,28.3,1.43,1.43,0,0,1,.13.28C481.84,458.58,492,496.38,497,514.8,498.35,491.57,498.23,440.49,476.22,403.87Z" transform="translate(-171.19 -362.49)"/>
      <path class="cls-2" d="M466.74,465.37c1.3,18.84,2.31,44.33,2.82,58.39,3.24-11.19,7.37-32.5,5.74-65.12-2.77-26.55-7.85-44.37-13.24-56.71-3-.32-5.93-.61-8.93-.83,5.91,18.14,11.52,40.41,13.38,63.48A1.91,1.91,0,0,1,466.74,465.37Z" transform="translate(-171.19 -362.49)"/>
      <path class="cls-1" d="M491,508a61,61,0,0,1-7.36,17.68,58.84,58.84,0,0,1,11.79-1.4C494.62,521.23,493.05,515.47,491,508Z" transform="translate(-171.19 -362.49)"/>
      <path class="cls-3" d="M563.79,587.73a2.3,2.3,0,0,0,1.83-.94l.51-1.81V571.31a2.34,2.34,0,0,0-2.34-2.34H553a58.63,58.63,0,0,1,1.39,9.34c.09,1.28.13,2.58.13,3.89,0,1.84-.09,3.69-.27,5.53Z" transform="translate(-171.19 -362.49)"/>
      <path class="cls-2" d="M454.28,498.91a313.64,313.64,0,0,0-4-49.54,284,284,0,0,1-6.53,59.15,2,2,0,0,1,.3.86L446,530.06C448.83,522.75,452.79,510.92,454.28,498.91Z" transform="translate(-171.19 -362.49)"/>
      <path class="cls-2" d="M570.11,585.55a6.17,6.17,0,0,1-.81,2.92A363.43,363.43,0,0,1,544,653.64a141.28,141.28,0,0,0-1,15,34.09,34.09,0,0,1-1,7.9c25.06-30.72,48.7-83.86,38.31-171.66a246.22,246.22,0,0,1-5,58.85C573.78,571.26,572,578.57,570.11,585.55Z" transform="translate(-171.19 -362.49)"/>
      <path class="cls-2" d="M449.23,680.58l-2.06-1.19c-3.32-1.92-4.7-1.09-7,.29a11.1,11.1,0,0,1-13.37,0c-2.31-1.37-3.69-2.21-7-.29l-2,1.18c-5.21,3-14.77,8.48-20,13.11,2.47-.43,4.75-.86,6.84-1.26,6.35-1.23,11.36-2.19,16.26-1.68a35.68,35.68,0,0,0,8.48.09,37.11,37.11,0,0,1,8.25,0,35.68,35.68,0,0,0,8.48-.09c4.9-.51,9.91.46,16.27,1.68,2.08.4,4.36.83,6.83,1.26C464,689.05,454.44,683.56,449.23,680.58Z" transform="translate(-171.19 -362.49)"/>
      <path class="cls-2" d="M539.22,685.84,538.16,687c-6.58,13.74-18.78,27.67-29.67,39,25-16.05,77.48-57,82.44-120a542.2,542.2,0,0,0-4.19-68.33c.88,33.28-3.34,63.36-12.69,89.84C562.35,660.59,546.14,678.29,539.22,685.84Z" transform="translate(-171.19 -362.49)"/>
      <path class="cls-2" d="M276,599.7c2.18,65.85,56.32,109,82.1,125.93-10.81-11.23-22.83-25-29.34-38.62l-1.06-1.16c-6.92-7.56-23.13-25.26-34.83-58.36-9.35-26.48-13.57-56.56-12.69-89.84-2.08,17.19-3.33,33.15-3.87,47.91v0c0,.13,0,.26,0,.39C276.15,590.69,276.06,595.24,276,599.7Z" transform="translate(-171.19 -362.49)"/>
      <path class="cls-2" d="M294,559.78c.86,4.43,1.82,8.78,2.84,13v-1.62c0-.05,0-.11,0-.16.32-76.9,19.43-124.21,43.51-153.7a261.22,261.22,0,0,0-28,12.57q-2.9,4.46-5.44,9C285.49,478.88,287.17,524.57,294,559.78Z" transform="translate(-171.19 -362.49)"/>
      <path class="cls-4" d="M580.34,478.52a2,2,0,0,1,.15.37c0,.14,0,.29.07.43,2.19,8,3.86,15.78,5.12,23.16a634.67,634.67,0,0,1,8.9,82.66,1.93,1.93,0,0,1,.34.92,127,127,0,0,1,0,20.37,388.23,388.23,0,0,1-2.17,39.14,79.45,79.45,0,0,1-1.6,12.43c-6.58,44.52-20.47,71.53-31.44,86.65-5.76,7.94-10.14,10.82-14.61,10.82-3.74,0-7.56-2-12.3-4.8-1.87-1.09-3.92-2.27-6.19-3.44h0a61.49,61.49,0,0,0-16.67-5.84c-2.76,18.63.21,43.65,13.22,59.42,20.1,24.36,31.11,32.05,65.22,36a241.32,241.32,0,0,1,38.21,2.75A262.13,262.13,0,0,0,561.86,434,188.58,188.58,0,0,1,580.34,478.52Z" transform="translate(-171.19 -362.49)"/>
      <path class="cls-2" d="M367.74,736.16c-11.78-6.53-72.87-43-90.82-105.39.33,4.85.73,9.56,1.21,14.07a1.8,1.8,0,0,1,.05.19c0,.21,0,.41.05.61q.64,5.88,1.45,11.38c8.77,43.24,53,80.34,60.05,86A66.61,66.61,0,0,1,367.74,736.16Z" transform="translate(-171.19 -362.49)"/>
      <path class="cls-2" d="M307.07,716.55a169.44,169.44,0,0,1-22.24-33.14c7.11,28.55,17.25,47.31,25.66,58.89,8.95,12.34,12.41,10.31,21.66,4.92,1.17-.69,2.41-1.41,3.73-2.14A234.72,234.72,0,0,1,307.07,716.55Z" transform="translate(-171.19 -362.49)"/>
      <path class="cls-3" d="M363.9,597.61a15.44,15.44,0,0,1-15.41-15.41,22.12,22.12,0,0,1,44.24,0,28.83,28.83,0,0,1-57.65,0,35.53,35.53,0,1,1,71.06,0,42.14,42.14,0,0,1-11.93,29.44,37.93,37.93,0,1,0-61.84-29.44c0,1.08.08,2.15.17,3.22a31.53,31.53,0,0,0,62.89-3.22,24.82,24.82,0,1,0-49.64,0,18.12,18.12,0,0,0,36.23,0,11.41,11.41,0,1,0-22.82,0,4.71,4.71,0,0,0,9.41,0,2,2,0,0,1,4,0,8.71,8.71,0,0,1-17.41,0,15.41,15.41,0,1,1,30.82,0,22.12,22.12,0,0,1-44.23,0,28.82,28.82,0,1,1,57.64,0,35.57,35.57,0,0,1-35.53,35.53,35.17,35.17,0,0,1-10.37-1.56,37.58,37.58,0,0,0,15.4,3.9,38.07,38.07,0,0,0,33.21-37.87,31.53,31.53,0,1,0-63.06,0,24.83,24.83,0,0,0,49.65,0,18.12,18.12,0,0,0-36.24,0,11.42,11.42,0,0,0,22.83,0,4.71,4.71,0,1,0-9.42,0,2,2,0,0,1-4,0,8.71,8.71,0,1,1,17.42,0A15.44,15.44,0,0,1,363.9,597.61Z" transform="translate(-171.19 -362.49)"/>
      <path class="cls-3" d="M496.63,636.12a53.83,53.83,0,0,0,53.08-44.38,54.48,54.48,0,0,0,.84-9.54q0-1.83-.12-3.63a54.23,54.23,0,0,0-1.9-11.06,53.48,53.48,0,0,0-8.87-17.72,33.47,33.47,0,0,1-1.28,3.27l-3,6.29-.79-6.92c0-.15-.45-3.91-1.25-9.64a54.41,54.41,0,0,0-8.63-6.54l-1,11.91-2.5-13.89a53.28,53.28,0,0,0-7.29-3.12,23.34,23.34,0,0,1-.86,2.53l-2.57,5.78-1.22-6.2c-.24-1.21-.53-2.42-.85-3.63a53.85,53.85,0,0,0-8.55-1.22l-.94,8.45-2.37-8.58a54.16,54.16,0,0,0-16.3,2.53l-3.47,4.54.13-3.38a53.43,53.43,0,0,0-7.46,3.61l-3.3,6.39-.13-4.21A53.79,53.79,0,0,0,446.61,562a2,2,0,0,1-1.88,1.25h0a2,2,0,0,1-.72-.14h0a2,2,0,0,1-.66-.42c-2.07-2-6.57-2.88-9.88-2.88-3.49,0-8.2.75-10.31,2.39a1,1,0,0,1-.23.12,1.43,1.43,0,0,1-.22.15s-.09,0-.13,0a3.1,3.1,0,0,1-.42.08,1.94,1.94,0,0,1-.34,0,2,2,0,0,1-.41-.08l-.32-.1a2.46,2.46,0,0,1-.34-.22,2.26,2.26,0,0,1-.29-.25s-.07-.05-.1-.09-.08-.17-.13-.25-.11-.13-.14-.21a53.77,53.77,0,0,0-19.17-23.63l-.13,4.17-3.28-6.34A52.15,52.15,0,0,0,390,532l.34,9.31-4-10.59a53.85,53.85,0,0,0-8.22-1.87c-.06.34-.11.58-.12.64l-1.21,6.44-2.59-6c-.06-.14-.29-.67-.64-1.52-1.09-.07-2.19-.12-3.29-.12-.73,0-1.45,0-2.17.05v11.76c.82-.05,1.63-.13,2.46-.13,23.35,0,41.65,18.55,41.65,42.24a42,42,0,0,1-41.94,41.94c-.4,0-.79,0-1.19-.06s-.6.1-.91.13H368a2,2,0,0,1-.9-.24,42,42,0,0,1-38.56-38.16,36.1,36.1,0,0,1-.19-3.62c0-1.45.08-2.88.22-4.29a42.31,42.31,0,0,1,30.3-36.26L356.11,535c-.12-.28-.77-1.85-1.7-4.31a54,54,0,0,0-8.54,3.49l-.4,5.19-2.22-3.76A54.41,54.41,0,0,0,333,543.38c-.4,5.71-.58,9.79-.59,9.91l-.27,6.08-3.39-5.06c-.14-.21-1-1.5-2.16-3.55a53.85,53.85,0,0,0-8,16.52V569H318a53.92,53.92,0,1,0,106.2,13.23,9.24,9.24,0,1,1,18.47,0A54,54,0,0,0,496.63,636.12Zm0-96.16a42.09,42.09,0,0,1,0,84.18c-.47,0-.93-.06-1.4-.07s-.65.11-1,.14H494a2,2,0,0,1-.93-.26,42,42,0,0,1-36.81-30.38,35.46,35.46,0,0,1-1.9-11.38A42.28,42.28,0,0,1,496.63,540Z" transform="translate(-171.19 -362.49)"/>
      <path class="cls-2" d="M421.79,422.26A185.72,185.72,0,0,0,426.38,489a1.37,1.37,0,0,1,.07.29c1.67,6.51,3.45,12.11,5,16.69V400.38q-3,0-6,.1c-1.48,6.53-2.58,12.86-3.35,19a1.94,1.94,0,0,1,.06,1Z" transform="translate(-171.19 -362.49)"/>
      <path class="cls-2" d="M412.67,498.91a74.75,74.75,0,0,0,8.39,26.15l1.48-35.28a195.12,195.12,0,0,1-5.67-41.87A315.6,315.6,0,0,0,412.67,498.91Z" transform="translate(-171.19 -362.49)"/>
      <path class="cls-1" d="M412.26,529.21l-.42,10-3.46-9.37a133.58,133.58,0,0,1-6.29-24.07c-.55,13.06-.91,23.91-1,27.37a57.71,57.71,0,0,1,21.76,24.7c4-1.86,9.44-2,10.64-2,.73,0,6.29.09,10.45,2.41a57.7,57.7,0,0,1,22-25.15c-.11-3.37-.45-13.6-1-26.05a118.42,118.42,0,0,1-6.36,22.81l-3.46,8.75-.4-9.4c-.16-4-.25-7.76-.3-11.46a156.47,156.47,0,0,1-7.8,21.34l-3.12,6.62-2.4-25.56c-1.52,6-3.18,12.1-5.08,18.2l-4.52,14.84V518c-.36-1.16-.91-2.69-1.6-4.62-1-2.86-2.39-6.63-3.85-11.23l-1.46,35.05-3.36-4.37a66,66,0,0,1-8.62-17C412.54,520.14,412.45,524.56,412.26,529.21Z" transform="translate(-171.19 -362.49)"/>
      <path class="cls-2" d="M446.5,694.72a39.6,39.6,0,0,1-9.28.09,33.59,33.59,0,0,0-7.5,0,39.5,39.5,0,0,1-9.27-.09c-4.31-.46-8.83.42-15.09,1.63-2.15.41-4.48.86-7,1.3,2.61,1.77,6.21,4.37,10.43,7.86,8,6.58,14.84,7.83,24.72,7.83s16.76-1.25,24.73-7.83c4.23-3.49,7.82-6.09,10.43-7.86-2.56-.44-4.89-.89-7-1.3C455.33,695.14,450.81,694.27,446.5,694.72Z" transform="translate(-171.19 -362.49)"/>
      <path class="cls-1" d="M489.93,613.73a31.57,31.57,0,0,0,31.53-31.53,24.83,24.83,0,1,0-49.65,0,18.12,18.12,0,0,0,36.23,0,11.41,11.41,0,1,0-22.82,0,4.71,4.71,0,0,0,9.41,0,2,2,0,0,1,4,0,8.71,8.71,0,0,1-17.41,0,15.41,15.41,0,1,1,30.82,0,22.12,22.12,0,0,1-44.23,0,28.83,28.83,0,1,1,57.65,0,35.42,35.42,0,0,1-45.28,34.13A37.59,37.59,0,0,0,495,620.06a38.08,38.08,0,0,0,33.13-37.86,31.53,31.53,0,1,0-63.06,0,24.83,24.83,0,0,0,49.65,0,18.12,18.12,0,1,0-36.23,0,11.41,11.41,0,1,0,22.82,0,4.71,4.71,0,1,0-9.41,0,2,2,0,0,1-4,0,8.71,8.71,0,1,1,17.41,0,15.41,15.41,0,1,1-30.82,0,22.12,22.12,0,1,1,44.23,0,28.83,28.83,0,0,1-57.65,0,35.53,35.53,0,1,1,71.06,0,42.12,42.12,0,0,1-12.76,30.28,38,38,0,1,0-59.28-20.08A31.58,31.58,0,0,0,489.93,613.73Z" transform="translate(-171.19 -362.49)"/>
      <path class="cls-1" d="M436.76,664.84a78.93,78.93,0,0,1-1-8,11.07,11.07,0,0,1-4.49,0,78.93,78.93,0,0,1-1,8,42.17,42.17,0,0,1-1.48,5.88,20.19,20.19,0,0,1-2,4.36,22.37,22.37,0,0,1,2.13,1.17,7.27,7.27,0,0,0,9.27,0,22.37,22.37,0,0,1,2.13-1.17,20.19,20.19,0,0,1-2-4.36A42.17,42.17,0,0,1,436.76,664.84Z" transform="translate(-171.19 -362.49)"/>
      <path class="cls-1" d="M439.78,649c1.46-2,3.27-4.55,6.8-4.55a10.37,10.37,0,0,1,6.75,2.47,5.45,5.45,0,0,0,3.47,1.41,14.35,14.35,0,0,0,3.74-4.48,6.67,6.67,0,0,0,0-5.88,29.46,29.46,0,0,0-3.67-6l-4.44-6a64,64,0,0,1-7.52-13,50.07,50.07,0,0,1-3.47-13.12,57.79,57.79,0,0,1-2.74-17.58,5.24,5.24,0,1,0-10.47,0,57.69,57.69,0,0,1-2.64,17.27,50.31,50.31,0,0,1-3.51,13.43,64,64,0,0,1-7.52,13l-4.44,6a29.91,29.91,0,0,0-3.67,6,6.7,6.7,0,0,0,0,5.88,14.48,14.48,0,0,0,3.74,4.48,5.42,5.42,0,0,0,3.41-1.41,10.37,10.37,0,0,1,6.75-2.47c3.53,0,5.34,2.53,6.8,4.55,1.57,2.2,2.94,4.09,6.3,4.09S438.21,651.15,439.78,649Z" transform="translate(-171.19 -362.49)"/>
      <path class="cls-1" d="M588.31,840.75h-.09A218.5,218.5,0,0,1,565,839a138.15,138.15,0,0,1-22.82-4.86,92.67,92.67,0,0,1-21.27-9.44,73.71,73.71,0,0,1-17.55-15.08,73,73,0,0,0,18.06,14.22,91.2,91.2,0,0,0,21.32,8.38,125.61,125.61,0,0,0,19.06,3.41c-17-5.42-27.26-14.78-41.69-32.27-13.8-16.73-17-43.07-14.09-62.61a78.28,78.28,0,0,0-11.26-.65c-1.25,1.49-2.44,3.08-3.56,4.72-2,2.89-3.78,5.93-5.53,9-3.47,6.18-6.65,12.56-9.8,18.95,2.53-6.66,5.1-13.31,8-19.85,1-2.14,2-4.26,3-6.37l-4,3.66c-17.83,16.38-23.83,21.9-49.42,21.9s-31.58-5.52-49.41-21.9L380,746.49c1.07,2.12,2.1,4.25,3.06,6.39,2.92,6.56,5.49,13.22,8,19.89-3.15-6.41-6.34-12.8-9.82-19-1.74-3.09-3.56-6.13-5.53-9-1.11-1.62-2.28-3.19-3.51-4.66a77,77,0,0,0-11.85.74c3.54,23-2,47.89-14.1,62.52-14.44,17.49-24.69,26.85-41.7,32.28a127.24,127.24,0,0,0,19.07-3.42A91.54,91.54,0,0,0,345,823.83a73.15,73.15,0,0,0,18-14.22,73.52,73.52,0,0,1-17.55,15.08,92.48,92.48,0,0,1-21.27,9.44A137.93,137.93,0,0,1,301.38,839a218.3,218.3,0,0,1-23.27,1.76h0a239.39,239.39,0,0,0-34.74,2.36,262.11,262.11,0,0,0,379.82,0A239.47,239.47,0,0,0,588.31,840.75ZM450.9,826.69a48.51,48.51,0,0,1-6.82,8.9,22.55,22.55,0,0,1-4.64,3.62,14.53,14.53,0,0,1-6,1.8,1.88,1.88,0,0,1-.94-.2,14.86,14.86,0,0,1-5.16-1.74,23.34,23.34,0,0,1-4.71-3.75,50.4,50.4,0,0,1-6.92-9.17,158.61,158.61,0,0,1-10-20.17,156.45,156.45,0,0,0,11.62,19,47.89,47.89,0,0,0,7.29,8.09,20.31,20.31,0,0,0,4.3,2.85,10.88,10.88,0,0,0,4.55,1h.09a2.68,2.68,0,0,1,.3,0,10.92,10.92,0,0,0,4-.9,19.58,19.58,0,0,0,4.22-2.73,46.54,46.54,0,0,0,7.18-7.8,149.9,149.9,0,0,0,11.44-18.51A151,151,0,0,1,450.9,826.69Z" transform="translate(-171.19 -362.49)"/>
      <path class="cls-2" d="M448.42,419a1.94,1.94,0,0,1,.25.57c9.51,43.09,9.58,65.66,9.65,87.48,0,3.51,0,7.08.07,10.75,11-39.29,1.06-85-9.53-117-1.18-.07-2.36-.14-3.53-.19Q447.24,409.69,448.42,419Z" transform="translate(-171.19 -362.49)"/>
      <path class="cls-2" d="M528.28,418.1c23.31,29.23,41.59,75.76,41.83,150.76q.66-3,1.28-6c7.67-38.48,9.81-90.07-16.91-132.82A261.24,261.24,0,0,0,528.28,418.1Z" transform="translate(-171.19 -362.49)"/>
      <path class="cls-2" d="M441.2,400.48c-1.9-.05-3.81-.08-5.73-.1V525.89C447.66,481.57,449.54,439,441.2,400.48Z" transform="translate(-171.19 -362.49)"/>
      <path class="cls-2" d="M312.44,592.67a2,2,0,0,1,.05-.94H303a5.68,5.68,0,0,1-1.09-.11,366.61,366.61,0,0,0,19.41,50C318,618.6,312.52,593,312.44,592.67Z" transform="translate(-171.19 -362.49)"/>
      <path class="cls-2" d="M563.79,591.73h-9.33a2,2,0,0,1,0,.94c-.08.36-5.46,25.53-8.84,48.45a376.87,376.87,0,0,0,18.54-49.43C564.07,591.7,563.93,591.73,563.79,591.73Z" transform="translate(-171.19 -362.49)"/>
      <path class="cls-3" d="M300.82,573v12.56a2.22,2.22,0,0,0,2.22,2.22h9.63c-.17-1.82-.27-3.66-.27-5.53A57.71,57.71,0,0,1,313.94,569H303a2.21,2.21,0,0,0-2.2,2.14C300.84,571.73,300.82,572.33,300.82,573Z" transform="translate(-171.19 -362.49)"/>
      <path class="cls-2" d="M404.2,465.64c-.07,1.06-.14,2.14-.22,3.24-.69,16.12.5,32.57,4.59,48.18,0-3.41.05-6.73.06-10,.07-21.71.14-44.16,9.5-86.81q1.1-9.48,3.3-19.62c-1.45.07-2.89.15-4.33.24a253.5,253.5,0,0,0-12.93,64.56C404.17,465.51,404.2,465.57,404.2,465.64Z" transform="translate(-171.19 -362.49)"/>
      <path class="cls-2" d="M358.87,496A292.83,292.83,0,0,1,356,452.29a239,239,0,0,0-7.08,34.4c-.94,11.44,4.17,28.34,7.7,38.38Z" transform="translate(-171.19 -362.49)"/>
      <path class="cls-2" d="M587.27,657c.54-3.66,1-7.46,1.45-11.37,0-.2,0-.4,0-.61a1.46,1.46,0,0,1,.05-.2q.61-5.73,1.06-11.81c-18.56,61.26-78.85,96.71-90.65,103.14a66.61,66.61,0,0,1,28,6.9C534.32,737.35,578.5,700.22,587.27,657Z" transform="translate(-171.19 -362.49)"/>
      <path class="cls-1" d="M371.88,733.88h0a.94.94,0,0,1,.1.1c5.87,5.1,10.7,9.54,14.78,13.29,17.42,16,22.68,20.84,46.7,20.84s29.29-4.83,46.71-20.85c4.08-3.75,8.91-8.18,14.79-13.28l.9-.91c3.07-3.06,6.53-6.53,10.13-10.27a36,36,0,0,0,3.2-5.93,28.71,28.71,0,0,0,2.11-16.29c1.62,5.43,1.15,11.38-.51,16.87,0,.14-.09.27-.14.41,14-15.16,28.34-33.69,28.34-49.24,0-10.74,2.51-28.13,5.21-43.66a139.5,139.5,0,0,1-20,29.81,134.88,134.88,0,0,0,18.52-37.52A57.94,57.94,0,0,1,441.69,600.5a49.55,49.55,0,0,0,4.14,12A62.83,62.83,0,0,0,454,624.67l4.83,5.67a32.23,32.23,0,0,1,4.45,6.37,10,10,0,0,1,.45,8.49,19.37,19.37,0,0,1-4.87,6.59,2.13,2.13,0,0,1-.25.16,1.22,1.22,0,0,1-.19.12,1.93,1.93,0,0,1-1.22.23,8.32,8.32,0,0,1-5.16-1.43,9.08,9.08,0,0,0-2.77,1.09c-3.17,1.61-5.51-.49-7.45,1.09a1.54,1.54,0,0,1-.3.2,10.21,10.21,0,0,1-5.17,3.4,75.15,75.15,0,0,0,2.32,7.65,38.54,38.54,0,0,0,2.31,5.23,13.13,13.13,0,0,0,3.1,4.1,1.91,1.91,0,0,1,.55.69,11.47,11.47,0,0,1,4.52,1.61l2.05,1.18c10.94,6.27,21.84,12.86,24.69,18.42l0,0,0,.06s0,.09,0,.13a2.58,2.58,0,0,1,.14.39.66.66,0,0,1,0,.14,2.26,2.26,0,0,1,0,.26,1.68,1.68,0,0,1-.06.45,2.17,2.17,0,0,1-.07.24,2,2,0,0,1-.25.45.83.83,0,0,1-.11.15,1.74,1.74,0,0,1-.51.42,113,113,0,0,0-14.4,10.35c-8.86,7.32-16.71,8.75-27.28,8.75s-18.41-1.43-27.27-8.75a113,113,0,0,0-14.4-10.35,1.74,1.74,0,0,1-.51-.42.83.83,0,0,1-.11-.15,2,2,0,0,1-.25-.45,2.17,2.17,0,0,1-.07-.24,1.68,1.68,0,0,1-.06-.45,2.26,2.26,0,0,1,0-.26.66.66,0,0,1,0-.14,2.58,2.58,0,0,1,.14-.39s0-.09,0-.13l0-.06,0,0c2.85-5.57,13.76-12.16,24.7-18.43l2-1.17a11.43,11.43,0,0,1,4.54-1.61,2.18,2.18,0,0,1,.24-.42,2.44,2.44,0,0,1,.29-.27,13.13,13.13,0,0,0,3.1-4.1,38.54,38.54,0,0,0,2.31-5.23,75.15,75.15,0,0,0,2.32-7.65,10.2,10.2,0,0,1-5.24-3.49l-.17-.11c-1.94-1.58-4.28.52-7.45-1.09a8.69,8.69,0,0,0-2.83-1.09,8.32,8.32,0,0,1-5.06,1.43,1.88,1.88,0,0,1-1.16-.18,2.13,2.13,0,0,1-.42-.23h0l-.06,0a2.16,2.16,0,0,1-.4-.4,18.45,18.45,0,0,1-4.52-6.24,10,10,0,0,1,.46-8.49,31.41,31.41,0,0,1,4.45-6.37l4.82-5.67a62.83,62.83,0,0,0,8.19-12.19A49.75,49.75,0,0,0,425.42,600,57.88,57.88,0,0,1,324.29,617.3,134.44,134.44,0,0,0,343,655.46,138.72,138.72,0,0,1,322.76,625c2.68,15.51,5.19,32.87,5.19,43.59,0,16.23,15.6,35.71,30.17,51.2-.18-.5-.36-1-.51-1.49-1.95-6.45-2.51-13.46-.59-19.85-1.26,6.54,0,13.23,2.47,19.18a41.31,41.31,0,0,0,5.29,9.08c2.21,2.25,4.34,4.37,6.29,6.33Zm129.65-66.11,6.33,3.15a67,67,0,0,0,6.28,2.8,17.37,17.37,0,0,0,6.82,1.39c-2,1.71-5,2-7.53,1.67a22.13,22.13,0,0,1-7.34-2.28,32.51,32.51,0,0,1-6.28-4.11,24.89,24.89,0,0,1-5-5.6A71.72,71.72,0,0,1,501.53,667.77Zm-9,2.36,7.29,4.31c2.42,1.41,4.8,2.82,7.27,4s4.94,2.27,7.92,2.11a7.73,7.73,0,0,1-4.37,1.37,16,16,0,0,1-4.59-.54,31.39,31.39,0,0,1-8.26-3.51,45.18,45.18,0,0,1-7.1-5.24,34.54,34.54,0,0,1-5.86-6.6A86.26,86.26,0,0,1,492.52,670.13Zm-8.4-.18c2.77,2.44,5.56,4.8,8.4,7.06a75.26,75.26,0,0,0,8.81,6.25,36.82,36.82,0,0,0,10,4.28c-3.79.79-7.82,0-11.41-1.48a38.26,38.26,0,0,1-9.93-5.92,55.19,55.19,0,0,1-8.14-8,45.43,45.43,0,0,1-6.25-9.51C478.58,665,481.35,667.5,484.12,670Zm-9.91-1.22c2.73,2.7,5.42,5.41,8.06,8.16l7.91,8.25c2.67,2.74,5.33,5.47,8,8.38a47.92,47.92,0,0,1-10.06-6,82.84,82.84,0,0,1-8.72-7.8,91.29,91.29,0,0,1-7.53-8.9,60.78,60.78,0,0,1-6.17-9.95C468.7,663.36,471.48,666,474.21,668.73Zm-25.78,3.83a16.79,16.79,0,0,1-3.89-4.47,19.27,19.27,0,0,1-2.23-5.42,14.06,14.06,0,0,1-.22-5.89c2.37,3.23,4,6.26,5.87,9.23.88,1.5,1.83,2.93,2.78,4.41s2,2.9,3.08,4.65A11.79,11.79,0,0,1,448.43,672.56Zm10.63,3.56a30.6,30.6,0,0,1-5-5.62,36.63,36.63,0,0,1-3.62-6.5,26.78,26.78,0,0,1-2.08-7.22,94.38,94.38,0,0,1,9,11.42l4,5.8c1.37,1.93,2.74,3.82,4.31,5.85A17,17,0,0,1,459.06,676.12Zm9.33,2.13a98.72,98.72,0,0,1-7.48-10.9,70.55,70.55,0,0,1-5.77-11.89c2.92,3.33,5.65,6.72,8.34,10.13s5.31,6.83,8,10.17c1.31,1.7,2.67,3.37,4.05,5l2,2.5c.72.8,1.41,1.62,2.09,2.45,2.83,3.24,5.7,6.42,8.86,9.54a42.05,42.05,0,0,1-11.08-7.34A78.33,78.33,0,0,1,468.39,678.25Zm-43.56,48.51a38,38,0,0,1,8.28-.88,36.76,36.76,0,0,1,8.28.88,24.74,24.74,0,0,1,7.8,3c-2.83.11-5.5.07-8.15.06l-7.93,0-7.92,0c-2.66,0-5.32.06-8.15-.05A24.93,24.93,0,0,1,424.83,726.76Z" transform="translate(-171.19 -362.49)"/>
      <path class="cls-2" d="M531.08,745.08c1.31.73,2.55,1.45,3.72,2.14,9.26,5.4,12.72,7.41,21.66-4.92,8.41-11.58,18.55-30.34,25.66-58.89a169.44,169.44,0,0,1-22.24,33.14A235.58,235.58,0,0,1,531.08,745.08Z" transform="translate(-171.19 -362.49)"/>
      <path class="cls-4" d="M278,836.76h0c34.1-3.91,45.12-11.59,65.21-36,11.38-13.79,16.6-37.42,13.25-59.29-10.07,2.07-16.87,6-22.27,9.16-4.75,2.77-8.57,4.8-12.31,4.8-4.48,0-8.85-2.88-14.61-10.82-11-15.12-24.86-42.13-31.44-86.64a78.67,78.67,0,0,1-1.6-12.45A399,399,0,0,1,272,600.14a130.27,130.27,0,0,1,.31-14.85v0a633.34,633.34,0,0,1,8.92-82.78,236.76,236.76,0,0,1,5.11-23.14c0-.15.05-.3.07-.45a1.68,1.68,0,0,1,.16-.39,188.92,188.92,0,0,1,18-43.76c.2-.34.41-.67.6-1A262.14,262.14,0,0,0,240,839.48,242.36,242.36,0,0,1,278,836.76Z" transform="translate(-171.19 -362.49)"/>
      <path class="cls-2" d="M325,676.5a33.93,33.93,0,0,1-1-7.88,143.17,143.17,0,0,0-1-15c-2.21-4.06-23.34-43.83-32.87-93.12a247.05,247.05,0,0,1-4.66-43.25C281,569.7,287.24,630.42,325,676.5Z" transform="translate(-171.19 -362.49)"/>
      <path class="cls-1" d="M346.17,526.45c0,1.19,0,2.22-.07,3.15a59.16,59.16,0,0,1,6.93-2.69,178.64,178.64,0,0,1-6-20.62C346.42,514.66,346.27,521.61,346.17,526.45Z" transform="translate(-171.19 -362.49)"/>
      <path class="cls-1" d="M363.75,524.66c-.47-2.23-1.27-6.17-2.19-11.35l-.91,11.79C361.68,524.93,362.71,524.78,363.75,524.66Z" transform="translate(-171.19 -362.49)"/>
      <path class="cls-3" d="M364.63,528.58c-1.45.15-2.88.37-4.29.64l-.94,12.3a41.77,41.77,0,0,1,7.88-1.39Z" transform="translate(-171.19 -362.49)"/>
      <path class="cls-2" d="M370.21,448.6c1.27-5.89,2.75-11.46,4.4-16.78l.06-.28a.91.91,0,0,1,.07-.14,141,141,0,0,1,11.32-26.79c-3.19.58-6.37,1.23-9.52,1.93A155.28,155.28,0,0,0,361.09,437c-2.81,22.16.18,49.3,3.08,67.7C364.49,489.5,365.76,469.26,370.21,448.6Z" transform="translate(-171.19 -362.49)"/>
      <path class="cls-1" d="M318.7,556a58.9,58.9,0,0,1,5.77-9.11,76.5,76.5,0,0,1-4.55-11.12C319.34,542.15,318.93,548.91,318.7,556Z" transform="translate(-171.19 -362.49)"/>
      <path class="cls-2" d="M368.69,408.39q-17.87,19.38-29.7,47.2a108.64,108.64,0,0,0,3.22,68.76A337.4,337.4,0,0,1,345,485.93c.08-.83.18-1.64.31-2.41,0,0,0-.09.05-.13A227.1,227.1,0,0,1,357.2,436a2.05,2.05,0,0,1,.26-.69A162.58,162.58,0,0,1,371,407.82C370.24,408,369.46,408.19,368.69,408.39Z" transform="translate(-171.19 -362.49)"/>
      <path class="cls-1" d="M341.28,532.12a88,88,0,0,1-5.7-14.34c-1,6-1.68,13.37-2.2,19.84A57.75,57.75,0,0,1,341.28,532.12Z" transform="translate(-171.19 -362.49)"/>
      <path class="cls-2" d="M303,565h11.48a340.39,340.39,0,0,1,3.05-44,29.06,29.06,0,0,1,1.1-7.36h0a273.58,273.58,0,0,1,10.61-43.71q12-35.5,32.37-59.6c-4.54,1.28-9,2.7-13.44,4.21-25.16,27.73-46.05,73.64-47.33,150.9A6.13,6.13,0,0,1,303,565Z" transform="translate(-171.19 -362.49)"/>
      <path class="cls-2" d="M329.06,541.6c.74-10.37,2.1-25,4.27-32.51a111.25,111.25,0,0,1-2.15-32,279.1,279.1,0,0,0-9.61,44.24c-.11,7.88,2.9,16.15,5.73,22.13C327.87,542.83,328.46,542.21,329.06,541.6Z" transform="translate(-171.19 -362.49)"/>
      <path class="cls-1" d="M372,524.34c-1.16-3-2.61-7.06-3.92-11.35,0,3.49,0,6.56,0,9.12,0,.79,0,1.54,0,2.22.72,0,1.45-.05,2.18-.05C370.88,524.28,371.44,524.32,372,524.34Z" transform="translate(-171.19 -362.49)"/>
      <path class="cls-1" d="M389.88,527.7c1.76.63,3.5,1.31,5.19,2.11a127.61,127.61,0,0,1-5.59-23.88Q389.5,516.25,389.88,527.7Z" transform="translate(-171.19 -362.49)"/>
      <path class="cls-2" d="M377.2,499.23c-.24-1.08-.49-2.18-.72-3.3a203,203,0,0,1-4.52-35,295.18,295.18,0,0,0-3.37,32.44c-.5,7.57,3.74,20.43,6.68,28.26A178.92,178.92,0,0,0,377.2,499.23Z" transform="translate(-171.19 -362.49)"/>
    </g>
    <g>
      <path class="cls-2" d="M467.19,379c37.18,20.44,58.39,55.27,70.45,90.15h13.57C531.23,412.36,495.06,389.35,467.19,379Z" transform="translate(-171.19 -362.49)"/>
      <path class="cls-2" d="M450.85,376.54c6.77,7.82,17.42,21.84,24.21,54.21a1.43,1.43,0,0,1,.13.28c2.8,11.62,6.23,25.06,9.64,38.1h11.1C492.34,435.94,481.24,397,450.85,376.54Z" transform="translate(-171.19 -362.49)"/>
      <path class="cls-2" d="M491.84,428.65c6.65,11,12.44,25.67,17.24,40.48h7c-5.53-25.92-16.58-55.23-38.35-78.77a128.51,128.51,0,0,0-14.08-8.7C476,393.23,485.45,408.94,491.84,428.65Z" transform="translate(-171.19 -362.49)"/>
      <path class="cls-2" d="M414.11,469.13h4.49a195.78,195.78,0,0,1-1.73-21.22C415.61,455.75,414.72,462.73,414.11,469.13Z" transform="translate(-171.19 -362.49)"/>
      <path class="cls-2" d="M339,455.59a112.6,112.6,0,0,0-2.84,13.54h11.68A213.2,213.2,0,0,1,357.2,436a2.05,2.05,0,0,1,.26-.69,157.42,157.42,0,0,1,17.07-33Q352.72,423.31,339,455.59Z" transform="translate(-171.19 -362.49)"/>
      <path class="cls-2" d="M496.75,447.36c.28,1.38.58,2.75.85,4.16,1.1,6,1.92,11.87,2.52,17.61h4.69C502.36,461.63,499.67,454.21,496.75,447.36Z" transform="translate(-171.19 -362.49)"/>
      <path class="cls-2" d="M356,452.29c-1.64,5.7-3,11.34-4.12,16.84h4.41C356,463.53,355.9,457.86,356,452.29Z" transform="translate(-171.19 -362.49)"/>
      <path class="cls-2" d="M378.49,432.81c-2.84,11.23-3.08,23.93-2,36.32h10.28c.25-3.31.53-6.54.84-9.63,0-.54,0-1.06.07-1.6a1.89,1.89,0,0,1,.16-.63c5.26-48.47,18.18-69,26.88-79.77C398.45,389.05,386.32,407.6,378.49,432.81Z" transform="translate(-171.19 -362.49)"/>
      <path class="cls-2" d="M480,466.64c.07.81.13,1.66.19,2.49h.47Z" transform="translate(-171.19 -362.49)"/>
      <path class="cls-2" d="M370.76,469.13h1.69c-.23-2.7-.4-5.44-.49-8.19Q371.29,465.08,370.76,469.13Z" transform="translate(-171.19 -362.49)"/>
      <path class="cls-2" d="M520.17,469.13h13.24c-8.37-23.72-21.07-47.29-40.35-66C507.61,424.2,515.71,447.84,520.17,469.13Z" transform="translate(-171.19 -362.49)"/>
      <path class="cls-2" d="M449.52,469.13h3.32c-.58-6-1.38-12.51-2.53-19.76C450.31,455.88,450,462.48,449.52,469.13Z" transform="translate(-171.19 -362.49)"/>
      <path class="cls-2" d="M404.17,465.43c0,.08,0,.14,0,.21-.07,1.06-.14,2.14-.22,3.24v.25h6.13a407.33,407.33,0,0,1,8-48.88,209,209,0,0,1,12.09-49.39l-.3.08C420.24,388,406.57,425.46,404.17,465.43Z" transform="translate(-171.19 -362.49)"/>
      <path class="cls-2" d="M421.49,375.69c-8,9.15-24.07,27.49-29.87,83.56-.16,3.43-.25,6.71-.3,9.88H400c.08-1.23.16-2.45.24-3.64,2.26-38.2,14.61-74.1,24.28-92.88l-.52.18C423.24,373.68,422.44,374.62,421.49,375.69Z" transform="translate(-171.19 -362.49)"/>
      <path class="cls-2" d="M389.39,390.14c-12.95,13.94-22,30.3-28.3,46.89a184.26,184.26,0,0,0-.78,32.1h6.41c.86-6.68,2-13.58,3.49-20.53,1.27-5.89,2.75-11.46,4.4-16.78l.06-.28a.91.91,0,0,1,.07-.14c6.66-21.36,16.39-38.11,29.06-50.08a128.23,128.23,0,0,0-14.39,8.78S389.4,390.13,389.39,390.14Z" transform="translate(-171.19 -362.49)"/>
      <path class="cls-2" d="M306.89,438.93a140.17,140.17,0,0,0-11.84,30.2h17c27.42-78.28,84.69-94.92,111.67-101.08A147.27,147.27,0,0,0,368.45,381C339.27,394.34,319.83,415.68,306.89,438.93Z" transform="translate(-171.19 -362.49)"/>
      <path class="cls-2" d="M422.18,420.43l-.39,1.83a185.75,185.75,0,0,0,.68,46.87h9V379.24a205.4,205.4,0,0,0-9.35,40.2A1.94,1.94,0,0,1,422.18,420.43Z" transform="translate(-171.19 -362.49)"/>
      <path class="cls-2" d="M544.48,416.09c-.23-.27-.48-.54-.71-.82a129.36,129.36,0,0,0-45.43-34.36,147,147,0,0,0-54.79-12.85c26.84,5.86,84.8,21.87,112,101.07h15.55a135.47,135.47,0,0,0-26.19-52.55Z" transform="translate(-171.19 -362.49)"/>
      <path class="cls-2" d="M316.39,469.13h13.17c14.06-41.18,36.69-70.87,67.52-88.68C369.79,391.59,335.81,415.08,316.39,469.13Z" transform="translate(-171.19 -362.49)"/>
      <path class="cls-2" d="M435.47,469.13h10.07c2.43-31.85-.91-62.15-10.07-89.84Z" transform="translate(-171.19 -362.49)"/>
      <path class="cls-2" d="M436.69,370.86A214,214,0,0,1,448.42,419a1.94,1.94,0,0,1,.25.57,407.65,407.65,0,0,1,8.17,49.56h6c-2.42-40.68-17.39-79.8-25.36-98.05Z" transform="translate(-171.19 -362.49)"/>
      <path class="cls-2" d="M442.82,372.73l-.31-.1c8,18.85,21,54.37,24,91.95a1.91,1.91,0,0,1,.23.79c.09,1.23.17,2.48.25,3.76h8.64c0-3.36-.14-6.85-.33-10.49-5.73-54.9-21.33-72.54-29.13-81.36-1.15-1.3-2.14-2.43-3-3.5A1.9,1.9,0,0,1,442.82,372.73Z" transform="translate(-171.19 -362.49)"/>
    </g>
    <circle class="cls-2" cx="199.07" cy="219.86" r="38.63"/>
    <g>
      <path class="cls-4" d="M682.14,863.81c-19.16-19.17-50.4-28.49-95.47-28.51-34.11-3.91-45.12-11.6-65.22-35.95-13-15.77-16-40.79-13.22-59.42a61.16,61.16,0,0,1,16.67,5.84h0c2.27,1.17,4.31,2.36,6.18,3.45,4.75,2.77,8.56,4.79,12.31,4.79,4.47,0,8.85-2.88,14.61-10.81,11-15.12,24.86-42.14,31.44-86.66A78.29,78.29,0,0,0,591,644.12,388.45,388.45,0,0,0,593.22,605a127,127,0,0,0,0-20.37,1.94,1.94,0,0,0-.34-.91A633.23,633.23,0,0,0,584,501a236.93,236.93,0,0,0-5.11-23.15c0-.15,0-.29-.08-.44a1.66,1.66,0,0,0-.14-.37C572.43,454.71,562,431,544.82,410.85c-.67-.8-1.37-1.59-2.06-2.37l-.6-.67c-1.41-1.58-2.85-3.13-4.34-4.65a1.54,1.54,0,0,0-.31-.21,133.22,133.22,0,0,0-39.2-27.14c-33.59-15.32-63.76-13.35-66.53-13.12-2.77-.22-32.94-2.2-66.52,13.12a133.82,133.82,0,0,0-32.72,21.05.91.91,0,0,0-.13.08A139.06,139.06,0,0,0,303,433.29a188.68,188.68,0,0,0-18,43.75,1.88,1.88,0,0,0-.16.39c0,.16,0,.3-.07.46-2.19,8-3.86,15.76-5.12,23.13a635.27,635.27,0,0,0-8.91,82.78v0a130.27,130.27,0,0,0-.31,14.85,396.86,396.86,0,0,0,2.17,45.43,77.41,77.41,0,0,0,1.6,12.44c6.58,44.51,20.47,71.53,31.44,86.65,5.76,7.93,10.13,10.81,14.6,10.81,3.75,0,7.57-2,12.31-4.79,5.41-3.16,12.2-7.1,22.27-9.17,3.36,21.87-1.86,45.51-13.24,59.3-20.1,24.35-31.11,32-65.21,35.95h0c-45.06,0-76.29,9.35-95.46,28.51a2,2,0,0,0,1.42,3.41,2,2,0,0,0,1.41-.58C201.78,848.5,233,839.3,276.42,839.3h0a215.93,215.93,0,0,0,23.27-1.77,138.12,138.12,0,0,0,22.82-4.85,92.7,92.7,0,0,0,21.27-9.45,73.71,73.71,0,0,0,17.55-15.07,73.21,73.21,0,0,1-18.06,14.21A90.89,90.89,0,0,1,322,830.76a128.5,128.5,0,0,1-19.07,3.41c17-5.42,27.26-14.78,41.69-32.28,12.08-14.63,17.64-39.56,14.11-62.52a77,77,0,0,1,11.85-.73c1.23,1.47,2.4,3,3.51,4.65,2,2.91,3.79,6,5.53,9,3.48,6.19,6.67,12.58,9.82,19-2.54-6.67-5.12-13.33-8-19.88-1-2.15-2-4.28-3.06-6.39,1.43,1.3,2.79,2.54,4.06,3.72,17.83,16.37,23.83,21.89,49.41,21.89s31.59-5.52,49.42-21.9l4-3.66c-1.06,2.11-2.08,4.23-3,6.37-2.92,6.55-5.49,13.19-8,19.85,3.14-6.39,6.33-12.77,9.8-18.95,1.75-3.08,3.56-6.11,5.53-9a58.08,58.08,0,0,1,3.56-4.71,76.86,76.86,0,0,1,11.26.65c-2.9,19.53.28,45.87,14.09,62.6,14.43,17.5,24.68,26.85,41.69,32.28A128.5,128.5,0,0,1,541,830.76a90.89,90.89,0,0,1-21.31-8.39,73.21,73.21,0,0,1-18.06-14.21,73.71,73.71,0,0,0,17.55,15.07,92.7,92.7,0,0,0,21.27,9.45,138.12,138.12,0,0,0,22.82,4.85,215.93,215.93,0,0,0,23.27,1.77h.09c43.38,0,74.57,9.21,92.7,27.34a2,2,0,0,0,2.82-2.83Zm-127.37-123c-8.95,12.33-12.4,10.31-21.66,4.91-1.17-.68-2.41-1.4-3.73-2.13a235.49,235.49,0,0,0,28.81-28.53A169.67,169.67,0,0,0,580.43,682C573.32,710.51,563.17,729.26,554.77,740.85Zm32.36-97.48a1.29,1.29,0,0,0,0,.21c0,.2,0,.4-.05.61q-.64,5.87-1.45,11.37c-8.77,43.21-53,80.33-60,86a66.62,66.62,0,0,0-28-6.89c11.8-6.44,72.09-41.89,90.65-103.14Q587.74,637.65,587.13,643.37Zm2.11-38.84c-5,63-57.47,104-82.44,120,10.89-11.3,23.09-25.23,29.67-39l1.06-1.16c6.92-7.56,23.13-25.26,34.83-58.36,9.35-26.48,13.57-56.55,12.69-89.83A542.1,542.1,0,0,1,589.24,604.53Zm-134.13,42.3a5.39,5.39,0,0,1-3.48-1.41,10.32,10.32,0,0,0-6.74-2.46c-3.53,0-5.34,2.52-6.8,4.54-1.57,2.2-2.94,4.09-6.31,4.09s-4.73-1.89-6.3-4.08c-1.46-2-3.27-4.55-6.8-4.55a10.37,10.37,0,0,0-6.75,2.46,5.37,5.37,0,0,1-3.41,1.41,14.43,14.43,0,0,1-3.74-4.47,6.69,6.69,0,0,1,0-5.89,29.46,29.46,0,0,1,3.67-6.05l4.44-6a64,64,0,0,0,7.52-13A50.24,50.24,0,0,0,423.91,598a57.7,57.7,0,0,0,2.63-17.28,5.25,5.25,0,1,1,10.48,0,57.74,57.74,0,0,0,2.74,17.58,50,50,0,0,0,3.47,13.12,64,64,0,0,0,7.52,13l4.44,6a29.91,29.91,0,0,1,3.67,6.05,6.72,6.72,0,0,1,0,5.89A14.57,14.57,0,0,1,455.11,646.83ZM460.65,691c-6.35-1.22-11.36-2.18-16.26-1.67a35.53,35.53,0,0,1-8.48.08,37.11,37.11,0,0,0-8.25,0,35.53,35.53,0,0,1-8.48-.08c-4.9-.51-9.91.45-16.27,1.67-2.08.41-4.36.84-6.83,1.26,5.19-4.63,14.75-10.12,20-13.11l2-1.18c3.31-1.91,4.7-1.08,7,.3a11.14,11.14,0,0,0,13.37,0c2.31-1.38,3.69-2.21,7-.3l2.06,1.19c5.21,3,14.76,8.47,19.95,13.1C465,691.8,462.74,691.37,460.65,691Zm6.29,5.24c-2.61,1.76-6.21,4.37-10.43,7.85-8,6.59-14.84,7.84-24.73,7.84s-16.75-1.25-24.72-7.84c-4.23-3.48-7.82-6.09-10.43-7.85,2.56-.45,4.89-.89,7-1.31,6.26-1.21,10.78-2.08,15.09-1.62a40.66,40.66,0,0,0,9.27.09,32.07,32.07,0,0,1,7.5,0,40.68,40.68,0,0,0,9.27-.09c4.32-.46,8.83.41,15.1,1.62C462.05,695.31,464.37,695.75,466.94,696.2Zm-30.52-21.41a7.27,7.27,0,0,1-9.27,0,21.39,21.39,0,0,0-2.14-1.16,19.15,19.15,0,0,0,2-4.37,40.54,40.54,0,0,0,1.49-5.88c.49-2.67.82-5.35,1-8a11,11,0,0,0,4.48,0,78.6,78.6,0,0,0,1.05,8,41.83,41.83,0,0,0,1.48,5.88,20,20,0,0,0,2,4.37A22.35,22.35,0,0,0,436.42,674.79ZM431.78,571.2a9.11,9.11,0,0,0-9.24,9.54,53.92,53.92,0,1,1-106.19-13.22h.47v-1.7a53.85,53.85,0,0,1,8-16.52c1.17,2.06,2,3.34,2.16,3.55l3.39,5.07.27-6.09c0-.11.19-4.2.58-9.91a54.42,54.42,0,0,1,10.3-7.78l2.22,3.75.4-5.18a52.75,52.75,0,0,1,8.54-3.49c.93,2.45,1.58,4,1.69,4.3l2.79,6.68a42.3,42.3,0,0,0-30.3,36.26c-.14,1.41-.22,2.84-.22,4.28a36.14,36.14,0,0,0,.19,3.63,42,42,0,0,0,38.55,38.15,1.91,1.91,0,0,0,.91.25h.2c.31,0,.6-.1.91-.14s.78.06,1.18.06a42,42,0,0,0,41.95-41.94c0-23.68-18.3-42.23-41.65-42.23-.83,0-1.64.07-2.46.12V526.88c.72,0,1.44-.06,2.16-.06,1.11,0,2.21.06,3.3.12.35.85.58,1.39.64,1.52l2.59,6,1.21-6.43c0-.07.06-.31.12-.64a54.12,54.12,0,0,1,8.22,1.87l4,10.58-.34-9.31a53.77,53.77,0,0,1,7.48,3.63l3.28,6.35.13-4.18A53.88,53.88,0,0,1,418.4,560a1.53,1.53,0,0,0,.14.21c0,.08.07.17.13.25a.81.81,0,0,0,.1.09,2.26,2.26,0,0,0,.29.25,2.46,2.46,0,0,0,.34.22,3,3,0,0,0,.32.11,3,3,0,0,0,.41.08l.34,0a1.56,1.56,0,0,0,.42-.08l.13,0c.08,0,.14-.11.22-.15s.16-.07.23-.12c2.11-1.64,6.82-2.39,10.31-2.39,3.31,0,7.81.9,9.88,2.88a2.08,2.08,0,0,0,.66.41h0a1.76,1.76,0,0,0,.71.14h0a2,2,0,0,0,1.88-1.24,53.87,53.87,0,0,1,19.42-24.28l.13,4.22,3.3-6.4a54,54,0,0,1,7.46-3.61l-.13,3.39,3.47-4.55a54.16,54.16,0,0,1,16.3-2.53l2.37,8.58.94-8.44a52.73,52.73,0,0,1,8.55,1.22c.32,1.21.61,2.41.85,3.62l1.21,6.21,2.58-5.78c0-.11.38-.92.85-2.54a55.44,55.44,0,0,1,7.3,3.12l2.5,13.9,1-11.92a53.88,53.88,0,0,1,8.63,6.55c.79,5.73,1.23,9.49,1.25,9.63l.79,6.92,3-6.29a33.47,33.47,0,0,0,1.28-3.27,53.43,53.43,0,0,1,8.87,17.73,54.26,54.26,0,0,1,1.9,11.05q.12,1.8.12,3.63a53.92,53.92,0,0,1-107.84,0A9.11,9.11,0,0,0,431.78,571.2ZM283.71,515.83a247.05,247.05,0,0,0,4.66,43.25c9.53,49.3,30.66,89.06,32.87,93.12a143.34,143.34,0,0,1,1,15,33.93,33.93,0,0,0,1,7.88C285.55,629,279.31,568.25,283.71,515.83Zm280.22,69.5a2.3,2.3,0,0,1-1.83.95h-9.51c.18-1.84.27-3.69.27-5.54,0-1.31,0-2.6-.13-3.89a57.41,57.41,0,0,0-1.4-9.33H562.1a2.34,2.34,0,0,1,2.34,2.33v13.67Zm-93.74-57a127,127,0,0,0,5.6-23.92q0,10.33-.41,21.8A55.87,55.87,0,0,0,470.19,528.34Zm-28,28.46c-4.16-2.32-9.72-2.41-10.45-2.41-1.21,0-6.61.12-10.64,2a57.75,57.75,0,0,0-21.77-24.71c.12-3.45.48-14.31,1-27.37a133.37,133.37,0,0,0,6.29,24.07l3.46,9.38.42-10c.19-4.65.27-9.06.32-13.36a66,66,0,0,0,8.62,17l3.36,4.38,1.46-35.06c1.46,4.6,2.81,8.37,3.85,11.23.69,1.93,1.24,3.47,1.6,4.62v35.19l4.52-14.85c1.9-6.1,3.56-12.16,5.08-18.2l2.4,25.56,3.12-6.62a156.64,156.64,0,0,0,7.8-21.33c.05,3.69.13,7.49.3,11.45l.4,9.41,3.46-8.76a118.22,118.22,0,0,0,6.36-22.81c.52,12.45.86,22.69,1,26.05A57.67,57.67,0,0,0,442.23,556.8Zm-54-30.56q-.4-11.46-.41-21.77a128,128,0,0,0,5.6,23.88C391.69,527.56,390,526.87,388.19,526.24Zm-21.74-3.36c0-.69,0-1.43,0-2.23,0-2.55-.05-5.63,0-9.11,1.31,4.29,2.76,8.3,3.92,11.34-.56,0-1.12-.06-1.69-.06C367.89,522.82,367.17,522.85,366.45,522.88Zm-8.74,17.18.94-12.3c1.41-.26,2.84-.48,4.28-.64l2.66,11.56A41.76,41.76,0,0,0,357.71,540.06ZM359,523.64l.9-11.79c.92,5.18,1.73,9.12,2.2,11.35C361,523.32,360,523.47,359,523.64Zm-48,62.64h-9.63a2.23,2.23,0,0,1-2.22-2.22V571.5c0-.62,0-1.22,0-1.84a2.2,2.2,0,0,1,2.2-2.14h10.9a57.63,57.63,0,0,0-1.54,13.22C310.71,582.61,310.8,584.45,311,586.28Zm7.25-52a76.65,76.65,0,0,0,4.55,11.13,58.33,58.33,0,0,0-5.77,9.1C317.23,547.45,317.64,540.69,318.23,534.28Zm1.65-14.4a278.39,278.39,0,0,1,9.61-44.25,111.32,111.32,0,0,0,2.15,32c-2.17,7.47-3.53,22.13-4.27,32.5-.6.61-1.19,1.23-1.76,1.87C322.78,536,319.76,527.75,319.88,519.88Zm156.19-131c25.29,27.35,36.14,62.53,40.64,91.08a3.06,3.06,0,0,0,0,.32,249.21,249.21,0,0,1,2.92,33.24c-5.08-22.94-15.35-62.87-29.53-86.35-6.39-19.71-15.81-35.42-28.16-47A128.51,128.51,0,0,1,476.07,388.9Zm23.65,97.46a244.08,244.08,0,0,0-3.82-36.3c-.26-1.41-.56-2.78-.84-4.16,6.95,16.29,12.63,35.72,16.75,52a153.94,153.94,0,0,1-2.25,25.59c-.93-3-2-6.06-3.12-9.19-3.06-8.59-6.22-17.48-6.55-27.25A2,2,0,0,0,499.72,486.36Zm-20.16,34.08a514.86,514.86,0,0,0-1.21-55.26c2.64,10.16,5.3,20.18,7.68,29.06C487.52,503.94,483.07,514.18,479.56,520.44Zm-11.69,1.87c-.51-14.06-1.52-39.56-2.82-58.4a2,2,0,0,0-.23-.79c-3-37.57-16-73.1-24-91.95l.31.1a1.87,1.87,0,0,0,.38,1.05c.83,1.08,1.82,2.2,3,3.5,7.8,8.82,23.4,26.47,29.13,81.36C475.24,489.8,471.11,511.11,467.87,522.31Zm-43.11-34.5a1.46,1.46,0,0,0-.07-.3,185.88,185.88,0,0,1-4.6-66.71c.14-.61.27-1.21.4-1.83a2,2,0,0,0-.06-1,205.57,205.57,0,0,1,9.35-40.2V504.49C428.21,499.91,426.43,494.32,424.76,487.81Zm-40.89,26.08c-5.6-19.07-14-55.17-7.08-82.53,7.84-25.22,20-43.77,36.23-55.32-8.71,10.74-21.62,31.3-26.88,79.77a2,2,0,0,0-.16.63c0,.54-.05,1.07-.07,1.61A475.5,475.5,0,0,0,383.87,513.89Zm-17-22a295.18,295.18,0,0,1,3.37-32.44,203.16,203.16,0,0,0,4.52,35c.23,1.12.48,2.21.72,3.3a178.75,178.75,0,0,1-1.93,22.4C370.64,512.35,366.4,499.5,366.9,491.92Zm23-34.12c5.8-56.08,21.86-74.42,29.87-83.56.94-1.08,1.75-2,2.47-2.91l.52-.17c-9.67,18.77-22,54.67-24.28,92.88-1.29,18.84-2.31,44.29-2.82,58.31C392.47,511.27,388.38,490.18,389.93,457.8Zm12.36,9.62c.07-1.09.15-2.18.22-3.23,0-.08,0-.14,0-.21,2.4-40,16.07-77.4,25.75-94.49l.3-.08a209,209,0,0,0-12.09,49.38c-9.36,42.65-9.43,65.1-9.5,86.81,0,3.27,0,6.59-.06,10C402.79,500,401.6,483.55,402.29,467.42Zm12.89-21a195.21,195.21,0,0,0,5.67,41.87l-1.48,35.27A74.54,74.54,0,0,1,411,497.45,314.27,314.27,0,0,1,415.18,446.46Zm18.6-68.62c14.47,43.73,14.47,94,0,146.6Zm14.84,70.08a312.16,312.16,0,0,1,4,49.53c-1.49,12-5.44,23.85-8.25,31.15l-1.94-20.68a1.88,1.88,0,0,0-.3-.85A284,284,0,0,0,448.62,447.92ZM447,418.11a2,2,0,0,0-.25-.56A213.91,213.91,0,0,0,435,369.41l.8.22C447,395.22,472,461.91,456.7,516.35c-.05-3.68-.06-7.25-.08-10.76C456.56,483.77,456.49,461.2,447,418.11Zm26.52,11.46a1.34,1.34,0,0,0-.13-.27c-6.79-32.38-17.44-46.4-24.22-54.22,47.22,31.74,47.89,108.25,46.17,138.26C490.31,494.93,480.14,457.13,473.5,429.57ZM373,430c0,.05-.05.08-.06.13l-.06.28c-1.65,5.33-3.13,10.9-4.4,16.78-4.45,20.67-5.72,40.91-6,56.13-2.9-18.4-5.89-45.54-3.08-67.7,6.31-16.59,15.34-32.95,28.3-46.89l0,0a128.3,128.3,0,0,1,14.39-8.79C389.43,391.83,379.71,408.58,373,430Zm-25.8,55.28a240.74,240.74,0,0,1,7.09-34.4,291.41,291.41,0,0,0,2.85,43.73L355,523.62C351.42,513.58,346.31,496.67,347.24,485.23Zm8.53-51.33a2,2,0,0,0-.26.69,226.24,226.24,0,0,0-11.85,47.34c0,.05,0,.08-.05.13-.14.78-.23,1.58-.31,2.41a337.55,337.55,0,0,0-2.78,38.43,108.65,108.65,0,0,1-3.22-68.76Q351,421.89,372.84,401A157.17,157.17,0,0,0,355.77,433.9Zm-21.88,82.42a87.07,87.07,0,0,0,5.7,14.34,58.65,58.65,0,0,0-7.9,5.5C332.21,529.69,332.93,522.32,333.89,516.32ZM344.48,525c.1-4.83.24-11.79.81-20.15a179.24,179.24,0,0,0,6,20.62,55.83,55.83,0,0,0-6.93,2.69C344.43,527.21,344.46,526.19,344.48,525Zm34.29-14.32c1.68,6.07,3.25,10.92,4.29,14a55.45,55.45,0,0,0-5.92-1.22C377.63,520.27,378.28,515.73,378.77,510.67Zm110.58-4.08c2,7.42,3.58,13.19,4.43,16.28a57.43,57.43,0,0,0-11.79,1.4A61.55,61.55,0,0,0,489.35,506.59Zm10.33.28c.94,3,2,5.89,3,8.77s2,5.51,2.81,8.19a56.05,56.05,0,0,0-6.87-.85C499,519.37,499.42,513.81,499.68,506.87Zm15.45,4.85c1.61,7,2.77,12.72,3.46,16.21a56.19,56.19,0,0,0-5.41-2.12A113.65,113.65,0,0,0,515.13,511.72Zm7.44-17.08c3.59,12.29,6.43,28.75,8.21,40.7a57.54,57.54,0,0,0-7.4-5A233,233,0,0,0,522.57,494.64Zm-2-15.52c-3.81-24-12-52.52-29.23-77.46,22.77,22.12,36.39,51,44.5,78.9a2,2,0,0,0-.06.88c4.93,28.29,2.67,47.85.26,58.61l-.63-.61C533,522.37,527.78,490.55,520.6,479.12Zm22.15,31.38a329.67,329.67,0,0,1,4.62,45.62,57.52,57.52,0,0,0-8-12.47C541.13,536.92,543.06,525.9,542.75,510.5Zm19.35,53H551.52c-.26-37.49-8.23-143.22-86-186,40.12,14.92,97.47,56,98.89,186.43A6.22,6.22,0,0,0,562.1,563.52Zm-234.5-95.1A273.14,273.14,0,0,0,317,512.12v0a29,29,0,0,0-1.1,7.35,340.55,340.55,0,0,0-3.05,44H301.35a5.92,5.92,0,0,0-2.15.41c2.09-126,56.3-168.64,96.18-184.94C364.37,396.91,341.64,426.84,327.6,468.42ZM300.26,590.17a6.49,6.49,0,0,0,1.09.11h9.45a1.94,1.94,0,0,0-.05.93c.08.37,5.55,25.94,8.92,49A364.53,364.53,0,0,1,300.26,590.17Zm252.56,1a1.94,1.94,0,0,0-.05-.93h9.33c.14,0,.28,0,.41,0A376,376,0,0,1,544,639.66C547.35,616.74,552.74,591.58,552.82,591.21ZM541.3,667.16a141.76,141.76,0,0,1,1-15A363.56,363.56,0,0,0,567.61,587a6.37,6.37,0,0,0,.81-2.91c1.91-7,3.67-14.29,5.18-21.85a246.18,246.18,0,0,0,5-58.84C589,591.2,565.36,644.34,540.29,675.07A33.64,33.64,0,0,0,541.3,667.16Zm.78-253.35c.23.28.48.55.7.83s.27.33.4.49c36.74,45,35,103.63,26.52,146.24q-.62,3-1.28,6c-.54-167.42-91-193-126.56-200.81a147.18,147.18,0,0,1,54.79,12.85A129.48,129.48,0,0,1,542.08,413.81ZM366.76,379.53a147.33,147.33,0,0,1,55.31-12.94c-36.06,8.24-126.23,35.18-126.92,203,0,.06,0,.11,0,.17v1.62c-1-4.26-2-8.61-2.84-13-6.81-35.21-8.49-80.89,12.91-120.84C318.13,414.22,337.57,392.89,366.76,379.53ZM291.21,626c11.7,33.09,27.91,50.79,34.83,58.35l1.06,1.16c6.51,13.6,18.53,27.39,29.33,38.63-25.77-16.89-79.92-60.09-82.1-125.93,0-4.46.13-9,.3-13.71,0-.13,0-.26,0-.39s0,0,0,0c.54-14.77,1.79-30.73,3.87-47.91C277.64,569.48,281.86,599.56,291.21,626ZM366.05,734.7a66.85,66.85,0,0,0-28,6.9c-7.08-5.7-51.27-42.8-60-86q-.81-5.51-1.46-11.38c0-.21,0-.41,0-.61a1.05,1.05,0,0,0-.05-.19c-.48-4.52-.88-9.22-1.21-14.07C293.18,691.72,354.27,728.18,366.05,734.7Zm-35.59,11.06c-9.25,5.4-12.71,7.42-21.66-4.91-8.41-11.59-18.55-30.35-25.66-58.9a169.53,169.53,0,0,0,22.24,33.15,235.49,235.49,0,0,0,28.81,28.53C332.87,744.36,331.63,745.08,330.46,745.76Zm148,0c-17.42,16-22.68,20.84-46.71,20.84s-29.28-4.83-46.7-20.84c-4.08-3.75-8.91-8.18-14.78-13.28l-.1-.1h0l-.81-.81c-2-2-4.08-4.08-6.29-6.33a41.08,41.08,0,0,1-5.29-9.08c-2.47-6-3.73-12.63-2.48-19.17-1.91,6.38-1.35,13.39.6,19.85.15.5.33,1,.5,1.48-14.56-15.49-30.16-35-30.16-51.2,0-10.72-2.51-28.07-5.19-43.59A138.36,138.36,0,0,0,341.3,654a134.38,134.38,0,0,1-18.7-38.15,57.88,57.88,0,0,0,101.12-17.28A49.07,49.07,0,0,1,419.49,611a62.6,62.6,0,0,1-8.19,12.2l-4.83,5.66a32.52,32.52,0,0,0-4.45,6.37,10.05,10.05,0,0,0-.45,8.49,18.35,18.35,0,0,0,4.52,6.24,1.9,1.9,0,0,0,.4.4l.05,0s0,0,0,0a2.51,2.51,0,0,0,1.58.41,8.32,8.32,0,0,0,5.06-1.44,8.55,8.55,0,0,1,2.83,1.1c3.17,1.61,5.51-.5,7.45,1.08a1.36,1.36,0,0,0,.17.12,10.26,10.26,0,0,0,5.24,3.49,75.93,75.93,0,0,1-2.32,7.65,40.28,40.28,0,0,1-2.31,5.22,12.9,12.9,0,0,1-3.1,4.1,3.71,3.71,0,0,0-.29.27,2,2,0,0,0-.24.42,11.43,11.43,0,0,0-4.54,1.61l-2,1.17c-10.94,6.28-21.85,12.87-24.71,18.43v0l0,0s0,.09,0,.14a2.24,2.24,0,0,0-.14.39.57.57,0,0,0,0,.13,2.35,2.35,0,0,0,0,.26,1.76,1.76,0,0,0,.06.46,2.17,2.17,0,0,0,.07.24,1.92,1.92,0,0,0,.25.44s.06.11.1.16a2.13,2.13,0,0,0,.52.42,112.6,112.6,0,0,1,14.4,10.35c8.86,7.31,16.71,8.75,27.27,8.75s18.42-1.44,27.28-8.75a111.76,111.76,0,0,1,14.4-10.35,1.91,1.91,0,0,0,.51-.42l.11-.16a1.92,1.92,0,0,0,.25-.44,2.17,2.17,0,0,0,.07-.24,2.32,2.32,0,0,0,.06-.46,2.35,2.35,0,0,0,0-.26.57.57,0,0,1,0-.13,2.24,2.24,0,0,0-.14-.39s0-.1,0-.14l0,0,0,0c-2.85-5.56-13.75-12.15-24.69-18.42l-2-1.18a11.47,11.47,0,0,0-4.52-1.61,2,2,0,0,0-.55-.69,12.9,12.9,0,0,1-3.1-4.1,39,39,0,0,1-2.32-5.22,79.41,79.41,0,0,1-2.31-7.65,10.15,10.15,0,0,0,5.16-3.41,1.06,1.06,0,0,0,.31-.2c1.94-1.58,4.28.53,7.45-1.08a8.81,8.81,0,0,1,2.77-1.09,8.38,8.38,0,0,0,5.16,1.42,1.93,1.93,0,0,0,1.22-.23,1.22,1.22,0,0,0,.19-.12,2.13,2.13,0,0,0,.25-.16,19.18,19.18,0,0,0,4.87-6.59,10,10,0,0,0-.46-8.49,31.69,31.69,0,0,0-4.45-6.37l-4.82-5.66a62.6,62.6,0,0,1-8.19-12.2A49.13,49.13,0,0,1,440,599a57.94,57.94,0,0,0,101.09,16.75,134.61,134.61,0,0,1-18.52,37.52,138.59,138.59,0,0,0,19.94-29.81c-2.69,15.53-5.21,32.93-5.21,43.66,0,15.55-14.32,34.09-28.33,49.24,0-.14.1-.27.14-.41a29.59,29.59,0,0,0,.51-16.87,28.76,28.76,0,0,1-2.11,16.3,36.32,36.32,0,0,1-3.2,5.92c-3.6,3.75-7.06,7.21-10.13,10.28l-.9.9C487.4,737.62,482.57,742.06,478.49,745.81Z" transform="translate(-171.19 -362.49)"/>
      <path class="cls-4" d="M491.42,622.51a2,2,0,0,0,.93.26h.2c.34,0,.66-.11,1-.15s.93.07,1.4.07a42.09,42.09,0,1,0-42.23-41.94,35.48,35.48,0,0,0,1.9,11.39A42,42,0,0,0,491.42,622.51ZM517.71,611a42.1,42.1,0,0,0,12.76-30.28,35.53,35.53,0,0,0-71.06,0,28.83,28.83,0,0,0,57.65,0,22.12,22.12,0,1,0-44.24,0,15.42,15.42,0,0,0,30.83,0,8.71,8.71,0,1,0-17.41,0,2,2,0,0,0,4,0,4.71,4.71,0,1,1,9.41,0,11.42,11.42,0,0,1-22.83,0,18.12,18.12,0,1,1,36.24,0,24.83,24.83,0,0,1-49.65,0,31.53,31.53,0,0,1,63.06,0,38.06,38.06,0,0,1-33.14,37.86,37.57,37.57,0,0,1-14.84-3.72,35.45,35.45,0,0,0,45.28-34.14,28.83,28.83,0,0,0-57.65,0,22.12,22.12,0,1,0,44.23,0,15.41,15.41,0,0,0-30.82,0,8.71,8.71,0,1,0,17.41,0,2,2,0,0,0-4,0,4.71,4.71,0,1,1-9.41,0,11.41,11.41,0,0,1,22.82,0,18.12,18.12,0,1,1-36.23,0,24.83,24.83,0,0,1,49.65,0,31.52,31.52,0,0,1-61.34,10.2A37.93,37.93,0,1,1,517.71,611Z" transform="translate(-171.19 -362.49)"/>
      <path class="cls-4" d="M431.42,724.43a37.35,37.35,0,0,0-8.28.88,24.83,24.83,0,0,0-7.79,3c2.82.1,5.49.06,8.15,0l7.92,0,7.93,0c2.65,0,5.32.05,8.15,0a24.76,24.76,0,0,0-7.8-3.05A37.34,37.34,0,0,0,431.42,724.43Z" transform="translate(-171.19 -362.49)"/>
      <path class="cls-4" d="M438.76,831.91a19.23,19.23,0,0,1-4.21,2.72,10.79,10.79,0,0,1-4,.91,1.45,1.45,0,0,0-.3-.06h-.09a11,11,0,0,1-4.56-1,20.12,20.12,0,0,1-4.29-2.85,47.78,47.78,0,0,1-7.29-8.08,155.32,155.32,0,0,1-11.62-19.06,155.48,155.48,0,0,0,10,20.18,50.8,50.8,0,0,0,6.91,9.17,23.29,23.29,0,0,0,4.72,3.74,15,15,0,0,0,5.16,1.75,2,2,0,0,0,.94.2,14.54,14.54,0,0,0,6-1.81,22.55,22.55,0,0,0,4.64-3.62,48.9,48.9,0,0,0,6.81-8.9,149.19,149.19,0,0,0,9.8-19.64,149.23,149.23,0,0,1-11.45,18.51A45.78,45.78,0,0,1,438.76,831.91Z" transform="translate(-171.19 -362.49)"/>
      <path class="cls-4" d="M446.27,664.56c-1.84-3-3.5-6-5.87-9.24a14,14,0,0,0,.22,5.89,19,19,0,0,0,2.23,5.42,17,17,0,0,0,3.89,4.48,11.9,11.9,0,0,0,5.39,2.51c-1.07-1.75-2.15-3.14-3.09-4.65S447.15,666.06,446.27,664.56Z" transform="translate(-171.19 -362.49)"/>
      <path class="cls-4" d="M455.65,666.75a94.68,94.68,0,0,0-9-11.43,27,27,0,0,0,2.07,7.22,37,37,0,0,0,3.63,6.5,30.28,30.28,0,0,0,5,5.62,16.94,16.94,0,0,0,6.62,3.73c-1.56-2-2.94-3.92-4.3-5.85Z" transform="translate(-171.19 -362.49)"/>
      <path class="cls-4" d="M478,684.28c-.68-.84-1.37-1.66-2.09-2.45l-2-2.5c-1.37-1.65-2.73-3.32-4-5-2.73-3.33-5.32-6.78-8-10.17s-5.42-6.8-8.34-10.13a70.55,70.55,0,0,0,5.77,11.89,97.37,97.37,0,0,0,7.48,10.9,78.33,78.33,0,0,0,9.08,9.68,42.05,42.05,0,0,0,11.08,7.34C483.7,690.69,480.83,687.52,478,684.28Z" transform="translate(-171.19 -362.49)"/>
      <path class="cls-4" d="M477.7,678.21a82.61,82.61,0,0,0,8.71,7.8,48.29,48.29,0,0,0,10.07,6.06c-2.67-2.91-5.32-5.65-8-8.38l-7.91-8.26c-2.64-2.75-5.33-5.46-8.07-8.16s-5.51-5.36-8.52-7.9a61,61,0,0,0,6.18,9.94A91.29,91.29,0,0,0,477.7,678.21Z" transform="translate(-171.19 -362.49)"/>
      <path class="cls-4" d="M488.34,678.68a38.57,38.57,0,0,0,9.93,5.93,20.32,20.32,0,0,0,11.41,1.48,36.84,36.84,0,0,1-10-4.29,75.26,75.26,0,0,1-8.81-6.25c-2.84-2.25-5.63-4.62-8.4-7.06s-5.55-4.9-8.48-7.34a46,46,0,0,0,6.25,9.51A54.64,54.64,0,0,0,488.34,678.68Z" transform="translate(-171.19 -362.49)"/>
      <path class="cls-4" d="M489,671.19a46.47,46.47,0,0,0,7.1,5.24,31.58,31.58,0,0,0,8.26,3.51,16.35,16.35,0,0,0,4.59.54,7.74,7.74,0,0,0,4.37-1.38c-3,.17-5.43-1-7.92-2.1s-4.85-2.61-7.27-4l-7.3-4.31a84.91,84.91,0,0,0-7.7-4.09A34.69,34.69,0,0,0,489,671.19Z" transform="translate(-171.19 -362.49)"/>
      <path class="cls-4" d="M498.12,668.93a31.8,31.8,0,0,0,6.28,4.12,22.37,22.37,0,0,0,7.34,2.28c2.55.28,5.5,0,7.53-1.67a17.52,17.52,0,0,1-6.82-1.4,67,67,0,0,1-6.28-2.8l-6.33-3.15a68.33,68.33,0,0,0-6.75-3A25.13,25.13,0,0,0,498.12,668.93Z" transform="translate(-171.19 -362.49)"/>
    </g>
  </g>
  <g>
    <g>
      <path class="cls-3" d="M597,531c11.25,10,11.45,26.33.46,36.57" transform="translate(-171.19 -362.49)"/>
      <path class="cls-5" d="M598.82,569.06l-2.73-2.93a22.23,22.23,0,0,0-.42-33.61l2.65-3a26.24,26.24,0,0,1,.5,39.54Z" transform="translate(-171.19 -362.49)"/>
    </g>
    <g>
      <path class="cls-3" d="M609.08,578.93c10-11.25,26.33-11.46,36.57-.47C635.69,589.71,619.32,589.91,609.08,578.93Z" transform="translate(-171.19 -362.49)"/>
      <path class="cls-5" d="M627.16,589a26.57,26.57,0,0,1-19.55-8.74L606.37,579l1.21-1.36a26.22,26.22,0,0,1,39.53-.5l1.24,1.33-1.2,1.36A26.56,26.56,0,0,1,627.49,589Zm-15.29-10.14a22.12,22.12,0,0,0,31-.39,22.4,22.4,0,0,0-15.3-6.15h-.28A22.37,22.37,0,0,0,611.87,578.89Z" transform="translate(-171.19 -362.49)"/>
    </g>
    <g>
      <path class="cls-3" d="M597.77,592.46c11.24,10,11.45,26.33.46,36.58" transform="translate(-171.19 -362.49)"/>
      <path class="cls-5" d="M599.6,630.5l-2.73-2.93a22.22,22.22,0,0,0-.43-33.61l2.66-3a26.24,26.24,0,0,1,.5,39.54Z" transform="translate(-171.19 -362.49)"/>
    </g>
    <path class="cls-3" d="M597.6,578.72" transform="translate(-171.19 -362.49)"/>
    <path class="cls-6" d="M597.6,578.72" transform="translate(-171.19 -362.49)"/>
    <path class="cls-3" d="M597.6,578.72" transform="translate(-171.19 -362.49)"/>
    <path class="cls-6" d="M597.6,578.72" transform="translate(-171.19 -362.49)"/>
    <g>
      <path class="cls-1" d="M597.6,578.72c-1.82-30,21-53.44,51.06-52.38C650.48,556.33,627.62,579.78,597.6,578.72Z" transform="translate(-171.19 -362.49)"/>
      <path class="cls-5" d="M599.56,580.75l-2,0-1.81-.07-.11-1.81c-.92-15.07,4.11-29.05,14.16-39.35s23.89-15.7,39-15.15l1.82.07.11,1.81c.91,15.07-4.11,29-14.16,39.35A50.89,50.89,0,0,1,599.56,580.75Zm0-4h0a46.33,46.33,0,0,0,47.2-48.44h0a46.32,46.32,0,0,0-47.2,48.44Z" transform="translate(-171.19 -362.49)"/>
    </g>
    <rect class="cls-5" x="586.55" y="550.53" width="73.16" height="4" transform="translate(-378.69 250.29) rotate(-45.71)"/>
    <rect class="cls-5" x="616.46" y="559.39" width="4" height="18.21" transform="translate(-247.99 677.48) rotate(-76.73)"/>
    <rect class="cls-5" x="630.42" y="545.07" width="4" height="18.21" transform="translate(-223.3 680.04) rotate(-76.73)"/>
    <rect class="cls-5" x="612.69" y="539.55" width="4" height="19.43" transform="matrix(0.97, -0.25, 0.25, 0.97, -290.57, -188.27)"/>
    <rect class="cls-5" x="627.24" y="529.78" width="4" height="14.8" transform="translate(-287.02 -184.98) rotate(-14.72)"/>
    <g>
      <path class="cls-1" d="M597.6,578.72c30-1.82,53.43,21,52.37,51.07C620,631.61,596.54,608.74,597.6,578.72Z" transform="translate(-171.19 -362.49)"/>
      <path class="cls-5" d="M646.62,631.89a50.73,50.73,0,0,1-35.87-14.26c-10.3-10-15.69-23.89-15.15-39l.06-1.82,1.81-.11c15.08-.91,29,4.12,39.35,14.16s15.68,23.89,15.15,39l-.06,1.82-1.81.11C648.93,631.86,647.77,631.89,646.62,631.89Zm-47.06-51.25A46.34,46.34,0,0,0,648,627.87a46.34,46.34,0,0,0-48.45-47.23Z" transform="translate(-171.19 -362.49)"/>
    </g>
    <rect class="cls-5" x="621.78" y="567.68" width="4" height="73.16" transform="translate(-415.51 266.58) rotate(-45.73)"/>
    <rect class="cls-5" x="598.72" y="597.59" width="18.21" height="4" transform="translate(-286.46 691.07) rotate(-76.73)"/>
    <rect class="cls-5" x="613.03" y="611.55" width="18.21" height="4" transform="translate(-289.01 715.76) rotate(-76.73)"/>
    <rect class="cls-5" x="617.34" y="593.81" width="19.43" height="4" transform="translate(-301.91 -183.76) rotate(-14.71)"/>
    <rect class="cls-5" x="631.73" y="608.36" width="14.8" height="4" transform="translate(-305.21 -180.22) rotate(-14.71)"/>
    <path class="cls-6" d="M645.65,578.46" transform="translate(-171.19 -362.49)"/>
    <rect class="cls-5" x="595.61" y="531.02" width="4" height="98.02" transform="translate(-178.48 -354.87) rotate(-0.73)"/>
  </g>
</svg>
