<svg id="Layer_1" data-name="Layer 1" xmlns="http://www.w3.org/2000/svg" viewBox="0 0 421.67 347.58">
  <defs>
    <style>
      .cls-1, .cls-16, .cls-3 {
        fill: #f9eccf;
      }

      .cls-1, .cls-12, .cls-13, .cls-14, .cls-16, .cls-17, .cls-21, .cls-5, .cls-6 {
        stroke: #653a17;
      }

      .cls-1, .cls-10, .cls-11, .cls-12, .cls-13, .cls-14, .cls-15, .cls-5, .cls-6, .cls-8, .cls-9 {
        stroke-linejoin: round;
      }

      .cls-1, .cls-10, .cls-11, .cls-12, .cls-13, .cls-14, .cls-15, .cls-16, .cls-17, .cls-18, .cls-21, .cls-5, .cls-6, .cls-8, .cls-9 {
        stroke-width: 2px;
      }

      .cls-12, .cls-2 {
        fill: #e46940;
      }

      .cls-14, .cls-17, .cls-4 {
        fill: #ecc559;
      }

      .cls-10, .cls-11, .cls-15, .cls-18, .cls-20, .cls-21, .cls-22, .cls-5, .cls-6, .cls-8, .cls-9 {
        fill: none;
      }

      .cls-10, .cls-11, .cls-15, .cls-22, .cls-6 {
        stroke-linecap: round;
      }

      .cls-13, .cls-7 {
        fill: #653a17;
      }

      .cls-10, .cls-8 {
        stroke: #ecc559;
      }

      .cls-15, .cls-9 {
        stroke: #e46940;
      }

      .cls-11, .cls-22 {
        stroke: #f9eccf;
      }

      .cls-16, .cls-17, .cls-18, .cls-21, .cls-22 {
        stroke-miterlimit: 10;
      }

      .cls-18 {
        stroke: #663b17;
      }

      .cls-19 {
        fill: #663b17;
      }

      .cls-22 {
        stroke-width: 2.88px;
      }
    </style>
  </defs>
  <title>venue</title>
  <circle class="cls-1" cx="152.37" cy="136.36" r="66.5"/>
  <g>
    <g>
      <rect class="cls-2" x="163.39" y="251.1" width="24.73" height="5.54"/>
      <rect class="cls-2" x="163.39" y="245.91" width="24.73" height="5.19"/>
      <rect class="cls-2" x="163.39" y="240.72" width="24.73" height="5.19"/>
      <rect class="cls-2" x="163.39" y="235.52" width="24.73" height="5.19"/>
      <rect class="cls-2" x="163.39" y="230.33" width="24.73" height="5.19"/>
      <rect class="cls-2" x="163.39" y="225.12" width="24.73" height="5.21"/>
      <rect class="cls-2" x="163.39" y="219.93" width="24.73" height="5.19"/>
      <rect class="cls-2" x="163.39" y="214.74" width="24.73" height="5.19"/>
      <rect class="cls-2" x="163.39" y="209.55" width="24.73" height="5.19"/>
      <rect class="cls-2" x="163.39" y="204.36" width="24.73" height="5.19"/>
      <rect class="cls-2" x="163.39" y="199.16" width="24.73" height="5.19"/>
      <rect class="cls-2" x="163.39" y="193.96" width="24.73" height="5.21"/>
      <rect class="cls-2" x="163.39" y="188.76" width="24.73" height="5.19"/>
      <rect class="cls-2" x="163.39" y="183.57" width="24.73" height="5.19"/>
      <rect class="cls-2" x="163.39" y="178.38" width="24.73" height="5.19"/>
      <rect class="cls-2" x="163.39" y="173.19" width="24.73" height="5.19"/>
      <polygon class="cls-2" points="188.12 168 188.12 173.19 163.39 173.19 163.39 145.65 188.12 138.03 188.12 157.6 188.12 162.79 188.12 168"/>
      <polygon class="cls-3" points="188.12 138.03 163.39 145.65 149.06 145.65 159.28 139.82 163.39 138.76 173.42 136.16 178.7 136.16 182.86 136.16 188.12 138.03"/>
      <polygon class="cls-2" points="178.7 102.58 178.7 136.16 173.42 136.16 163.39 138.76 163.39 109.52 178.7 102.58"/>
      <polygon class="cls-4" points="163.39 251.1 163.39 256.64 149.06 256.64 149.06 251.1 149.06 245.91 149.06 240.72 149.06 235.52 149.06 230.33 149.06 225.12 149.06 219.93 149.06 214.74 149.06 209.55 149.06 204.36 149.06 199.16 149.06 193.96 149.06 188.76 149.06 183.57 149.06 178.38 149.06 173.19 149.06 168 149.06 162.79 149.06 157.6 149.06 145.65 163.39 145.65 163.39 173.19 163.39 178.38 163.39 183.57 163.39 188.76 163.39 193.96 163.39 199.16 163.39 204.36 163.39 209.55 163.39 214.74 163.39 219.93 163.39 225.12 163.39 230.33 163.39 235.52 163.39 240.72 163.39 245.91 163.39 251.1"/>
      <polygon class="cls-4" points="163.39 109.52 163.39 138.76 159.28 139.82 149.06 145.65 149.06 120.9 149.06 116.03 161.39 110.44 163.39 109.52"/>
      <polygon class="cls-2" points="150.14 97.71 156.24 95.03 161.39 92.75 161.39 110.44 149.06 116.03 149.06 98.34 149 98.21 150.14 97.71"/>
      <polygon class="cls-2" points="156.24 86.14 156.24 95.03 150.14 97.71 150.14 88.82 156.24 86.14"/>
      <polygon class="cls-4" points="150.14 88.82 150.14 97.71 149 98.21 141.66 101.45 141.66 92.53 150.14 88.82"/>
      <rect class="cls-2" x="130.99" y="251.1" width="18.07" height="5.54"/>
      <rect class="cls-2" x="130.99" y="245.91" width="18.07" height="5.19"/>
      <rect class="cls-2" x="130.99" y="240.72" width="18.07" height="5.19"/>
      <rect class="cls-2" x="130.99" y="235.52" width="18.07" height="5.19"/>
      <rect class="cls-2" x="130.99" y="230.33" width="18.07" height="5.19"/>
      <rect class="cls-2" x="130.99" y="225.12" width="18.07" height="5.21"/>
      <polygon class="cls-2" points="149.06 219.93 149.06 225.12 130.99 225.12 130.97 219.93 149.06 219.93"/>
      <rect class="cls-2" x="130.97" y="214.74" width="18.09" height="5.19"/>
      <rect class="cls-2" x="130.97" y="209.55" width="18.09" height="5.19"/>
      <rect class="cls-2" x="130.97" y="204.36" width="18.09" height="5.19"/>
      <rect class="cls-2" x="130.97" y="199.16" width="18.09" height="5.19"/>
      <rect class="cls-2" x="130.97" y="193.96" width="18.09" height="5.21"/>
      <rect class="cls-2" x="130.97" y="188.76" width="18.09" height="5.19"/>
      <rect class="cls-2" x="130.97" y="183.57" width="18.09" height="5.19"/>
      <polygon class="cls-2" points="149.06 178.38 149.06 183.57 130.97 183.57 130.97 178.38 130.99 178.38 149.06 178.38"/>
      <polygon class="cls-2" points="149.06 173.19 149.06 178.38 130.99 178.38 130.97 178.38 130.97 173.19 130.99 173.19 149.06 173.19"/>
      <polygon class="cls-2" points="131.89 128.86 141.82 124.27 149.06 120.9 149.06 145.65 149.06 157.6 149.06 162.79 149.06 168 149.06 173.19 130.99 173.19 130.97 173.19 130.96 129.29 131.89 128.86"/>
      <polygon class="cls-4" points="149.06 116.03 149.06 120.9 141.82 124.27 141.66 123.92 141.66 114.45 135.22 117.67 135.22 104.28 141.66 101.45 149 98.21 149.06 98.34 149.06 116.03"/>
      <polygon class="cls-2" points="141.66 123.92 141.82 124.27 131.89 128.86 131.89 119.34 135.22 117.67 141.66 114.45 141.66 123.92"/>
      <polygon class="cls-4" points="131.89 128.86 130.96 129.29 119.49 134.62 119.41 134.43 119.41 125.6 131.89 119.34 131.89 128.86"/>
      <polygon class="cls-4" points="130.99 251.1 130.99 256.64 112.92 256.64 112.92 251.1 112.92 245.91 112.92 240.72 112.92 235.52 112.92 230.33 112.92 225.12 112.92 219.93 112.92 214.74 112.92 209.55 112.92 204.36 112.92 199.16 112.92 193.96 112.92 188.76 112.92 183.57 112.92 153.97 112.92 137.68 119.49 134.62 130.96 129.29 130.97 173.19 130.97 178.38 130.97 183.57 130.97 188.76 130.97 193.96 130.97 199.16 130.97 204.36 130.97 209.55 130.97 214.74 130.97 219.93 130.99 225.12 130.99 230.33 130.99 235.52 130.99 240.72 130.99 245.91 130.99 251.1"/>
      <rect class="cls-2" x="91.5" y="251.1" width="21.42" height="5.54"/>
      <rect class="cls-2" x="91.5" y="245.91" width="21.42" height="5.19"/>
      <rect class="cls-2" x="91.5" y="240.72" width="21.42" height="5.19"/>
      <rect class="cls-2" x="91.5" y="235.52" width="21.42" height="5.19"/>
      <rect class="cls-2" x="91.5" y="230.33" width="21.42" height="5.19"/>
      <rect class="cls-2" x="91.5" y="225.12" width="21.42" height="5.21"/>
      <rect class="cls-2" x="91.5" y="219.93" width="21.42" height="5.19"/>
      <rect class="cls-2" x="91.5" y="214.74" width="21.42" height="5.19"/>
      <rect class="cls-2" x="91.5" y="209.55" width="21.42" height="5.19"/>
      <rect class="cls-2" x="91.5" y="204.36" width="21.42" height="5.19"/>
      <rect class="cls-2" x="91.5" y="199.16" width="21.42" height="5.19"/>
      <polygon class="cls-2" points="112.92 193.96 112.92 199.16 91.5 199.16 91.5 193.96 94.83 193.96 112.92 193.96"/>
      <polygon class="cls-2" points="112.92 188.76 112.92 193.96 94.83 193.96 91.5 193.96 91.5 162.29 112.92 153.97 112.92 183.57 112.92 188.76"/>
      <polygon class="cls-3" points="112.92 153.97 91.5 162.29 77.19 162.29 86.83 156.85 101.44 152.79 112.92 153.97"/>
      <polygon class="cls-4" points="91.5 251.1 91.5 256.64 77.19 256.64 77.19 162.29 91.5 162.29 91.5 193.96 91.5 199.16 91.5 204.36 91.5 209.55 91.5 214.74 91.5 219.93 91.5 225.12 91.5 230.33 91.5 235.52 91.5 240.72 91.5 245.91 91.5 251.1"/>
    </g>
    <g>
      <polyline class="cls-5" points="91.5 256.64 77.19 256.64 77.19 162.29 91.5 162.29"/>
      <polyline class="cls-5" points="112.92 256.64 91.5 256.64 91.5 251.1 91.5 245.91 91.5 240.72 91.5 235.52 91.5 230.33 91.5 225.12 91.5 219.93 91.5 214.74 91.5 209.55 91.5 204.36 91.5 199.16 91.5 193.96 91.5 162.29 112.92 153.97"/>
      <line class="cls-5" x1="149.06" y1="145.65" x2="163.39" y2="145.65"/>
      <line class="cls-5" x1="163.39" y1="256.64" x2="149.06" y2="256.64"/>
      <polygon class="cls-5" points="188.12 251.1 188.12 256.64 163.39 256.64 163.39 251.1 163.39 245.91 163.39 240.72 163.39 235.52 163.39 230.33 163.39 225.12 163.39 219.93 163.39 214.74 163.39 209.55 163.39 204.36 163.39 199.16 163.39 193.96 163.39 188.76 163.39 183.57 163.39 178.38 163.39 173.19 163.39 145.65 188.12 138.03 188.12 157.6 188.12 162.79 188.12 168 188.12 173.19 188.12 178.38 188.12 183.57 188.12 188.76 188.12 193.96 188.12 199.16 188.12 204.36 188.12 209.55 188.12 214.74 188.12 219.93 188.12 225.12 188.12 230.33 188.12 235.52 188.12 240.72 188.12 245.91 188.12 251.1"/>
      <polyline class="cls-5" points="77.19 162.29 86.83 156.85 101.44 152.79 112.92 153.97"/>
      <polyline class="cls-5" points="130.99 256.64 112.92 256.64 112.92 251.1 112.92 245.91 112.92 240.72 112.92 235.52 112.92 230.33 112.92 225.12 112.92 219.93 112.92 214.74 112.92 209.55 112.92 204.36 112.92 199.16 112.92 193.96 112.92 188.76 112.92 183.57 112.92 153.97 112.92 137.68 119.49 134.62 130.96 129.29"/>
      <polyline class="cls-5" points="131.89 128.86 141.82 124.27 149.06 120.9 149.06 145.65 149.06 157.6 149.06 162.79 149.06 168 149.06 173.19 149.06 178.38 149.06 183.57 149.06 188.76 149.06 193.96 149.06 199.16 149.06 204.36 149.06 209.55 149.06 214.74 149.06 219.93 149.06 225.12 149.06 230.33 149.06 235.52 149.06 240.72 149.06 245.91 149.06 251.1 149.06 256.64 130.99 256.64 130.99 251.1 130.99 245.91 130.99 240.72 130.99 235.52 130.99 230.33 130.99 225.12 130.97 219.93 130.97 214.74 130.97 209.55 130.97 204.36 130.97 199.16 130.97 193.96 130.97 188.76 130.97 183.57 130.97 178.38 130.97 173.19 130.96 129.29"/>
      <polyline class="cls-5" points="149.06 145.65 159.28 139.82 163.39 138.76 173.42 136.16 178.7 136.16 182.86 136.16 188.12 138.03"/>
      <line class="cls-5" x1="163.39" y1="109.52" x2="163.39" y2="138.76"/>
      <polyline class="cls-5" points="161.39 110.44 161.39 92.75 156.24 95.03 150.14 97.71 149 98.21 141.66 101.45 135.22 104.28 135.22 117.67"/>
      <polyline class="cls-5" points="149.06 98.34 149.06 116.03 161.39 110.44 163.39 109.52 178.7 102.58 178.7 136.16"/>
      <polyline class="cls-5" points="141.66 123.92 141.66 114.45 135.22 117.67 131.89 119.34 119.41 125.6 119.41 134.43"/>
      <line class="cls-5" x1="131.89" y1="128.86" x2="131.89" y2="119.34"/>
      <polyline class="cls-5" points="156.24 95.09 156.24 95.03 156.24 86.14 150.14 88.82 141.66 92.53 141.66 101.45"/>
      <polyline class="cls-5" points="150.14 88.82 150.14 97.71 150.14 97.86"/>
      <line class="cls-6" x1="112.92" y1="183.57" x2="104.82" y2="183.57"/>
      <line class="cls-6" x1="112.92" y1="188.76" x2="99.82" y2="188.76"/>
      <line class="cls-6" x1="112.92" y1="193.96" x2="94.83" y2="193.96"/>
      <line class="cls-5" x1="112.92" y1="199.16" x2="91.5" y2="199.16"/>
      <line class="cls-5" x1="112.92" y1="204.36" x2="91.5" y2="204.36"/>
      <line class="cls-5" x1="112.92" y1="209.55" x2="91.5" y2="209.55"/>
      <line class="cls-5" x1="112.92" y1="214.74" x2="91.5" y2="214.74"/>
      <line class="cls-5" x1="112.92" y1="219.93" x2="91.5" y2="219.93"/>
      <line class="cls-5" x1="112.92" y1="225.12" x2="91.5" y2="225.12"/>
      <line class="cls-5" x1="112.92" y1="230.33" x2="91.5" y2="230.33"/>
      <line class="cls-5" x1="112.92" y1="235.52" x2="91.5" y2="235.52"/>
      <line class="cls-5" x1="112.92" y1="240.72" x2="91.5" y2="240.72"/>
      <line class="cls-5" x1="112.92" y1="245.91" x2="91.5" y2="245.91"/>
      <line class="cls-5" x1="112.92" y1="251.1" x2="91.5" y2="251.1"/>
      <polyline class="cls-5" points="188.5 183.57 188.12 183.57 163.39 183.57"/>
      <polyline class="cls-5" points="188.5 188.76 188.12 188.76 163.39 188.76"/>
      <polyline class="cls-5" points="188.5 193.96 188.12 193.96 163.39 193.96"/>
      <polyline class="cls-5" points="188.5 199.16 188.12 199.16 163.39 199.16"/>
      <polyline class="cls-5" points="188.5 204.36 188.12 204.36 163.39 204.36"/>
      <polyline class="cls-5" points="188.5 209.55 188.12 209.55 163.39 209.55"/>
      <line class="cls-6" x1="188.12" y1="157.6" x2="179.65" y2="157.6"/>
      <line class="cls-6" x1="188.12" y1="162.79" x2="174.66" y2="162.79"/>
      <line class="cls-6" x1="188.12" y1="168" x2="168" y2="168"/>
      <polyline class="cls-5" points="188.5 173.19 188.12 173.19 163.39 173.19"/>
      <polyline class="cls-5" points="188.5 178.38 188.12 178.38 163.39 178.38"/>
      <line class="cls-6" x1="149.06" y1="157.6" x2="144.3" y2="157.6"/>
      <line class="cls-6" x1="149.06" y1="162.79" x2="139.31" y2="162.79"/>
      <line class="cls-6" x1="149.06" y1="168" x2="134.32" y2="168"/>
      <line class="cls-5" x1="149.06" y1="173.19" x2="130.99" y2="173.19"/>
      <line class="cls-5" x1="149.06" y1="178.38" x2="130.99" y2="178.38"/>
      <polyline class="cls-5" points="188.5 214.74 188.12 214.74 163.39 214.74"/>
      <polyline class="cls-5" points="188.5 219.93 188.12 219.93 163.39 219.93"/>
      <polyline class="cls-5" points="188.5 225.12 188.12 225.12 163.39 225.12"/>
      <polyline class="cls-5" points="188.5 230.33 188.12 230.33 163.39 230.33"/>
      <polyline class="cls-5" points="188.5 235.52 188.12 235.52 163.39 235.52"/>
      <polyline class="cls-5" points="188.5 240.72 188.12 240.72 163.39 240.72"/>
      <polyline class="cls-5" points="188.5 245.91 188.12 245.91 163.39 245.91"/>
      <polyline class="cls-5" points="188.5 251.1 188.12 251.1 163.39 251.1"/>
      <polyline class="cls-5" points="149.06 183.57 130.97 183.57 130.96 183.57"/>
      <polyline class="cls-5" points="149.06 188.76 130.97 188.76 130.96 188.76"/>
      <polyline class="cls-5" points="149.06 193.96 130.97 193.96 130.96 193.96"/>
      <polyline class="cls-5" points="149.06 199.16 130.97 199.16 130.96 199.16"/>
      <polyline class="cls-5" points="149.06 204.36 130.97 204.36 130.96 204.36"/>
      <polyline class="cls-5" points="149.06 209.55 130.97 209.55 130.96 209.55"/>
      <polyline class="cls-5" points="149.06 214.74 130.97 214.74 130.96 214.74"/>
      <polyline class="cls-5" points="149.06 219.93 130.97 219.93 130.96 219.93"/>
      <polyline class="cls-5" points="149.06 225.12 130.99 225.12 130.96 225.12"/>
      <polyline class="cls-5" points="149.06 230.33 130.99 230.33 130.96 230.33"/>
      <polyline class="cls-5" points="149.06 235.52 130.99 235.52 130.96 235.52"/>
      <polyline class="cls-5" points="149.06 240.72 130.99 240.72 130.96 240.72"/>
      <polyline class="cls-5" points="149.06 245.91 130.99 245.91 130.96 245.91"/>
      <polyline class="cls-5" points="149.06 251.1 130.99 251.1 130.96 251.1"/>
      <polyline class="cls-5" points="130.96 129.29 131.89 128.86 148.95 121.17"/>
    </g>
  </g>
  <g>
    <g>
      <polygon class="cls-7" points="263.25 221.46 263.25 269.64 249.55 269.64 249.55 60.64 253.56 60.64 253.56 42.14 257.72 28.27 263.25 43.54 263.25 221.46"/>
      <polygon class="cls-7" points="257.72 28.27 253.56 42.14 253.56 60.64 249.55 60.64 249.55 269.64 245.61 269.64 245.61 46.38 236.75 37.52 225.34 26.11 225.34 1 248.93 28.27 257.72 28.27"/>
      <polygon class="cls-2" points="245.61 46.38 245.61 269.64 225.34 269.64 205.08 269.64 205.08 46.38 213.96 37.52 216.42 39.99 216.42 41.55 223.34 41.55 227.35 41.55 234.26 41.55 234.26 39.99 236.75 37.52 245.61 46.38"/>
      <polygon class="cls-2" points="216.42 39.99 213.96 37.52 225.34 26.11 236.75 37.52 234.26 39.99 234.26 41.55 227.35 41.55 223.34 41.55 216.42 41.55 216.42 39.99"/>
      <polygon class="cls-7" points="225.34 1 225.34 26.11 213.96 37.52 205.08 46.38 205.08 269.64 201.76 269.64 201.76 60.64 197.76 60.64 197.76 42.14 193.6 28.27 201.76 28.27 225.34 1"/>
      <polyline class="cls-4" points="192.97 28.27 193.59 28.27 193.6 28.27 197.76 42.14 197.76 60.64 201.76 60.64 201.76 269.64 187.43 269.64 187.43 221.46 187.43 43.54 192.97 28.27"/>
    </g>
    <g>
      <line class="cls-8" x1="192.97" y1="28.27" x2="193.58" y2="28.27"/>
      <polyline class="cls-8" points="193.6 28.27 201.76 28.27 225.34 1 248.93 28.27 257.72 28.27 263.25 43.54 263.25 221.46 263.25 269.64 249.55 269.64 245.61 269.64 225.34 269.64 205.08 269.64 201.76 269.64 187.43 269.64"/>
      <polyline class="cls-8" points="257.72 28.27 253.56 42.14 253.56 60.64 249.55 60.64 249.55 269.64"/>
      <polyline class="cls-8" points="193.59 28.27 193.6 28.27 197.76 42.14 197.76 60.64 201.76 60.64 201.76 269.64 201.76 269.64"/>
      <polyline class="cls-9" points="225.34 26.11 213.96 37.52 205.08 46.38 205.08 269.64"/>
      <polyline class="cls-9" points="225.34 26.11 236.75 37.52 245.61 46.38 245.61 269.64"/>
      <line class="cls-10" x1="225.34" y1="26.11" x2="225.34" y2="1"/>
      <line class="cls-11" x1="238.75" y1="264.09" x2="227.35" y2="264.09"/>
      <line class="cls-11" x1="223.34" y1="264.09" x2="211.93" y2="264.09"/>
      <line class="cls-11" x1="238.75" y1="257.68" x2="227.35" y2="257.68"/>
      <line class="cls-11" x1="223.34" y1="257.68" x2="211.93" y2="257.68"/>
      <line class="cls-11" x1="238.75" y1="251.27" x2="227.35" y2="251.27"/>
      <line class="cls-11" x1="223.34" y1="251.27" x2="211.93" y2="251.27"/>
      <line class="cls-11" x1="238.75" y1="244.88" x2="227.35" y2="244.88"/>
      <line class="cls-11" x1="223.34" y1="244.88" x2="211.93" y2="244.88"/>
      <line class="cls-11" x1="238.75" y1="238.48" x2="227.35" y2="238.48"/>
      <line class="cls-11" x1="223.34" y1="238.48" x2="211.93" y2="238.48"/>
      <line class="cls-11" x1="238.75" y1="232.07" x2="227.35" y2="232.07"/>
      <line class="cls-11" x1="223.34" y1="232.07" x2="211.93" y2="232.07"/>
      <line class="cls-11" x1="238.75" y1="225.67" x2="227.35" y2="225.67"/>
      <line class="cls-11" x1="223.34" y1="225.67" x2="211.93" y2="225.67"/>
      <line class="cls-11" x1="238.75" y1="219.26" x2="227.35" y2="219.26"/>
      <line class="cls-11" x1="223.34" y1="219.26" x2="211.93" y2="219.26"/>
      <line class="cls-11" x1="238.75" y1="212.87" x2="227.35" y2="212.87"/>
      <line class="cls-11" x1="223.34" y1="212.87" x2="211.93" y2="212.87"/>
      <line class="cls-11" x1="238.75" y1="206.46" x2="227.35" y2="206.46"/>
      <line class="cls-11" x1="223.34" y1="206.46" x2="211.93" y2="206.46"/>
      <line class="cls-11" x1="238.75" y1="200.06" x2="227.35" y2="200.06"/>
      <line class="cls-11" x1="223.34" y1="200.06" x2="211.93" y2="200.06"/>
      <line class="cls-11" x1="238.75" y1="193.65" x2="227.35" y2="193.65"/>
      <line class="cls-11" x1="223.34" y1="193.65" x2="211.93" y2="193.65"/>
      <line class="cls-11" x1="238.75" y1="187.25" x2="227.35" y2="187.25"/>
      <line class="cls-11" x1="223.34" y1="187.25" x2="211.93" y2="187.25"/>
      <line class="cls-11" x1="238.75" y1="180.86" x2="227.35" y2="180.86"/>
      <line class="cls-11" x1="223.34" y1="180.86" x2="211.93" y2="180.86"/>
      <line class="cls-11" x1="238.75" y1="174.45" x2="227.35" y2="174.45"/>
      <line class="cls-11" x1="223.34" y1="174.45" x2="211.93" y2="174.45"/>
      <line class="cls-11" x1="238.75" y1="168.04" x2="227.35" y2="168.04"/>
      <line class="cls-11" x1="223.34" y1="168.04" x2="211.93" y2="168.04"/>
      <line class="cls-11" x1="238.75" y1="161.64" x2="227.35" y2="161.64"/>
      <line class="cls-11" x1="223.34" y1="161.64" x2="211.93" y2="161.64"/>
      <line class="cls-11" x1="238.75" y1="155.23" x2="227.35" y2="155.23"/>
      <line class="cls-11" x1="223.34" y1="155.23" x2="211.93" y2="155.23"/>
      <line class="cls-11" x1="238.75" y1="148.84" x2="227.35" y2="148.84"/>
      <line class="cls-11" x1="223.34" y1="148.84" x2="211.93" y2="148.84"/>
      <line class="cls-11" x1="238.75" y1="142.44" x2="227.35" y2="142.44"/>
      <line class="cls-11" x1="223.34" y1="142.44" x2="211.93" y2="142.44"/>
      <line class="cls-11" x1="238.75" y1="136.03" x2="227.35" y2="136.03"/>
      <line class="cls-11" x1="223.34" y1="136.03" x2="211.93" y2="136.03"/>
      <line class="cls-11" x1="238.75" y1="129.62" x2="227.35" y2="129.62"/>
      <line class="cls-11" x1="223.34" y1="129.62" x2="211.93" y2="129.62"/>
      <line class="cls-11" x1="238.75" y1="123.22" x2="227.35" y2="123.22"/>
      <line class="cls-11" x1="223.34" y1="123.22" x2="211.93" y2="123.22"/>
      <line class="cls-11" x1="238.75" y1="116.83" x2="227.35" y2="116.83"/>
      <line class="cls-11" x1="223.34" y1="116.83" x2="211.93" y2="116.83"/>
      <line class="cls-11" x1="238.75" y1="110.42" x2="227.35" y2="110.42"/>
      <line class="cls-11" x1="223.34" y1="110.42" x2="211.93" y2="110.42"/>
      <line class="cls-11" x1="238.75" y1="104.02" x2="227.35" y2="104.02"/>
      <line class="cls-11" x1="223.34" y1="104.02" x2="211.93" y2="104.02"/>
      <line class="cls-11" x1="238.75" y1="97.61" x2="227.35" y2="97.61"/>
      <line class="cls-11" x1="223.34" y1="97.61" x2="211.93" y2="97.61"/>
      <line class="cls-11" x1="238.75" y1="91.2" x2="227.35" y2="91.2"/>
      <line class="cls-11" x1="223.34" y1="91.2" x2="211.93" y2="91.2"/>
      <line class="cls-11" x1="238.75" y1="84.81" x2="227.35" y2="84.81"/>
      <line class="cls-11" x1="223.34" y1="84.81" x2="211.93" y2="84.81"/>
      <line class="cls-11" x1="238.75" y1="78.41" x2="227.35" y2="78.41"/>
      <line class="cls-11" x1="223.34" y1="78.41" x2="211.93" y2="78.41"/>
      <line class="cls-11" x1="238.75" y1="72" x2="227.35" y2="72"/>
      <line class="cls-11" x1="223.34" y1="72" x2="211.93" y2="72"/>
      <line class="cls-11" x1="238.75" y1="65.6" x2="227.35" y2="65.6"/>
      <line class="cls-11" x1="223.34" y1="65.6" x2="211.93" y2="65.6"/>
      <line class="cls-11" x1="238.75" y1="59.19" x2="227.35" y2="59.19"/>
      <line class="cls-11" x1="223.34" y1="59.19" x2="211.93" y2="59.19"/>
      <line class="cls-11" x1="238.75" y1="52.8" x2="227.35" y2="52.8"/>
      <line class="cls-11" x1="223.34" y1="52.8" x2="211.93" y2="52.8"/>
      <line class="cls-11" x1="238.75" y1="46.39" x2="227.35" y2="46.39"/>
      <line class="cls-11" x1="223.34" y1="46.39" x2="211.93" y2="46.39"/>
      <line class="cls-11" x1="234.26" y1="39.99" x2="227.35" y2="39.99"/>
      <line class="cls-11" x1="223.34" y1="39.99" x2="216.42" y2="39.99"/>
      <polyline class="cls-6" points="187.43 269.64 187.43 221.46 187.43 43.54 192.37 29.94"/>
    </g>
  </g>
  <path class="cls-1" d="M338.58,277.92a3.78,3.78,0,1,1,0-7.56h9.53a1.9,1.9,0,0,0,0-3.79H307.88a3.78,3.78,0,1,1,0-7.56h56.61a1.89,1.89,0,0,0,0-3.78h-8a3.79,3.79,0,0,1,0-7.57h67.7a3.79,3.79,0,0,1,0,7.57H390.81a1.89,1.89,0,0,0,0,3.78h12.07a3.78,3.78,0,0,1,0,7.56H374.73a1.9,1.9,0,0,0,0,3.79h3.15a3.78,3.78,0,1,1,0,7.56Z" transform="translate(-7.33 -1.37)"/>
  <path class="cls-12" d="M42.81,293.05a3.79,3.79,0,0,1,0-7.57h9.53a1.89,1.89,0,1,0,0-3.78H12.11a3.78,3.78,0,0,1,0-7.56H68.72a1.89,1.89,0,1,0,0-3.78h-8a3.79,3.79,0,0,1,0-7.57h67.7a3.79,3.79,0,0,1,0,7.57H95a1.89,1.89,0,0,0,0,3.78h12.07a3.78,3.78,0,0,1,0,7.56H79a1.89,1.89,0,1,0,0,3.78h3.16a3.79,3.79,0,0,1,0,7.57Z" transform="translate(-7.33 -1.37)"/>
  <g>
    <polygon class="cls-1" points="302.27 112.56 345.81 112.56 328.65 79.56 302.27 79.56 275.89 79.56 258.73 112.56 302.27 112.56"/>
    <rect class="cls-13" x="261.82" y="112.56" width="80.91" height="7.32"/>
    <rect class="cls-14" x="256.99" y="119.88" width="90.56" height="149.76"/>
    <line class="cls-15" x1="265.66" y1="116.22" x2="338.88" y2="116.22"/>
    <line class="cls-6" x1="328.52" y1="79.56" x2="328.52" y2="65.65"/>
    <line class="cls-6" x1="276.01" y1="79.56" x2="276.01" y2="65.65"/>
    <line class="cls-6" x1="337.22" y1="112.56" x2="332.22" y2="98.65"/>
    <line class="cls-6" x1="267.33" y1="112.56" x2="272.32" y2="98.65"/>
    <line class="cls-6" x1="306.02" y1="79.56" x2="306.02" y2="71.71"/>
    <line class="cls-6" x1="298.52" y1="79.56" x2="298.52" y2="71.71"/>
    <line class="cls-6" x1="321.02" y1="79.56" x2="321.02" y2="71.71"/>
    <line class="cls-6" x1="313.52" y1="79.56" x2="313.52" y2="71.71"/>
    <line class="cls-6" x1="291.01" y1="79.56" x2="291.01" y2="71.71"/>
    <line class="cls-6" x1="283.51" y1="79.56" x2="283.51" y2="71.71"/>
    <line class="cls-6" x1="307.5" y1="112.56" x2="306.67" y2="91.4"/>
    <line class="cls-6" x1="297.04" y1="112.56" x2="297.87" y2="91.4"/>
    <line class="cls-6" x1="328.42" y1="112.56" x2="323.43" y2="91.4"/>
    <line class="cls-6" x1="317.96" y1="112.56" x2="314.63" y2="91.4"/>
    <line class="cls-6" x1="286.58" y1="112.56" x2="289.91" y2="91.4"/>
    <line class="cls-6" x1="276.12" y1="112.56" x2="281.11" y2="91.4"/>
    <rect class="cls-1" x="311.89" y="119.88" width="11.76" height="4.25"/>
    <rect class="cls-1" x="296.39" y="119.88" width="11.76" height="4.25"/>
    <rect class="cls-1" x="280.89" y="119.88" width="11.76" height="4.25"/>
    <g>
      <g>
        <rect class="cls-1" x="280.89" y="128.34" width="4.75" height="8.68"/>
        <rect class="cls-1" x="289.49" y="128.34" width="4.75" height="8.68"/>
      </g>
      <g>
        <rect class="cls-1" x="310.3" y="128.34" width="4.75" height="8.68"/>
        <rect class="cls-1" x="318.91" y="128.34" width="4.75" height="8.68"/>
      </g>
      <circle class="cls-16" cx="302.27" cy="132.68" r="3.51"/>
    </g>
    <line class="cls-6" x1="276.06" y1="144.31" x2="328.52" y2="144.31"/>
    <g>
      <line class="cls-6" x1="261.76" y1="147.5" x2="261.76" y2="152.63"/>
      <line class="cls-6" x1="266.53" y1="147.5" x2="266.53" y2="152.63"/>
      <line class="cls-6" x1="271.29" y1="147.5" x2="271.29" y2="152.63"/>
      <line class="cls-6" x1="276.06" y1="147.5" x2="276.06" y2="152.63"/>
      <line class="cls-6" x1="280.82" y1="147.5" x2="280.82" y2="152.63"/>
      <line class="cls-6" x1="285.59" y1="147.5" x2="285.59" y2="152.63"/>
      <line class="cls-6" x1="290.36" y1="147.5" x2="290.36" y2="152.63"/>
      <line class="cls-6" x1="295.12" y1="147.5" x2="295.12" y2="152.63"/>
      <line class="cls-6" x1="299.89" y1="147.5" x2="299.89" y2="152.63"/>
      <line class="cls-6" x1="304.65" y1="147.5" x2="304.65" y2="152.63"/>
      <line class="cls-6" x1="309.42" y1="147.5" x2="309.42" y2="152.63"/>
      <line class="cls-6" x1="314.19" y1="147.5" x2="314.19" y2="152.63"/>
      <line class="cls-6" x1="318.95" y1="147.5" x2="318.95" y2="152.63"/>
      <line class="cls-6" x1="323.72" y1="147.5" x2="323.72" y2="152.63"/>
      <line class="cls-6" x1="328.48" y1="147.5" x2="328.48" y2="152.63"/>
      <line class="cls-6" x1="333.25" y1="147.5" x2="333.25" y2="152.63"/>
      <line class="cls-6" x1="338.02" y1="147.5" x2="338.02" y2="152.63"/>
      <line class="cls-6" x1="342.78" y1="147.5" x2="342.78" y2="152.63"/>
    </g>
    <g>
      <line class="cls-6" x1="261.76" y1="155.82" x2="261.76" y2="160.95"/>
      <line class="cls-6" x1="266.53" y1="155.82" x2="266.53" y2="160.95"/>
      <line class="cls-6" x1="271.29" y1="155.82" x2="271.29" y2="160.95"/>
      <line class="cls-6" x1="276.06" y1="155.82" x2="276.06" y2="160.95"/>
      <line class="cls-6" x1="280.82" y1="155.82" x2="280.82" y2="160.95"/>
      <line class="cls-6" x1="285.59" y1="155.82" x2="285.59" y2="160.95"/>
      <line class="cls-6" x1="290.36" y1="155.82" x2="290.36" y2="160.95"/>
      <line class="cls-6" x1="295.12" y1="155.82" x2="295.12" y2="160.95"/>
      <line class="cls-6" x1="299.89" y1="155.82" x2="299.89" y2="160.95"/>
      <line class="cls-6" x1="304.65" y1="155.82" x2="304.65" y2="160.95"/>
      <line class="cls-6" x1="309.42" y1="155.82" x2="309.42" y2="160.95"/>
      <line class="cls-6" x1="314.19" y1="155.82" x2="314.19" y2="160.95"/>
      <line class="cls-6" x1="318.95" y1="155.82" x2="318.95" y2="160.95"/>
      <line class="cls-6" x1="323.72" y1="155.82" x2="323.72" y2="160.95"/>
      <line class="cls-6" x1="328.48" y1="155.82" x2="328.48" y2="160.95"/>
      <line class="cls-6" x1="333.25" y1="155.82" x2="333.25" y2="160.95"/>
      <line class="cls-6" x1="338.02" y1="155.82" x2="338.02" y2="160.95"/>
      <line class="cls-6" x1="342.78" y1="155.82" x2="342.78" y2="160.95"/>
    </g>
    <line class="cls-6" x1="333.25" y1="126.52" x2="333.25" y2="144.31"/>
    <line class="cls-6" x1="338.02" y1="126.52" x2="338.02" y2="144.31"/>
    <line class="cls-6" x1="342.78" y1="126.52" x2="342.78" y2="144.31"/>
    <line class="cls-6" x1="261.76" y1="126.52" x2="261.76" y2="144.31"/>
    <line class="cls-6" x1="266.53" y1="126.52" x2="266.53" y2="144.31"/>
    <line class="cls-6" x1="271.29" y1="126.52" x2="271.29" y2="144.31"/>
    <g>
      <line class="cls-6" x1="261.76" y1="164.14" x2="261.76" y2="169.27"/>
      <line class="cls-6" x1="266.53" y1="164.14" x2="266.53" y2="169.27"/>
      <line class="cls-6" x1="271.29" y1="164.14" x2="271.29" y2="169.27"/>
      <line class="cls-6" x1="276.06" y1="164.14" x2="276.06" y2="169.27"/>
      <line class="cls-6" x1="280.82" y1="164.14" x2="280.82" y2="169.27"/>
      <line class="cls-6" x1="285.59" y1="164.14" x2="285.59" y2="169.27"/>
      <line class="cls-6" x1="290.36" y1="164.14" x2="290.36" y2="169.27"/>
      <line class="cls-6" x1="295.12" y1="164.14" x2="295.12" y2="169.27"/>
      <line class="cls-6" x1="299.89" y1="164.14" x2="299.89" y2="169.27"/>
      <line class="cls-6" x1="304.65" y1="164.14" x2="304.65" y2="169.27"/>
      <line class="cls-6" x1="309.42" y1="164.14" x2="309.42" y2="169.27"/>
      <line class="cls-6" x1="314.19" y1="164.14" x2="314.19" y2="169.27"/>
      <line class="cls-6" x1="318.95" y1="164.14" x2="318.95" y2="169.27"/>
      <line class="cls-6" x1="323.72" y1="164.14" x2="323.72" y2="169.27"/>
      <line class="cls-6" x1="328.48" y1="164.14" x2="328.48" y2="169.27"/>
      <line class="cls-6" x1="333.25" y1="164.14" x2="333.25" y2="169.27"/>
      <line class="cls-6" x1="338.02" y1="164.14" x2="338.02" y2="169.27"/>
      <line class="cls-6" x1="342.78" y1="164.14" x2="342.78" y2="169.27"/>
    </g>
    <g>
      <line class="cls-6" x1="261.76" y1="172.47" x2="261.76" y2="177.59"/>
      <line class="cls-6" x1="266.53" y1="172.47" x2="266.53" y2="177.59"/>
      <line class="cls-6" x1="271.29" y1="172.47" x2="271.29" y2="177.59"/>
      <line class="cls-6" x1="276.06" y1="172.47" x2="276.06" y2="177.59"/>
      <line class="cls-6" x1="280.82" y1="172.47" x2="280.82" y2="177.59"/>
      <line class="cls-6" x1="285.59" y1="172.47" x2="285.59" y2="177.59"/>
      <line class="cls-6" x1="290.36" y1="172.47" x2="290.36" y2="177.59"/>
      <line class="cls-6" x1="295.12" y1="172.47" x2="295.12" y2="177.59"/>
      <line class="cls-6" x1="299.89" y1="172.47" x2="299.89" y2="177.59"/>
      <line class="cls-6" x1="304.65" y1="172.47" x2="304.65" y2="177.59"/>
      <line class="cls-6" x1="309.42" y1="172.47" x2="309.42" y2="177.59"/>
      <line class="cls-6" x1="314.19" y1="172.47" x2="314.19" y2="177.59"/>
      <line class="cls-6" x1="318.95" y1="172.47" x2="318.95" y2="177.59"/>
      <line class="cls-6" x1="323.72" y1="172.47" x2="323.72" y2="177.59"/>
      <line class="cls-6" x1="328.48" y1="172.47" x2="328.48" y2="177.59"/>
      <line class="cls-6" x1="333.25" y1="172.47" x2="333.25" y2="177.59"/>
      <line class="cls-6" x1="338.02" y1="172.47" x2="338.02" y2="177.59"/>
      <line class="cls-6" x1="342.78" y1="172.47" x2="342.78" y2="177.59"/>
    </g>
    <g>
      <line class="cls-6" x1="261.76" y1="180.79" x2="261.76" y2="185.91"/>
      <line class="cls-6" x1="266.53" y1="180.79" x2="266.53" y2="185.91"/>
      <line class="cls-6" x1="271.29" y1="180.79" x2="271.29" y2="185.91"/>
      <line class="cls-6" x1="276.06" y1="180.79" x2="276.06" y2="185.91"/>
      <line class="cls-6" x1="280.82" y1="180.79" x2="280.82" y2="185.91"/>
      <line class="cls-6" x1="285.59" y1="180.79" x2="285.59" y2="185.91"/>
      <line class="cls-6" x1="290.36" y1="180.79" x2="290.36" y2="185.91"/>
      <line class="cls-6" x1="295.12" y1="180.79" x2="295.12" y2="185.91"/>
      <line class="cls-6" x1="299.89" y1="180.79" x2="299.89" y2="185.91"/>
      <line class="cls-6" x1="304.65" y1="180.79" x2="304.65" y2="185.91"/>
      <line class="cls-6" x1="309.42" y1="180.79" x2="309.42" y2="185.91"/>
      <line class="cls-6" x1="314.19" y1="180.79" x2="314.19" y2="185.91"/>
      <line class="cls-6" x1="318.95" y1="180.79" x2="318.95" y2="185.91"/>
      <line class="cls-6" x1="323.72" y1="180.79" x2="323.72" y2="185.91"/>
      <line class="cls-6" x1="328.48" y1="180.79" x2="328.48" y2="185.91"/>
      <line class="cls-6" x1="333.25" y1="180.79" x2="333.25" y2="185.91"/>
      <line class="cls-6" x1="338.02" y1="180.79" x2="338.02" y2="185.91"/>
      <line class="cls-6" x1="342.78" y1="180.79" x2="342.78" y2="185.91"/>
    </g>
    <g>
      <line class="cls-6" x1="261.76" y1="189.11" x2="261.76" y2="194.23"/>
      <line class="cls-6" x1="266.53" y1="189.11" x2="266.53" y2="194.23"/>
      <line class="cls-6" x1="271.29" y1="189.11" x2="271.29" y2="194.23"/>
      <line class="cls-6" x1="276.06" y1="189.11" x2="276.06" y2="194.23"/>
      <line class="cls-6" x1="280.82" y1="189.11" x2="280.82" y2="194.23"/>
      <line class="cls-6" x1="285.59" y1="189.11" x2="285.59" y2="194.23"/>
      <line class="cls-6" x1="290.36" y1="189.11" x2="290.36" y2="194.23"/>
      <line class="cls-6" x1="295.12" y1="189.11" x2="295.12" y2="194.23"/>
      <line class="cls-6" x1="299.89" y1="189.11" x2="299.89" y2="194.23"/>
      <line class="cls-6" x1="304.65" y1="189.11" x2="304.65" y2="194.23"/>
      <line class="cls-6" x1="309.42" y1="189.11" x2="309.42" y2="194.23"/>
      <line class="cls-6" x1="314.19" y1="189.11" x2="314.19" y2="194.23"/>
      <line class="cls-6" x1="318.95" y1="189.11" x2="318.95" y2="194.23"/>
      <line class="cls-6" x1="323.72" y1="189.11" x2="323.72" y2="194.23"/>
      <line class="cls-6" x1="328.48" y1="189.11" x2="328.48" y2="194.23"/>
      <line class="cls-6" x1="333.25" y1="189.11" x2="333.25" y2="194.23"/>
      <line class="cls-6" x1="338.02" y1="189.11" x2="338.02" y2="194.23"/>
      <line class="cls-6" x1="342.78" y1="189.11" x2="342.78" y2="194.23"/>
    </g>
    <g>
      <line class="cls-6" x1="261.76" y1="197.43" x2="261.76" y2="202.55"/>
      <line class="cls-6" x1="266.53" y1="197.43" x2="266.53" y2="202.55"/>
      <line class="cls-6" x1="271.29" y1="197.43" x2="271.29" y2="202.55"/>
      <line class="cls-6" x1="276.06" y1="197.43" x2="276.06" y2="202.55"/>
      <line class="cls-6" x1="280.82" y1="197.43" x2="280.82" y2="202.55"/>
      <line class="cls-6" x1="285.59" y1="197.43" x2="285.59" y2="202.55"/>
      <line class="cls-6" x1="290.36" y1="197.43" x2="290.36" y2="202.55"/>
      <line class="cls-6" x1="295.12" y1="197.43" x2="295.12" y2="202.55"/>
      <line class="cls-6" x1="299.89" y1="197.43" x2="299.89" y2="202.55"/>
      <line class="cls-6" x1="304.65" y1="197.43" x2="304.65" y2="202.55"/>
      <line class="cls-6" x1="309.42" y1="197.43" x2="309.42" y2="202.55"/>
      <line class="cls-6" x1="314.19" y1="197.43" x2="314.19" y2="202.55"/>
      <line class="cls-6" x1="318.95" y1="197.43" x2="318.95" y2="202.55"/>
      <line class="cls-6" x1="323.72" y1="197.43" x2="323.72" y2="202.55"/>
      <line class="cls-6" x1="328.48" y1="197.43" x2="328.48" y2="202.55"/>
      <line class="cls-6" x1="333.25" y1="197.43" x2="333.25" y2="202.55"/>
      <line class="cls-6" x1="338.02" y1="197.43" x2="338.02" y2="202.55"/>
      <line class="cls-6" x1="342.78" y1="197.43" x2="342.78" y2="202.55"/>
    </g>
    <g>
      <line class="cls-6" x1="261.76" y1="205.75" x2="261.76" y2="210.87"/>
      <line class="cls-6" x1="266.53" y1="205.75" x2="266.53" y2="210.87"/>
      <line class="cls-6" x1="271.29" y1="205.75" x2="271.29" y2="210.87"/>
      <line class="cls-6" x1="276.06" y1="205.75" x2="276.06" y2="210.87"/>
      <line class="cls-6" x1="280.82" y1="205.75" x2="280.82" y2="210.87"/>
      <line class="cls-6" x1="285.59" y1="205.75" x2="285.59" y2="210.87"/>
      <line class="cls-6" x1="290.36" y1="205.75" x2="290.36" y2="210.87"/>
      <line class="cls-6" x1="295.12" y1="205.75" x2="295.12" y2="210.87"/>
      <line class="cls-6" x1="299.89" y1="205.75" x2="299.89" y2="210.87"/>
      <line class="cls-6" x1="304.65" y1="205.75" x2="304.65" y2="210.87"/>
      <line class="cls-6" x1="309.42" y1="205.75" x2="309.42" y2="210.87"/>
      <line class="cls-6" x1="314.19" y1="205.75" x2="314.19" y2="210.87"/>
      <line class="cls-6" x1="318.95" y1="205.75" x2="318.95" y2="210.87"/>
      <line class="cls-6" x1="323.72" y1="205.75" x2="323.72" y2="210.87"/>
      <line class="cls-6" x1="328.48" y1="205.75" x2="328.48" y2="210.87"/>
      <line class="cls-6" x1="333.25" y1="205.75" x2="333.25" y2="210.87"/>
      <line class="cls-6" x1="338.02" y1="205.75" x2="338.02" y2="210.87"/>
      <line class="cls-6" x1="342.78" y1="205.75" x2="342.78" y2="210.87"/>
    </g>
    <g>
      <line class="cls-6" x1="261.76" y1="214.07" x2="261.76" y2="219.19"/>
      <line class="cls-6" x1="266.53" y1="214.07" x2="266.53" y2="219.19"/>
      <line class="cls-6" x1="271.29" y1="214.07" x2="271.29" y2="219.19"/>
      <line class="cls-6" x1="276.06" y1="214.07" x2="276.06" y2="219.19"/>
      <line class="cls-6" x1="280.82" y1="214.07" x2="280.82" y2="219.19"/>
      <line class="cls-6" x1="285.59" y1="214.07" x2="285.59" y2="219.19"/>
      <line class="cls-6" x1="290.36" y1="214.07" x2="290.36" y2="219.19"/>
      <line class="cls-6" x1="295.12" y1="214.07" x2="295.12" y2="219.19"/>
      <line class="cls-6" x1="299.89" y1="214.07" x2="299.89" y2="219.19"/>
      <line class="cls-6" x1="304.65" y1="214.07" x2="304.65" y2="219.19"/>
      <line class="cls-6" x1="309.42" y1="214.07" x2="309.42" y2="219.19"/>
      <line class="cls-6" x1="314.19" y1="214.07" x2="314.19" y2="219.19"/>
      <line class="cls-6" x1="318.95" y1="214.07" x2="318.95" y2="219.19"/>
      <line class="cls-6" x1="323.72" y1="214.07" x2="323.72" y2="219.19"/>
      <line class="cls-6" x1="328.48" y1="214.07" x2="328.48" y2="219.19"/>
      <line class="cls-6" x1="333.25" y1="214.07" x2="333.25" y2="219.19"/>
      <line class="cls-6" x1="338.02" y1="214.07" x2="338.02" y2="219.19"/>
      <line class="cls-6" x1="342.78" y1="214.07" x2="342.78" y2="219.19"/>
    </g>
    <g>
      <line class="cls-6" x1="261.76" y1="222.39" x2="261.76" y2="227.51"/>
      <line class="cls-6" x1="266.53" y1="222.39" x2="266.53" y2="227.51"/>
      <line class="cls-6" x1="271.29" y1="222.39" x2="271.29" y2="227.51"/>
      <line class="cls-6" x1="276.06" y1="222.39" x2="276.06" y2="227.51"/>
      <line class="cls-6" x1="280.82" y1="222.39" x2="280.82" y2="227.51"/>
      <line class="cls-6" x1="285.59" y1="222.39" x2="285.59" y2="227.51"/>
      <line class="cls-6" x1="290.36" y1="222.39" x2="290.36" y2="227.51"/>
      <line class="cls-6" x1="295.12" y1="222.39" x2="295.12" y2="227.51"/>
      <line class="cls-6" x1="299.89" y1="222.39" x2="299.89" y2="227.51"/>
      <line class="cls-6" x1="304.65" y1="222.39" x2="304.65" y2="227.51"/>
      <line class="cls-6" x1="309.42" y1="222.39" x2="309.42" y2="227.51"/>
      <line class="cls-6" x1="314.19" y1="222.39" x2="314.19" y2="227.51"/>
      <line class="cls-6" x1="318.95" y1="222.39" x2="318.95" y2="227.51"/>
      <line class="cls-6" x1="323.72" y1="222.39" x2="323.72" y2="227.51"/>
      <line class="cls-6" x1="328.48" y1="222.39" x2="328.48" y2="227.51"/>
      <line class="cls-6" x1="333.25" y1="222.39" x2="333.25" y2="227.51"/>
      <line class="cls-6" x1="338.02" y1="222.39" x2="338.02" y2="227.51"/>
      <line class="cls-6" x1="342.78" y1="222.39" x2="342.78" y2="227.51"/>
    </g>
    <g>
      <line class="cls-6" x1="261.76" y1="230.71" x2="261.76" y2="235.83"/>
      <line class="cls-6" x1="266.53" y1="230.71" x2="266.53" y2="235.83"/>
      <line class="cls-6" x1="271.29" y1="230.71" x2="271.29" y2="235.83"/>
      <line class="cls-6" x1="276.06" y1="230.71" x2="276.06" y2="235.83"/>
      <line class="cls-6" x1="280.82" y1="230.71" x2="280.82" y2="235.83"/>
      <line class="cls-6" x1="285.59" y1="230.71" x2="285.59" y2="235.83"/>
      <line class="cls-6" x1="290.36" y1="230.71" x2="290.36" y2="235.83"/>
      <line class="cls-6" x1="295.12" y1="230.71" x2="295.12" y2="235.83"/>
      <line class="cls-6" x1="299.89" y1="230.71" x2="299.89" y2="235.83"/>
      <line class="cls-6" x1="304.65" y1="230.71" x2="304.65" y2="235.83"/>
      <line class="cls-6" x1="309.42" y1="230.71" x2="309.42" y2="235.83"/>
      <line class="cls-6" x1="314.19" y1="230.71" x2="314.19" y2="235.83"/>
      <line class="cls-6" x1="318.95" y1="230.71" x2="318.95" y2="235.83"/>
      <line class="cls-6" x1="323.72" y1="230.71" x2="323.72" y2="235.83"/>
      <line class="cls-6" x1="328.48" y1="230.71" x2="328.48" y2="235.83"/>
      <line class="cls-6" x1="333.25" y1="230.71" x2="333.25" y2="235.83"/>
      <line class="cls-6" x1="338.02" y1="230.71" x2="338.02" y2="235.83"/>
      <line class="cls-6" x1="342.78" y1="230.71" x2="342.78" y2="235.83"/>
    </g>
    <g>
      <line class="cls-6" x1="261.76" y1="239.03" x2="261.76" y2="244.15"/>
      <line class="cls-6" x1="266.53" y1="239.03" x2="266.53" y2="244.15"/>
      <line class="cls-6" x1="271.29" y1="239.03" x2="271.29" y2="244.15"/>
      <line class="cls-6" x1="276.06" y1="239.03" x2="276.06" y2="244.15"/>
      <line class="cls-6" x1="280.82" y1="239.03" x2="280.82" y2="244.15"/>
      <line class="cls-6" x1="285.59" y1="239.03" x2="285.59" y2="244.15"/>
      <line class="cls-6" x1="290.36" y1="239.03" x2="290.36" y2="244.15"/>
      <line class="cls-6" x1="295.12" y1="239.03" x2="295.12" y2="244.15"/>
      <line class="cls-6" x1="299.89" y1="239.03" x2="299.89" y2="244.15"/>
      <line class="cls-6" x1="304.65" y1="239.03" x2="304.65" y2="244.15"/>
      <line class="cls-6" x1="309.42" y1="239.03" x2="309.42" y2="244.15"/>
      <line class="cls-6" x1="314.19" y1="239.03" x2="314.19" y2="244.15"/>
      <line class="cls-6" x1="318.95" y1="244.15" x2="318.95" y2="239.03"/>
      <line class="cls-6" x1="323.72" y1="239.03" x2="323.72" y2="244.15"/>
      <line class="cls-6" x1="328.48" y1="239.03" x2="328.48" y2="244.15"/>
      <line class="cls-6" x1="333.25" y1="239.03" x2="333.25" y2="244.15"/>
      <line class="cls-6" x1="338.02" y1="239.03" x2="338.02" y2="244.15"/>
      <line class="cls-6" x1="342.78" y1="239.03" x2="342.78" y2="244.15"/>
    </g>
    <g>
      <line class="cls-6" x1="261.76" y1="247.35" x2="261.76" y2="252.47"/>
      <line class="cls-6" x1="266.53" y1="247.35" x2="266.53" y2="252.47"/>
      <line class="cls-6" x1="271.29" y1="247.35" x2="271.29" y2="252.47"/>
      <line class="cls-6" x1="276.06" y1="247.35" x2="276.06" y2="252.47"/>
      <line class="cls-6" x1="280.82" y1="247.35" x2="280.82" y2="252.47"/>
      <line class="cls-6" x1="285.59" y1="247.35" x2="285.59" y2="252.47"/>
      <line class="cls-6" x1="290.36" y1="247.35" x2="290.36" y2="252.47"/>
      <line class="cls-6" x1="295.12" y1="247.35" x2="295.12" y2="252.47"/>
      <line class="cls-6" x1="299.89" y1="247.35" x2="299.89" y2="252.47"/>
      <line class="cls-6" x1="304.65" y1="247.35" x2="304.65" y2="252.47"/>
      <line class="cls-6" x1="309.42" y1="247.35" x2="309.42" y2="252.47"/>
      <line class="cls-6" x1="314.19" y1="247.35" x2="314.19" y2="252.47"/>
      <line class="cls-6" x1="318.95" y1="252.47" x2="318.95" y2="247.35"/>
      <line class="cls-6" x1="323.72" y1="247.35" x2="323.72" y2="252.47"/>
      <line class="cls-6" x1="328.48" y1="247.35" x2="328.48" y2="252.47"/>
      <line class="cls-6" x1="333.25" y1="247.35" x2="333.25" y2="252.47"/>
      <line class="cls-6" x1="338.02" y1="247.35" x2="338.02" y2="252.47"/>
      <line class="cls-6" x1="342.78" y1="247.35" x2="342.78" y2="252.47"/>
    </g>
    <line class="cls-6" x1="347.55" y1="116.22" x2="347.55" y2="119.88"/>
    <line class="cls-6" x1="328.52" y1="137.07" x2="328.52" y2="144.24"/>
    <line class="cls-6" x1="276.06" y1="137.07" x2="276.06" y2="144.24"/>
    <line class="cls-6" x1="256.99" y1="116.22" x2="256.99" y2="119.88"/>
    <rect class="cls-17" x="276.06" y="140.58" width="52.47" height="3.73"/>
  </g>
  <path class="cls-14" d="M200.93,237.16" transform="translate(-7.33 -1.37)"/>
  <g>
    <g>
      <path class="cls-4" d="M187,228.66a27.48,27.48,0,0,0-51-16.59,21.42,21.42,0,0,0-6.2-2.59,21.69,21.69,0,1,0-42.15-10,27.45,27.45,0,0,0-42.27,13.77l24.75,19.86,83,24Z" transform="translate(-7.33 -1.37)"/>
      <g>
        <path class="cls-18" d="M161.93,198.84a27.47,27.47,0,0,0-26,13.27,21.55,21.55,0,0,0-6.2-2.6,22.33,22.33,0,0,0,.8-4.22,21.69,21.69,0,0,0-43-5.77,27.38,27.38,0,0,0-36.42,3.72" transform="translate(-7.33 -1.37)"/>
        <path class="cls-19" d="M60.45,209.88a15.5,15.5,0,0,0-5.23-4.2A13.39,13.39,0,0,0,49,204.33a13.53,13.53,0,0,0-6.17,1.72,15.59,15.59,0,0,0-5,4.48,11.06,11.06,0,0,1,4.14-5.8,12.52,12.52,0,0,1,7-2.39,13.28,13.28,0,0,1,3.71.45A12.41,12.41,0,0,1,56,204.33,11,11,0,0,1,60.45,209.88Z" transform="translate(-7.33 -1.37)"/>
      </g>
    </g>
    <g>
      <path class="cls-4" d="M274.42,235l95.75,4.94,37.74-15.81a30.06,30.06,0,0,0-55.29-19.47,23.84,23.84,0,0,0-6.72-3,23.73,23.73,0,1,0-45.83-12,30,30,0,0,0-46.58,13.95l-3.75.2-6,.65-3.46-1.21L233,199.61l-10.36.12-7.31,3.89-9.57-7-11.29-2.16-10.6,4.66-5.43,5.16-10.76,2.28,14.21,19.15,27.38-.53,3.58,6.38,6.46,5.08Z" transform="translate(-7.33 -1.37)"/>
      <g>
        <g>
          <path class="cls-18" d="M381.3,191.92a30,30,0,0,0-28.81,13.83,23.56,23.56,0,0,0-6.72-3,23.73,23.73,0,1,0-45.83-12,30,30,0,0,0-46.58,13.95" transform="translate(-7.33 -1.37)"/>
          <path class="cls-19" d="M259.81,209.93a16.79,16.79,0,0,0-6-4.22,14.3,14.3,0,0,0-7-1,14.63,14.63,0,0,0-6.63,2.4,16.78,16.78,0,0,0-5,5.35,12.16,12.16,0,0,1,4.09-6.6,13.62,13.62,0,0,1,7.36-3.14,14.19,14.19,0,0,1,4.06.18,13.51,13.51,0,0,1,3.78,1.39A12.14,12.14,0,0,1,259.81,209.93Z" transform="translate(-7.33 -1.37)"/>
        </g>
        <path class="cls-19" d="M403.48,206a30,30,0,0,0-9.74-9.16,29.35,29.35,0,0,0-12.56-3.91l.23-2A30.79,30.79,0,0,1,394.27,196,30.47,30.47,0,0,1,403.48,206Z" transform="translate(-7.33 -1.37)"/>
        <path class="cls-20" d="M225.8,238.52" transform="translate(-7.33 -1.37)"/>
      </g>
    </g>
    <path class="cls-21" d="M242.26,205a19.64,19.64,0,0,0-27.41-.81h0a21.72,21.72,0,0,0-36.9,1.7h0a27.25,27.25,0,0,0-16-7" transform="translate(-7.33 -1.37)"/>
  </g>
  <g>
    <rect class="cls-1" x="68.9" y="240.25" width="290.82" height="106.33"/>
    <rect class="cls-1" x="47.83" y="216.35" width="332.97" height="7.49"/>
    <polygon class="cls-12" points="359.72 240.25 68.9 240.25 52.84 223.84 375.78 223.84 359.72 240.25"/>
    <rect class="cls-14" x="82.48" y="240.25" width="260.83" height="14.27"/>
    <rect class="cls-1" x="82.48" y="254.02" width="260.83" height="22.79"/>
    <rect class="cls-12" x="125.83" y="276.8" width="58.04" height="69.78"/>
    <rect class="cls-12" x="183.87" y="276.8" width="58.04" height="69.78"/>
    <rect class="cls-12" x="241.92" y="276.8" width="58.04" height="69.78"/>
    <rect class="cls-14" x="317.26" y="276.8" width="26.05" height="69.78"/>
    <rect class="cls-14" x="82.48" y="276.8" width="26.05" height="69.78"/>
    <line class="cls-5" x1="330.29" y1="318.67" x2="330.29" y2="346.58"/>
    <line class="cls-5" x1="317.26" y1="318.67" x2="343.31" y2="318.67"/>
    <line class="cls-5" x1="317.26" y1="290.76" x2="343.31" y2="290.76"/>
    <line class="cls-5" x1="125.83" y1="290.76" x2="299.96" y2="290.76"/>
    <line class="cls-5" x1="125.83" y1="304.72" x2="299.96" y2="304.72"/>
    <line class="cls-5" x1="125.83" y1="318.67" x2="299.96" y2="318.67"/>
    <line class="cls-5" x1="125.83" y1="332.63" x2="299.96" y2="332.63"/>
    <line class="cls-5" x1="125.83" y1="297.74" x2="299.96" y2="297.74"/>
    <line class="cls-5" x1="125.83" y1="283.78" x2="299.96" y2="283.78"/>
    <line class="cls-5" x1="125.83" y1="311.69" x2="299.96" y2="311.69"/>
    <line class="cls-5" x1="125.83" y1="325.65" x2="299.96" y2="325.65"/>
    <line class="cls-5" x1="125.83" y1="339.61" x2="299.96" y2="339.61"/>
    <line class="cls-5" x1="285.45" y1="276.8" x2="285.45" y2="346.58"/>
    <line class="cls-5" x1="299.96" y1="239.86" x2="299.96" y2="254.53"/>
    <line class="cls-5" x1="241.92" y1="239.86" x2="241.92" y2="254.53"/>
    <line class="cls-5" x1="183.87" y1="239.86" x2="183.87" y2="254.53"/>
    <line class="cls-5" x1="125.83" y1="239.86" x2="125.83" y2="254.53"/>
    <line class="cls-5" x1="270.94" y1="276.8" x2="270.94" y2="346.58"/>
    <line class="cls-5" x1="256.43" y1="276.8" x2="256.43" y2="346.58"/>
    <line class="cls-5" x1="227.41" y1="276.8" x2="227.41" y2="346.58"/>
    <line class="cls-5" x1="212.89" y1="276.8" x2="212.89" y2="346.58"/>
    <line class="cls-5" x1="198.38" y1="276.8" x2="198.38" y2="346.58"/>
    <line class="cls-5" x1="169.36" y1="276.8" x2="169.36" y2="346.58"/>
    <line class="cls-5" x1="154.85" y1="276.8" x2="154.85" y2="346.58"/>
    <line class="cls-5" x1="140.34" y1="276.8" x2="140.34" y2="346.58"/>
    <line class="cls-5" x1="317.26" y1="304.72" x2="343.31" y2="304.72"/>
    <line class="cls-5" x1="95.5" y1="318.67" x2="95.5" y2="346.58"/>
    <line class="cls-5" x1="82.48" y1="318.67" x2="108.53" y2="318.67"/>
    <line class="cls-5" x1="82.48" y1="290.76" x2="108.53" y2="290.76"/>
    <line class="cls-5" x1="82.48" y1="304.72" x2="108.53" y2="304.72"/>
    <g>
      <path class="cls-7" d="M122.49,261.79a.28.28,0,0,1,.28-.28h3.31a2.83,2.83,0,0,1,3,2.68,2.74,2.74,0,0,1-1.58,2.29,2.61,2.61,0,0,1,1.87,2.36,2.92,2.92,0,0,1-3.15,2.79h-3.49a.28.28,0,0,1-.28-.28Zm3.41,4a1.24,1.24,0,0,0,1.25-1.3,1.19,1.19,0,0,0-1.25-1.23h-1.54v2.53Zm.2,4.16a1.29,1.29,0,0,0,1.31-1.31,1.41,1.41,0,0,0-1.48-1.26h-1.57v2.57Z" transform="translate(-7.33 -1.37)"/>
      <path class="cls-7" d="M138.72,261.79a.28.28,0,0,1,.27-.28h4.14a3.13,3.13,0,0,1,3.15,3.11,3.19,3.19,0,0,1-2.14,2.92l2,3.67a.27.27,0,0,1-.25.42h-1.51a.26.26,0,0,1-.24-.13l-1.92-3.83h-1.6v3.68a.29.29,0,0,1-.28.28H139a.28.28,0,0,1-.27-.28Zm4.25,4.33a1.47,1.47,0,0,0,1.43-1.47,1.44,1.44,0,0,0-1.43-1.4h-2.36v2.87Z" transform="translate(-7.33 -1.37)"/>
      <path class="cls-7" d="M160,261.37a5.2,5.2,0,1,1-5.19,5.22A5.19,5.19,0,0,1,160,261.37Zm0,8.53a3.33,3.33,0,1,0-3.31-3.31A3.33,3.33,0,0,0,160,269.9Z" transform="translate(-7.33 -1.37)"/>
      <path class="cls-7" d="M172.67,271.25l4.5-9.72a.24.24,0,0,1,.24-.16h.15a.24.24,0,0,1,.24.16l4.45,9.72a.25.25,0,0,1-.24.38h-1.26a.42.42,0,0,1-.42-.29l-.71-1.56H175.3l-.7,1.56a.45.45,0,0,1-.42.29h-1.26A.26.26,0,0,1,172.67,271.25Zm6.25-3.07L177.47,265h0L176,268.18Z" transform="translate(-7.33 -1.37)"/>
      <path class="cls-7" d="M190.86,261.79a.28.28,0,0,1,.26-.28h3.43a5.06,5.06,0,1,1,0,10.12h-3.43a.28.28,0,0,1-.26-.28Zm3.51,8.08a3.31,3.31,0,0,0,0-6.61h-1.64v6.61Z" transform="translate(-7.33 -1.37)"/>
      <path class="cls-7" d="M207.65,261.86a.25.25,0,0,1,.26-.35h1.33a.3.3,0,0,1,.26.21l1.5,5.76h.06l2.3-6a.23.23,0,0,1,.24-.16h.26a.23.23,0,0,1,.25.16l2.31,6h.06l1.47-5.76a.31.31,0,0,1,.26-.21h1.33a.25.25,0,0,1,.26.35l-2.73,9.71a.27.27,0,0,1-.26.2h-.23a.25.25,0,0,1-.25-.16l-2.58-6.54h-.07l-2.56,6.54a.24.24,0,0,1-.25.16h-.23a.28.28,0,0,1-.26-.2Z" transform="translate(-7.33 -1.37)"/>
      <path class="cls-7" d="M226.91,271.25l4.49-9.72a.27.27,0,0,1,.25-.16h.14a.24.24,0,0,1,.25.16l4.45,9.72a.26.26,0,0,1-.24.38H235a.42.42,0,0,1-.42-.29l-.71-1.56h-4.32l-.71,1.56a.44.44,0,0,1-.42.29h-1.25A.26.26,0,0,1,226.91,271.25Zm6.24-3.07L231.71,265h-.05l-1.41,3.18Z" transform="translate(-7.33 -1.37)"/>
      <path class="cls-7" d="M246.14,266.76l-3.29-4.83a.27.27,0,0,1,.23-.42h1.47a.33.33,0,0,1,.24.13L247.1,265l2.31-3.33a.31.31,0,0,1,.23-.13h1.49a.27.27,0,0,1,.23.42L248,266.75v4.6a.28.28,0,0,1-.27.28h-1.33a.28.28,0,0,1-.28-.28Z" transform="translate(-7.33 -1.37)"/>
      <path class="cls-7" d="M270.57,261.79a.27.27,0,0,1,.27-.28h3.4a3.23,3.23,0,1,1,0,6.45h-1.8v3.39a.29.29,0,0,1-.28.28h-1.33a.27.27,0,0,1-.27-.28Zm3.55,4.41a1.49,1.49,0,0,0,1.49-1.51,1.44,1.44,0,0,0-1.49-1.4h-1.67v2.91Z" transform="translate(-7.33 -1.37)"/>
      <path class="cls-7" d="M286.27,261.79a.29.29,0,0,1,.28-.28h1.34a.29.29,0,0,1,.28.28v9.56a.29.29,0,0,1-.28.28h-1.34a.29.29,0,0,1-.28-.28Z" transform="translate(-7.33 -1.37)"/>
      <path class="cls-7" d="M298,261.79a.28.28,0,0,1,.28-.28h5.88a.27.27,0,0,1,.27.28V263a.27.27,0,0,1-.27.28h-4.28v2.37h3.57a.28.28,0,0,1,.27.27v1.2a.28.28,0,0,1-.27.28h-3.57v2.53h4.28a.27.27,0,0,1,.27.27v1.18a.27.27,0,0,1-.27.28h-5.88a.28.28,0,0,1-.28-.28Z" transform="translate(-7.33 -1.37)"/>
      <path class="cls-7" d="M313.79,261.79a.28.28,0,0,1,.28-.28h4.13a3.13,3.13,0,0,1,3.15,3.11,3.19,3.19,0,0,1-2.14,2.92l2,3.67a.27.27,0,0,1-.25.42h-1.51a.23.23,0,0,1-.23-.13l-1.93-3.83h-1.6v3.68a.28.28,0,0,1-.27.28h-1.33a.28.28,0,0,1-.28-.28Zm4.25,4.33a1.46,1.46,0,0,0,1.43-1.47,1.43,1.43,0,0,0-1.43-1.4h-2.36v2.87Z" transform="translate(-7.33 -1.37)"/>
    </g>
  </g>
  <g>
    <line class="cls-22" x1="152.37" y1="61.12" x2="152.37" y2="41.55"/>
    <line class="cls-22" x1="165.24" y1="62.25" x2="167.87" y2="47.37"/>
    <line class="cls-22" x1="79.34" y1="148.09" x2="42.39" y2="154.58"/>
    <line class="cls-22" x1="78.23" y1="135.22" x2="59.33" y2="135.21"/>
    <line class="cls-22" x1="79.36" y1="122.34" x2="42.42" y2="115.8"/>
    <line class="cls-22" x1="82.71" y1="109.86" x2="64.96" y2="103.39"/>
    <line class="cls-22" x1="88.19" y1="98.14" x2="55.71" y2="79.36"/>
    <line class="cls-22" x1="95.61" y1="87.57" x2="81.14" y2="75.41"/>
    <line class="cls-22" x1="104.76" y1="78.43" x2="85.3" y2="55.2"/>
    <line class="cls-22" x1="115.35" y1="71.03" x2="105.91" y2="54.65"/>
    <line class="cls-22" x1="127.08" y1="65.57" x2="119.01" y2="43.33"/>
    <line class="cls-22" x1="139.56" y1="62.24" x2="137.09" y2="48.16"/>
  </g>
  <line class="cls-6" x1="372.71" y1="346.58" x2="52.84" y2="346.58"/>
</svg>
